<?xml version="1.0" standalone="no"?>
<!DOCTYPE svg PUBLIC "-//W3C//DTD SVG 20010904//EN"
 "http://www.w3.org/TR/2001/REC-SVG-20010904/DTD/svg10.dtd">
<svg version="1.0" xmlns="http://www.w3.org/2000/svg"
 width="700.000000pt" height="700.000000pt" viewBox="0 0 700.000000 700.000000"
 preserveAspectRatio="xMidYMid meet">
<metadata>
Created by potrace 1.14, written by Peter Selinger 2001-2017
</metadata>
<g transform="translate(0.000000,700.000000) scale(0.100000,-0.100000)"
fill="#000000" stroke="none">
<path d="M3145 6863 c-521 -46 -1047 -219 -1490 -488 -566 -344 -1049 -879
-1323 -1465 -246 -527 -348 -1053 -321 -1655 53 -1176 722 -2244 1773 -2828
378 -210 823 -352 1261 -402 166 -19 588 -22 745 -5 780 83 1478 410 2034 950
562 547 897 1201 1016 1985 28 177 38 592 21 782 -76 834 -437 1591 -1031
2167 -560 542 -1259 869 -2035 951 -127 13 -533 18 -650 8z m-440 -2203 c94
-24 148 -54 202 -113 50 -54 64 -81 92 -171 24 -77 26 -130 10 -223 -13 -73
-34 -105 -70 -105 -31 0 -96 29 -102 45 -3 7 4 46 15 87 30 115 27 198 -8 267
-16 31 -46 70 -67 87 -36 29 -44 31 -121 31 -72 0 -89 -4 -151 -34 -57 -28
-93 -57 -190 -155 -66 -67 -146 -157 -178 -201 -31 -44 -79 -110 -106 -146
-26 -36 -53 -81 -59 -98 -6 -18 -20 -44 -30 -59 -32 -45 -69 -131 -109 -252
-36 -111 -37 -120 -37 -255 0 -121 4 -148 23 -198 30 -76 82 -129 167 -169 67
-32 73 -33 199 -33 208 0 284 32 475 200 137 120 285 293 267 311 -3 3 -49 10
-103 15 -115 12 -296 -1 -417 -30 -64 -15 -79 -16 -88 -5 -17 21 -2 62 30 78
72 38 440 73 577 56 91 -12 148 -36 152 -66 5 -32 -104 -187 -207 -293 -50
-52 -96 -107 -103 -123 -7 -16 -36 -44 -65 -63 -28 -19 -63 -50 -78 -69 -27
-36 -72 -58 -140 -71 -22 -3 -47 -13 -55 -20 -21 -18 -119 -35 -207 -35 -81 0
-195 34 -313 93 -88 43 -180 138 -227 234 -37 76 -41 103 -34 267 4 112 96
403 163 516 204 343 410 570 612 672 100 51 166 57 281 28z m2479 -71 c15 -11
37 -40 49 -62 21 -39 22 -54 22 -237 -1 -218 -11 -291 -72 -489 -19 -64 -42
-156 -50 -206 -8 -49 -19 -95 -24 -101 -5 -7 -7 -30 -3 -52 5 -35 -1 -55 -55
-167 -64 -132 -128 -212 -199 -249 -17 -9 -60 -38 -96 -65 -77 -58 -97 -64
-198 -52 -98 11 -148 36 -227 113 -70 70 -95 113 -137 238 -28 83 -28 91 -29
297 0 242 4 236 -83 113 -25 -36 -71 -96 -102 -135 -32 -38 -88 -117 -125
-175 -110 -169 -232 -327 -280 -360 -25 -17 -57 -30 -74 -30 -40 0 -98 38
-110 74 -14 38 -14 266 0 342 17 95 257 924 277 958 36 62 132 34 132 -39 0
-30 -74 -298 -170 -615 -91 -299 -141 -540 -113 -540 34 0 311 318 628 722 75
95 146 181 157 191 23 20 98 23 116 5 20 -20 13 -63 -23 -140 -61 -128 -87
-250 -92 -434 -6 -198 11 -283 82 -405 56 -95 74 -104 170 -84 145 31 230 93
327 237 68 102 91 153 129 288 84 300 117 497 126 745 5 153 4 164 -21 240
-14 44 -26 83 -26 88 0 16 69 6 94 -14z"/>
</g>
</svg>
