<?xml version="1.0" standalone="no"?>
<!DOCTYPE svg PUBLIC "-//W3C//DTD SVG 20010904//EN"
 "http://www.w3.org/TR/2001/REC-SVG-20010904/DTD/svg10.dtd">
<svg version="1.0" xmlns="http://www.w3.org/2000/svg"
 width="700.000000pt" height="700.000000pt" viewBox="0 0 700.000000 700.000000"
 preserveAspectRatio="xMidYMid meet">
<metadata>
Created by potrace 1.14, written by Peter Selinger 2001-2017
</metadata>
<g transform="translate(0.000000,700.000000) scale(0.100000,-0.100000)"
fill="#000000" stroke="none">
<path d="M3110 6859 c-697 -65 -1385 -360 -1920 -825 -654 -567 -1066 -1349
-1165 -2209 -20 -176 -20 -596 0 -775 182 -1588 1436 -2843 3025 -3025 179
-20 599 -20 775 0 793 91 1514 445 2070 1016 268 276 454 539 625 884 169 342
271 680 325 1070 22 159 31 566 16 732 -59 657 -286 1251 -675 1770 -587 782
-1466 1273 -2441 1363 -130 12 -500 11 -635 -1z m-415 -2194 c150 -39 232
-106 287 -234 30 -70 33 -84 33 -181 -1 -117 -15 -173 -51 -196 -21 -15 -27
-14 -69 2 -64 24 -69 39 -45 126 22 81 26 178 8 229 -52 154 -193 200 -356
118 -113 -58 -304 -257 -439 -459 -28 -42 -58 -81 -66 -88 -9 -8 -19 -26 -22
-42 -3 -15 -18 -47 -34 -71 -55 -88 -93 -190 -137 -369 -27 -108 -12 -276 32
-367 29 -59 76 -101 161 -141 55 -25 66 -27 193 -26 158 1 221 18 329 88 139
90 434 396 408 422 -11 12 -216 20 -318 13 -92 -7 -197 -24 -266 -45 -16 -4
-23 -1 -28 15 -19 61 21 84 187 110 313 49 565 29 576 -45 4 -29 -107 -194
-181 -267 -73 -73 -137 -150 -137 -165 0 -6 -25 -28 -56 -48 -31 -20 -65 -50
-77 -67 -27 -36 -77 -62 -137 -72 -25 -4 -52 -13 -61 -21 -22 -19 -119 -36
-209 -36 -64 -1 -91 5 -189 42 -63 24 -140 61 -173 83 -71 48 -141 130 -182
217 -29 60 -31 73 -30 165 2 173 36 318 119 505 139 313 430 657 651 769 103
52 178 62 279 36z m2493 -80 c16 -13 40 -48 52 -77 21 -48 23 -68 22 -198 -1
-181 -22 -324 -73 -493 -22 -73 -44 -161 -50 -197 -6 -36 -15 -83 -22 -105 -6
-22 -10 -58 -8 -80 2 -33 -10 -65 -63 -172 -57 -113 -75 -139 -128 -187 -34
-31 -66 -56 -72 -56 -6 0 -31 -16 -56 -36 -25 -20 -64 -47 -88 -61 -42 -25
-45 -25 -138 -15 -110 13 -147 31 -235 115 -65 61 -108 139 -141 254 -21 70
-23 100 -23 285 0 233 4 227 -73 119 -25 -37 -73 -100 -107 -141 -34 -41 -92
-122 -129 -180 -214 -329 -323 -435 -396 -382 -14 10 -33 21 -43 25 -30 11
-39 57 -39 197 0 161 1 167 147 680 121 424 132 459 153 483 19 21 60 22 90 1
42 -29 43 -44 11 -165 -38 -141 -187 -648 -194 -660 -3 -4 -21 -77 -40 -160
-34 -147 -43 -229 -27 -229 35 1 384 409 755 884 33 43 88 62 126 43 40 -19
39 -62 -3 -149 -19 -41 -48 -123 -63 -183 -25 -100 -28 -126 -28 -290 1 -205
10 -246 87 -375 47 -79 60 -86 141 -77 165 17 307 136 407 342 101 205 200
695 200 985 0 68 -6 115 -21 165 -36 121 -36 115 4 115 23 0 46 -9 65 -25z"/>
</g>
</svg>
