<svg xmlns="http://www.w3.org/2000/svg" xmlns:xlink="http://www.w3.org/1999/xlink" width="240" zoomAndPan="magnify" viewBox="0 0 180 72" height="96" preserveAspectRatio="xMidYMid meet" version="1.0"><defs><g/></defs><g fill="#d883b7" fill-opacity="1"><g transform="translate(0.494388, 38.515416)"><g><path d="M 10.46875 7.4375 C 9.75 7.1875 9 6.910156 8.21875 6.609375 C 7.445312 6.316406 6.734375 5.960938 6.078125 5.546875 C 5.953125 5.421875 5.804688 5.304688 5.640625 5.203125 C 5.484375 5.109375 5.335938 4.992188 5.203125 4.859375 C 5.015625 4.640625 4.695312 4.289062 4.25 3.8125 C 3.8125 3.34375 3.40625 2.703125 3.03125 1.890625 C 2.664062 1.085938 2.46875 0.0976562 2.4375 -1.078125 L 2.765625 -2 C 2.640625 -2.257812 2.59375 -2.515625 2.625 -2.765625 C 2.65625 -3.023438 2.722656 -3.253906 2.828125 -3.453125 C 2.953125 -4.492188 3.175781 -5.507812 3.5 -6.5 C 3.820312 -7.488281 4.210938 -8.4375 4.671875 -9.34375 C 4.835938 -9.832031 5.046875 -10.3125 5.296875 -10.78125 C 5.554688 -11.25 5.832031 -11.707031 6.125 -12.15625 C 6.414062 -12.613281 6.71875 -13.101562 7.03125 -13.625 C 7.34375 -14.144531 7.675781 -14.628906 8.03125 -15.078125 C 8.84375 -16.148438 9.648438 -17.125 10.453125 -18 C 11.265625 -18.875 12.207031 -19.75 13.28125 -20.625 C 14.21875 -21.4375 15.269531 -22.050781 16.4375 -22.46875 C 17.613281 -22.894531 18.863281 -22.929688 20.1875 -22.578125 C 21.320312 -22.316406 22.253906 -21.894531 22.984375 -21.3125 C 23.710938 -20.726562 24.273438 -20 24.671875 -19.125 C 25.117188 -18.082031 25.375 -17.203125 25.4375 -16.484375 C 25.507812 -15.773438 25.460938 -14.984375 25.296875 -14.109375 C 25.109375 -12.742188 24.640625 -12.144531 23.890625 -12.3125 C 23.660156 -12.375 23.34375 -12.492188 22.9375 -12.671875 C 22.53125 -12.847656 22.328125 -13.097656 22.328125 -13.421875 C 22.691406 -14.429688 22.925781 -15.445312 23.03125 -16.46875 C 23.144531 -17.488281 22.894531 -18.503906 22.28125 -19.515625 C 22.125 -19.773438 21.828125 -20.097656 21.390625 -20.484375 C 20.953125 -20.867188 20.257812 -21.0625 19.3125 -21.0625 C 18.40625 -21.0625 17.515625 -20.800781 16.640625 -20.28125 C 15.765625 -19.769531 14.925781 -19.125 14.125 -18.34375 C 13.332031 -17.5625 12.617188 -16.78125 11.984375 -16 C 11.359375 -15.226562 10.851562 -14.597656 10.46875 -14.109375 C 10.101562 -13.617188 9.773438 -13.125 9.484375 -12.625 C 9.191406 -12.125 8.800781 -11.644531 8.3125 -11.1875 C 8.28125 -11.15625 8.253906 -11.113281 8.234375 -11.0625 C 8.222656 -11.019531 8.1875 -10.96875 8.125 -10.90625 C 8.0625 -10.351562 7.84375 -9.820312 7.46875 -9.3125 C 7.09375 -8.8125 6.84375 -8.316406 6.71875 -7.828125 C 6.6875 -7.703125 6.597656 -7.585938 6.453125 -7.484375 C 6.304688 -7.390625 6.25 -7.265625 6.28125 -7.109375 C 6.113281 -6.296875 5.875 -5.46875 5.5625 -4.625 C 5.257812 -3.78125 5.078125 -2.9375 5.015625 -2.09375 C 4.984375 -1.570312 4.984375 -1.0625 5.015625 -0.5625 C 5.046875 -0.0625 5.078125 0.429688 5.109375 0.921875 C 5.171875 1.410156 5.304688 1.929688 5.515625 2.484375 C 5.734375 3.035156 6.019531 3.503906 6.375 3.890625 C 6.832031 4.378906 7.460938 4.804688 8.265625 5.171875 C 9.078125 5.546875 9.859375 5.753906 10.609375 5.796875 C 12.128906 5.828125 13.410156 5.71875 14.453125 5.46875 C 15.492188 5.226562 16.523438 4.734375 17.546875 3.984375 C 18.566406 3.242188 19.773438 2.175781 21.171875 0.78125 C 21.722656 0.226562 22.269531 -0.363281 22.8125 -1 C 23.363281 -1.632812 23.753906 -2.222656 23.984375 -2.765625 C 23.890625 -2.867188 23.515625 -2.957031 22.859375 -3.03125 C 22.210938 -3.113281 21.394531 -3.15625 20.40625 -3.15625 C 19.414062 -3.15625 18.351562 -3.082031 17.21875 -2.9375 C 16.082031 -2.789062 15 -2.554688 13.96875 -2.234375 C 13.675781 -2.492188 13.601562 -2.832031 13.75 -3.25 C 13.894531 -3.675781 14.421875 -3.972656 15.328125 -4.140625 C 16.234375 -4.296875 16.96875 -4.414062 17.53125 -4.5 C 18.101562 -4.582031 18.710938 -4.644531 19.359375 -4.6875 C 20.015625 -4.738281 20.859375 -4.78125 21.890625 -4.8125 C 22.609375 -4.84375 23.363281 -4.8125 24.15625 -4.71875 C 24.945312 -4.625 25.578125 -4.453125 26.046875 -4.203125 C 26.523438 -3.960938 26.632812 -3.613281 26.375 -3.15625 C 26.113281 -2.707031 25.785156 -2.191406 25.390625 -1.609375 C 25.003906 -1.023438 24.550781 -0.425781 24.03125 0.1875 C 23.8125 0.445312 23.5625 0.707031 23.28125 0.96875 C 23.007812 1.226562 22.757812 1.457031 22.53125 1.65625 L 21.21875 3.265625 C 21.1875 3.390625 21.171875 3.492188 21.171875 3.578125 C 21.171875 3.660156 21.148438 3.71875 21.109375 3.75 C 20.953125 3.875 20.765625 3.992188 20.546875 4.109375 C 20.335938 4.222656 20.15625 4.328125 20 4.421875 C 19.769531 4.648438 19.539062 4.851562 19.3125 5.03125 C 19.082031 5.207031 18.90625 5.410156 18.78125 5.640625 C 18.613281 5.898438 18.359375 6.109375 18.015625 6.265625 C 17.679688 6.429688 17.335938 6.550781 16.984375 6.625 C 16.660156 6.65625 16.375 6.691406 16.125 6.734375 C 15.882812 6.785156 15.679688 6.894531 15.515625 7.0625 C 15.484375 7.09375 15.453125 7.128906 15.421875 7.171875 C 15.390625 7.222656 15.375 7.25 15.375 7.25 C 14.59375 7.414062 13.769531 7.546875 12.90625 7.640625 C 12.050781 7.734375 11.238281 7.664062 10.46875 7.4375 Z M 10.46875 7.4375 "/></g></g></g><g fill="#d883b7" fill-opacity="1"><g transform="translate(29.443578, 38.515416)"><g><path d="M 12.796875 -4.765625 L 12.0625 -4.140625 C 12.03125 -4.109375 12 -4.050781 11.96875 -3.96875 C 11.9375 -3.882812 11.851562 -3.8125 11.71875 -3.75 L 11.578125 -3.546875 C 11.347656 -3.453125 11.300781 -3.34375 11.4375 -3.21875 C 11.332031 -3.144531 11.238281 -3.066406 11.15625 -2.984375 C 11.082031 -2.910156 11.03125 -2.789062 11 -2.625 L 11 -2.578125 C 10.96875 -2.515625 10.914062 -2.441406 10.84375 -2.359375 C 10.78125 -2.273438 10.734375 -2.21875 10.703125 -2.1875 C 10.546875 -2.03125 10.335938 -1.851562 10.078125 -1.65625 L 9.140625 -0.921875 C 8.953125 -0.828125 8.773438 -0.726562 8.609375 -0.625 C 8.453125 -0.53125 8.289062 -0.421875 8.125 -0.296875 C 7.894531 -0.160156 7.679688 -0.0195312 7.484375 0.125 C 7.296875 0.269531 7.070312 0.390625 6.8125 0.484375 C 6.6875 0.546875 6.53125 0.582031 6.34375 0.59375 C 6.164062 0.613281 6 0.644531 5.84375 0.6875 C 5.707031 0.6875 5.5625 0.734375 5.40625 0.828125 C 5.300781 0.859375 5.179688 0.890625 5.046875 0.921875 C 4.921875 0.953125 4.796875 0.984375 4.671875 1.015625 C 4.472656 1.054688 4.285156 1.097656 4.109375 1.140625 C 3.929688 1.191406 3.742188 1.203125 3.546875 1.171875 C 2.992188 1.109375 2.507812 1.007812 2.09375 0.875 C 1.863281 0.8125 1.679688 0.742188 1.546875 0.671875 C 1.421875 0.609375 1.226562 0.484375 0.96875 0.296875 C 0.9375 0.222656 0.894531 0.175781 0.84375 0.15625 C 0.800781 0.144531 0.765625 0.125 0.734375 0.09375 C 0.566406 -0.03125 0.425781 -0.164062 0.3125 -0.3125 C 0.195312 -0.457031 0.0625 -0.644531 -0.09375 -0.875 C -0.125 -0.9375 -0.144531 -0.992188 -0.15625 -1.046875 C -0.175781 -1.097656 -0.222656 -1.234375 -0.296875 -1.453125 C -0.421875 -1.742188 -0.484375 -1.988281 -0.484375 -2.1875 C -0.484375 -2.382812 -0.484375 -2.5625 -0.484375 -2.71875 C -0.421875 -3.695312 -0.160156 -4.640625 0.296875 -5.546875 C 0.390625 -5.710938 0.484375 -5.867188 0.578125 -6.015625 C 0.679688 -6.160156 0.796875 -6.296875 0.921875 -6.421875 C 1.148438 -6.679688 1.367188 -6.941406 1.578125 -7.203125 C 1.785156 -7.460938 2.003906 -7.707031 2.234375 -7.9375 C 2.722656 -8.414062 3.257812 -8.671875 3.84375 -8.703125 C 3.90625 -8.703125 3.976562 -8.710938 4.0625 -8.734375 C 4.144531 -8.753906 4.234375 -8.78125 4.328125 -8.8125 C 4.585938 -8.90625 4.820312 -8.894531 5.03125 -8.78125 C 5.25 -8.664062 5.4375 -8.5625 5.59375 -8.46875 C 5.820312 -8.363281 6.03125 -8.25 6.21875 -8.125 C 6.414062 -8 6.597656 -7.851562 6.765625 -7.6875 C 6.960938 -7.5625 7.109375 -7.332031 7.203125 -7 C 7.296875 -6.675781 7.3125 -6.421875 7.25 -6.234375 C 7.15625 -5.972656 7.023438 -5.757812 6.859375 -5.59375 C 6.628906 -5.363281 6.410156 -5.132812 6.203125 -4.90625 C 5.992188 -4.6875 5.773438 -4.460938 5.546875 -4.234375 C 5.484375 -4.171875 5.394531 -4.113281 5.28125 -4.0625 C 5.164062 -4.007812 5.09375 -3.953125 5.0625 -3.890625 C 5.03125 -3.734375 4.945312 -3.628906 4.8125 -3.578125 C 4.6875 -3.523438 4.570312 -3.46875 4.46875 -3.40625 L 3.796875 -2.921875 C 3.765625 -2.890625 3.75 -2.847656 3.75 -2.796875 C 3.75 -2.742188 3.734375 -2.703125 3.703125 -2.671875 C 3.535156 -2.578125 3.363281 -2.488281 3.1875 -2.40625 C 3.007812 -2.320312 2.835938 -2.234375 2.671875 -2.140625 C 2.609375 -2.109375 2.550781 -2.066406 2.5 -2.015625 C 2.457031 -1.972656 2.398438 -1.914062 2.328125 -1.84375 C 2.140625 -1.75 1.988281 -1.675781 1.875 -1.625 C 1.757812 -1.582031 1.617188 -1.507812 1.453125 -1.40625 C 1.554688 -1.113281 1.644531 -0.921875 1.71875 -0.828125 C 1.800781 -0.734375 1.941406 -0.648438 2.140625 -0.578125 C 2.460938 -0.609375 2.773438 -0.625 3.078125 -0.625 C 3.390625 -0.625 3.707031 -0.644531 4.03125 -0.6875 C 4.257812 -0.71875 4.476562 -0.769531 4.6875 -0.84375 C 4.90625 -0.925781 5.128906 -1.003906 5.359375 -1.078125 C 5.515625 -1.140625 5.6875 -1.21875 5.875 -1.3125 C 6.070312 -1.40625 6.269531 -1.488281 6.46875 -1.5625 C 6.601562 -1.625 6.722656 -1.660156 6.828125 -1.671875 C 6.941406 -1.691406 7.066406 -1.734375 7.203125 -1.796875 L 8.8125 -2.71875 L 8.953125 -2.828125 C 9.179688 -2.984375 9.488281 -3.175781 9.875 -3.40625 C 10.269531 -3.632812 10.578125 -3.8125 10.796875 -3.9375 C 10.898438 -4 11.015625 -4.0625 11.140625 -4.125 C 11.273438 -4.195312 11.359375 -4.25 11.390625 -4.28125 L 13.046875 -5.5 L 13.140625 -5.15625 C 13.140625 -5.15625 13.144531 -5.15625 13.15625 -5.15625 C 13.175781 -5.15625 13.1875 -5.140625 13.1875 -5.109375 C 13.125 -5.078125 13.054688 -5.023438 12.984375 -4.953125 C 12.921875 -4.890625 12.859375 -4.828125 12.796875 -4.765625 Z M 1.75 -4.375 C 1.6875 -4.25 1.628906 -4.097656 1.578125 -3.921875 C 1.535156 -3.742188 1.476562 -3.554688 1.40625 -3.359375 C 1.601562 -3.484375 1.765625 -3.585938 1.890625 -3.671875 C 2.023438 -3.753906 2.140625 -3.828125 2.234375 -3.890625 L 3.546875 -4.96875 L 4.859375 -6.125 C 5.023438 -6.257812 5.15625 -6.398438 5.25 -6.546875 C 5.351562 -6.691406 5.453125 -6.84375 5.546875 -7 C 5.609375 -7.132812 5.597656 -7.28125 5.515625 -7.4375 C 5.441406 -7.601562 5.351562 -7.65625 5.25 -7.59375 C 5.03125 -7.488281 4.8125 -7.421875 4.59375 -7.390625 C 4.382812 -7.359375 4.179688 -7.265625 3.984375 -7.109375 C 3.765625 -6.941406 3.546875 -6.785156 3.328125 -6.640625 C 3.117188 -6.492188 2.929688 -6.304688 2.765625 -6.078125 C 2.410156 -5.597656 2.070312 -5.03125 1.75 -4.375 Z M 1.75 -4.375 "/></g></g></g><g fill="#d883b7" fill-opacity="1"><g transform="translate(41.704405, 38.515416)"><g><path d="M 13.8125 -6.671875 L 13.859375 -6.625 L 13.859375 -6.171875 C 13.566406 -5.878906 13.320312 -5.648438 13.125 -5.484375 C 12.9375 -5.328125 12.765625 -5.203125 12.609375 -5.109375 C 12.503906 -5.046875 12.4375 -4.972656 12.40625 -4.890625 C 12.375 -4.804688 12.3125 -4.765625 12.21875 -4.765625 L 11.875 -4.765625 C 11.8125 -4.765625 11.78125 -4.75 11.78125 -4.71875 C 11.738281 -4.59375 11.644531 -4.507812 11.5 -4.46875 C 11.351562 -4.4375 11.21875 -4.390625 11.09375 -4.328125 L 10.40625 -4.03125 C 10.144531 -3.90625 9.910156 -3.828125 9.703125 -3.796875 C 9.492188 -3.765625 9.257812 -3.734375 9 -3.703125 C 8.9375 -3.703125 8.878906 -3.691406 8.828125 -3.671875 C 8.785156 -3.660156 8.726562 -3.65625 8.65625 -3.65625 C 8.46875 -3.65625 8.375 -3.554688 8.375 -3.359375 C 8.332031 -3.296875 8.296875 -3.222656 8.265625 -3.140625 C 8.234375 -3.054688 8.21875 -2.96875 8.21875 -2.875 L 8.3125 -2.828125 C 8.3125 -2.828125 8.3125 -2.816406 8.3125 -2.796875 C 8.3125 -2.773438 8.3125 -2.765625 8.3125 -2.765625 C 8.1875 -2.640625 8.109375 -2.507812 8.078125 -2.375 C 8.046875 -2.25 7.945312 -2.140625 7.78125 -2.046875 C 7.75 -2.015625 7.738281 -1.960938 7.75 -1.890625 C 7.769531 -1.828125 7.765625 -1.78125 7.734375 -1.75 C 7.535156 -1.519531 7.363281 -1.289062 7.21875 -1.0625 C 7.070312 -0.84375 6.890625 -0.601562 6.671875 -0.34375 L 6.5625 -0.25 C 6.4375 -0.113281 6.304688 0.0078125 6.171875 0.125 C 6.046875 0.238281 5.9375 0.359375 5.84375 0.484375 C 5.644531 0.617188 5.460938 0.6875 5.296875 0.6875 C 5.109375 0.8125 4.921875 0.90625 4.734375 0.96875 C 4.554688 1.039062 4.359375 1.109375 4.140625 1.171875 C 3.910156 1.234375 3.75 1.234375 3.65625 1.171875 C 3.425781 1.140625 3.171875 1.113281 2.890625 1.09375 C 2.617188 1.082031 2.382812 1.023438 2.1875 0.921875 C 1.894531 0.859375 1.644531 0.753906 1.4375 0.609375 C 1.226562 0.460938 1.039062 0.273438 0.875 0.046875 C 0.613281 -0.210938 0.453125 -0.550781 0.390625 -0.96875 C 0.328125 -1.394531 0.28125 -1.800781 0.25 -2.1875 C 0.207031 -2.644531 0.269531 -3.109375 0.4375 -3.578125 C 0.601562 -4.046875 0.75 -4.492188 0.875 -4.921875 C 0.9375 -5.078125 0.984375 -5.269531 1.015625 -5.5 C 1.054688 -5.726562 1.09375 -5.84375 1.125 -5.84375 C 1.28125 -6.101562 1.421875 -6.359375 1.546875 -6.609375 C 1.679688 -6.867188 1.816406 -7.066406 1.953125 -7.203125 C 2.171875 -7.429688 2.398438 -7.640625 2.640625 -7.828125 C 2.890625 -8.023438 3.160156 -8.1875 3.453125 -8.3125 C 3.679688 -8.414062 3.90625 -8.46875 4.125 -8.46875 C 4.351562 -8.46875 4.566406 -8.46875 4.765625 -8.46875 C 4.898438 -8.46875 5 -8.414062 5.0625 -8.3125 C 5.125 -8.21875 5.203125 -8.125 5.296875 -8.03125 C 5.335938 -8 5.378906 -7.984375 5.421875 -7.984375 C 5.472656 -7.984375 5.515625 -7.96875 5.546875 -7.9375 C 5.804688 -7.832031 6.085938 -7.753906 6.390625 -7.703125 C 6.703125 -7.660156 7.003906 -7.507812 7.296875 -7.25 C 7.328125 -7.21875 7.382812 -7.203125 7.46875 -7.203125 C 7.550781 -7.203125 7.609375 -7.1875 7.640625 -7.15625 C 7.898438 -6.957031 8.144531 -6.613281 8.375 -6.125 L 8.703125 -5.0625 C 8.703125 -4.96875 8.703125 -4.921875 8.703125 -4.921875 C 9.160156 -5.078125 9.597656 -5.226562 10.015625 -5.375 C 10.441406 -5.519531 10.863281 -5.660156 11.28125 -5.796875 C 11.644531 -5.953125 12.003906 -6.078125 12.359375 -6.171875 C 12.710938 -6.273438 13.195312 -6.441406 13.8125 -6.671875 Z M 6.90625 -4.71875 C 6.875 -4.851562 6.863281 -4.992188 6.875 -5.140625 C 6.894531 -5.285156 6.90625 -5.421875 6.90625 -5.546875 C 6.875 -5.742188 6.832031 -5.953125 6.78125 -6.171875 C 6.738281 -6.398438 6.648438 -6.613281 6.515625 -6.8125 C 6.453125 -6.9375 6.335938 -6.96875 6.171875 -6.90625 C 5.878906 -6.90625 5.65625 -6.828125 5.5 -6.671875 C 5.363281 -6.535156 5.222656 -6.410156 5.078125 -6.296875 C 4.929688 -6.179688 4.84375 -6.015625 4.8125 -5.796875 C 4.8125 -5.503906 4.878906 -5.242188 5.015625 -5.015625 C 5.078125 -4.816406 5.253906 -4.71875 5.546875 -4.71875 Z M 6.46875 -3.265625 C 6.601562 -3.421875 6.554688 -3.550781 6.328125 -3.65625 C 6.003906 -3.65625 5.710938 -3.703125 5.453125 -3.796875 C 4.929688 -3.890625 4.457031 -4.097656 4.03125 -4.421875 C 3.675781 -4.617188 3.453125 -4.863281 3.359375 -5.15625 C 3.222656 -5.320312 3.140625 -5.5 3.109375 -5.6875 C 2.984375 -5.394531 2.863281 -5.144531 2.75 -4.9375 C 2.632812 -4.726562 2.515625 -4.492188 2.390625 -4.234375 C 2.316406 -4.140625 2.253906 -4.023438 2.203125 -3.890625 C 2.160156 -3.765625 2.125 -3.648438 2.09375 -3.546875 C 2.0625 -3.421875 2.035156 -3.289062 2.015625 -3.15625 C 2.003906 -3.03125 1.984375 -2.898438 1.953125 -2.765625 C 1.847656 -2.546875 1.785156 -2.296875 1.765625 -2.015625 C 1.753906 -1.742188 1.75 -1.476562 1.75 -1.21875 C 1.75 -1.050781 1.765625 -0.898438 1.796875 -0.765625 C 1.828125 -0.640625 1.859375 -0.5 1.890625 -0.34375 C 1.929688 -0.144531 2.070312 -0.0078125 2.3125 0.0625 C 2.550781 0.144531 2.832031 0.125 3.15625 0 C 3.519531 -0.09375 3.867188 -0.253906 4.203125 -0.484375 C 4.546875 -0.710938 4.847656 -0.957031 5.109375 -1.21875 C 5.429688 -1.539062 5.707031 -1.878906 5.9375 -2.234375 C 6.03125 -2.398438 6.109375 -2.570312 6.171875 -2.75 C 6.242188 -2.925781 6.34375 -3.097656 6.46875 -3.265625 Z M 6.46875 -3.265625 "/></g></g></g><g fill="#d883b7" fill-opacity="1"><g transform="translate(53.138117, 38.515416)"><g><path d="M 1.078125 0.875 C 0.941406 0.8125 0.832031 0.726562 0.75 0.625 C 0.664062 0.53125 0.53125 0.4375 0.34375 0.34375 C 0.238281 0.0820312 0.144531 -0.164062 0.0625 -0.40625 C -0.0078125 -0.65625 -0.015625 -0.941406 0.046875 -1.265625 L 0.4375 -3.265625 C 0.5 -3.523438 0.5625 -3.789062 0.625 -4.0625 C 0.695312 -4.332031 0.734375 -4.597656 0.734375 -4.859375 C 0.796875 -5.222656 0.875 -5.566406 0.96875 -5.890625 C 1.070312 -6.210938 1.140625 -6.535156 1.171875 -6.859375 C 1.234375 -7.210938 1.296875 -7.550781 1.359375 -7.875 C 1.421875 -8.207031 1.472656 -8.535156 1.515625 -8.859375 C 1.546875 -8.921875 1.5625 -8.984375 1.5625 -9.046875 C 1.5625 -9.109375 1.578125 -9.160156 1.609375 -9.203125 C 1.703125 -9.359375 1.847656 -9.4375 2.046875 -9.4375 C 2.566406 -9.632812 2.921875 -9.375 3.109375 -8.65625 C 3.273438 -8.269531 3.328125 -7.847656 3.265625 -7.390625 C 3.265625 -7.328125 3.242188 -7.253906 3.203125 -7.171875 C 3.171875 -7.097656 3.15625 -6.992188 3.15625 -6.859375 C 3.226562 -6.953125 3.300781 -7.039062 3.375 -7.125 C 3.457031 -7.207031 3.515625 -7.28125 3.546875 -7.34375 C 3.679688 -7.570312 3.820312 -7.757812 3.96875 -7.90625 C 4.113281 -8.050781 4.265625 -8.207031 4.421875 -8.375 C 4.648438 -8.695312 4.894531 -8.960938 5.15625 -9.171875 C 5.414062 -9.378906 5.675781 -9.566406 5.9375 -9.734375 C 6.550781 -10.222656 7.179688 -10.269531 7.828125 -9.875 C 7.960938 -9.78125 8.085938 -9.679688 8.203125 -9.578125 C 8.316406 -9.484375 8.421875 -9.390625 8.515625 -9.296875 C 8.609375 -9.191406 8.671875 -9.140625 8.703125 -9.140625 C 8.867188 -9.046875 9 -8.851562 9.09375 -8.5625 L 9.046875 -8.3125 C 9.046875 -8.3125 8.972656 -8.300781 8.828125 -8.28125 C 8.679688 -8.269531 8.445312 -8.332031 8.125 -8.46875 C 8 -8.46875 7.863281 -8.46875 7.71875 -8.46875 C 7.570312 -8.46875 7.414062 -8.398438 7.25 -8.265625 C 7.15625 -8.140625 7.039062 -8.039062 6.90625 -7.96875 C 6.78125 -7.90625 6.632812 -7.828125 6.46875 -7.734375 C 6.40625 -7.703125 6.347656 -7.644531 6.296875 -7.5625 C 6.253906 -7.476562 6.195312 -7.40625 6.125 -7.34375 C 6 -7.21875 5.863281 -7.097656 5.71875 -6.984375 C 5.570312 -6.867188 5.429688 -6.75 5.296875 -6.625 L 4.375 -5.40625 C 4.21875 -5.175781 4.039062 -4.929688 3.84375 -4.671875 C 3.644531 -4.410156 3.46875 -4.132812 3.3125 -3.84375 C 3.175781 -3.519531 3.019531 -3.210938 2.84375 -2.921875 C 2.664062 -2.628906 2.492188 -2.335938 2.328125 -2.046875 C 2.234375 -1.816406 2.160156 -1.585938 2.109375 -1.359375 C 2.066406 -1.128906 2.015625 -0.90625 1.953125 -0.6875 C 1.910156 -0.519531 1.878906 -0.347656 1.859375 -0.171875 C 1.847656 0.00390625 1.8125 0.175781 1.75 0.34375 C 1.65625 0.832031 1.429688 1.007812 1.078125 0.875 Z M 1.078125 0.875 "/></g></g></g><g fill="#d883b7" fill-opacity="1"><g transform="translate(62.674325, 38.515416)"><g><path d="M 14.359375 3.65625 C 14.546875 3.613281 14.710938 3.675781 14.859375 3.84375 C 15.003906 4.007812 15.078125 4.171875 15.078125 4.328125 L 11.09375 5.453125 C 10.96875 5.515625 10.882812 5.546875 10.84375 5.546875 C 10.6875 5.515625 10.566406 5.53125 10.484375 5.59375 C 10.398438 5.65625 10.3125 5.769531 10.21875 5.9375 C 10.21875 6.03125 10.1875 6.109375 10.125 6.171875 C 10.21875 6.335938 10.28125 6.535156 10.3125 6.765625 L 9.96875 6.859375 C 9.9375 6.992188 9.960938 7.109375 10.046875 7.203125 C 10.128906 7.296875 10.085938 7.425781 9.921875 7.59375 C 10.117188 7.914062 10.070312 8.140625 9.78125 8.265625 C 9.84375 8.554688 9.726562 8.785156 9.4375 8.953125 C 9.46875 8.984375 9.507812 9.015625 9.5625 9.046875 C 9.613281 9.078125 9.640625 9.109375 9.640625 9.140625 C 9.566406 9.398438 9.535156 9.535156 9.546875 9.546875 C 9.566406 9.566406 9.546875 9.675781 9.484375 9.875 C 9.515625 9.90625 9.503906 10.007812 9.453125 10.1875 C 9.410156 10.375 9.40625 10.46875 9.4375 10.46875 L 9.390625 10.84375 C 9.421875 10.976562 9.4375 11.082031 9.4375 11.15625 C 9.4375 11.238281 9.359375 11.316406 9.203125 11.390625 L 8.953125 11.875 C 9.015625 11.90625 9.070312 11.925781 9.125 11.9375 C 9.175781 11.957031 9.21875 12 9.25 12.0625 C 9.175781 12.289062 9.113281 12.5 9.0625 12.6875 C 9.019531 12.882812 8.96875 13.082031 8.90625 13.28125 C 8.875 13.414062 8.847656 13.554688 8.828125 13.703125 C 8.816406 13.847656 8.773438 14 8.703125 14.15625 C 8.578125 14.414062 8.515625 14.515625 8.515625 14.453125 C 8.578125 14.609375 8.578125 14.785156 8.515625 14.984375 C 8.484375 15.015625 8.429688 15.0625 8.359375 15.125 C 8.296875 15.195312 8.265625 15.28125 8.265625 15.375 C 8.234375 15.40625 8.191406 15.453125 8.140625 15.515625 C 8.097656 15.585938 8.109375 15.625 8.171875 15.625 C 8.171875 15.8125 8.140625 15.957031 8.078125 16.0625 L 7.203125 17.953125 C 7.265625 18.046875 7.3125 18.09375 7.34375 18.09375 L 7 18.34375 C 7.039062 18.46875 7.0625 18.628906 7.0625 18.828125 L 7 18.96875 C 7 19.007812 7.007812 19.03125 7.03125 19.03125 C 7.050781 19.03125 7.0625 19.03125 7.0625 19.03125 C 6.988281 19.0625 6.882812 19.210938 6.75 19.484375 C 6.625 19.765625 6.53125 20 6.46875 20.1875 C 6.40625 20.320312 6.304688 20.425781 6.171875 20.5 C 6.046875 20.582031 5.953125 20.707031 5.890625 20.875 C 5.828125 20.90625 5.8125 21.007812 5.84375 21.1875 C 5.875 21.363281 5.757812 21.375 5.5 21.21875 C 5.5625 21.34375 5.640625 21.472656 5.734375 21.609375 C 5.773438 21.734375 5.726562 21.796875 5.59375 21.796875 C 5.46875 21.796875 5.335938 21.8125 5.203125 21.84375 C 5.335938 21.90625 5.4375 21.972656 5.5 22.046875 C 5.363281 22.078125 5.25 22.140625 5.15625 22.234375 C 5.25 22.492188 5.179688 22.644531 4.953125 22.6875 C 4.734375 22.738281 4.59375 22.847656 4.53125 23.015625 L 4.8125 23.203125 C 4.71875 23.335938 4.628906 23.460938 4.546875 23.578125 C 4.460938 23.691406 4.390625 23.8125 4.328125 23.9375 C 4.296875 23.9375 4.28125 23.925781 4.28125 23.90625 C 4.28125 23.894531 4.28125 23.890625 4.28125 23.890625 C 4.1875 23.984375 4.070312 24.078125 3.9375 24.171875 C 3.8125 24.273438 3.71875 24.359375 3.65625 24.421875 C 3.65625 24.484375 3.671875 24.515625 3.703125 24.515625 L 3.84375 24.515625 C 3.84375 24.554688 3.847656 24.582031 3.859375 24.59375 C 3.878906 24.613281 3.890625 24.625 3.890625 24.625 C 3.660156 24.882812 3.425781 25.125 3.1875 25.34375 C 2.945312 25.570312 2.710938 25.816406 2.484375 26.078125 C 2.484375 26.273438 2.441406 26.421875 2.359375 26.515625 C 2.273438 26.609375 2.171875 26.707031 2.046875 26.8125 C 1.878906 26.96875 1.707031 27.117188 1.53125 27.265625 C 1.351562 27.410156 1.179688 27.566406 1.015625 27.734375 C 0.953125 27.796875 0.921875 27.828125 0.921875 27.828125 C 0.691406 27.929688 0.476562 28.070312 0.28125 28.25 C 0.09375 28.425781 -0.160156 28.515625 -0.484375 28.515625 C -0.546875 28.546875 -0.609375 28.609375 -0.671875 28.703125 C -0.742188 28.804688 -0.8125 28.890625 -0.875 28.953125 C -1.007812 29.015625 -1.148438 29.085938 -1.296875 29.171875 C -1.441406 29.253906 -1.578125 29.296875 -1.703125 29.296875 C -2.222656 29.421875 -2.804688 29.484375 -3.453125 29.484375 C -3.679688 29.546875 -3.859375 29.546875 -3.984375 29.484375 C -4.410156 29.359375 -4.789062 29.226562 -5.125 29.09375 C -5.46875 28.96875 -5.816406 28.804688 -6.171875 28.609375 C -6.859375 28.316406 -7.300781 27.878906 -7.5 27.296875 C -7.53125 27.203125 -7.59375 27.128906 -7.6875 27.078125 C -7.78125 27.023438 -7.863281 26.9375 -7.9375 26.8125 C -8.03125 26.550781 -8.125 26.296875 -8.21875 26.046875 C -8.320312 25.804688 -8.453125 25.523438 -8.609375 25.203125 C -8.640625 25.140625 -8.660156 25.066406 -8.671875 24.984375 C -8.691406 24.898438 -8.722656 24.828125 -8.765625 24.765625 C -8.722656 24.597656 -8.703125 24.453125 -8.703125 24.328125 C -8.703125 24.203125 -8.6875 24.070312 -8.65625 23.9375 C -8.59375 23.476562 -8.535156 23.046875 -8.484375 22.640625 C -8.441406 22.242188 -8.367188 21.847656 -8.265625 21.453125 C -8.203125 21.128906 -8.140625 20.796875 -8.078125 20.453125 C -8.015625 20.117188 -7.914062 19.769531 -7.78125 19.40625 C -7.75 19.34375 -7.703125 19.28125 -7.640625 19.21875 L -7.34375 18.15625 L -7 17.46875 C -6.78125 17.007812 -6.546875 16.578125 -6.296875 16.171875 C -6.054688 15.765625 -5.820312 15.367188 -5.59375 14.984375 C -5.363281 14.628906 -5.09375 14.253906 -4.78125 13.859375 C -4.476562 13.472656 -4.210938 13.101562 -3.984375 12.75 L -2.828125 11.53125 C -2.753906 11.46875 -2.628906 11.347656 -2.453125 11.171875 C -2.273438 10.992188 -2.125 10.851562 -2 10.75 C -1.863281 10.625 -1.722656 10.46875 -1.578125 10.28125 C -1.429688 10.101562 -1.242188 9.953125 -1.015625 9.828125 C -0.628906 9.535156 -0.242188 9.25 0.140625 8.96875 C 0.535156 8.695312 0.941406 8.414062 1.359375 8.125 C 2.046875 7.539062 2.789062 7.085938 3.59375 6.765625 L 5.453125 5.734375 C 5.804688 5.578125 6.171875 5.429688 6.546875 5.296875 C 6.921875 5.171875 7.269531 5.007812 7.59375 4.8125 L 7.78125 4.765625 C 8.300781 4.640625 8.546875 4.316406 8.515625 3.796875 C 8.484375 3.765625 8.46875 3.679688 8.46875 3.546875 C 8.5 3.421875 8.519531 3.300781 8.53125 3.1875 C 8.550781 3.070312 8.59375 2.953125 8.65625 2.828125 C 8.59375 2.242188 8.617188 1.828125 8.734375 1.578125 C 8.847656 1.335938 8.90625 1.117188 8.90625 0.921875 L 8.953125 0.828125 C 9.015625 0.304688 9.09375 -0.203125 9.1875 -0.703125 C 9.289062 -1.203125 9.390625 -1.679688 9.484375 -2.140625 C 9.453125 -2.109375 9.375 -2.09375 9.25 -2.09375 L 8.953125 -2.140625 C 8.921875 -2.109375 8.890625 -2.054688 8.859375 -1.984375 C 8.828125 -1.921875 8.773438 -1.875 8.703125 -1.84375 C 8.546875 -1.65625 8.414062 -1.523438 8.3125 -1.453125 C 8.3125 -1.453125 8.191406 -1.304688 7.953125 -1.015625 C 7.710938 -0.722656 7.394531 -0.429688 7 -0.140625 L 7 -0.09375 C 6.613281 0.03125 6.304688 0.15625 6.078125 0.28125 C 5.847656 0.414062 5.585938 0.53125 5.296875 0.625 C 5.171875 0.664062 5.039062 0.703125 4.90625 0.734375 C 4.78125 0.765625 4.617188 0.78125 4.421875 0.78125 C 4.265625 0.8125 4.085938 0.828125 3.890625 0.828125 C 3.691406 0.828125 3.515625 0.8125 3.359375 0.78125 L 2.140625 0.34375 C 2.078125 0.28125 2.019531 0.207031 1.96875 0.125 C 1.914062 0.0390625 1.859375 -0.03125 1.796875 -0.09375 C 1.796875 -0.289062 1.703125 -0.421875 1.515625 -0.484375 C 1.316406 -0.648438 1.203125 -0.84375 1.171875 -1.0625 C 1.140625 -1.289062 1.109375 -1.519531 1.078125 -1.75 C 0.941406 -2.132812 0.914062 -2.519531 1 -2.90625 C 1.082031 -3.300781 1.1875 -3.675781 1.3125 -4.03125 C 1.375 -4.195312 1.453125 -4.351562 1.546875 -4.5 C 1.648438 -4.644531 1.71875 -4.785156 1.75 -4.921875 C 1.8125 -5.046875 1.875 -5.1875 1.9375 -5.34375 C 2.007812 -5.507812 2.109375 -5.691406 2.234375 -5.890625 C 2.265625 -5.890625 2.28125 -5.90625 2.28125 -5.9375 C 2.539062 -6.164062 2.742188 -6.457031 2.890625 -6.8125 C 3.035156 -7.164062 3.253906 -7.457031 3.546875 -7.6875 C 3.710938 -7.78125 3.945312 -7.960938 4.25 -8.234375 C 4.5625 -8.515625 4.785156 -8.671875 4.921875 -8.703125 C 5.171875 -8.804688 5.441406 -8.878906 5.734375 -8.921875 C 6.023438 -8.972656 6.300781 -8.953125 6.5625 -8.859375 C 6.695312 -8.828125 6.84375 -8.816406 7 -8.828125 C 7.164062 -8.847656 7.296875 -8.84375 7.390625 -8.8125 C 7.554688 -8.675781 7.769531 -8.578125 8.03125 -8.515625 C 8.289062 -8.453125 8.484375 -8.367188 8.609375 -8.265625 C 8.867188 -8.078125 9.078125 -7.910156 9.234375 -7.765625 C 9.398438 -7.617188 9.582031 -7.414062 9.78125 -7.15625 L 10.125 -6.515625 C 10.28125 -6.648438 10.429688 -6.820312 10.578125 -7.03125 C 10.722656 -7.238281 10.863281 -7.375 11 -7.4375 L 11.578125 -7.296875 C 11.929688 -7.265625 12.320312 -7.1875 12.75 -7.0625 L 12.609375 -6.125 C 12.503906 -5.96875 12.425781 -5.78125 12.375 -5.5625 C 12.332031 -5.351562 12.28125 -5.171875 12.21875 -5.015625 C 12.175781 -4.878906 12.140625 -4.742188 12.109375 -4.609375 C 12.078125 -4.484375 12.046875 -4.359375 12.015625 -4.234375 C 11.816406 -3.453125 11.660156 -2.6875 11.546875 -1.9375 C 11.441406 -1.195312 11.304688 -0.453125 11.140625 0.296875 C 11.078125 0.648438 11.050781 0.992188 11.0625 1.328125 C 11.082031 1.671875 11.007812 2.023438 10.84375 2.390625 C 10.8125 2.609375 10.796875 2.820312 10.796875 3.03125 C 10.796875 3.25 10.765625 3.457031 10.703125 3.65625 C 10.703125 3.65625 10.707031 3.691406 10.71875 3.765625 C 10.738281 3.847656 10.765625 3.890625 10.796875 3.890625 C 11.117188 3.859375 11.425781 3.816406 11.71875 3.765625 C 12.007812 3.722656 12.320312 3.6875 12.65625 3.65625 C 13.238281 3.582031 13.804688 3.582031 14.359375 3.65625 Z M 8.65625 -4.375 C 8.820312 -4.34375 8.9375 -4.382812 9 -4.5 C 9.0625 -4.613281 9.109375 -4.703125 9.140625 -4.765625 C 9.046875 -4.828125 8.96875 -4.898438 8.90625 -4.984375 C 8.84375 -5.066406 8.773438 -5.140625 8.703125 -5.203125 C 8.484375 -5.429688 8.421875 -5.691406 8.515625 -5.984375 C 8.546875 -6.148438 8.507812 -6.394531 8.40625 -6.71875 C 8.3125 -7.039062 8.234375 -7.21875 8.171875 -7.25 C 8.078125 -7.414062 7.929688 -7.5 7.734375 -7.5 C 7.378906 -7.457031 7.019531 -7.378906 6.65625 -7.265625 C 6.300781 -7.160156 5.992188 -6.960938 5.734375 -6.671875 C 5.546875 -6.503906 5.351562 -6.347656 5.15625 -6.203125 C 4.957031 -6.054688 4.78125 -5.898438 4.625 -5.734375 C 4.59375 -5.703125 4.539062 -5.644531 4.46875 -5.5625 C 4.40625 -5.488281 4.34375 -5.421875 4.28125 -5.359375 L 4.328125 -5.109375 C 4.203125 -4.941406 4.066406 -4.773438 3.921875 -4.609375 C 3.773438 -4.453125 3.632812 -4.28125 3.5 -4.09375 C 3.375 -3.800781 3.253906 -3.503906 3.140625 -3.203125 C 3.023438 -2.910156 2.898438 -2.640625 2.765625 -2.390625 C 2.703125 -2.160156 2.644531 -1.945312 2.59375 -1.75 C 2.550781 -1.550781 2.578125 -1.34375 2.671875 -1.125 C 2.734375 -1.125 2.8125 -1.128906 2.90625 -1.140625 C 3.007812 -1.160156 3.113281 -1.171875 3.21875 -1.171875 C 3.570312 -1.203125 3.910156 -1.273438 4.234375 -1.390625 C 4.554688 -1.503906 4.894531 -1.625 5.25 -1.75 L 6.625 -2.53125 L 6.671875 -2.53125 C 6.859375 -2.851562 7.132812 -3.097656 7.5 -3.265625 C 7.5625 -3.265625 7.613281 -3.296875 7.65625 -3.359375 C 7.707031 -3.421875 7.75 -3.46875 7.78125 -3.5 C 7.882812 -3.664062 8.03125 -3.78125 8.21875 -3.84375 C 8.414062 -3.90625 8.53125 -4.050781 8.5625 -4.28125 C 8.5625 -4.34375 8.59375 -4.375 8.65625 -4.375 Z M 7.78125 8.421875 C 7.84375 8.128906 7.898438 7.828125 7.953125 7.515625 C 8.003906 7.210938 8.078125 6.914062 8.171875 6.625 C 7.972656 6.65625 7.789062 6.71875 7.625 6.8125 C 7.46875 6.90625 7.3125 6.988281 7.15625 7.0625 C 6.539062 7.28125 5.957031 7.519531 5.40625 7.78125 C 4.851562 8.039062 4.300781 8.367188 3.75 8.765625 C 3.425781 8.984375 3.066406 9.207031 2.671875 9.4375 C 2.285156 9.664062 1.914062 9.910156 1.5625 10.171875 C 1.300781 10.367188 1.015625 10.546875 0.703125 10.703125 C 0.398438 10.867188 0.101562 11.082031 -0.1875 11.34375 C -0.289062 11.46875 -0.421875 11.59375 -0.578125 11.71875 C -0.742188 11.851562 -0.875 11.984375 -0.96875 12.109375 C -1.101562 12.242188 -1.234375 12.34375 -1.359375 12.40625 C -1.492188 12.46875 -1.609375 12.550781 -1.703125 12.65625 C -1.929688 12.875 -2.191406 13.179688 -2.484375 13.578125 C -2.640625 13.703125 -2.800781 13.84375 -2.96875 14 C -3.132812 14.164062 -3.296875 14.332031 -3.453125 14.5 C -3.484375 14.5625 -3.597656 14.710938 -3.796875 14.953125 C -3.992188 15.203125 -4.171875 15.457031 -4.328125 15.71875 C -4.492188 15.976562 -4.578125 16.15625 -4.578125 16.25 L -5.59375 17.765625 C -5.625 17.765625 -5.71875 17.914062 -5.875 18.21875 C -6.039062 18.53125 -6.160156 18.765625 -6.234375 18.921875 C -6.390625 19.117188 -6.484375 19.347656 -6.515625 19.609375 C -6.585938 19.804688 -6.640625 20.015625 -6.671875 20.234375 C -6.703125 20.460938 -6.75 20.660156 -6.8125 20.828125 C -6.875 21.148438 -6.953125 21.472656 -7.046875 21.796875 C -7.148438 22.117188 -7.21875 22.457031 -7.25 22.8125 C -7.28125 23.269531 -7.28125 23.707031 -7.25 24.125 C -7.21875 24.550781 -7.1875 24.992188 -7.15625 25.453125 C -7.09375 25.929688 -6.9375 26.332031 -6.6875 26.65625 C -6.445312 26.988281 -6.128906 27.265625 -5.734375 27.484375 L -5.5 27.6875 C -5.363281 27.75 -5.296875 27.78125 -5.296875 27.78125 C -4.941406 27.914062 -4.609375 28 -4.296875 28.03125 C -3.992188 28.0625 -3.695312 28.007812 -3.40625 27.875 C -3.238281 27.8125 -3.054688 27.726562 -2.859375 27.625 C -2.671875 27.53125 -2.515625 27.46875 -2.390625 27.4375 C -1.960938 27.3125 -1.585938 27.125 -1.265625 26.875 C -0.941406 26.632812 -0.617188 26.382812 -0.296875 26.125 C 0.0234375 25.863281 0.320312 25.578125 0.59375 25.265625 C 0.875 24.960938 1.144531 24.664062 1.40625 24.375 C 1.800781 23.882812 2.144531 23.410156 2.4375 22.953125 C 2.726562 22.503906 3.035156 22.039062 3.359375 21.5625 C 3.710938 21.070312 4.003906 20.570312 4.234375 20.0625 C 4.460938 19.5625 4.707031 19.050781 4.96875 18.53125 C 5.15625 18.144531 5.3125 17.773438 5.4375 17.421875 C 5.570312 17.066406 5.707031 16.691406 5.84375 16.296875 C 6.03125 15.710938 6.222656 15.144531 6.421875 14.59375 C 6.617188 14.039062 6.78125 13.472656 6.90625 12.890625 C 7.039062 12.441406 7.144531 11.988281 7.21875 11.53125 C 7.300781 11.070312 7.394531 10.632812 7.5 10.21875 C 7.5625 9.988281 7.625 9.726562 7.6875 9.4375 C 7.75 9.144531 7.78125 8.867188 7.78125 8.609375 Z M 7.78125 8.421875 "/></g></g></g><g fill="#d883b7" fill-opacity="1"><g transform="translate(78.438256, 38.515416)"><g><path d="M 12.796875 -4.765625 L 12.0625 -4.140625 C 12.03125 -4.109375 12 -4.050781 11.96875 -3.96875 C 11.9375 -3.882812 11.851562 -3.8125 11.71875 -3.75 L 11.578125 -3.546875 C 11.347656 -3.453125 11.300781 -3.34375 11.4375 -3.21875 C 11.332031 -3.144531 11.238281 -3.066406 11.15625 -2.984375 C 11.082031 -2.910156 11.03125 -2.789062 11 -2.625 L 11 -2.578125 C 10.96875 -2.515625 10.914062 -2.441406 10.84375 -2.359375 C 10.78125 -2.273438 10.734375 -2.21875 10.703125 -2.1875 C 10.546875 -2.03125 10.335938 -1.851562 10.078125 -1.65625 L 9.140625 -0.921875 C 8.953125 -0.828125 8.773438 -0.726562 8.609375 -0.625 C 8.453125 -0.53125 8.289062 -0.421875 8.125 -0.296875 C 7.894531 -0.160156 7.679688 -0.0195312 7.484375 0.125 C 7.296875 0.269531 7.070312 0.390625 6.8125 0.484375 C 6.6875 0.546875 6.53125 0.582031 6.34375 0.59375 C 6.164062 0.613281 6 0.644531 5.84375 0.6875 C 5.707031 0.6875 5.5625 0.734375 5.40625 0.828125 C 5.300781 0.859375 5.179688 0.890625 5.046875 0.921875 C 4.921875 0.953125 4.796875 0.984375 4.671875 1.015625 C 4.472656 1.054688 4.285156 1.097656 4.109375 1.140625 C 3.929688 1.191406 3.742188 1.203125 3.546875 1.171875 C 2.992188 1.109375 2.507812 1.007812 2.09375 0.875 C 1.863281 0.8125 1.679688 0.742188 1.546875 0.671875 C 1.421875 0.609375 1.226562 0.484375 0.96875 0.296875 C 0.9375 0.222656 0.894531 0.175781 0.84375 0.15625 C 0.800781 0.144531 0.765625 0.125 0.734375 0.09375 C 0.566406 -0.03125 0.425781 -0.164062 0.3125 -0.3125 C 0.195312 -0.457031 0.0625 -0.644531 -0.09375 -0.875 C -0.125 -0.9375 -0.144531 -0.992188 -0.15625 -1.046875 C -0.175781 -1.097656 -0.222656 -1.234375 -0.296875 -1.453125 C -0.421875 -1.742188 -0.484375 -1.988281 -0.484375 -2.1875 C -0.484375 -2.382812 -0.484375 -2.5625 -0.484375 -2.71875 C -0.421875 -3.695312 -0.160156 -4.640625 0.296875 -5.546875 C 0.390625 -5.710938 0.484375 -5.867188 0.578125 -6.015625 C 0.679688 -6.160156 0.796875 -6.296875 0.921875 -6.421875 C 1.148438 -6.679688 1.367188 -6.941406 1.578125 -7.203125 C 1.785156 -7.460938 2.003906 -7.707031 2.234375 -7.9375 C 2.722656 -8.414062 3.257812 -8.671875 3.84375 -8.703125 C 3.90625 -8.703125 3.976562 -8.710938 4.0625 -8.734375 C 4.144531 -8.753906 4.234375 -8.78125 4.328125 -8.8125 C 4.585938 -8.90625 4.820312 -8.894531 5.03125 -8.78125 C 5.25 -8.664062 5.4375 -8.5625 5.59375 -8.46875 C 5.820312 -8.363281 6.03125 -8.25 6.21875 -8.125 C 6.414062 -8 6.597656 -7.851562 6.765625 -7.6875 C 6.960938 -7.5625 7.109375 -7.332031 7.203125 -7 C 7.296875 -6.675781 7.3125 -6.421875 7.25 -6.234375 C 7.15625 -5.972656 7.023438 -5.757812 6.859375 -5.59375 C 6.628906 -5.363281 6.410156 -5.132812 6.203125 -4.90625 C 5.992188 -4.6875 5.773438 -4.460938 5.546875 -4.234375 C 5.484375 -4.171875 5.394531 -4.113281 5.28125 -4.0625 C 5.164062 -4.007812 5.09375 -3.953125 5.0625 -3.890625 C 5.03125 -3.734375 4.945312 -3.628906 4.8125 -3.578125 C 4.6875 -3.523438 4.570312 -3.46875 4.46875 -3.40625 L 3.796875 -2.921875 C 3.765625 -2.890625 3.75 -2.847656 3.75 -2.796875 C 3.75 -2.742188 3.734375 -2.703125 3.703125 -2.671875 C 3.535156 -2.578125 3.363281 -2.488281 3.1875 -2.40625 C 3.007812 -2.320312 2.835938 -2.234375 2.671875 -2.140625 C 2.609375 -2.109375 2.550781 -2.066406 2.5 -2.015625 C 2.457031 -1.972656 2.398438 -1.914062 2.328125 -1.84375 C 2.140625 -1.75 1.988281 -1.675781 1.875 -1.625 C 1.757812 -1.582031 1.617188 -1.507812 1.453125 -1.40625 C 1.554688 -1.113281 1.644531 -0.921875 1.71875 -0.828125 C 1.800781 -0.734375 1.941406 -0.648438 2.140625 -0.578125 C 2.460938 -0.609375 2.773438 -0.625 3.078125 -0.625 C 3.390625 -0.625 3.707031 -0.644531 4.03125 -0.6875 C 4.257812 -0.71875 4.476562 -0.769531 4.6875 -0.84375 C 4.90625 -0.925781 5.128906 -1.003906 5.359375 -1.078125 C 5.515625 -1.140625 5.6875 -1.21875 5.875 -1.3125 C 6.070312 -1.40625 6.269531 -1.488281 6.46875 -1.5625 C 6.601562 -1.625 6.722656 -1.660156 6.828125 -1.671875 C 6.941406 -1.691406 7.066406 -1.734375 7.203125 -1.796875 L 8.8125 -2.71875 L 8.953125 -2.828125 C 9.179688 -2.984375 9.488281 -3.175781 9.875 -3.40625 C 10.269531 -3.632812 10.578125 -3.8125 10.796875 -3.9375 C 10.898438 -4 11.015625 -4.0625 11.140625 -4.125 C 11.273438 -4.195312 11.359375 -4.25 11.390625 -4.28125 L 13.046875 -5.5 L 13.140625 -5.15625 C 13.140625 -5.15625 13.144531 -5.15625 13.15625 -5.15625 C 13.175781 -5.15625 13.1875 -5.140625 13.1875 -5.109375 C 13.125 -5.078125 13.054688 -5.023438 12.984375 -4.953125 C 12.921875 -4.890625 12.859375 -4.828125 12.796875 -4.765625 Z M 1.75 -4.375 C 1.6875 -4.25 1.628906 -4.097656 1.578125 -3.921875 C 1.535156 -3.742188 1.476562 -3.554688 1.40625 -3.359375 C 1.601562 -3.484375 1.765625 -3.585938 1.890625 -3.671875 C 2.023438 -3.753906 2.140625 -3.828125 2.234375 -3.890625 L 3.546875 -4.96875 L 4.859375 -6.125 C 5.023438 -6.257812 5.15625 -6.398438 5.25 -6.546875 C 5.351562 -6.691406 5.453125 -6.84375 5.546875 -7 C 5.609375 -7.132812 5.597656 -7.28125 5.515625 -7.4375 C 5.441406 -7.601562 5.351562 -7.65625 5.25 -7.59375 C 5.03125 -7.488281 4.8125 -7.421875 4.59375 -7.390625 C 4.382812 -7.359375 4.179688 -7.265625 3.984375 -7.109375 C 3.765625 -6.941406 3.546875 -6.785156 3.328125 -6.640625 C 3.117188 -6.492188 2.929688 -6.304688 2.765625 -6.078125 C 2.410156 -5.597656 2.070312 -5.03125 1.75 -4.375 Z M 1.75 -4.375 "/></g></g></g><g fill="#d883b7" fill-opacity="1"><g transform="translate(90.699083, 38.515416)"><g/></g></g><g fill="#d883b7" fill-opacity="1"><g transform="translate(99.943364, 38.515416)"><g><path d="M 23.453125 6.71875 C 23.191406 6.71875 22.914062 6.703125 22.625 6.671875 C 22.332031 6.640625 22.039062 6.601562 21.75 6.5625 C 20.675781 6.53125 19.6875 6.0625 18.78125 5.15625 C 18.613281 4.957031 18.410156 4.757812 18.171875 4.5625 C 17.929688 4.375 17.710938 4.164062 17.515625 3.9375 C 17.023438 3.226562 16.632812 2.46875 16.34375 1.65625 C 16.050781 0.84375 15.828125 0.03125 15.671875 -0.78125 C 15.597656 -1.300781 15.546875 -1.796875 15.515625 -2.265625 C 15.484375 -2.734375 15.46875 -3.226562 15.46875 -3.75 C 15.4375 -4.300781 15.441406 -4.800781 15.484375 -5.25 C 15.535156 -5.707031 15.582031 -6.195312 15.625 -6.71875 C 15.65625 -6.875 15.6875 -7.066406 15.71875 -7.296875 C 15.75 -7.523438 15.726562 -7.671875 15.65625 -7.734375 C 15.59375 -7.796875 15.4375 -7.679688 15.1875 -7.390625 C 14.5625 -6.578125 13.972656 -5.753906 13.421875 -4.921875 C 13.128906 -4.585938 12.835938 -4.242188 12.546875 -3.890625 C 12.253906 -3.535156 11.976562 -3.179688 11.71875 -2.828125 C 11.71875 -2.890625 11.570312 -2.691406 11.28125 -2.234375 C 10.988281 -1.785156 10.640625 -1.242188 10.234375 -0.609375 C 9.835938 0.0234375 9.453125 0.609375 9.078125 1.140625 C 8.703125 1.679688 8.445312 2.03125 8.3125 2.1875 C 8.15625 2.351562 7.992188 2.546875 7.828125 2.765625 C 7.671875 2.992188 7.507812 3.222656 7.34375 3.453125 C 6.820312 4.328125 6.09375 5.007812 5.15625 5.5 C 5.0625 5.5625 4.921875 5.609375 4.734375 5.640625 C 4.554688 5.671875 4.421875 5.6875 4.328125 5.6875 C 4.003906 5.6875 3.757812 5.554688 3.59375 5.296875 C 3.59375 5.234375 3.566406 5.191406 3.515625 5.171875 C 3.472656 5.160156 3.453125 5.15625 3.453125 5.15625 C 3.066406 5.0625 2.816406 4.859375 2.703125 4.546875 C 2.585938 4.242188 2.53125 3.925781 2.53125 3.59375 C 2.46875 2.882812 2.4375 2.179688 2.4375 1.484375 C 2.4375 0.785156 2.484375 0.0820312 2.578125 -0.625 C 2.671875 -1.375 2.816406 -2.082031 3.015625 -2.75 C 3.210938 -3.414062 3.40625 -4.101562 3.59375 -4.8125 C 4.144531 -6.726562 4.6875 -8.640625 5.21875 -10.546875 C 5.757812 -12.460938 6.320312 -14.378906 6.90625 -16.296875 C 6.9375 -16.492188 6.984375 -16.671875 7.046875 -16.828125 C 7.117188 -16.992188 7.203125 -17.175781 7.296875 -17.375 C 7.585938 -17.851562 8.039062 -18.015625 8.65625 -17.859375 C 8.6875 -17.753906 8.800781 -17.671875 9 -17.609375 C 9.519531 -17.316406 9.695312 -16.910156 9.53125 -16.390625 C 9.4375 -15.910156 9.316406 -15.429688 9.171875 -14.953125 C 9.023438 -14.484375 8.90625 -14.007812 8.8125 -13.53125 L 6.765625 -6.671875 C 6.597656 -6.085938 6.441406 -5.523438 6.296875 -4.984375 C 6.148438 -4.453125 5.960938 -3.910156 5.734375 -3.359375 C 5.578125 -2.742188 5.429688 -2.109375 5.296875 -1.453125 C 5.171875 -0.804688 5.023438 -0.175781 4.859375 0.4375 C 4.765625 0.789062 4.707031 1.144531 4.6875 1.5 C 4.675781 1.863281 4.671875 2.222656 4.671875 2.578125 C 4.835938 2.640625 4.957031 2.640625 5.03125 2.578125 C 5.113281 2.515625 5.171875 2.453125 5.203125 2.390625 C 5.554688 2.023438 5.90625 1.6875 6.25 1.375 C 6.59375 1.070312 6.925781 0.726562 7.25 0.34375 C 7.832031 -0.300781 8.414062 -0.988281 9 -1.71875 C 9.582031 -2.457031 10.179688 -3.179688 10.796875 -3.890625 C 11.671875 -4.929688 12.535156 -5.984375 13.390625 -7.046875 C 14.253906 -8.117188 15.109375 -9.207031 15.953125 -10.3125 C 16.210938 -10.570312 16.457031 -10.851562 16.6875 -11.15625 C 16.914062 -11.46875 17.144531 -11.785156 17.375 -12.109375 C 17.789062 -12.734375 18.390625 -13.007812 19.171875 -12.9375 C 19.585938 -12.90625 19.847656 -12.742188 19.953125 -12.453125 C 20.015625 -12.191406 20.046875 -11.96875 20.046875 -11.78125 C 20.046875 -11.582031 19.984375 -11.382812 19.859375 -11.1875 C 19.304688 -10.25 18.882812 -9.253906 18.59375 -8.203125 C 18.300781 -7.148438 18.070312 -6.085938 17.90625 -5.015625 C 17.875 -4.785156 17.863281 -4.554688 17.875 -4.328125 C 17.894531 -4.097656 17.90625 -3.890625 17.90625 -3.703125 C 17.90625 -3.210938 17.878906 -2.738281 17.828125 -2.28125 C 17.785156 -1.832031 17.78125 -1.378906 17.8125 -0.921875 C 17.875 -0.304688 17.96875 0.289062 18.09375 0.875 C 18.226562 1.457031 18.410156 2.007812 18.640625 2.53125 C 18.828125 2.914062 19.035156 3.285156 19.265625 3.640625 C 19.492188 4.003906 19.722656 4.378906 19.953125 4.765625 C 20.179688 5.054688 20.535156 5.203125 21.015625 5.203125 C 21.179688 5.203125 21.367188 5.1875 21.578125 5.15625 C 21.785156 5.125 22.003906 5.078125 22.234375 5.015625 C 22.878906 4.878906 23.503906 4.664062 24.109375 4.375 C 24.710938 4.082031 25.253906 3.726562 25.734375 3.3125 C 26.191406 2.914062 26.585938 2.453125 26.921875 1.921875 C 27.265625 1.390625 27.632812 0.894531 28.03125 0.4375 C 28.476562 -0.40625 28.804688 -1.101562 29.015625 -1.65625 C 29.234375 -2.207031 29.40625 -2.734375 29.53125 -3.234375 C 29.664062 -3.734375 29.8125 -4.296875 29.96875 -4.921875 C 30.320312 -5.984375 30.613281 -7.066406 30.84375 -8.171875 C 31.070312 -9.273438 31.234375 -10.363281 31.328125 -11.4375 C 31.429688 -11.914062 31.503906 -12.363281 31.546875 -12.78125 C 31.597656 -13.207031 31.640625 -13.664062 31.671875 -14.15625 C 31.773438 -14.800781 31.828125 -15.460938 31.828125 -16.140625 C 31.828125 -16.828125 31.828125 -17.53125 31.828125 -18.25 C 31.785156 -18.894531 31.65625 -19.492188 31.4375 -20.046875 C 31.363281 -20.304688 31.242188 -20.644531 31.078125 -21.0625 C 30.921875 -21.488281 30.910156 -21.703125 31.046875 -21.703125 C 31.109375 -21.734375 31.203125 -21.738281 31.328125 -21.71875 C 31.460938 -21.707031 31.546875 -21.703125 31.578125 -21.703125 C 31.960938 -21.765625 32.316406 -21.632812 32.640625 -21.3125 C 32.972656 -20.988281 33.234375 -20.613281 33.421875 -20.1875 C 33.617188 -19.769531 33.734375 -19.414062 33.765625 -19.125 C 33.828125 -18.832031 33.863281 -18.34375 33.875 -17.65625 C 33.894531 -16.976562 33.890625 -16.238281 33.859375 -15.4375 C 33.828125 -14.644531 33.765625 -13.925781 33.671875 -13.28125 C 33.535156 -12.144531 33.335938 -11.070312 33.078125 -10.0625 C 32.828125 -9.0625 32.503906 -7.976562 32.109375 -6.8125 C 32.015625 -6.519531 31.914062 -6.113281 31.8125 -5.59375 C 31.71875 -5.070312 31.644531 -4.59375 31.59375 -4.15625 C 31.550781 -3.71875 31.515625 -3.453125 31.484375 -3.359375 C 31.128906 -3.003906 31.0625 -2.679688 31.28125 -2.390625 C 31.382812 -2.253906 31.378906 -1.96875 31.265625 -1.53125 C 31.148438 -1.09375 31.046875 -0.789062 30.953125 -0.625 C 30.878906 -0.5625 30.757812 -0.375 30.59375 -0.0625 C 30.4375 0.238281 30.289062 0.539062 30.15625 0.84375 C 30.03125 1.15625 29.953125 1.359375 29.921875 1.453125 C 29.796875 1.679688 29.664062 1.914062 29.53125 2.15625 C 29.40625 2.40625 29.257812 2.628906 29.09375 2.828125 C 28.863281 3.085938 28.609375 3.363281 28.328125 3.65625 C 28.054688 3.945312 27.597656 4.316406 26.953125 4.765625 C 26.828125 4.765625 26.664062 4.832031 26.46875 4.96875 C 26.144531 5.226562 25.828125 5.476562 25.515625 5.71875 C 25.210938 5.957031 24.878906 6.191406 24.515625 6.421875 C 24.222656 6.617188 23.867188 6.71875 23.453125 6.71875 Z M 23.453125 6.71875 "/></g></g></g><g fill="#d883b7" fill-opacity="1"><g transform="translate(135.850089, 38.515416)"><g><path d="M 18.4375 -6.46875 C 18.207031 -6.113281 17.914062 -5.78125 17.5625 -5.46875 C 17.207031 -5.164062 16.867188 -4.898438 16.546875 -4.671875 C 16.410156 -4.578125 16.269531 -4.492188 16.125 -4.421875 C 15.976562 -4.359375 15.875 -4.296875 15.8125 -4.234375 C 15.75 -4.171875 15.664062 -4.085938 15.5625 -3.984375 C 15.46875 -3.890625 15.359375 -3.8125 15.234375 -3.75 C 15.203125 -3.71875 15.117188 -3.632812 14.984375 -3.5 C 14.859375 -3.375 14.757812 -3.296875 14.6875 -3.265625 L 13.96875 -2.625 L 12.796875 -1.75 C 12.597656 -1.519531 12.394531 -1.359375 12.1875 -1.265625 C 11.976562 -1.171875 11.742188 -1.039062 11.484375 -0.875 C 11.347656 -0.8125 11.234375 -0.769531 11.140625 -0.75 C 11.046875 -0.738281 10.929688 -0.695312 10.796875 -0.625 C 10.765625 -0.59375 10.691406 -0.5625 10.578125 -0.53125 C 10.460938 -0.5 10.375 -0.484375 10.3125 -0.484375 C 10.28125 -0.484375 10.210938 -0.46875 10.109375 -0.4375 C 10.015625 -0.40625 9.9375 -0.390625 9.875 -0.390625 C 9.78125 -0.390625 9.644531 -0.375 9.46875 -0.34375 C 9.289062 -0.3125 9.148438 -0.3125 9.046875 -0.34375 C 9.015625 -0.375 8.941406 -0.394531 8.828125 -0.40625 C 8.710938 -0.425781 8.625 -0.453125 8.5625 -0.484375 C 8.5 -0.515625 8.429688 -0.5625 8.359375 -0.625 C 8.296875 -0.695312 8.234375 -0.75 8.171875 -0.78125 C 8.046875 -0.976562 7.898438 -1.140625 7.734375 -1.265625 C 7.578125 -1.390625 7.445312 -1.566406 7.34375 -1.796875 C 7.21875 -1.960938 7.140625 -2.078125 7.109375 -2.140625 C 7.078125 -2.203125 7.023438 -2.300781 6.953125 -2.4375 C 6.921875 -2.46875 6.894531 -2.503906 6.875 -2.546875 C 6.863281 -2.597656 6.84375 -2.640625 6.8125 -2.671875 C 6.644531 -2.578125 6.53125 -2.441406 6.46875 -2.265625 C 6.40625 -2.085938 6.289062 -2 6.125 -2 C 6.09375 -1.96875 6.0625 -1.914062 6.03125 -1.84375 C 6 -1.78125 5.953125 -1.734375 5.890625 -1.703125 C 5.597656 -1.472656 5.265625 -1.21875 4.890625 -0.9375 C 4.515625 -0.664062 4.132812 -0.453125 3.75 -0.296875 C 2.96875 0.0976562 2.1875 0.132812 1.40625 -0.1875 C 1.25 -0.1875 1.117188 -0.207031 1.015625 -0.25 C 0.890625 -0.375 0.632812 -0.535156 0.25 -0.734375 C -0.207031 -1.316406 -0.335938 -1.960938 -0.140625 -2.671875 C 0.015625 -3.035156 0.125 -3.328125 0.1875 -3.546875 C 0.226562 -3.578125 0.25 -3.613281 0.25 -3.65625 C 0.28125 -3.8125 0.328125 -3.953125 0.390625 -4.078125 C 0.453125 -4.210938 0.5 -4.363281 0.53125 -4.53125 L 0.875 -5.109375 C 0.96875 -5.234375 1.046875 -5.351562 1.109375 -5.46875 C 1.179688 -5.582031 1.234375 -5.65625 1.265625 -5.6875 C 1.523438 -6.113281 1.804688 -6.488281 2.109375 -6.8125 C 2.421875 -7.132812 2.722656 -7.472656 3.015625 -7.828125 C 3.304688 -8.148438 3.65625 -8.441406 4.0625 -8.703125 C 4.46875 -8.960938 4.898438 -9.109375 5.359375 -9.140625 C 5.867188 -9.046875 6.367188 -8.910156 6.859375 -8.734375 C 7.347656 -8.554688 7.640625 -8.191406 7.734375 -7.640625 C 7.796875 -7.316406 7.757812 -7.03125 7.625 -6.78125 C 7.5 -6.539062 7.375 -6.289062 7.25 -6.03125 C 7.445312 -6.0625 7.640625 -6.140625 7.828125 -6.265625 C 8.023438 -6.398438 8.269531 -6.453125 8.5625 -6.421875 C 8.851562 -6.328125 9.046875 -6.097656 9.140625 -5.734375 C 9.140625 -5.734375 9.140625 -5.628906 9.140625 -5.421875 C 9.140625 -5.210938 9.109375 -5.007812 9.046875 -4.8125 C 9.015625 -4.78125 9 -4.75 9 -4.71875 C 9 -4.6875 8.984375 -4.640625 8.953125 -4.578125 C 8.890625 -4.253906 8.863281 -3.910156 8.875 -3.546875 C 8.894531 -3.191406 8.96875 -2.835938 9.09375 -2.484375 C 9.164062 -2.253906 9.3125 -2.078125 9.53125 -1.953125 C 9.632812 -1.910156 9.75 -1.910156 9.875 -1.953125 C 9.9375 -1.984375 10.015625 -2.003906 10.109375 -2.015625 C 10.210938 -2.035156 10.3125 -2.0625 10.40625 -2.09375 C 10.800781 -2.25 11.191406 -2.460938 11.578125 -2.734375 C 11.960938 -3.015625 12.320312 -3.269531 12.65625 -3.5 C 12.976562 -3.695312 13.316406 -3.90625 13.671875 -4.125 C 14.023438 -4.351562 14.363281 -4.582031 14.6875 -4.8125 C 15.082031 -5.070312 15.367188 -5.25 15.546875 -5.34375 C 15.722656 -5.445312 15.898438 -5.554688 16.078125 -5.671875 C 16.253906 -5.785156 16.523438 -5.953125 16.890625 -6.171875 C 17.046875 -6.335938 17.226562 -6.484375 17.4375 -6.609375 C 17.65625 -6.742188 17.875 -6.875 18.09375 -7 L 18.25 -6.90625 Z M 6.5625 -5.109375 C 6.601562 -5.109375 6.65625 -5.148438 6.71875 -5.234375 C 6.78125 -5.316406 6.8125 -5.359375 6.8125 -5.359375 L 6.765625 -5.359375 C 6.410156 -5.390625 6.191406 -5.585938 6.109375 -5.953125 C 6.023438 -6.328125 6.003906 -6.703125 6.046875 -7.078125 C 6.097656 -7.453125 6.125 -7.640625 6.125 -7.640625 C 5.644531 -7.578125 5.148438 -7.316406 4.640625 -6.859375 C 4.140625 -6.398438 3.691406 -5.921875 3.296875 -5.421875 C 2.910156 -4.921875 2.625 -4.507812 2.4375 -4.1875 C 2.207031 -3.789062 1.992188 -3.378906 1.796875 -2.953125 C 1.609375 -2.535156 1.445312 -2.085938 1.3125 -1.609375 C 1.570312 -1.609375 1.894531 -1.625 2.28125 -1.65625 C 2.675781 -1.6875 2.988281 -1.75 3.21875 -1.84375 C 3.757812 -2.070312 4.273438 -2.445312 4.765625 -2.96875 C 5.117188 -3.351562 5.414062 -3.707031 5.65625 -4.03125 C 5.90625 -4.363281 6.207031 -4.722656 6.5625 -5.109375 Z M 6.5625 -5.109375 "/></g></g></g><g fill="#d883b7" fill-opacity="1"><g transform="translate(151.61402, 38.515416)"><g><path d="M 1.453125 2.234375 C 1.328125 2.171875 1.132812 2 0.875 1.71875 C 0.613281 1.445312 0.5 1.210938 0.53125 1.015625 C 0.59375 0.597656 0.65625 0.1875 0.71875 -0.21875 C 0.789062 -0.625 0.875 -1.035156 0.96875 -1.453125 C 1.101562 -1.878906 1.234375 -2.3125 1.359375 -2.75 C 1.492188 -3.1875 1.609375 -3.613281 1.703125 -4.03125 C 1.765625 -4.320312 1.820312 -4.601562 1.875 -4.875 C 1.925781 -5.15625 1.96875 -5.441406 2 -5.734375 C 2 -5.835938 1.984375 -5.890625 1.953125 -5.890625 C 1.878906 -5.953125 1.84375 -6.054688 1.84375 -6.203125 C 1.84375 -6.347656 1.859375 -6.488281 1.890625 -6.625 C 1.929688 -6.914062 2.078125 -7.039062 2.328125 -7 C 2.660156 -6.96875 2.9375 -6.863281 3.15625 -6.6875 C 3.382812 -6.507812 3.582031 -6.289062 3.75 -6.03125 C 3.78125 -6 3.796875 -5.96875 3.796875 -5.9375 C 3.765625 -5.738281 3.734375 -5.550781 3.703125 -5.375 C 3.671875 -5.195312 3.632812 -5.007812 3.59375 -4.8125 C 3.5625 -4.65625 3.546875 -4.503906 3.546875 -4.359375 C 3.546875 -4.210938 3.515625 -4.054688 3.453125 -3.890625 C 3.421875 -3.734375 3.375 -3.570312 3.3125 -3.40625 C 3.25 -3.238281 3.179688 -3.078125 3.109375 -2.921875 C 3.109375 -2.859375 3.09375 -2.789062 3.0625 -2.71875 C 3.09375 -2.75 3.109375 -2.765625 3.109375 -2.765625 C 3.628906 -3.546875 4.164062 -4.210938 4.71875 -4.765625 C 5.039062 -5.160156 5.378906 -5.484375 5.734375 -5.734375 C 5.898438 -5.835938 6.160156 -5.90625 6.515625 -5.9375 C 6.710938 -5.9375 6.851562 -5.925781 6.9375 -5.90625 C 7.019531 -5.894531 7.09375 -5.875 7.15625 -5.84375 C 7.1875 -5.84375 7.523438 -5.679688 8.171875 -5.359375 C 8.203125 -5.222656 8.21875 -5.101562 8.21875 -5 C 8.21875 -4.90625 8.269531 -4.828125 8.375 -4.765625 C 8.375 -4.765625 8.375 -4.664062 8.375 -4.46875 C 8.53125 -4.050781 8.625 -3.613281 8.65625 -3.15625 C 8.65625 -2.96875 8.644531 -2.773438 8.625 -2.578125 C 8.613281 -2.378906 8.59375 -2.1875 8.5625 -2 C 8.5625 -1.96875 8.566406 -1.910156 8.578125 -1.828125 C 8.597656 -1.742188 8.59375 -1.671875 8.5625 -1.609375 C 8.59375 -1.441406 8.609375 -1.257812 8.609375 -1.0625 C 8.609375 -0.875 8.609375 -0.695312 8.609375 -0.53125 L 8.765625 -0.046875 C 8.765625 -0.015625 8.785156 0.03125 8.828125 0.09375 C 8.878906 0.15625 8.921875 0.207031 8.953125 0.25 L 9.09375 0.25 C 9.125 0.207031 9.195312 0.160156 9.3125 0.109375 C 9.425781 0.0664062 9.695312 -0.0664062 10.125 -0.296875 C 10.445312 -0.390625 10.722656 -0.535156 10.953125 -0.734375 L 15.46875 -5.0625 C 15.632812 -5.0625 15.75 -5.019531 15.8125 -4.9375 C 15.875 -4.851562 15.84375 -4.734375 15.71875 -4.578125 L 15.28125 -3.890625 C 15.25 -3.765625 15.222656 -3.648438 15.203125 -3.546875 C 15.191406 -3.453125 15.148438 -3.359375 15.078125 -3.265625 C 14.953125 -3.035156 14.789062 -2.835938 14.59375 -2.671875 L 13.765625 -1.703125 C 13.734375 -1.671875 13.707031 -1.613281 13.6875 -1.53125 C 13.675781 -1.445312 13.609375 -1.375 13.484375 -1.3125 C 13.484375 -1.3125 13.484375 -1.296875 13.484375 -1.265625 C 13.484375 -1.234375 13.5 -1.203125 13.53125 -1.171875 C 13.5 -1.140625 13.457031 -1.125 13.40625 -1.125 C 13.351562 -1.125 13.328125 -1.109375 13.328125 -1.078125 C 13.234375 -0.878906 13.097656 -0.695312 12.921875 -0.53125 C 12.742188 -0.375 12.570312 -0.210938 12.40625 -0.046875 C 12.28125 0.109375 12.109375 0.269531 11.890625 0.4375 C 11.679688 0.601562 11.460938 0.765625 11.234375 0.921875 C 10.910156 1.148438 10.546875 1.296875 10.140625 1.359375 C 9.734375 1.421875 9.351562 1.488281 9 1.5625 L 8.953125 1.5625 C 8.785156 1.488281 8.65625 1.425781 8.5625 1.375 C 8.46875 1.332031 8.351562 1.25 8.21875 1.125 C 7.988281 0.957031 7.785156 0.757812 7.609375 0.53125 C 7.429688 0.300781 7.296875 0.0234375 7.203125 -0.296875 C 7.066406 -0.710938 6.96875 -1.144531 6.90625 -1.59375 C 6.84375 -2.050781 6.828125 -2.539062 6.859375 -3.0625 C 6.859375 -3.195312 6.863281 -3.34375 6.875 -3.5 C 6.894531 -3.664062 6.90625 -3.8125 6.90625 -3.9375 C 6.875 -4 6.832031 -4.046875 6.78125 -4.078125 C 6.738281 -4.117188 6.703125 -4.171875 6.671875 -4.234375 C 6.535156 -3.773438 6.304688 -3.53125 5.984375 -3.5 C 5.890625 -3.144531 5.660156 -2.882812 5.296875 -2.71875 C 5.335938 -2.53125 5.289062 -2.398438 5.15625 -2.328125 C 5.03125 -2.265625 4.929688 -2.171875 4.859375 -2.046875 C 4.828125 -1.984375 4.769531 -1.898438 4.6875 -1.796875 C 4.613281 -1.703125 4.59375 -1.65625 4.625 -1.65625 L 4.375 -1.3125 C 4.375 -1.3125 4.285156 -1.15625 4.109375 -0.84375 C 3.929688 -0.539062 3.753906 -0.203125 3.578125 0.171875 C 3.398438 0.546875 3.257812 0.828125 3.15625 1.015625 C 2.96875 1.273438 2.757812 1.40625 2.53125 1.40625 L 2.390625 1.75 C 2.347656 1.78125 2.316406 1.800781 2.296875 1.8125 C 2.285156 1.832031 2.265625 1.859375 2.234375 1.890625 C 2.078125 2.222656 1.816406 2.335938 1.453125 2.234375 Z M 1.453125 2.234375 "/></g></g></g><g fill="#d883b7" fill-opacity="1"><g transform="translate(164.215426, 38.515416)"><g><path d="M 14.359375 3.65625 C 14.546875 3.613281 14.710938 3.675781 14.859375 3.84375 C 15.003906 4.007812 15.078125 4.171875 15.078125 4.328125 L 11.09375 5.453125 C 10.96875 5.515625 10.882812 5.546875 10.84375 5.546875 C 10.6875 5.515625 10.566406 5.53125 10.484375 5.59375 C 10.398438 5.65625 10.3125 5.769531 10.21875 5.9375 C 10.21875 6.03125 10.1875 6.109375 10.125 6.171875 C 10.21875 6.335938 10.28125 6.535156 10.3125 6.765625 L 9.96875 6.859375 C 9.9375 6.992188 9.960938 7.109375 10.046875 7.203125 C 10.128906 7.296875 10.085938 7.425781 9.921875 7.59375 C 10.117188 7.914062 10.070312 8.140625 9.78125 8.265625 C 9.84375 8.554688 9.726562 8.785156 9.4375 8.953125 C 9.46875 8.984375 9.507812 9.015625 9.5625 9.046875 C 9.613281 9.078125 9.640625 9.109375 9.640625 9.140625 C 9.566406 9.398438 9.535156 9.535156 9.546875 9.546875 C 9.566406 9.566406 9.546875 9.675781 9.484375 9.875 C 9.515625 9.90625 9.503906 10.007812 9.453125 10.1875 C 9.410156 10.375 9.40625 10.46875 9.4375 10.46875 L 9.390625 10.84375 C 9.421875 10.976562 9.4375 11.082031 9.4375 11.15625 C 9.4375 11.238281 9.359375 11.316406 9.203125 11.390625 L 8.953125 11.875 C 9.015625 11.90625 9.070312 11.925781 9.125 11.9375 C 9.175781 11.957031 9.21875 12 9.25 12.0625 C 9.175781 12.289062 9.113281 12.5 9.0625 12.6875 C 9.019531 12.882812 8.96875 13.082031 8.90625 13.28125 C 8.875 13.414062 8.847656 13.554688 8.828125 13.703125 C 8.816406 13.847656 8.773438 14 8.703125 14.15625 C 8.578125 14.414062 8.515625 14.515625 8.515625 14.453125 C 8.578125 14.609375 8.578125 14.785156 8.515625 14.984375 C 8.484375 15.015625 8.429688 15.0625 8.359375 15.125 C 8.296875 15.195312 8.265625 15.28125 8.265625 15.375 C 8.234375 15.40625 8.191406 15.453125 8.140625 15.515625 C 8.097656 15.585938 8.109375 15.625 8.171875 15.625 C 8.171875 15.8125 8.140625 15.957031 8.078125 16.0625 L 7.203125 17.953125 C 7.265625 18.046875 7.3125 18.09375 7.34375 18.09375 L 7 18.34375 C 7.039062 18.46875 7.0625 18.628906 7.0625 18.828125 L 7 18.96875 C 7 19.007812 7.007812 19.03125 7.03125 19.03125 C 7.050781 19.03125 7.0625 19.03125 7.0625 19.03125 C 6.988281 19.0625 6.882812 19.210938 6.75 19.484375 C 6.625 19.765625 6.53125 20 6.46875 20.1875 C 6.40625 20.320312 6.304688 20.425781 6.171875 20.5 C 6.046875 20.582031 5.953125 20.707031 5.890625 20.875 C 5.828125 20.90625 5.8125 21.007812 5.84375 21.1875 C 5.875 21.363281 5.757812 21.375 5.5 21.21875 C 5.5625 21.34375 5.640625 21.472656 5.734375 21.609375 C 5.773438 21.734375 5.726562 21.796875 5.59375 21.796875 C 5.46875 21.796875 5.335938 21.8125 5.203125 21.84375 C 5.335938 21.90625 5.4375 21.972656 5.5 22.046875 C 5.363281 22.078125 5.25 22.140625 5.15625 22.234375 C 5.25 22.492188 5.179688 22.644531 4.953125 22.6875 C 4.734375 22.738281 4.59375 22.847656 4.53125 23.015625 L 4.8125 23.203125 C 4.71875 23.335938 4.628906 23.460938 4.546875 23.578125 C 4.460938 23.691406 4.390625 23.8125 4.328125 23.9375 C 4.296875 23.9375 4.28125 23.925781 4.28125 23.90625 C 4.28125 23.894531 4.28125 23.890625 4.28125 23.890625 C 4.1875 23.984375 4.070312 24.078125 3.9375 24.171875 C 3.8125 24.273438 3.71875 24.359375 3.65625 24.421875 C 3.65625 24.484375 3.671875 24.515625 3.703125 24.515625 L 3.84375 24.515625 C 3.84375 24.554688 3.847656 24.582031 3.859375 24.59375 C 3.878906 24.613281 3.890625 24.625 3.890625 24.625 C 3.660156 24.882812 3.425781 25.125 3.1875 25.34375 C 2.945312 25.570312 2.710938 25.816406 2.484375 26.078125 C 2.484375 26.273438 2.441406 26.421875 2.359375 26.515625 C 2.273438 26.609375 2.171875 26.707031 2.046875 26.8125 C 1.878906 26.96875 1.707031 27.117188 1.53125 27.265625 C 1.351562 27.410156 1.179688 27.566406 1.015625 27.734375 C 0.953125 27.796875 0.921875 27.828125 0.921875 27.828125 C 0.691406 27.929688 0.476562 28.070312 0.28125 28.25 C 0.09375 28.425781 -0.160156 28.515625 -0.484375 28.515625 C -0.546875 28.546875 -0.609375 28.609375 -0.671875 28.703125 C -0.742188 28.804688 -0.8125 28.890625 -0.875 28.953125 C -1.007812 29.015625 -1.148438 29.085938 -1.296875 29.171875 C -1.441406 29.253906 -1.578125 29.296875 -1.703125 29.296875 C -2.222656 29.421875 -2.804688 29.484375 -3.453125 29.484375 C -3.679688 29.546875 -3.859375 29.546875 -3.984375 29.484375 C -4.410156 29.359375 -4.789062 29.226562 -5.125 29.09375 C -5.46875 28.96875 -5.816406 28.804688 -6.171875 28.609375 C -6.859375 28.316406 -7.300781 27.878906 -7.5 27.296875 C -7.53125 27.203125 -7.59375 27.128906 -7.6875 27.078125 C -7.78125 27.023438 -7.863281 26.9375 -7.9375 26.8125 C -8.03125 26.550781 -8.125 26.296875 -8.21875 26.046875 C -8.320312 25.804688 -8.453125 25.523438 -8.609375 25.203125 C -8.640625 25.140625 -8.660156 25.066406 -8.671875 24.984375 C -8.691406 24.898438 -8.722656 24.828125 -8.765625 24.765625 C -8.722656 24.597656 -8.703125 24.453125 -8.703125 24.328125 C -8.703125 24.203125 -8.6875 24.070312 -8.65625 23.9375 C -8.59375 23.476562 -8.535156 23.046875 -8.484375 22.640625 C -8.441406 22.242188 -8.367188 21.847656 -8.265625 21.453125 C -8.203125 21.128906 -8.140625 20.796875 -8.078125 20.453125 C -8.015625 20.117188 -7.914062 19.769531 -7.78125 19.40625 C -7.75 19.34375 -7.703125 19.28125 -7.640625 19.21875 L -7.34375 18.15625 L -7 17.46875 C -6.78125 17.007812 -6.546875 16.578125 -6.296875 16.171875 C -6.054688 15.765625 -5.820312 15.367188 -5.59375 14.984375 C -5.363281 14.628906 -5.09375 14.253906 -4.78125 13.859375 C -4.476562 13.472656 -4.210938 13.101562 -3.984375 12.75 L -2.828125 11.53125 C -2.753906 11.46875 -2.628906 11.347656 -2.453125 11.171875 C -2.273438 10.992188 -2.125 10.851562 -2 10.75 C -1.863281 10.625 -1.722656 10.46875 -1.578125 10.28125 C -1.429688 10.101562 -1.242188 9.953125 -1.015625 9.828125 C -0.628906 9.535156 -0.242188 9.25 0.140625 8.96875 C 0.535156 8.695312 0.941406 8.414062 1.359375 8.125 C 2.046875 7.539062 2.789062 7.085938 3.59375 6.765625 L 5.453125 5.734375 C 5.804688 5.578125 6.171875 5.429688 6.546875 5.296875 C 6.921875 5.171875 7.269531 5.007812 7.59375 4.8125 L 7.78125 4.765625 C 8.300781 4.640625 8.546875 4.316406 8.515625 3.796875 C 8.484375 3.765625 8.46875 3.679688 8.46875 3.546875 C 8.5 3.421875 8.519531 3.300781 8.53125 3.1875 C 8.550781 3.070312 8.59375 2.953125 8.65625 2.828125 C 8.59375 2.242188 8.617188 1.828125 8.734375 1.578125 C 8.847656 1.335938 8.90625 1.117188 8.90625 0.921875 L 8.953125 0.828125 C 9.015625 0.304688 9.09375 -0.203125 9.1875 -0.703125 C 9.289062 -1.203125 9.390625 -1.679688 9.484375 -2.140625 C 9.453125 -2.109375 9.375 -2.09375 9.25 -2.09375 L 8.953125 -2.140625 C 8.921875 -2.109375 8.890625 -2.054688 8.859375 -1.984375 C 8.828125 -1.921875 8.773438 -1.875 8.703125 -1.84375 C 8.546875 -1.65625 8.414062 -1.523438 8.3125 -1.453125 C 8.3125 -1.453125 8.191406 -1.304688 7.953125 -1.015625 C 7.710938 -0.722656 7.394531 -0.429688 7 -0.140625 L 7 -0.09375 C 6.613281 0.03125 6.304688 0.15625 6.078125 0.28125 C 5.847656 0.414062 5.585938 0.53125 5.296875 0.625 C 5.171875 0.664062 5.039062 0.703125 4.90625 0.734375 C 4.78125 0.765625 4.617188 0.78125 4.421875 0.78125 C 4.265625 0.8125 4.085938 0.828125 3.890625 0.828125 C 3.691406 0.828125 3.515625 0.8125 3.359375 0.78125 L 2.140625 0.34375 C 2.078125 0.28125 2.019531 0.207031 1.96875 0.125 C 1.914062 0.0390625 1.859375 -0.03125 1.796875 -0.09375 C 1.796875 -0.289062 1.703125 -0.421875 1.515625 -0.484375 C 1.316406 -0.648438 1.203125 -0.84375 1.171875 -1.0625 C 1.140625 -1.289062 1.109375 -1.519531 1.078125 -1.75 C 0.941406 -2.132812 0.914062 -2.519531 1 -2.90625 C 1.082031 -3.300781 1.1875 -3.675781 1.3125 -4.03125 C 1.375 -4.195312 1.453125 -4.351562 1.546875 -4.5 C 1.648438 -4.644531 1.71875 -4.785156 1.75 -4.921875 C 1.8125 -5.046875 1.875 -5.1875 1.9375 -5.34375 C 2.007812 -5.507812 2.109375 -5.691406 2.234375 -5.890625 C 2.265625 -5.890625 2.28125 -5.90625 2.28125 -5.9375 C 2.539062 -6.164062 2.742188 -6.457031 2.890625 -6.8125 C 3.035156 -7.164062 3.253906 -7.457031 3.546875 -7.6875 C 3.710938 -7.78125 3.945312 -7.960938 4.25 -8.234375 C 4.5625 -8.515625 4.785156 -8.671875 4.921875 -8.703125 C 5.171875 -8.804688 5.441406 -8.878906 5.734375 -8.921875 C 6.023438 -8.972656 6.300781 -8.953125 6.5625 -8.859375 C 6.695312 -8.828125 6.84375 -8.816406 7 -8.828125 C 7.164062 -8.847656 7.296875 -8.84375 7.390625 -8.8125 C 7.554688 -8.675781 7.769531 -8.578125 8.03125 -8.515625 C 8.289062 -8.453125 8.484375 -8.367188 8.609375 -8.265625 C 8.867188 -8.078125 9.078125 -7.910156 9.234375 -7.765625 C 9.398438 -7.617188 9.582031 -7.414062 9.78125 -7.15625 L 10.125 -6.515625 C 10.28125 -6.648438 10.429688 -6.820312 10.578125 -7.03125 C 10.722656 -7.238281 10.863281 -7.375 11 -7.4375 L 11.578125 -7.296875 C 11.929688 -7.265625 12.320312 -7.1875 12.75 -7.0625 L 12.609375 -6.125 C 12.503906 -5.96875 12.425781 -5.78125 12.375 -5.5625 C 12.332031 -5.351562 12.28125 -5.171875 12.21875 -5.015625 C 12.175781 -4.878906 12.140625 -4.742188 12.109375 -4.609375 C 12.078125 -4.484375 12.046875 -4.359375 12.015625 -4.234375 C 11.816406 -3.453125 11.660156 -2.6875 11.546875 -1.9375 C 11.441406 -1.195312 11.304688 -0.453125 11.140625 0.296875 C 11.078125 0.648438 11.050781 0.992188 11.0625 1.328125 C 11.082031 1.671875 11.007812 2.023438 10.84375 2.390625 C 10.8125 2.609375 10.796875 2.820312 10.796875 3.03125 C 10.796875 3.25 10.765625 3.457031 10.703125 3.65625 C 10.703125 3.65625 10.707031 3.691406 10.71875 3.765625 C 10.738281 3.847656 10.765625 3.890625 10.796875 3.890625 C 11.117188 3.859375 11.425781 3.816406 11.71875 3.765625 C 12.007812 3.722656 12.320312 3.6875 12.65625 3.65625 C 13.238281 3.582031 13.804688 3.582031 14.359375 3.65625 Z M 8.65625 -4.375 C 8.820312 -4.34375 8.9375 -4.382812 9 -4.5 C 9.0625 -4.613281 9.109375 -4.703125 9.140625 -4.765625 C 9.046875 -4.828125 8.96875 -4.898438 8.90625 -4.984375 C 8.84375 -5.066406 8.773438 -5.140625 8.703125 -5.203125 C 8.484375 -5.429688 8.421875 -5.691406 8.515625 -5.984375 C 8.546875 -6.148438 8.507812 -6.394531 8.40625 -6.71875 C 8.3125 -7.039062 8.234375 -7.21875 8.171875 -7.25 C 8.078125 -7.414062 7.929688 -7.5 7.734375 -7.5 C 7.378906 -7.457031 7.019531 -7.378906 6.65625 -7.265625 C 6.300781 -7.160156 5.992188 -6.960938 5.734375 -6.671875 C 5.546875 -6.503906 5.351562 -6.347656 5.15625 -6.203125 C 4.957031 -6.054688 4.78125 -5.898438 4.625 -5.734375 C 4.59375 -5.703125 4.539062 -5.644531 4.46875 -5.5625 C 4.40625 -5.488281 4.34375 -5.421875 4.28125 -5.359375 L 4.328125 -5.109375 C 4.203125 -4.941406 4.066406 -4.773438 3.921875 -4.609375 C 3.773438 -4.453125 3.632812 -4.28125 3.5 -4.09375 C 3.375 -3.800781 3.253906 -3.503906 3.140625 -3.203125 C 3.023438 -2.910156 2.898438 -2.640625 2.765625 -2.390625 C 2.703125 -2.160156 2.644531 -1.945312 2.59375 -1.75 C 2.550781 -1.550781 2.578125 -1.34375 2.671875 -1.125 C 2.734375 -1.125 2.8125 -1.128906 2.90625 -1.140625 C 3.007812 -1.160156 3.113281 -1.171875 3.21875 -1.171875 C 3.570312 -1.203125 3.910156 -1.273438 4.234375 -1.390625 C 4.554688 -1.503906 4.894531 -1.625 5.25 -1.75 L 6.625 -2.53125 L 6.671875 -2.53125 C 6.859375 -2.851562 7.132812 -3.097656 7.5 -3.265625 C 7.5625 -3.265625 7.613281 -3.296875 7.65625 -3.359375 C 7.707031 -3.421875 7.75 -3.46875 7.78125 -3.5 C 7.882812 -3.664062 8.03125 -3.78125 8.21875 -3.84375 C 8.414062 -3.90625 8.53125 -4.050781 8.5625 -4.28125 C 8.5625 -4.34375 8.59375 -4.375 8.65625 -4.375 Z M 7.78125 8.421875 C 7.84375 8.128906 7.898438 7.828125 7.953125 7.515625 C 8.003906 7.210938 8.078125 6.914062 8.171875 6.625 C 7.972656 6.65625 7.789062 6.71875 7.625 6.8125 C 7.46875 6.90625 7.3125 6.988281 7.15625 7.0625 C 6.539062 7.28125 5.957031 7.519531 5.40625 7.78125 C 4.851562 8.039062 4.300781 8.367188 3.75 8.765625 C 3.425781 8.984375 3.066406 9.207031 2.671875 9.4375 C 2.285156 9.664062 1.914062 9.910156 1.5625 10.171875 C 1.300781 10.367188 1.015625 10.546875 0.703125 10.703125 C 0.398438 10.867188 0.101562 11.082031 -0.1875 11.34375 C -0.289062 11.46875 -0.421875 11.59375 -0.578125 11.71875 C -0.742188 11.851562 -0.875 11.984375 -0.96875 12.109375 C -1.101562 12.242188 -1.234375 12.34375 -1.359375 12.40625 C -1.492188 12.46875 -1.609375 12.550781 -1.703125 12.65625 C -1.929688 12.875 -2.191406 13.179688 -2.484375 13.578125 C -2.640625 13.703125 -2.800781 13.84375 -2.96875 14 C -3.132812 14.164062 -3.296875 14.332031 -3.453125 14.5 C -3.484375 14.5625 -3.597656 14.710938 -3.796875 14.953125 C -3.992188 15.203125 -4.171875 15.457031 -4.328125 15.71875 C -4.492188 15.976562 -4.578125 16.15625 -4.578125 16.25 L -5.59375 17.765625 C -5.625 17.765625 -5.71875 17.914062 -5.875 18.21875 C -6.039062 18.53125 -6.160156 18.765625 -6.234375 18.921875 C -6.390625 19.117188 -6.484375 19.347656 -6.515625 19.609375 C -6.585938 19.804688 -6.640625 20.015625 -6.671875 20.234375 C -6.703125 20.460938 -6.75 20.660156 -6.8125 20.828125 C -6.875 21.148438 -6.953125 21.472656 -7.046875 21.796875 C -7.148438 22.117188 -7.21875 22.457031 -7.25 22.8125 C -7.28125 23.269531 -7.28125 23.707031 -7.25 24.125 C -7.21875 24.550781 -7.1875 24.992188 -7.15625 25.453125 C -7.09375 25.929688 -6.9375 26.332031 -6.6875 26.65625 C -6.445312 26.988281 -6.128906 27.265625 -5.734375 27.484375 L -5.5 27.6875 C -5.363281 27.75 -5.296875 27.78125 -5.296875 27.78125 C -4.941406 27.914062 -4.609375 28 -4.296875 28.03125 C -3.992188 28.0625 -3.695312 28.007812 -3.40625 27.875 C -3.238281 27.8125 -3.054688 27.726562 -2.859375 27.625 C -2.671875 27.53125 -2.515625 27.46875 -2.390625 27.4375 C -1.960938 27.3125 -1.585938 27.125 -1.265625 26.875 C -0.941406 26.632812 -0.617188 26.382812 -0.296875 26.125 C 0.0234375 25.863281 0.320312 25.578125 0.59375 25.265625 C 0.875 24.960938 1.144531 24.664062 1.40625 24.375 C 1.800781 23.882812 2.144531 23.410156 2.4375 22.953125 C 2.726562 22.503906 3.035156 22.039062 3.359375 21.5625 C 3.710938 21.070312 4.003906 20.570312 4.234375 20.0625 C 4.460938 19.5625 4.707031 19.050781 4.96875 18.53125 C 5.15625 18.144531 5.3125 17.773438 5.4375 17.421875 C 5.570312 17.066406 5.707031 16.691406 5.84375 16.296875 C 6.03125 15.710938 6.222656 15.144531 6.421875 14.59375 C 6.617188 14.039062 6.78125 13.472656 6.90625 12.890625 C 7.039062 12.441406 7.144531 11.988281 7.21875 11.53125 C 7.300781 11.070312 7.394531 10.632812 7.5 10.21875 C 7.5625 9.988281 7.625 9.726562 7.6875 9.4375 C 7.75 9.144531 7.78125 8.867188 7.78125 8.609375 Z M 7.78125 8.421875 "/></g></g></g></svg>