<svg xmlns="http://www.w3.org/2000/svg" xmlns:xlink="http://www.w3.org/1999/xlink" width="300" zoomAndPan="magnify" viewBox="0 0 224.87999 89.999999" height="120" preserveAspectRatio="xMidYMid meet" version="1.0"><defs><g/><clipPath id="ddc56948df"><path d="M 194 36 L 224.761719 36 L 224.761719 86 L 194 86 Z M 194 36 " clip-rule="nonzero"/></clipPath></defs><g fill="#d883b7" fill-opacity="1"><g transform="translate(0.617655, 48.142592)"><g><path d="M 13.0625 9.296875 C 12.175781 8.972656 11.242188 8.628906 10.265625 8.265625 C 9.296875 7.898438 8.40625 7.453125 7.59375 6.921875 C 7.4375 6.765625 7.253906 6.625 7.046875 6.5 C 6.847656 6.382812 6.664062 6.242188 6.5 6.078125 C 6.257812 5.796875 5.863281 5.359375 5.3125 4.765625 C 4.769531 4.179688 4.265625 3.378906 3.796875 2.359375 C 3.328125 1.347656 3.070312 0.113281 3.03125 -1.34375 L 3.46875 -2.484375 C 3.300781 -2.816406 3.238281 -3.144531 3.28125 -3.46875 C 3.320312 -3.789062 3.40625 -4.070312 3.53125 -4.3125 C 3.6875 -5.613281 3.96875 -6.878906 4.375 -8.109375 C 4.78125 -9.347656 5.265625 -10.535156 5.828125 -11.671875 C 6.035156 -12.273438 6.300781 -12.867188 6.625 -13.453125 C 6.945312 -14.046875 7.289062 -14.625 7.65625 -15.1875 C 8.019531 -15.757812 8.394531 -16.367188 8.78125 -17.015625 C 9.164062 -17.660156 9.582031 -18.269531 10.03125 -18.84375 C 11.039062 -20.175781 12.050781 -21.390625 13.0625 -22.484375 C 14.082031 -23.578125 15.257812 -24.671875 16.59375 -25.765625 C 17.769531 -26.785156 19.085938 -27.554688 20.546875 -28.078125 C 22.003906 -28.609375 23.5625 -28.648438 25.21875 -28.203125 C 26.632812 -27.878906 27.800781 -27.351562 28.71875 -26.625 C 29.632812 -25.894531 30.332031 -24.984375 30.8125 -23.890625 C 31.382812 -22.585938 31.707031 -21.488281 31.78125 -20.59375 C 31.863281 -19.707031 31.804688 -18.71875 31.609375 -17.625 C 31.359375 -15.925781 30.769531 -15.175781 29.84375 -15.375 C 29.5625 -15.457031 29.164062 -15.609375 28.65625 -15.828125 C 28.15625 -16.054688 27.90625 -16.375 27.90625 -16.78125 C 28.34375 -18.03125 28.632812 -19.289062 28.78125 -20.5625 C 28.925781 -21.84375 28.613281 -23.113281 27.84375 -24.375 C 27.632812 -24.695312 27.253906 -25.097656 26.703125 -25.578125 C 26.160156 -26.066406 25.300781 -26.3125 24.125 -26.3125 C 22.988281 -26.3125 21.875 -25.988281 20.78125 -25.34375 C 19.6875 -24.695312 18.644531 -23.882812 17.65625 -22.90625 C 16.664062 -21.9375 15.773438 -20.960938 14.984375 -19.984375 C 14.191406 -19.015625 13.550781 -18.226562 13.0625 -17.625 C 12.625 -17.019531 12.222656 -16.398438 11.859375 -15.765625 C 11.492188 -15.140625 11.003906 -14.546875 10.390625 -13.984375 C 10.347656 -13.941406 10.316406 -13.890625 10.296875 -13.828125 C 10.273438 -13.765625 10.226562 -13.691406 10.15625 -13.609375 C 10.070312 -12.921875 9.796875 -12.265625 9.328125 -11.640625 C 8.859375 -11.015625 8.546875 -10.394531 8.390625 -9.78125 C 8.347656 -9.625 8.234375 -9.484375 8.046875 -9.359375 C 7.867188 -9.234375 7.800781 -9.070312 7.84375 -8.875 C 7.632812 -7.863281 7.335938 -6.828125 6.953125 -5.765625 C 6.566406 -4.710938 6.335938 -3.660156 6.265625 -2.609375 C 6.222656 -1.960938 6.222656 -1.320312 6.265625 -0.6875 C 6.304688 -0.0625 6.34375 0.550781 6.375 1.15625 C 6.457031 1.757812 6.628906 2.40625 6.890625 3.09375 C 7.160156 3.789062 7.519531 4.378906 7.96875 4.859375 C 8.53125 5.472656 9.316406 6.007812 10.328125 6.46875 C 11.347656 6.9375 12.320312 7.191406 13.25 7.234375 C 15.15625 7.273438 16.753906 7.140625 18.046875 6.828125 C 19.347656 6.523438 20.632812 5.910156 21.90625 4.984375 C 23.1875 4.054688 24.695312 2.71875 26.4375 0.96875 C 27.125 0.28125 27.8125 -0.457031 28.5 -1.25 C 29.195312 -2.039062 29.6875 -2.78125 29.96875 -3.46875 C 29.84375 -3.582031 29.375 -3.691406 28.5625 -3.796875 C 27.75 -3.898438 26.722656 -3.953125 25.484375 -3.953125 C 24.253906 -3.953125 22.929688 -3.859375 21.515625 -3.671875 C 20.097656 -3.492188 18.738281 -3.203125 17.4375 -2.796875 C 17.070312 -3.117188 16.976562 -3.539062 17.15625 -4.0625 C 17.34375 -4.59375 18.003906 -4.960938 19.140625 -5.171875 C 20.273438 -5.367188 21.195312 -5.519531 21.90625 -5.625 C 22.613281 -5.726562 23.375 -5.804688 24.1875 -5.859375 C 25 -5.921875 26.050781 -5.972656 27.34375 -6.015625 C 28.238281 -6.054688 29.179688 -6.015625 30.171875 -5.890625 C 31.171875 -5.773438 31.960938 -5.5625 32.546875 -5.25 C 33.128906 -4.945312 33.257812 -4.515625 32.9375 -3.953125 C 32.613281 -3.378906 32.207031 -2.726562 31.71875 -2 C 31.238281 -1.269531 30.675781 -0.519531 30.03125 0.25 C 29.738281 0.570312 29.421875 0.894531 29.078125 1.21875 C 28.734375 1.539062 28.421875 1.820312 28.140625 2.0625 L 26.5 4.078125 C 26.457031 4.234375 26.4375 4.363281 26.4375 4.46875 C 26.4375 4.570312 26.414062 4.644531 26.375 4.6875 C 26.175781 4.84375 25.941406 4.988281 25.671875 5.125 C 25.410156 5.269531 25.179688 5.40625 24.984375 5.53125 C 24.703125 5.8125 24.414062 6.0625 24.125 6.28125 C 23.84375 6.507812 23.625 6.765625 23.46875 7.046875 C 23.257812 7.367188 22.941406 7.628906 22.515625 7.828125 C 22.085938 8.035156 21.65625 8.179688 21.21875 8.265625 C 20.8125 8.304688 20.453125 8.359375 20.140625 8.421875 C 19.835938 8.484375 19.585938 8.613281 19.390625 8.8125 C 19.347656 8.851562 19.304688 8.90625 19.265625 8.96875 C 19.222656 9.03125 19.203125 9.0625 19.203125 9.0625 C 18.234375 9.257812 17.210938 9.414062 16.140625 9.53125 C 15.066406 9.65625 14.039062 9.578125 13.0625 9.296875 Z M 13.0625 9.296875 "/></g></g></g><g fill="#d883b7" fill-opacity="1"><g transform="translate(36.784842, 48.142592)"><g><path d="M 15.984375 -5.953125 L 15.078125 -5.171875 C 15.035156 -5.128906 14.992188 -5.054688 14.953125 -4.953125 C 14.910156 -4.847656 14.804688 -4.757812 14.640625 -4.6875 L 14.46875 -4.4375 C 14.1875 -4.3125 14.125 -4.171875 14.28125 -4.015625 C 14.15625 -3.929688 14.039062 -3.835938 13.9375 -3.734375 C 13.84375 -3.640625 13.773438 -3.488281 13.734375 -3.28125 L 13.734375 -3.21875 C 13.691406 -3.132812 13.628906 -3.039062 13.546875 -2.9375 C 13.472656 -2.84375 13.414062 -2.773438 13.375 -2.734375 C 13.164062 -2.535156 12.898438 -2.3125 12.578125 -2.0625 L 11.421875 -1.15625 C 11.179688 -1.03125 10.957031 -0.90625 10.75 -0.78125 C 10.550781 -0.664062 10.351562 -0.523438 10.15625 -0.359375 C 9.863281 -0.203125 9.597656 -0.0351562 9.359375 0.140625 C 9.117188 0.328125 8.835938 0.484375 8.515625 0.609375 C 8.347656 0.691406 8.148438 0.742188 7.921875 0.765625 C 7.703125 0.785156 7.492188 0.8125 7.296875 0.84375 C 7.128906 0.84375 6.945312 0.90625 6.75 1.03125 C 6.625 1.070312 6.476562 1.113281 6.3125 1.15625 C 6.15625 1.195312 5.992188 1.238281 5.828125 1.28125 C 5.585938 1.320312 5.351562 1.367188 5.125 1.421875 C 4.90625 1.484375 4.675781 1.492188 4.4375 1.453125 C 3.75 1.378906 3.140625 1.257812 2.609375 1.09375 C 2.328125 1.007812 2.101562 0.925781 1.9375 0.84375 C 1.78125 0.769531 1.539062 0.609375 1.21875 0.359375 C 1.175781 0.285156 1.125 0.238281 1.0625 0.21875 C 1 0.195312 0.945312 0.164062 0.90625 0.125 C 0.707031 -0.0390625 0.535156 -0.210938 0.390625 -0.390625 C 0.253906 -0.578125 0.0820312 -0.8125 -0.125 -1.09375 C -0.164062 -1.175781 -0.195312 -1.242188 -0.21875 -1.296875 C -0.238281 -1.359375 -0.285156 -1.535156 -0.359375 -1.828125 C -0.523438 -2.191406 -0.609375 -2.492188 -0.609375 -2.734375 C -0.609375 -2.972656 -0.609375 -3.195312 -0.609375 -3.40625 C -0.523438 -4.625 -0.203125 -5.796875 0.359375 -6.921875 C 0.484375 -7.128906 0.601562 -7.320312 0.71875 -7.5 C 0.84375 -7.6875 0.988281 -7.859375 1.15625 -8.015625 C 1.4375 -8.347656 1.707031 -8.675781 1.96875 -9 C 2.238281 -9.320312 2.515625 -9.625 2.796875 -9.90625 C 3.398438 -10.507812 4.066406 -10.832031 4.796875 -10.875 C 4.878906 -10.875 4.972656 -10.882812 5.078125 -10.90625 C 5.179688 -10.925781 5.289062 -10.957031 5.40625 -11 C 5.726562 -11.125 6.019531 -11.113281 6.28125 -10.96875 C 6.550781 -10.832031 6.785156 -10.703125 6.984375 -10.578125 C 7.273438 -10.453125 7.539062 -10.304688 7.78125 -10.140625 C 8.019531 -9.984375 8.242188 -9.804688 8.453125 -9.609375 C 8.691406 -9.441406 8.867188 -9.15625 8.984375 -8.75 C 9.109375 -8.34375 9.132812 -8.019531 9.0625 -7.78125 C 8.9375 -7.457031 8.769531 -7.191406 8.5625 -6.984375 C 8.28125 -6.703125 8.007812 -6.421875 7.75 -6.140625 C 7.488281 -5.859375 7.210938 -5.570312 6.921875 -5.28125 C 6.847656 -5.207031 6.738281 -5.140625 6.59375 -5.078125 C 6.445312 -5.015625 6.359375 -4.941406 6.328125 -4.859375 C 6.285156 -4.660156 6.179688 -4.53125 6.015625 -4.46875 C 5.859375 -4.40625 5.71875 -4.332031 5.59375 -4.25 L 4.734375 -3.640625 C 4.703125 -3.609375 4.6875 -3.5625 4.6875 -3.5 C 4.6875 -3.4375 4.664062 -3.382812 4.625 -3.34375 C 4.414062 -3.21875 4.195312 -3.101562 3.96875 -3 C 3.75 -2.90625 3.539062 -2.796875 3.34375 -2.671875 C 3.257812 -2.628906 3.1875 -2.578125 3.125 -2.515625 C 3.0625 -2.460938 2.992188 -2.394531 2.921875 -2.3125 C 2.671875 -2.1875 2.472656 -2.09375 2.328125 -2.03125 C 2.191406 -1.96875 2.023438 -1.878906 1.828125 -1.765625 C 1.941406 -1.398438 2.050781 -1.15625 2.15625 -1.03125 C 2.257812 -0.90625 2.429688 -0.804688 2.671875 -0.734375 C 3.078125 -0.773438 3.472656 -0.796875 3.859375 -0.796875 C 4.242188 -0.796875 4.640625 -0.8125 5.046875 -0.84375 C 5.328125 -0.882812 5.597656 -0.957031 5.859375 -1.0625 C 6.128906 -1.164062 6.40625 -1.257812 6.6875 -1.34375 C 6.882812 -1.414062 7.101562 -1.515625 7.34375 -1.640625 C 7.59375 -1.765625 7.835938 -1.863281 8.078125 -1.9375 C 8.242188 -2.019531 8.394531 -2.070312 8.53125 -2.09375 C 8.675781 -2.113281 8.832031 -2.164062 9 -2.25 L 11 -3.40625 L 11.1875 -3.53125 C 11.46875 -3.726562 11.847656 -3.96875 12.328125 -4.25 C 12.816406 -4.539062 13.207031 -4.765625 13.5 -4.921875 C 13.613281 -5.003906 13.75 -5.082031 13.90625 -5.15625 C 14.070312 -5.238281 14.175781 -5.300781 14.21875 -5.34375 L 16.296875 -6.875 L 16.40625 -6.4375 C 16.40625 -6.4375 16.414062 -6.4375 16.4375 -6.4375 C 16.457031 -6.4375 16.46875 -6.414062 16.46875 -6.375 C 16.382812 -6.34375 16.300781 -6.285156 16.21875 -6.203125 C 16.144531 -6.117188 16.066406 -6.035156 15.984375 -5.953125 Z M 2.1875 -5.46875 C 2.101562 -5.3125 2.03125 -5.117188 1.96875 -4.890625 C 1.914062 -4.671875 1.847656 -4.4375 1.765625 -4.1875 C 2.003906 -4.351562 2.203125 -4.484375 2.359375 -4.578125 C 2.523438 -4.679688 2.671875 -4.773438 2.796875 -4.859375 L 4.4375 -6.203125 L 6.078125 -7.65625 C 6.273438 -7.820312 6.4375 -7.992188 6.5625 -8.171875 C 6.6875 -8.359375 6.804688 -8.550781 6.921875 -8.75 C 7.003906 -8.914062 6.992188 -9.097656 6.890625 -9.296875 C 6.796875 -9.503906 6.6875 -9.566406 6.5625 -9.484375 C 6.28125 -9.359375 6.003906 -9.273438 5.734375 -9.234375 C 5.472656 -9.191406 5.222656 -9.070312 4.984375 -8.875 C 4.703125 -8.664062 4.425781 -8.46875 4.15625 -8.28125 C 3.894531 -8.101562 3.664062 -7.875 3.46875 -7.59375 C 3.019531 -6.988281 2.59375 -6.28125 2.1875 -5.46875 Z M 2.1875 -5.46875 "/></g></g></g><g fill="#d883b7" fill-opacity="1"><g transform="translate(52.102701, 48.142592)"><g><path d="M 17.265625 -8.328125 L 17.328125 -8.265625 L 17.328125 -7.71875 C 16.960938 -7.351562 16.65625 -7.066406 16.40625 -6.859375 C 16.164062 -6.660156 15.945312 -6.5 15.75 -6.375 C 15.625 -6.300781 15.539062 -6.210938 15.5 -6.109375 C 15.457031 -6.003906 15.375 -5.953125 15.25 -5.953125 L 14.828125 -5.953125 C 14.742188 -5.953125 14.703125 -5.929688 14.703125 -5.890625 C 14.660156 -5.734375 14.546875 -5.632812 14.359375 -5.59375 C 14.179688 -5.550781 14.015625 -5.488281 13.859375 -5.40625 L 13 -5.046875 C 12.675781 -4.878906 12.382812 -4.773438 12.125 -4.734375 C 11.863281 -4.703125 11.570312 -4.664062 11.25 -4.625 C 11.164062 -4.625 11.09375 -4.613281 11.03125 -4.59375 C 10.96875 -4.570312 10.894531 -4.5625 10.8125 -4.5625 C 10.570312 -4.5625 10.453125 -4.4375 10.453125 -4.1875 C 10.410156 -4.113281 10.367188 -4.023438 10.328125 -3.921875 C 10.285156 -3.816406 10.265625 -3.707031 10.265625 -3.59375 L 10.390625 -3.53125 C 10.390625 -3.53125 10.390625 -3.519531 10.390625 -3.5 C 10.390625 -3.476562 10.390625 -3.46875 10.390625 -3.46875 C 10.234375 -3.300781 10.132812 -3.132812 10.09375 -2.96875 C 10.050781 -2.8125 9.925781 -2.671875 9.71875 -2.546875 C 9.6875 -2.503906 9.675781 -2.441406 9.6875 -2.359375 C 9.707031 -2.285156 9.703125 -2.226562 9.671875 -2.1875 C 9.421875 -1.90625 9.203125 -1.617188 9.015625 -1.328125 C 8.835938 -1.046875 8.609375 -0.742188 8.328125 -0.421875 L 8.203125 -0.296875 C 8.046875 -0.140625 7.882812 0.00390625 7.71875 0.140625 C 7.550781 0.285156 7.410156 0.441406 7.296875 0.609375 C 7.046875 0.765625 6.820312 0.84375 6.625 0.84375 C 6.382812 1.007812 6.148438 1.132812 5.921875 1.21875 C 5.703125 1.300781 5.453125 1.378906 5.171875 1.453125 C 4.878906 1.535156 4.675781 1.535156 4.5625 1.453125 C 4.28125 1.410156 3.960938 1.378906 3.609375 1.359375 C 3.265625 1.347656 2.972656 1.28125 2.734375 1.15625 C 2.367188 1.070312 2.050781 0.9375 1.78125 0.75 C 1.519531 0.570312 1.289062 0.34375 1.09375 0.0625 C 0.769531 -0.257812 0.566406 -0.679688 0.484375 -1.203125 C 0.398438 -1.734375 0.335938 -2.242188 0.296875 -2.734375 C 0.265625 -3.304688 0.347656 -3.882812 0.546875 -4.46875 C 0.742188 -5.050781 0.925781 -5.609375 1.09375 -6.140625 C 1.175781 -6.335938 1.238281 -6.578125 1.28125 -6.859375 C 1.320312 -7.148438 1.359375 -7.296875 1.390625 -7.296875 C 1.597656 -7.617188 1.78125 -7.941406 1.9375 -8.265625 C 2.101562 -8.585938 2.269531 -8.832031 2.4375 -9 C 2.71875 -9.28125 3.007812 -9.539062 3.3125 -9.78125 C 3.613281 -10.03125 3.945312 -10.234375 4.3125 -10.390625 C 4.59375 -10.515625 4.875 -10.578125 5.15625 -10.578125 C 5.445312 -10.578125 5.710938 -10.578125 5.953125 -10.578125 C 6.117188 -10.578125 6.238281 -10.515625 6.3125 -10.390625 C 6.394531 -10.273438 6.5 -10.15625 6.625 -10.03125 C 6.664062 -9.988281 6.71875 -9.96875 6.78125 -9.96875 C 6.84375 -9.96875 6.890625 -9.945312 6.921875 -9.90625 C 7.253906 -9.78125 7.609375 -9.6875 7.984375 -9.625 C 8.367188 -9.570312 8.742188 -9.382812 9.109375 -9.0625 C 9.148438 -9.019531 9.222656 -9 9.328125 -9 C 9.429688 -9 9.503906 -8.976562 9.546875 -8.9375 C 9.867188 -8.6875 10.171875 -8.257812 10.453125 -7.65625 L 10.875 -6.328125 C 10.875 -6.203125 10.875 -6.140625 10.875 -6.140625 C 11.445312 -6.335938 11.992188 -6.523438 12.515625 -6.703125 C 13.046875 -6.890625 13.570312 -7.066406 14.09375 -7.234375 C 14.539062 -7.429688 14.988281 -7.59375 15.4375 -7.71875 C 15.882812 -7.84375 16.492188 -8.046875 17.265625 -8.328125 Z M 8.625 -5.890625 C 8.582031 -6.054688 8.570312 -6.226562 8.59375 -6.40625 C 8.613281 -6.59375 8.625 -6.765625 8.625 -6.921875 C 8.582031 -7.171875 8.53125 -7.4375 8.46875 -7.71875 C 8.414062 -8 8.304688 -8.265625 8.140625 -8.515625 C 8.054688 -8.671875 7.914062 -8.707031 7.71875 -8.625 C 7.351562 -8.625 7.070312 -8.523438 6.875 -8.328125 C 6.707031 -8.160156 6.53125 -8.003906 6.34375 -7.859375 C 6.164062 -7.722656 6.054688 -7.515625 6.015625 -7.234375 C 6.015625 -6.867188 6.097656 -6.546875 6.265625 -6.265625 C 6.335938 -6.015625 6.554688 -5.890625 6.921875 -5.890625 Z M 8.078125 -4.078125 C 8.242188 -4.273438 8.1875 -4.4375 7.90625 -4.5625 C 7.5 -4.5625 7.132812 -4.617188 6.8125 -4.734375 C 6.15625 -4.859375 5.566406 -5.125 5.046875 -5.53125 C 4.597656 -5.769531 4.3125 -6.070312 4.1875 -6.4375 C 4.03125 -6.644531 3.929688 -6.867188 3.890625 -7.109375 C 3.722656 -6.742188 3.566406 -6.429688 3.421875 -6.171875 C 3.285156 -5.910156 3.140625 -5.613281 2.984375 -5.28125 C 2.898438 -5.164062 2.828125 -5.023438 2.765625 -4.859375 C 2.703125 -4.703125 2.648438 -4.5625 2.609375 -4.4375 C 2.566406 -4.269531 2.535156 -4.101562 2.515625 -3.9375 C 2.492188 -3.78125 2.46875 -3.625 2.4375 -3.46875 C 2.3125 -3.175781 2.238281 -2.859375 2.21875 -2.515625 C 2.195312 -2.171875 2.1875 -1.835938 2.1875 -1.515625 C 2.1875 -1.316406 2.207031 -1.132812 2.25 -0.96875 C 2.289062 -0.8125 2.332031 -0.628906 2.375 -0.421875 C 2.414062 -0.179688 2.585938 -0.0078125 2.890625 0.09375 C 3.191406 0.195312 3.546875 0.164062 3.953125 0 C 4.398438 -0.125 4.832031 -0.328125 5.25 -0.609375 C 5.675781 -0.890625 6.050781 -1.191406 6.375 -1.515625 C 6.78125 -1.921875 7.128906 -2.347656 7.421875 -2.796875 C 7.535156 -2.992188 7.632812 -3.203125 7.71875 -3.421875 C 7.800781 -3.648438 7.921875 -3.867188 8.078125 -4.078125 Z M 8.078125 -4.078125 "/></g></g></g><g fill="#d883b7" fill-opacity="1"><g transform="translate(66.387218, 48.142592)"><g><path d="M 1.34375 1.09375 C 1.175781 1.007812 1.039062 0.90625 0.9375 0.78125 C 0.84375 0.664062 0.671875 0.546875 0.421875 0.421875 C 0.304688 0.0976562 0.195312 -0.210938 0.09375 -0.515625 C -0.0078125 -0.816406 -0.0195312 -1.171875 0.0625 -1.578125 L 0.546875 -4.078125 C 0.628906 -4.398438 0.707031 -4.734375 0.78125 -5.078125 C 0.863281 -5.421875 0.90625 -5.753906 0.90625 -6.078125 C 0.988281 -6.523438 1.085938 -6.953125 1.203125 -7.359375 C 1.328125 -7.765625 1.410156 -8.164062 1.453125 -8.5625 C 1.535156 -9.007812 1.617188 -9.4375 1.703125 -9.84375 C 1.785156 -10.25 1.847656 -10.65625 1.890625 -11.0625 C 1.921875 -11.144531 1.9375 -11.222656 1.9375 -11.296875 C 1.9375 -11.378906 1.957031 -11.441406 2 -11.484375 C 2.125 -11.691406 2.304688 -11.796875 2.546875 -11.796875 C 3.203125 -12.035156 3.648438 -11.707031 3.890625 -10.8125 C 4.085938 -10.332031 4.148438 -9.804688 4.078125 -9.234375 C 4.078125 -9.148438 4.054688 -9.054688 4.015625 -8.953125 C 3.972656 -8.859375 3.953125 -8.726562 3.953125 -8.5625 C 4.035156 -8.6875 4.125 -8.800781 4.21875 -8.90625 C 4.320312 -9.007812 4.394531 -9.097656 4.4375 -9.171875 C 4.601562 -9.460938 4.773438 -9.695312 4.953125 -9.875 C 5.140625 -10.0625 5.332031 -10.253906 5.53125 -10.453125 C 5.8125 -10.859375 6.113281 -11.191406 6.4375 -11.453125 C 6.757812 -11.722656 7.085938 -11.957031 7.421875 -12.15625 C 8.179688 -12.757812 8.96875 -12.820312 9.78125 -12.34375 C 9.945312 -12.21875 10.097656 -12.09375 10.234375 -11.96875 C 10.378906 -11.851562 10.515625 -11.734375 10.640625 -11.609375 C 10.753906 -11.484375 10.832031 -11.421875 10.875 -11.421875 C 11.082031 -11.304688 11.242188 -11.066406 11.359375 -10.703125 L 11.3125 -10.390625 C 11.3125 -10.390625 11.21875 -10.378906 11.03125 -10.359375 C 10.851562 -10.335938 10.5625 -10.410156 10.15625 -10.578125 C 9.988281 -10.578125 9.8125 -10.578125 9.625 -10.578125 C 9.445312 -10.578125 9.257812 -10.492188 9.0625 -10.328125 C 8.9375 -10.171875 8.789062 -10.050781 8.625 -9.96875 C 8.46875 -9.882812 8.285156 -9.785156 8.078125 -9.671875 C 8.003906 -9.628906 7.9375 -9.554688 7.875 -9.453125 C 7.8125 -9.347656 7.738281 -9.253906 7.65625 -9.171875 C 7.5 -9.015625 7.328125 -8.863281 7.140625 -8.71875 C 6.960938 -8.582031 6.789062 -8.429688 6.625 -8.265625 L 5.46875 -6.75 C 5.269531 -6.46875 5.046875 -6.160156 4.796875 -5.828125 C 4.554688 -5.503906 4.335938 -5.160156 4.140625 -4.796875 C 3.972656 -4.390625 3.773438 -4.003906 3.546875 -3.640625 C 3.328125 -3.273438 3.117188 -2.910156 2.921875 -2.546875 C 2.796875 -2.265625 2.703125 -1.984375 2.640625 -1.703125 C 2.578125 -1.421875 2.507812 -1.132812 2.4375 -0.84375 C 2.394531 -0.644531 2.363281 -0.429688 2.34375 -0.203125 C 2.320312 0.015625 2.269531 0.222656 2.1875 0.421875 C 2.0625 1.035156 1.78125 1.257812 1.34375 1.09375 Z M 1.34375 1.09375 "/></g></g></g><g fill="#d883b7" fill-opacity="1"><g transform="translate(78.30112, 48.142592)"><g><path d="M 17.9375 4.5625 C 18.175781 4.519531 18.382812 4.597656 18.5625 4.796875 C 18.75 5.003906 18.84375 5.207031 18.84375 5.40625 L 13.859375 6.8125 C 13.691406 6.882812 13.585938 6.921875 13.546875 6.921875 C 13.347656 6.890625 13.195312 6.910156 13.09375 6.984375 C 13 7.066406 12.890625 7.210938 12.765625 7.421875 C 12.765625 7.535156 12.722656 7.632812 12.640625 7.71875 C 12.765625 7.914062 12.847656 8.160156 12.890625 8.453125 L 12.453125 8.5625 C 12.421875 8.726562 12.453125 8.867188 12.546875 8.984375 C 12.648438 9.109375 12.601562 9.273438 12.40625 9.484375 C 12.644531 9.890625 12.582031 10.171875 12.21875 10.328125 C 12.300781 10.691406 12.160156 10.976562 11.796875 11.1875 C 11.835938 11.226562 11.882812 11.265625 11.9375 11.296875 C 12 11.335938 12.03125 11.378906 12.03125 11.421875 C 11.945312 11.742188 11.914062 11.914062 11.9375 11.9375 C 11.957031 11.957031 11.929688 12.09375 11.859375 12.34375 C 11.890625 12.382812 11.875 12.515625 11.8125 12.734375 C 11.757812 12.953125 11.753906 13.0625 11.796875 13.0625 L 11.734375 13.546875 C 11.773438 13.710938 11.796875 13.84375 11.796875 13.9375 C 11.796875 14.039062 11.691406 14.132812 11.484375 14.21875 L 11.1875 14.828125 C 11.269531 14.867188 11.335938 14.898438 11.390625 14.921875 C 11.453125 14.941406 11.503906 14.992188 11.546875 15.078125 C 11.460938 15.359375 11.390625 15.617188 11.328125 15.859375 C 11.273438 16.109375 11.207031 16.351562 11.125 16.59375 C 11.082031 16.757812 11.050781 16.929688 11.03125 17.109375 C 11.007812 17.296875 10.957031 17.488281 10.875 17.6875 C 10.71875 18.007812 10.640625 18.128906 10.640625 18.046875 C 10.722656 18.253906 10.722656 18.476562 10.640625 18.71875 C 10.597656 18.757812 10.535156 18.820312 10.453125 18.90625 C 10.367188 18.988281 10.328125 19.085938 10.328125 19.203125 C 10.285156 19.242188 10.234375 19.304688 10.171875 19.390625 C 10.117188 19.472656 10.132812 19.515625 10.21875 19.515625 C 10.21875 19.753906 10.175781 19.9375 10.09375 20.0625 L 9 22.421875 C 9.070312 22.546875 9.128906 22.609375 9.171875 22.609375 L 8.75 22.921875 C 8.789062 23.078125 8.8125 23.273438 8.8125 23.515625 L 8.75 23.703125 C 8.75 23.742188 8.757812 23.765625 8.78125 23.765625 C 8.800781 23.765625 8.8125 23.765625 8.8125 23.765625 C 8.726562 23.804688 8.601562 24 8.4375 24.34375 C 8.28125 24.6875 8.160156 24.976562 8.078125 25.21875 C 8.003906 25.382812 7.882812 25.515625 7.71875 25.609375 C 7.550781 25.710938 7.429688 25.867188 7.359375 26.078125 C 7.273438 26.117188 7.253906 26.25 7.296875 26.46875 C 7.335938 26.6875 7.195312 26.695312 6.875 26.5 C 6.945312 26.664062 7.046875 26.828125 7.171875 26.984375 C 7.210938 27.148438 7.148438 27.234375 6.984375 27.234375 C 6.828125 27.234375 6.664062 27.253906 6.5 27.296875 C 6.664062 27.367188 6.789062 27.445312 6.875 27.53125 C 6.707031 27.570312 6.5625 27.65625 6.4375 27.78125 C 6.5625 28.101562 6.484375 28.296875 6.203125 28.359375 C 5.921875 28.421875 5.738281 28.550781 5.65625 28.75 L 6.015625 29 C 5.890625 29.15625 5.773438 29.300781 5.671875 29.4375 C 5.578125 29.582031 5.488281 29.738281 5.40625 29.90625 C 5.363281 29.90625 5.34375 29.894531 5.34375 29.875 C 5.34375 29.851562 5.34375 29.84375 5.34375 29.84375 C 5.226562 29.96875 5.085938 30.085938 4.921875 30.203125 C 4.765625 30.328125 4.644531 30.429688 4.5625 30.515625 C 4.5625 30.597656 4.582031 30.640625 4.625 30.640625 L 4.796875 30.640625 C 4.796875 30.671875 4.804688 30.695312 4.828125 30.71875 C 4.847656 30.738281 4.859375 30.75 4.859375 30.75 C 4.578125 31.070312 4.285156 31.375 3.984375 31.65625 C 3.679688 31.945312 3.382812 32.253906 3.09375 32.578125 C 3.09375 32.816406 3.039062 33 2.9375 33.125 C 2.84375 33.25 2.710938 33.367188 2.546875 33.484375 C 2.347656 33.691406 2.132812 33.882812 1.90625 34.0625 C 1.6875 34.25 1.476562 34.441406 1.28125 34.640625 C 1.195312 34.722656 1.15625 34.765625 1.15625 34.765625 C 0.875 34.890625 0.609375 35.0625 0.359375 35.28125 C 0.117188 35.507812 -0.203125 35.625 -0.609375 35.625 C -0.691406 35.65625 -0.769531 35.734375 -0.84375 35.859375 C -0.925781 35.984375 -1.007812 36.085938 -1.09375 36.171875 C -1.257812 36.242188 -1.429688 36.332031 -1.609375 36.4375 C -1.796875 36.539062 -1.96875 36.59375 -2.125 36.59375 C -2.769531 36.75 -3.5 36.828125 -4.3125 36.828125 C -4.59375 36.910156 -4.816406 36.910156 -4.984375 36.828125 C -5.515625 36.671875 -5.988281 36.507812 -6.40625 36.34375 C -6.832031 36.1875 -7.269531 35.984375 -7.71875 35.734375 C -8.570312 35.367188 -9.117188 34.820312 -9.359375 34.09375 C -9.398438 33.976562 -9.476562 33.890625 -9.59375 33.828125 C -9.71875 33.765625 -9.820312 33.648438 -9.90625 33.484375 C -10.03125 33.160156 -10.148438 32.847656 -10.265625 32.546875 C -10.390625 32.242188 -10.554688 31.890625 -10.765625 31.484375 C -10.796875 31.398438 -10.820312 31.304688 -10.84375 31.203125 C -10.863281 31.109375 -10.894531 31.019531 -10.9375 30.9375 C -10.894531 30.738281 -10.875 30.554688 -10.875 30.390625 C -10.875 30.222656 -10.851562 30.0625 -10.8125 29.90625 C -10.738281 29.332031 -10.671875 28.789062 -10.609375 28.28125 C -10.546875 27.78125 -10.453125 27.285156 -10.328125 26.796875 C -10.253906 26.398438 -10.175781 25.988281 -10.09375 25.5625 C -10.007812 25.132812 -9.882812 24.695312 -9.71875 24.25 C -9.6875 24.164062 -9.628906 24.085938 -9.546875 24.015625 L -9.171875 22.671875 L -8.75 21.828125 C -8.46875 21.253906 -8.175781 20.710938 -7.875 20.203125 C -7.570312 19.703125 -7.273438 19.207031 -6.984375 18.71875 C -6.703125 18.269531 -6.367188 17.800781 -5.984375 17.3125 C -5.597656 16.832031 -5.265625 16.367188 -4.984375 15.921875 L -3.53125 14.40625 C -3.445312 14.320312 -3.289062 14.164062 -3.0625 13.9375 C -2.84375 13.71875 -2.648438 13.550781 -2.484375 13.4375 C -2.328125 13.269531 -2.15625 13.070312 -1.96875 12.84375 C -1.789062 12.625 -1.5625 12.4375 -1.28125 12.28125 C -0.789062 11.914062 -0.304688 11.5625 0.171875 11.21875 C 0.660156 10.875 1.171875 10.519531 1.703125 10.15625 C 2.554688 9.425781 3.488281 8.859375 4.5 8.453125 L 6.8125 7.171875 C 7.25 6.972656 7.703125 6.789062 8.171875 6.625 C 8.640625 6.457031 9.078125 6.253906 9.484375 6.015625 L 9.71875 5.953125 C 10.375 5.796875 10.679688 5.390625 10.640625 4.734375 C 10.597656 4.703125 10.578125 4.601562 10.578125 4.4375 C 10.617188 4.269531 10.648438 4.113281 10.671875 3.96875 C 10.691406 3.832031 10.738281 3.6875 10.8125 3.53125 C 10.738281 2.800781 10.769531 2.28125 10.90625 1.96875 C 11.050781 1.664062 11.125 1.394531 11.125 1.15625 L 11.1875 1.03125 C 11.269531 0.382812 11.367188 -0.25 11.484375 -0.875 C 11.609375 -1.507812 11.734375 -2.109375 11.859375 -2.671875 C 11.816406 -2.628906 11.710938 -2.609375 11.546875 -2.609375 L 11.1875 -2.671875 C 11.144531 -2.628906 11.101562 -2.566406 11.0625 -2.484375 C 11.019531 -2.410156 10.957031 -2.351562 10.875 -2.3125 C 10.675781 -2.0625 10.515625 -1.898438 10.390625 -1.828125 C 10.390625 -1.828125 10.238281 -1.644531 9.9375 -1.28125 C 9.632812 -0.914062 9.238281 -0.550781 8.75 -0.1875 L 8.75 -0.125 C 8.257812 0.0390625 7.875 0.203125 7.59375 0.359375 C 7.3125 0.523438 6.988281 0.671875 6.625 0.796875 C 6.457031 0.828125 6.289062 0.863281 6.125 0.90625 C 5.96875 0.945312 5.769531 0.96875 5.53125 0.96875 C 5.332031 1.007812 5.109375 1.03125 4.859375 1.03125 C 4.617188 1.03125 4.394531 1.007812 4.1875 0.96875 L 2.671875 0.421875 C 2.585938 0.335938 2.515625 0.242188 2.453125 0.140625 C 2.398438 0.046875 2.332031 -0.0390625 2.25 -0.125 C 2.25 -0.363281 2.128906 -0.523438 1.890625 -0.609375 C 1.640625 -0.804688 1.492188 -1.046875 1.453125 -1.328125 C 1.410156 -1.617188 1.375 -1.90625 1.34375 -2.1875 C 1.175781 -2.675781 1.140625 -3.160156 1.234375 -3.640625 C 1.335938 -4.128906 1.472656 -4.597656 1.640625 -5.046875 C 1.722656 -5.242188 1.820312 -5.429688 1.9375 -5.609375 C 2.0625 -5.796875 2.144531 -5.972656 2.1875 -6.140625 C 2.269531 -6.296875 2.347656 -6.472656 2.421875 -6.671875 C 2.503906 -6.878906 2.628906 -7.109375 2.796875 -7.359375 C 2.835938 -7.359375 2.859375 -7.378906 2.859375 -7.421875 C 3.179688 -7.703125 3.429688 -8.0625 3.609375 -8.5 C 3.796875 -8.945312 4.070312 -9.316406 4.4375 -9.609375 C 4.632812 -9.722656 4.925781 -9.953125 5.3125 -10.296875 C 5.695312 -10.640625 5.972656 -10.832031 6.140625 -10.875 C 6.460938 -11 6.804688 -11.09375 7.171875 -11.15625 C 7.535156 -11.21875 7.878906 -11.1875 8.203125 -11.0625 C 8.367188 -11.019531 8.550781 -11.007812 8.75 -11.03125 C 8.957031 -11.050781 9.117188 -11.039062 9.234375 -11 C 9.441406 -10.84375 9.707031 -10.722656 10.03125 -10.640625 C 10.351562 -10.554688 10.597656 -10.453125 10.765625 -10.328125 C 11.085938 -10.085938 11.347656 -9.875 11.546875 -9.6875 C 11.753906 -9.507812 11.976562 -9.257812 12.21875 -8.9375 L 12.640625 -8.140625 C 12.847656 -8.304688 13.039062 -8.519531 13.21875 -8.78125 C 13.40625 -9.039062 13.578125 -9.210938 13.734375 -9.296875 L 14.46875 -9.109375 C 14.914062 -9.078125 15.398438 -8.976562 15.921875 -8.8125 L 15.75 -7.65625 C 15.625 -7.457031 15.53125 -7.222656 15.46875 -6.953125 C 15.40625 -6.691406 15.332031 -6.460938 15.25 -6.265625 C 15.207031 -6.097656 15.164062 -5.929688 15.125 -5.765625 C 15.09375 -5.609375 15.054688 -5.445312 15.015625 -5.28125 C 14.765625 -4.3125 14.566406 -3.359375 14.421875 -2.421875 C 14.285156 -1.492188 14.117188 -0.566406 13.921875 0.359375 C 13.835938 0.804688 13.804688 1.242188 13.828125 1.671875 C 13.847656 2.097656 13.753906 2.535156 13.546875 2.984375 C 13.515625 3.265625 13.5 3.535156 13.5 3.796875 C 13.5 4.054688 13.457031 4.3125 13.375 4.5625 C 13.375 4.5625 13.382812 4.609375 13.40625 4.703125 C 13.425781 4.804688 13.457031 4.859375 13.5 4.859375 C 13.894531 4.816406 14.273438 4.765625 14.640625 4.703125 C 15.003906 4.648438 15.390625 4.601562 15.796875 4.5625 C 16.523438 4.476562 17.238281 4.476562 17.9375 4.5625 Z M 10.8125 -5.46875 C 11.019531 -5.425781 11.160156 -5.472656 11.234375 -5.609375 C 11.316406 -5.753906 11.378906 -5.867188 11.421875 -5.953125 C 11.304688 -6.035156 11.207031 -6.125 11.125 -6.21875 C 11.039062 -6.320312 10.957031 -6.414062 10.875 -6.5 C 10.59375 -6.78125 10.515625 -7.101562 10.640625 -7.46875 C 10.679688 -7.675781 10.640625 -7.984375 10.515625 -8.390625 C 10.390625 -8.796875 10.289062 -9.019531 10.21875 -9.0625 C 10.09375 -9.257812 9.910156 -9.359375 9.671875 -9.359375 C 9.222656 -9.316406 8.773438 -9.222656 8.328125 -9.078125 C 7.878906 -8.941406 7.492188 -8.691406 7.171875 -8.328125 C 6.929688 -8.117188 6.6875 -7.921875 6.4375 -7.734375 C 6.195312 -7.554688 5.976562 -7.367188 5.78125 -7.171875 C 5.738281 -7.128906 5.675781 -7.054688 5.59375 -6.953125 C 5.507812 -6.859375 5.425781 -6.769531 5.34375 -6.6875 L 5.40625 -6.375 C 5.25 -6.175781 5.078125 -5.972656 4.890625 -5.765625 C 4.710938 -5.566406 4.539062 -5.347656 4.375 -5.109375 C 4.21875 -4.742188 4.066406 -4.378906 3.921875 -4.015625 C 3.773438 -3.648438 3.625 -3.304688 3.46875 -2.984375 C 3.382812 -2.691406 3.3125 -2.425781 3.25 -2.1875 C 3.1875 -1.945312 3.21875 -1.679688 3.34375 -1.390625 C 3.425781 -1.390625 3.523438 -1.398438 3.640625 -1.421875 C 3.765625 -1.441406 3.890625 -1.453125 4.015625 -1.453125 C 4.460938 -1.492188 4.882812 -1.582031 5.28125 -1.71875 C 5.6875 -1.863281 6.113281 -2.019531 6.5625 -2.1875 L 8.265625 -3.15625 L 8.328125 -3.15625 C 8.566406 -3.5625 8.910156 -3.867188 9.359375 -4.078125 C 9.441406 -4.078125 9.515625 -4.113281 9.578125 -4.1875 C 9.640625 -4.269531 9.6875 -4.332031 9.71875 -4.375 C 9.84375 -4.582031 10.023438 -4.722656 10.265625 -4.796875 C 10.515625 -4.878906 10.660156 -5.0625 10.703125 -5.34375 C 10.703125 -5.425781 10.738281 -5.46875 10.8125 -5.46875 Z M 9.71875 10.515625 C 9.800781 10.148438 9.875 9.773438 9.9375 9.390625 C 10 9.003906 10.09375 8.628906 10.21875 8.265625 C 9.96875 8.304688 9.738281 8.382812 9.53125 8.5 C 9.332031 8.625 9.132812 8.726562 8.9375 8.8125 C 8.164062 9.09375 7.4375 9.394531 6.75 9.71875 C 6.0625 10.050781 5.375 10.457031 4.6875 10.9375 C 4.28125 11.21875 3.832031 11.5 3.34375 11.78125 C 2.851562 12.070312 2.382812 12.378906 1.9375 12.703125 C 1.613281 12.941406 1.257812 13.160156 0.875 13.359375 C 0.488281 13.566406 0.113281 13.832031 -0.25 14.15625 C -0.363281 14.320312 -0.519531 14.484375 -0.71875 14.640625 C -0.925781 14.804688 -1.09375 14.972656 -1.21875 15.140625 C -1.375 15.296875 -1.53125 15.414062 -1.6875 15.5 C -1.851562 15.582031 -2 15.679688 -2.125 15.796875 C -2.40625 16.085938 -2.726562 16.472656 -3.09375 16.953125 C -3.300781 17.117188 -3.503906 17.300781 -3.703125 17.5 C -3.910156 17.707031 -4.113281 17.910156 -4.3125 18.109375 C -4.351562 18.191406 -4.492188 18.382812 -4.734375 18.6875 C -4.984375 18.988281 -5.207031 19.300781 -5.40625 19.625 C -5.613281 19.957031 -5.71875 20.179688 -5.71875 20.296875 L -6.984375 22.1875 C -7.023438 22.1875 -7.144531 22.378906 -7.34375 22.765625 C -7.550781 23.148438 -7.695312 23.441406 -7.78125 23.640625 C -7.976562 23.890625 -8.097656 24.175781 -8.140625 24.5 C -8.222656 24.738281 -8.285156 25 -8.328125 25.28125 C -8.367188 25.5625 -8.429688 25.804688 -8.515625 26.015625 C -8.585938 26.421875 -8.6875 26.828125 -8.8125 27.234375 C -8.9375 27.640625 -9.019531 28.0625 -9.0625 28.5 C -9.09375 29.070312 -9.085938 29.617188 -9.046875 30.140625 C -9.015625 30.671875 -8.976562 31.21875 -8.9375 31.78125 C -8.851562 32.394531 -8.660156 32.90625 -8.359375 33.3125 C -8.054688 33.71875 -7.660156 34.0625 -7.171875 34.34375 L -6.875 34.578125 C -6.707031 34.660156 -6.625 34.703125 -6.625 34.703125 C -6.175781 34.867188 -5.757812 34.972656 -5.375 35.015625 C -4.988281 35.054688 -4.613281 34.992188 -4.25 34.828125 C -4.050781 34.742188 -3.828125 34.640625 -3.578125 34.515625 C -3.335938 34.398438 -3.140625 34.320312 -2.984375 34.28125 C -2.453125 34.113281 -1.984375 33.878906 -1.578125 33.578125 C -1.171875 33.273438 -0.765625 32.960938 -0.359375 32.640625 C 0.046875 32.316406 0.421875 31.960938 0.765625 31.578125 C 1.109375 31.191406 1.441406 30.816406 1.765625 30.453125 C 2.242188 29.847656 2.664062 29.257812 3.03125 28.6875 C 3.40625 28.125 3.789062 27.535156 4.1875 26.921875 C 4.632812 26.316406 5 25.695312 5.28125 25.0625 C 5.570312 24.4375 5.878906 23.800781 6.203125 23.15625 C 6.441406 22.664062 6.640625 22.195312 6.796875 21.75 C 6.960938 21.3125 7.128906 20.847656 7.296875 20.359375 C 7.535156 19.628906 7.773438 18.921875 8.015625 18.234375 C 8.265625 17.546875 8.46875 16.835938 8.625 16.109375 C 8.789062 15.535156 8.921875 14.960938 9.015625 14.390625 C 9.117188 13.828125 9.234375 13.285156 9.359375 12.765625 C 9.441406 12.484375 9.519531 12.160156 9.59375 11.796875 C 9.675781 11.429688 9.71875 11.085938 9.71875 10.765625 Z M 9.71875 10.515625 "/></g></g></g><g fill="#d883b7" fill-opacity="1"><g transform="translate(97.995524, 48.142592)"><g><path d="M 15.984375 -5.953125 L 15.078125 -5.171875 C 15.035156 -5.128906 14.992188 -5.054688 14.953125 -4.953125 C 14.910156 -4.847656 14.804688 -4.757812 14.640625 -4.6875 L 14.46875 -4.4375 C 14.1875 -4.3125 14.125 -4.171875 14.28125 -4.015625 C 14.15625 -3.929688 14.039062 -3.835938 13.9375 -3.734375 C 13.84375 -3.640625 13.773438 -3.488281 13.734375 -3.28125 L 13.734375 -3.21875 C 13.691406 -3.132812 13.628906 -3.039062 13.546875 -2.9375 C 13.472656 -2.84375 13.414062 -2.773438 13.375 -2.734375 C 13.164062 -2.535156 12.898438 -2.3125 12.578125 -2.0625 L 11.421875 -1.15625 C 11.179688 -1.03125 10.957031 -0.90625 10.75 -0.78125 C 10.550781 -0.664062 10.351562 -0.523438 10.15625 -0.359375 C 9.863281 -0.203125 9.597656 -0.0351562 9.359375 0.140625 C 9.117188 0.328125 8.835938 0.484375 8.515625 0.609375 C 8.347656 0.691406 8.148438 0.742188 7.921875 0.765625 C 7.703125 0.785156 7.492188 0.8125 7.296875 0.84375 C 7.128906 0.84375 6.945312 0.90625 6.75 1.03125 C 6.625 1.070312 6.476562 1.113281 6.3125 1.15625 C 6.15625 1.195312 5.992188 1.238281 5.828125 1.28125 C 5.585938 1.320312 5.351562 1.367188 5.125 1.421875 C 4.90625 1.484375 4.675781 1.492188 4.4375 1.453125 C 3.75 1.378906 3.140625 1.257812 2.609375 1.09375 C 2.328125 1.007812 2.101562 0.925781 1.9375 0.84375 C 1.78125 0.769531 1.539062 0.609375 1.21875 0.359375 C 1.175781 0.285156 1.125 0.238281 1.0625 0.21875 C 1 0.195312 0.945312 0.164062 0.90625 0.125 C 0.707031 -0.0390625 0.535156 -0.210938 0.390625 -0.390625 C 0.253906 -0.578125 0.0820312 -0.8125 -0.125 -1.09375 C -0.164062 -1.175781 -0.195312 -1.242188 -0.21875 -1.296875 C -0.238281 -1.359375 -0.285156 -1.535156 -0.359375 -1.828125 C -0.523438 -2.191406 -0.609375 -2.492188 -0.609375 -2.734375 C -0.609375 -2.972656 -0.609375 -3.195312 -0.609375 -3.40625 C -0.523438 -4.625 -0.203125 -5.796875 0.359375 -6.921875 C 0.484375 -7.128906 0.601562 -7.320312 0.71875 -7.5 C 0.84375 -7.6875 0.988281 -7.859375 1.15625 -8.015625 C 1.4375 -8.347656 1.707031 -8.675781 1.96875 -9 C 2.238281 -9.320312 2.515625 -9.625 2.796875 -9.90625 C 3.398438 -10.507812 4.066406 -10.832031 4.796875 -10.875 C 4.878906 -10.875 4.972656 -10.882812 5.078125 -10.90625 C 5.179688 -10.925781 5.289062 -10.957031 5.40625 -11 C 5.726562 -11.125 6.019531 -11.113281 6.28125 -10.96875 C 6.550781 -10.832031 6.785156 -10.703125 6.984375 -10.578125 C 7.273438 -10.453125 7.539062 -10.304688 7.78125 -10.140625 C 8.019531 -9.984375 8.242188 -9.804688 8.453125 -9.609375 C 8.691406 -9.441406 8.867188 -9.15625 8.984375 -8.75 C 9.109375 -8.34375 9.132812 -8.019531 9.0625 -7.78125 C 8.9375 -7.457031 8.769531 -7.191406 8.5625 -6.984375 C 8.28125 -6.703125 8.007812 -6.421875 7.75 -6.140625 C 7.488281 -5.859375 7.210938 -5.570312 6.921875 -5.28125 C 6.847656 -5.207031 6.738281 -5.140625 6.59375 -5.078125 C 6.445312 -5.015625 6.359375 -4.941406 6.328125 -4.859375 C 6.285156 -4.660156 6.179688 -4.53125 6.015625 -4.46875 C 5.859375 -4.40625 5.71875 -4.332031 5.59375 -4.25 L 4.734375 -3.640625 C 4.703125 -3.609375 4.6875 -3.5625 4.6875 -3.5 C 4.6875 -3.4375 4.664062 -3.382812 4.625 -3.34375 C 4.414062 -3.21875 4.195312 -3.101562 3.96875 -3 C 3.75 -2.90625 3.539062 -2.796875 3.34375 -2.671875 C 3.257812 -2.628906 3.1875 -2.578125 3.125 -2.515625 C 3.0625 -2.460938 2.992188 -2.394531 2.921875 -2.3125 C 2.671875 -2.1875 2.472656 -2.09375 2.328125 -2.03125 C 2.191406 -1.96875 2.023438 -1.878906 1.828125 -1.765625 C 1.941406 -1.398438 2.050781 -1.15625 2.15625 -1.03125 C 2.257812 -0.90625 2.429688 -0.804688 2.671875 -0.734375 C 3.078125 -0.773438 3.472656 -0.796875 3.859375 -0.796875 C 4.242188 -0.796875 4.640625 -0.8125 5.046875 -0.84375 C 5.328125 -0.882812 5.597656 -0.957031 5.859375 -1.0625 C 6.128906 -1.164062 6.40625 -1.257812 6.6875 -1.34375 C 6.882812 -1.414062 7.101562 -1.515625 7.34375 -1.640625 C 7.59375 -1.765625 7.835938 -1.863281 8.078125 -1.9375 C 8.242188 -2.019531 8.394531 -2.070312 8.53125 -2.09375 C 8.675781 -2.113281 8.832031 -2.164062 9 -2.25 L 11 -3.40625 L 11.1875 -3.53125 C 11.46875 -3.726562 11.847656 -3.96875 12.328125 -4.25 C 12.816406 -4.539062 13.207031 -4.765625 13.5 -4.921875 C 13.613281 -5.003906 13.75 -5.082031 13.90625 -5.15625 C 14.070312 -5.238281 14.175781 -5.300781 14.21875 -5.34375 L 16.296875 -6.875 L 16.40625 -6.4375 C 16.40625 -6.4375 16.414062 -6.4375 16.4375 -6.4375 C 16.457031 -6.4375 16.46875 -6.414062 16.46875 -6.375 C 16.382812 -6.34375 16.300781 -6.285156 16.21875 -6.203125 C 16.144531 -6.117188 16.066406 -6.035156 15.984375 -5.953125 Z M 2.1875 -5.46875 C 2.101562 -5.3125 2.03125 -5.117188 1.96875 -4.890625 C 1.914062 -4.671875 1.847656 -4.4375 1.765625 -4.1875 C 2.003906 -4.351562 2.203125 -4.484375 2.359375 -4.578125 C 2.523438 -4.679688 2.671875 -4.773438 2.796875 -4.859375 L 4.4375 -6.203125 L 6.078125 -7.65625 C 6.273438 -7.820312 6.4375 -7.992188 6.5625 -8.171875 C 6.6875 -8.359375 6.804688 -8.550781 6.921875 -8.75 C 7.003906 -8.914062 6.992188 -9.097656 6.890625 -9.296875 C 6.796875 -9.503906 6.6875 -9.566406 6.5625 -9.484375 C 6.28125 -9.359375 6.003906 -9.273438 5.734375 -9.234375 C 5.472656 -9.191406 5.222656 -9.070312 4.984375 -8.875 C 4.703125 -8.664062 4.425781 -8.46875 4.15625 -8.28125 C 3.894531 -8.101562 3.664062 -7.875 3.46875 -7.59375 C 3.019531 -6.988281 2.59375 -6.28125 2.1875 -5.46875 Z M 2.1875 -5.46875 "/></g></g></g><g fill="#d883b7" fill-opacity="1"><g transform="translate(113.313383, 48.142592)"><g/></g></g><g fill="#d883b7" fill-opacity="1"><g transform="translate(124.862571, 48.142592)"><g><path d="M 29.296875 8.390625 C 28.972656 8.390625 28.628906 8.367188 28.265625 8.328125 C 27.898438 8.285156 27.535156 8.242188 27.171875 8.203125 C 25.828125 8.160156 24.59375 7.570312 23.46875 6.4375 C 23.257812 6.195312 23.003906 5.953125 22.703125 5.703125 C 22.398438 5.460938 22.125 5.203125 21.875 4.921875 C 21.269531 4.035156 20.785156 3.082031 20.421875 2.0625 C 20.054688 1.050781 19.773438 0.0390625 19.578125 -0.96875 C 19.492188 -1.613281 19.429688 -2.226562 19.390625 -2.8125 C 19.347656 -3.40625 19.328125 -4.03125 19.328125 -4.6875 C 19.285156 -5.375 19.296875 -6 19.359375 -6.5625 C 19.421875 -7.132812 19.472656 -7.742188 19.515625 -8.390625 C 19.554688 -8.585938 19.59375 -8.828125 19.625 -9.109375 C 19.664062 -9.398438 19.644531 -9.582031 19.5625 -9.65625 C 19.488281 -9.738281 19.289062 -9.597656 18.96875 -9.234375 C 18.195312 -8.222656 17.46875 -7.191406 16.78125 -6.140625 C 16.414062 -5.734375 16.050781 -5.304688 15.6875 -4.859375 C 15.320312 -4.410156 14.972656 -3.96875 14.640625 -3.53125 C 14.640625 -3.601562 14.457031 -3.351562 14.09375 -2.78125 C 13.726562 -2.21875 13.289062 -1.539062 12.78125 -0.75 C 12.28125 0.03125 11.796875 0.753906 11.328125 1.421875 C 10.867188 2.097656 10.554688 2.535156 10.390625 2.734375 C 10.191406 2.929688 9.988281 3.171875 9.78125 3.453125 C 9.582031 3.742188 9.378906 4.03125 9.171875 4.3125 C 8.523438 5.40625 7.613281 6.257812 6.4375 6.875 C 6.320312 6.945312 6.148438 7.003906 5.921875 7.046875 C 5.703125 7.085938 5.53125 7.109375 5.40625 7.109375 C 5 7.109375 4.695312 6.945312 4.5 6.625 C 4.5 6.539062 4.46875 6.488281 4.40625 6.46875 C 4.34375 6.445312 4.3125 6.4375 4.3125 6.4375 C 3.832031 6.320312 3.519531 6.070312 3.375 5.6875 C 3.226562 5.300781 3.15625 4.90625 3.15625 4.5 C 3.070312 3.601562 3.03125 2.71875 3.03125 1.84375 C 3.03125 0.976562 3.09375 0.0976562 3.21875 -0.796875 C 3.34375 -1.722656 3.523438 -2.601562 3.765625 -3.4375 C 4.015625 -4.269531 4.257812 -5.128906 4.5 -6.015625 C 5.1875 -8.410156 5.863281 -10.800781 6.53125 -13.1875 C 7.195312 -15.582031 7.894531 -17.972656 8.625 -20.359375 C 8.664062 -20.597656 8.726562 -20.816406 8.8125 -21.015625 C 8.894531 -21.222656 8.992188 -21.453125 9.109375 -21.703125 C 9.484375 -22.304688 10.050781 -22.507812 10.8125 -22.3125 C 10.851562 -22.1875 11 -22.082031 11.25 -22 C 11.894531 -21.632812 12.113281 -21.128906 11.90625 -20.484375 C 11.789062 -19.878906 11.640625 -19.28125 11.453125 -18.6875 C 11.273438 -18.101562 11.125 -17.503906 11 -16.890625 L 8.453125 -8.328125 C 8.242188 -7.597656 8.046875 -6.898438 7.859375 -6.234375 C 7.679688 -5.566406 7.453125 -4.882812 7.171875 -4.1875 C 6.972656 -3.414062 6.789062 -2.625 6.625 -1.8125 C 6.457031 -1.007812 6.273438 -0.222656 6.078125 0.546875 C 5.953125 0.992188 5.878906 1.4375 5.859375 1.875 C 5.835938 2.320312 5.828125 2.769531 5.828125 3.21875 C 6.035156 3.300781 6.1875 3.300781 6.28125 3.21875 C 6.382812 3.132812 6.457031 3.054688 6.5 2.984375 C 6.945312 2.535156 7.382812 2.117188 7.8125 1.734375 C 8.238281 1.347656 8.65625 0.910156 9.0625 0.421875 C 9.789062 -0.390625 10.519531 -1.25 11.25 -2.15625 C 11.976562 -3.070312 12.726562 -3.972656 13.5 -4.859375 C 14.59375 -6.160156 15.675781 -7.476562 16.75 -8.8125 C 17.820312 -10.144531 18.882812 -11.503906 19.9375 -12.890625 C 20.257812 -13.210938 20.5625 -13.566406 20.84375 -13.953125 C 21.125 -14.335938 21.410156 -14.734375 21.703125 -15.140625 C 22.222656 -15.910156 22.972656 -16.253906 23.953125 -16.171875 C 24.472656 -16.128906 24.796875 -15.925781 24.921875 -15.5625 C 25.003906 -15.238281 25.046875 -14.953125 25.046875 -14.703125 C 25.046875 -14.460938 24.960938 -14.222656 24.796875 -13.984375 C 24.109375 -12.804688 23.582031 -11.554688 23.21875 -10.234375 C 22.851562 -8.921875 22.570312 -7.597656 22.375 -6.265625 C 22.332031 -5.972656 22.320312 -5.6875 22.34375 -5.40625 C 22.363281 -5.125 22.375 -4.863281 22.375 -4.625 C 22.375 -4.007812 22.34375 -3.414062 22.28125 -2.84375 C 22.21875 -2.28125 22.207031 -1.71875 22.25 -1.15625 C 22.332031 -0.382812 22.453125 0.363281 22.609375 1.09375 C 22.773438 1.820312 23 2.507812 23.28125 3.15625 C 23.519531 3.644531 23.78125 4.113281 24.0625 4.5625 C 24.351562 5.007812 24.640625 5.472656 24.921875 5.953125 C 25.203125 6.316406 25.644531 6.5 26.25 6.5 C 26.457031 6.5 26.691406 6.476562 26.953125 6.4375 C 27.210938 6.394531 27.488281 6.335938 27.78125 6.265625 C 28.59375 6.097656 29.367188 5.832031 30.109375 5.46875 C 30.859375 5.101562 31.539062 4.660156 32.15625 4.140625 C 32.71875 3.648438 33.210938 3.066406 33.640625 2.390625 C 34.066406 1.722656 34.523438 1.109375 35.015625 0.546875 C 35.578125 -0.503906 35.988281 -1.375 36.25 -2.0625 C 36.519531 -2.75 36.734375 -3.40625 36.890625 -4.03125 C 37.054688 -4.664062 37.238281 -5.367188 37.4375 -6.140625 C 37.882812 -7.472656 38.25 -8.828125 38.53125 -10.203125 C 38.8125 -11.585938 39.015625 -12.945312 39.140625 -14.28125 C 39.265625 -14.882812 39.351562 -15.453125 39.40625 -15.984375 C 39.46875 -16.515625 39.519531 -17.082031 39.5625 -17.6875 C 39.6875 -18.5 39.75 -19.328125 39.75 -20.171875 C 39.75 -21.023438 39.75 -21.898438 39.75 -22.796875 C 39.707031 -23.609375 39.546875 -24.359375 39.265625 -25.046875 C 39.179688 -25.367188 39.035156 -25.789062 38.828125 -26.3125 C 38.628906 -26.84375 38.613281 -27.109375 38.78125 -27.109375 C 38.863281 -27.148438 38.984375 -27.160156 39.140625 -27.140625 C 39.304688 -27.117188 39.410156 -27.109375 39.453125 -27.109375 C 39.929688 -27.191406 40.375 -27.03125 40.78125 -26.625 C 41.1875 -26.21875 41.507812 -25.75 41.75 -25.21875 C 42 -24.695312 42.144531 -24.253906 42.1875 -23.890625 C 42.257812 -23.523438 42.304688 -22.914062 42.328125 -22.0625 C 42.347656 -21.207031 42.335938 -20.285156 42.296875 -19.296875 C 42.265625 -18.304688 42.1875 -17.40625 42.0625 -16.59375 C 41.894531 -15.175781 41.648438 -13.835938 41.328125 -12.578125 C 41.003906 -11.328125 40.597656 -9.972656 40.109375 -8.515625 C 39.992188 -8.148438 39.875 -7.640625 39.75 -6.984375 C 39.625 -6.335938 39.53125 -5.738281 39.46875 -5.1875 C 39.414062 -4.644531 39.367188 -4.3125 39.328125 -4.1875 C 38.878906 -3.75 38.796875 -3.347656 39.078125 -2.984375 C 39.203125 -2.816406 39.191406 -2.457031 39.046875 -1.90625 C 38.910156 -1.363281 38.78125 -0.992188 38.65625 -0.796875 C 38.570312 -0.710938 38.425781 -0.476562 38.21875 -0.09375 C 38.019531 0.289062 37.835938 0.675781 37.671875 1.0625 C 37.515625 1.445312 37.414062 1.703125 37.375 1.828125 C 37.21875 2.109375 37.054688 2.398438 36.890625 2.703125 C 36.734375 3.003906 36.550781 3.28125 36.34375 3.53125 C 36.0625 3.851562 35.75 4.195312 35.40625 4.5625 C 35.0625 4.925781 34.484375 5.390625 33.671875 5.953125 C 33.503906 5.953125 33.300781 6.035156 33.0625 6.203125 C 32.65625 6.523438 32.257812 6.835938 31.875 7.140625 C 31.488281 7.441406 31.078125 7.734375 30.640625 8.015625 C 30.273438 8.265625 29.828125 8.390625 29.296875 8.390625 Z M 29.296875 8.390625 "/></g></g></g><g fill="#d883b7" fill-opacity="1"><g transform="translate(169.722037, 48.142592)"><g><path d="M 23.03125 -8.078125 C 22.75 -7.640625 22.382812 -7.226562 21.9375 -6.84375 C 21.488281 -6.457031 21.066406 -6.117188 20.671875 -5.828125 C 20.503906 -5.710938 20.328125 -5.613281 20.140625 -5.53125 C 19.960938 -5.445312 19.832031 -5.363281 19.75 -5.28125 C 19.664062 -5.207031 19.5625 -5.109375 19.4375 -4.984375 C 19.320312 -4.859375 19.1875 -4.757812 19.03125 -4.6875 C 18.988281 -4.644531 18.882812 -4.539062 18.71875 -4.375 C 18.5625 -4.21875 18.441406 -4.117188 18.359375 -4.078125 L 17.4375 -3.28125 L 15.984375 -2.1875 C 15.742188 -1.90625 15.488281 -1.703125 15.21875 -1.578125 C 14.957031 -1.453125 14.664062 -1.289062 14.34375 -1.09375 C 14.175781 -1.007812 14.03125 -0.957031 13.90625 -0.9375 C 13.789062 -0.914062 13.65625 -0.867188 13.5 -0.796875 C 13.457031 -0.753906 13.363281 -0.710938 13.21875 -0.671875 C 13.070312 -0.628906 12.960938 -0.609375 12.890625 -0.609375 C 12.847656 -0.609375 12.765625 -0.585938 12.640625 -0.546875 C 12.515625 -0.503906 12.414062 -0.484375 12.34375 -0.484375 C 12.21875 -0.484375 12.039062 -0.460938 11.8125 -0.421875 C 11.59375 -0.378906 11.425781 -0.378906 11.3125 -0.421875 C 11.269531 -0.460938 11.175781 -0.492188 11.03125 -0.515625 C 10.882812 -0.535156 10.773438 -0.566406 10.703125 -0.609375 C 10.617188 -0.648438 10.535156 -0.707031 10.453125 -0.78125 C 10.367188 -0.863281 10.289062 -0.925781 10.21875 -0.96875 C 10.050781 -1.21875 9.863281 -1.421875 9.65625 -1.578125 C 9.457031 -1.742188 9.296875 -1.96875 9.171875 -2.25 C 9.015625 -2.445312 8.914062 -2.585938 8.875 -2.671875 C 8.832031 -2.753906 8.769531 -2.875 8.6875 -3.03125 C 8.644531 -3.070312 8.613281 -3.125 8.59375 -3.1875 C 8.570312 -3.25 8.546875 -3.300781 8.515625 -3.34375 C 8.304688 -3.21875 8.160156 -3.039062 8.078125 -2.8125 C 8.003906 -2.59375 7.863281 -2.484375 7.65625 -2.484375 C 7.613281 -2.453125 7.570312 -2.394531 7.53125 -2.3125 C 7.488281 -2.226562 7.429688 -2.164062 7.359375 -2.125 C 6.992188 -1.84375 6.578125 -1.53125 6.109375 -1.1875 C 5.640625 -0.84375 5.164062 -0.566406 4.6875 -0.359375 C 3.707031 0.117188 2.734375 0.15625 1.765625 -0.25 C 1.554688 -0.25 1.394531 -0.265625 1.28125 -0.296875 C 1.113281 -0.460938 0.785156 -0.664062 0.296875 -0.90625 C -0.265625 -1.632812 -0.425781 -2.445312 -0.1875 -3.34375 C 0.0195312 -3.789062 0.164062 -4.15625 0.25 -4.4375 C 0.28125 -4.476562 0.296875 -4.519531 0.296875 -4.5625 C 0.335938 -4.757812 0.398438 -4.9375 0.484375 -5.09375 C 0.566406 -5.257812 0.628906 -5.445312 0.671875 -5.65625 L 1.09375 -6.375 C 1.21875 -6.539062 1.316406 -6.691406 1.390625 -6.828125 C 1.472656 -6.972656 1.535156 -7.066406 1.578125 -7.109375 C 1.898438 -7.640625 2.253906 -8.101562 2.640625 -8.5 C 3.023438 -8.90625 3.398438 -9.332031 3.765625 -9.78125 C 4.128906 -10.1875 4.5625 -10.550781 5.0625 -10.875 C 5.570312 -11.195312 6.113281 -11.378906 6.6875 -11.421875 C 7.332031 -11.304688 7.957031 -11.132812 8.5625 -10.90625 C 9.175781 -10.6875 9.546875 -10.234375 9.671875 -9.546875 C 9.742188 -9.140625 9.695312 -8.78125 9.53125 -8.46875 C 9.375 -8.164062 9.21875 -7.851562 9.0625 -7.53125 C 9.300781 -7.570312 9.539062 -7.671875 9.78125 -7.828125 C 10.03125 -7.992188 10.335938 -8.054688 10.703125 -8.015625 C 11.066406 -7.898438 11.304688 -7.617188 11.421875 -7.171875 C 11.421875 -7.171875 11.421875 -7.035156 11.421875 -6.765625 C 11.421875 -6.503906 11.382812 -6.253906 11.3125 -6.015625 C 11.269531 -5.972656 11.25 -5.929688 11.25 -5.890625 C 11.25 -5.847656 11.226562 -5.789062 11.1875 -5.71875 C 11.101562 -5.3125 11.070312 -4.882812 11.09375 -4.4375 C 11.113281 -3.988281 11.203125 -3.539062 11.359375 -3.09375 C 11.441406 -2.8125 11.625 -2.59375 11.90625 -2.4375 C 12.03125 -2.394531 12.175781 -2.394531 12.34375 -2.4375 C 12.414062 -2.46875 12.515625 -2.492188 12.640625 -2.515625 C 12.765625 -2.535156 12.882812 -2.566406 13 -2.609375 C 13.488281 -2.816406 13.972656 -3.09375 14.453125 -3.4375 C 14.941406 -3.78125 15.390625 -4.09375 15.796875 -4.375 C 16.203125 -4.613281 16.628906 -4.875 17.078125 -5.15625 C 17.523438 -5.445312 17.953125 -5.734375 18.359375 -6.015625 C 18.835938 -6.335938 19.1875 -6.5625 19.40625 -6.6875 C 19.632812 -6.8125 19.859375 -6.941406 20.078125 -7.078125 C 20.304688 -7.222656 20.644531 -7.4375 21.09375 -7.71875 C 21.289062 -7.914062 21.519531 -8.097656 21.78125 -8.265625 C 22.050781 -8.429688 22.328125 -8.59375 22.609375 -8.75 L 22.796875 -8.625 Z M 8.203125 -6.375 C 8.242188 -6.375 8.304688 -6.425781 8.390625 -6.53125 C 8.472656 -6.632812 8.515625 -6.6875 8.515625 -6.6875 L 8.453125 -6.6875 C 8.003906 -6.726562 7.726562 -6.976562 7.625 -7.4375 C 7.519531 -7.90625 7.5 -8.375 7.5625 -8.84375 C 7.625 -9.3125 7.65625 -9.546875 7.65625 -9.546875 C 7.050781 -9.460938 6.429688 -9.132812 5.796875 -8.5625 C 5.171875 -8 4.613281 -7.398438 4.125 -6.765625 C 3.644531 -6.140625 3.28125 -5.628906 3.03125 -5.234375 C 2.75 -4.742188 2.488281 -4.234375 2.25 -3.703125 C 2.007812 -3.179688 1.804688 -2.613281 1.640625 -2 C 1.960938 -2 2.367188 -2.019531 2.859375 -2.0625 C 3.347656 -2.101562 3.734375 -2.1875 4.015625 -2.3125 C 4.703125 -2.59375 5.347656 -3.054688 5.953125 -3.703125 C 6.398438 -4.191406 6.773438 -4.640625 7.078125 -5.046875 C 7.378906 -5.453125 7.753906 -5.894531 8.203125 -6.375 Z M 8.203125 -6.375 "/></g></g></g><g fill="#d883b7" fill-opacity="1"><g transform="translate(189.416442, 48.142592)"><g><path d="M 1.828125 2.796875 C 1.660156 2.710938 1.414062 2.5 1.09375 2.15625 C 0.769531 1.8125 0.628906 1.519531 0.671875 1.28125 C 0.753906 0.75 0.832031 0.234375 0.90625 -0.265625 C 0.988281 -0.773438 1.09375 -1.296875 1.21875 -1.828125 C 1.375 -2.347656 1.53125 -2.878906 1.6875 -3.421875 C 1.851562 -3.972656 2 -4.515625 2.125 -5.046875 C 2.207031 -5.410156 2.28125 -5.765625 2.34375 -6.109375 C 2.40625 -6.453125 2.453125 -6.804688 2.484375 -7.171875 C 2.484375 -7.296875 2.46875 -7.359375 2.4375 -7.359375 C 2.351562 -7.429688 2.3125 -7.554688 2.3125 -7.734375 C 2.3125 -7.921875 2.332031 -8.097656 2.375 -8.265625 C 2.414062 -8.628906 2.597656 -8.789062 2.921875 -8.75 C 3.328125 -8.707031 3.671875 -8.570312 3.953125 -8.34375 C 4.234375 -8.125 4.476562 -7.851562 4.6875 -7.53125 C 4.71875 -7.488281 4.734375 -7.453125 4.734375 -7.421875 C 4.703125 -7.171875 4.664062 -6.929688 4.625 -6.703125 C 4.582031 -6.484375 4.539062 -6.253906 4.5 -6.015625 C 4.457031 -5.816406 4.4375 -5.625 4.4375 -5.4375 C 4.4375 -5.257812 4.394531 -5.066406 4.3125 -4.859375 C 4.269531 -4.660156 4.207031 -4.457031 4.125 -4.25 C 4.050781 -4.050781 3.972656 -3.847656 3.890625 -3.640625 C 3.890625 -3.566406 3.867188 -3.488281 3.828125 -3.40625 C 3.867188 -3.445312 3.890625 -3.46875 3.890625 -3.46875 C 4.535156 -4.4375 5.203125 -5.265625 5.890625 -5.953125 C 6.296875 -6.441406 6.722656 -6.847656 7.171875 -7.171875 C 7.367188 -7.296875 7.691406 -7.378906 8.140625 -7.421875 C 8.390625 -7.421875 8.5625 -7.410156 8.65625 -7.390625 C 8.757812 -7.367188 8.851562 -7.335938 8.9375 -7.296875 C 8.976562 -7.296875 9.40625 -7.09375 10.21875 -6.6875 C 10.25 -6.519531 10.265625 -6.375 10.265625 -6.25 C 10.265625 -6.132812 10.328125 -6.035156 10.453125 -5.953125 C 10.453125 -5.953125 10.453125 -5.832031 10.453125 -5.59375 C 10.660156 -5.0625 10.78125 -4.515625 10.8125 -3.953125 C 10.8125 -3.710938 10.800781 -3.46875 10.78125 -3.21875 C 10.769531 -2.976562 10.742188 -2.734375 10.703125 -2.484375 C 10.703125 -2.453125 10.710938 -2.382812 10.734375 -2.28125 C 10.753906 -2.175781 10.742188 -2.082031 10.703125 -2 C 10.742188 -1.800781 10.765625 -1.578125 10.765625 -1.328125 C 10.765625 -1.085938 10.765625 -0.867188 10.765625 -0.671875 L 10.9375 -0.0625 C 10.9375 -0.0195312 10.96875 0.0390625 11.03125 0.125 C 11.09375 0.207031 11.144531 0.265625 11.1875 0.296875 L 11.359375 0.296875 C 11.398438 0.265625 11.492188 0.21875 11.640625 0.15625 C 11.785156 0.09375 12.117188 -0.078125 12.640625 -0.359375 C 13.046875 -0.484375 13.390625 -0.664062 13.671875 -0.90625 L 19.328125 -6.328125 C 19.523438 -6.328125 19.664062 -6.273438 19.75 -6.171875 C 19.832031 -6.066406 19.789062 -5.914062 19.625 -5.71875 L 19.078125 -4.859375 C 19.046875 -4.703125 19.019531 -4.5625 19 -4.4375 C 18.976562 -4.3125 18.925781 -4.191406 18.84375 -4.078125 C 18.675781 -3.785156 18.472656 -3.539062 18.234375 -3.34375 L 17.203125 -2.125 C 17.160156 -2.082031 17.128906 -2.007812 17.109375 -1.90625 C 17.085938 -1.8125 17 -1.722656 16.84375 -1.640625 C 16.84375 -1.640625 16.84375 -1.617188 16.84375 -1.578125 C 16.84375 -1.535156 16.859375 -1.492188 16.890625 -1.453125 C 16.859375 -1.410156 16.8125 -1.390625 16.75 -1.390625 C 16.6875 -1.390625 16.65625 -1.375 16.65625 -1.34375 C 16.53125 -1.09375 16.351562 -0.863281 16.125 -0.65625 C 15.90625 -0.457031 15.695312 -0.257812 15.5 -0.0625 C 15.332031 0.144531 15.117188 0.347656 14.859375 0.546875 C 14.597656 0.742188 14.328125 0.945312 14.046875 1.15625 C 13.640625 1.4375 13.179688 1.617188 12.671875 1.703125 C 12.160156 1.785156 11.6875 1.863281 11.25 1.9375 L 11.1875 1.9375 C 10.976562 1.863281 10.8125 1.796875 10.6875 1.734375 C 10.570312 1.671875 10.429688 1.554688 10.265625 1.390625 C 9.984375 1.191406 9.726562 0.953125 9.5 0.671875 C 9.28125 0.390625 9.113281 0.046875 9 -0.359375 C 8.832031 -0.890625 8.707031 -1.4375 8.625 -2 C 8.550781 -2.570312 8.53125 -3.179688 8.5625 -3.828125 C 8.5625 -3.992188 8.570312 -4.175781 8.59375 -4.375 C 8.613281 -4.582031 8.625 -4.765625 8.625 -4.921875 C 8.582031 -5.003906 8.53125 -5.066406 8.46875 -5.109375 C 8.414062 -5.148438 8.367188 -5.207031 8.328125 -5.28125 C 8.160156 -4.71875 7.875 -4.414062 7.46875 -4.375 C 7.351562 -3.925781 7.070312 -3.601562 6.625 -3.40625 C 6.664062 -3.15625 6.601562 -2.988281 6.4375 -2.90625 C 6.28125 -2.832031 6.160156 -2.710938 6.078125 -2.546875 C 6.035156 -2.472656 5.960938 -2.375 5.859375 -2.25 C 5.765625 -2.125 5.738281 -2.0625 5.78125 -2.0625 L 5.46875 -1.640625 C 5.46875 -1.640625 5.351562 -1.445312 5.125 -1.0625 C 4.90625 -0.675781 4.6875 -0.253906 4.46875 0.203125 C 4.25 0.671875 4.078125 1.03125 3.953125 1.28125 C 3.710938 1.601562 3.445312 1.765625 3.15625 1.765625 L 2.984375 2.1875 C 2.941406 2.226562 2.910156 2.257812 2.890625 2.28125 C 2.867188 2.300781 2.835938 2.332031 2.796875 2.375 C 2.585938 2.78125 2.265625 2.921875 1.828125 2.796875 Z M 1.828125 2.796875 "/></g></g></g><g clip-path="url(#ddc56948df)"><g fill="#d883b7" fill-opacity="1"><g transform="translate(205.159797, 48.142592)"><g><path d="M 17.9375 4.5625 C 18.175781 4.519531 18.382812 4.597656 18.5625 4.796875 C 18.75 5.003906 18.84375 5.207031 18.84375 5.40625 L 13.859375 6.8125 C 13.691406 6.882812 13.585938 6.921875 13.546875 6.921875 C 13.347656 6.890625 13.195312 6.910156 13.09375 6.984375 C 13 7.066406 12.890625 7.210938 12.765625 7.421875 C 12.765625 7.535156 12.722656 7.632812 12.640625 7.71875 C 12.765625 7.914062 12.847656 8.160156 12.890625 8.453125 L 12.453125 8.5625 C 12.421875 8.726562 12.453125 8.867188 12.546875 8.984375 C 12.648438 9.109375 12.601562 9.273438 12.40625 9.484375 C 12.644531 9.890625 12.582031 10.171875 12.21875 10.328125 C 12.300781 10.691406 12.160156 10.976562 11.796875 11.1875 C 11.835938 11.226562 11.882812 11.265625 11.9375 11.296875 C 12 11.335938 12.03125 11.378906 12.03125 11.421875 C 11.945312 11.742188 11.914062 11.914062 11.9375 11.9375 C 11.957031 11.957031 11.929688 12.09375 11.859375 12.34375 C 11.890625 12.382812 11.875 12.515625 11.8125 12.734375 C 11.757812 12.953125 11.753906 13.0625 11.796875 13.0625 L 11.734375 13.546875 C 11.773438 13.710938 11.796875 13.84375 11.796875 13.9375 C 11.796875 14.039062 11.691406 14.132812 11.484375 14.21875 L 11.1875 14.828125 C 11.269531 14.867188 11.335938 14.898438 11.390625 14.921875 C 11.453125 14.941406 11.503906 14.992188 11.546875 15.078125 C 11.460938 15.359375 11.390625 15.617188 11.328125 15.859375 C 11.273438 16.109375 11.207031 16.351562 11.125 16.59375 C 11.082031 16.757812 11.050781 16.929688 11.03125 17.109375 C 11.007812 17.296875 10.957031 17.488281 10.875 17.6875 C 10.71875 18.007812 10.640625 18.128906 10.640625 18.046875 C 10.722656 18.253906 10.722656 18.476562 10.640625 18.71875 C 10.597656 18.757812 10.535156 18.820312 10.453125 18.90625 C 10.367188 18.988281 10.328125 19.085938 10.328125 19.203125 C 10.285156 19.242188 10.234375 19.304688 10.171875 19.390625 C 10.117188 19.472656 10.132812 19.515625 10.21875 19.515625 C 10.21875 19.753906 10.175781 19.9375 10.09375 20.0625 L 9 22.421875 C 9.070312 22.546875 9.128906 22.609375 9.171875 22.609375 L 8.75 22.921875 C 8.789062 23.078125 8.8125 23.273438 8.8125 23.515625 L 8.75 23.703125 C 8.75 23.742188 8.757812 23.765625 8.78125 23.765625 C 8.800781 23.765625 8.8125 23.765625 8.8125 23.765625 C 8.726562 23.804688 8.601562 24 8.4375 24.34375 C 8.28125 24.6875 8.160156 24.976562 8.078125 25.21875 C 8.003906 25.382812 7.882812 25.515625 7.71875 25.609375 C 7.550781 25.710938 7.429688 25.867188 7.359375 26.078125 C 7.273438 26.117188 7.253906 26.25 7.296875 26.46875 C 7.335938 26.6875 7.195312 26.695312 6.875 26.5 C 6.945312 26.664062 7.046875 26.828125 7.171875 26.984375 C 7.210938 27.148438 7.148438 27.234375 6.984375 27.234375 C 6.828125 27.234375 6.664062 27.253906 6.5 27.296875 C 6.664062 27.367188 6.789062 27.445312 6.875 27.53125 C 6.707031 27.570312 6.5625 27.65625 6.4375 27.78125 C 6.5625 28.101562 6.484375 28.296875 6.203125 28.359375 C 5.921875 28.421875 5.738281 28.550781 5.65625 28.75 L 6.015625 29 C 5.890625 29.15625 5.773438 29.300781 5.671875 29.4375 C 5.578125 29.582031 5.488281 29.738281 5.40625 29.90625 C 5.363281 29.90625 5.34375 29.894531 5.34375 29.875 C 5.34375 29.851562 5.34375 29.84375 5.34375 29.84375 C 5.226562 29.96875 5.085938 30.085938 4.921875 30.203125 C 4.765625 30.328125 4.644531 30.429688 4.5625 30.515625 C 4.5625 30.597656 4.582031 30.640625 4.625 30.640625 L 4.796875 30.640625 C 4.796875 30.671875 4.804688 30.695312 4.828125 30.71875 C 4.847656 30.738281 4.859375 30.75 4.859375 30.75 C 4.578125 31.070312 4.285156 31.375 3.984375 31.65625 C 3.679688 31.945312 3.382812 32.253906 3.09375 32.578125 C 3.09375 32.816406 3.039062 33 2.9375 33.125 C 2.84375 33.25 2.710938 33.367188 2.546875 33.484375 C 2.347656 33.691406 2.132812 33.882812 1.90625 34.0625 C 1.6875 34.25 1.476562 34.441406 1.28125 34.640625 C 1.195312 34.722656 1.15625 34.765625 1.15625 34.765625 C 0.875 34.890625 0.609375 35.0625 0.359375 35.28125 C 0.117188 35.507812 -0.203125 35.625 -0.609375 35.625 C -0.691406 35.65625 -0.769531 35.734375 -0.84375 35.859375 C -0.925781 35.984375 -1.007812 36.085938 -1.09375 36.171875 C -1.257812 36.242188 -1.429688 36.332031 -1.609375 36.4375 C -1.796875 36.539062 -1.96875 36.59375 -2.125 36.59375 C -2.769531 36.75 -3.5 36.828125 -4.3125 36.828125 C -4.59375 36.910156 -4.816406 36.910156 -4.984375 36.828125 C -5.515625 36.671875 -5.988281 36.507812 -6.40625 36.34375 C -6.832031 36.1875 -7.269531 35.984375 -7.71875 35.734375 C -8.570312 35.367188 -9.117188 34.820312 -9.359375 34.09375 C -9.398438 33.976562 -9.476562 33.890625 -9.59375 33.828125 C -9.71875 33.765625 -9.820312 33.648438 -9.90625 33.484375 C -10.03125 33.160156 -10.148438 32.847656 -10.265625 32.546875 C -10.390625 32.242188 -10.554688 31.890625 -10.765625 31.484375 C -10.796875 31.398438 -10.820312 31.304688 -10.84375 31.203125 C -10.863281 31.109375 -10.894531 31.019531 -10.9375 30.9375 C -10.894531 30.738281 -10.875 30.554688 -10.875 30.390625 C -10.875 30.222656 -10.851562 30.0625 -10.8125 29.90625 C -10.738281 29.332031 -10.671875 28.789062 -10.609375 28.28125 C -10.546875 27.78125 -10.453125 27.285156 -10.328125 26.796875 C -10.253906 26.398438 -10.175781 25.988281 -10.09375 25.5625 C -10.007812 25.132812 -9.882812 24.695312 -9.71875 24.25 C -9.6875 24.164062 -9.628906 24.085938 -9.546875 24.015625 L -9.171875 22.671875 L -8.75 21.828125 C -8.46875 21.253906 -8.175781 20.710938 -7.875 20.203125 C -7.570312 19.703125 -7.273438 19.207031 -6.984375 18.71875 C -6.703125 18.269531 -6.367188 17.800781 -5.984375 17.3125 C -5.597656 16.832031 -5.265625 16.367188 -4.984375 15.921875 L -3.53125 14.40625 C -3.445312 14.320312 -3.289062 14.164062 -3.0625 13.9375 C -2.84375 13.71875 -2.648438 13.550781 -2.484375 13.4375 C -2.328125 13.269531 -2.15625 13.070312 -1.96875 12.84375 C -1.789062 12.625 -1.5625 12.4375 -1.28125 12.28125 C -0.789062 11.914062 -0.304688 11.5625 0.171875 11.21875 C 0.660156 10.875 1.171875 10.519531 1.703125 10.15625 C 2.554688 9.425781 3.488281 8.859375 4.5 8.453125 L 6.8125 7.171875 C 7.25 6.972656 7.703125 6.789062 8.171875 6.625 C 8.640625 6.457031 9.078125 6.253906 9.484375 6.015625 L 9.71875 5.953125 C 10.375 5.796875 10.679688 5.390625 10.640625 4.734375 C 10.597656 4.703125 10.578125 4.601562 10.578125 4.4375 C 10.617188 4.269531 10.648438 4.113281 10.671875 3.96875 C 10.691406 3.832031 10.738281 3.6875 10.8125 3.53125 C 10.738281 2.800781 10.769531 2.28125 10.90625 1.96875 C 11.050781 1.664062 11.125 1.394531 11.125 1.15625 L 11.1875 1.03125 C 11.269531 0.382812 11.367188 -0.25 11.484375 -0.875 C 11.609375 -1.507812 11.734375 -2.109375 11.859375 -2.671875 C 11.816406 -2.628906 11.710938 -2.609375 11.546875 -2.609375 L 11.1875 -2.671875 C 11.144531 -2.628906 11.101562 -2.566406 11.0625 -2.484375 C 11.019531 -2.410156 10.957031 -2.351562 10.875 -2.3125 C 10.675781 -2.0625 10.515625 -1.898438 10.390625 -1.828125 C 10.390625 -1.828125 10.238281 -1.644531 9.9375 -1.28125 C 9.632812 -0.914062 9.238281 -0.550781 8.75 -0.1875 L 8.75 -0.125 C 8.257812 0.0390625 7.875 0.203125 7.59375 0.359375 C 7.3125 0.523438 6.988281 0.671875 6.625 0.796875 C 6.457031 0.828125 6.289062 0.863281 6.125 0.90625 C 5.96875 0.945312 5.769531 0.96875 5.53125 0.96875 C 5.332031 1.007812 5.109375 1.03125 4.859375 1.03125 C 4.617188 1.03125 4.394531 1.007812 4.1875 0.96875 L 2.671875 0.421875 C 2.585938 0.335938 2.515625 0.242188 2.453125 0.140625 C 2.398438 0.046875 2.332031 -0.0390625 2.25 -0.125 C 2.25 -0.363281 2.128906 -0.523438 1.890625 -0.609375 C 1.640625 -0.804688 1.492188 -1.046875 1.453125 -1.328125 C 1.410156 -1.617188 1.375 -1.90625 1.34375 -2.1875 C 1.175781 -2.675781 1.140625 -3.160156 1.234375 -3.640625 C 1.335938 -4.128906 1.472656 -4.597656 1.640625 -5.046875 C 1.722656 -5.242188 1.820312 -5.429688 1.9375 -5.609375 C 2.0625 -5.796875 2.144531 -5.972656 2.1875 -6.140625 C 2.269531 -6.296875 2.347656 -6.472656 2.421875 -6.671875 C 2.503906 -6.878906 2.628906 -7.109375 2.796875 -7.359375 C 2.835938 -7.359375 2.859375 -7.378906 2.859375 -7.421875 C 3.179688 -7.703125 3.429688 -8.0625 3.609375 -8.5 C 3.796875 -8.945312 4.070312 -9.316406 4.4375 -9.609375 C 4.632812 -9.722656 4.925781 -9.953125 5.3125 -10.296875 C 5.695312 -10.640625 5.972656 -10.832031 6.140625 -10.875 C 6.460938 -11 6.804688 -11.09375 7.171875 -11.15625 C 7.535156 -11.21875 7.878906 -11.1875 8.203125 -11.0625 C 8.367188 -11.019531 8.550781 -11.007812 8.75 -11.03125 C 8.957031 -11.050781 9.117188 -11.039062 9.234375 -11 C 9.441406 -10.84375 9.707031 -10.722656 10.03125 -10.640625 C 10.351562 -10.554688 10.597656 -10.453125 10.765625 -10.328125 C 11.085938 -10.085938 11.347656 -9.875 11.546875 -9.6875 C 11.753906 -9.507812 11.976562 -9.257812 12.21875 -8.9375 L 12.640625 -8.140625 C 12.847656 -8.304688 13.039062 -8.519531 13.21875 -8.78125 C 13.40625 -9.039062 13.578125 -9.210938 13.734375 -9.296875 L 14.46875 -9.109375 C 14.914062 -9.078125 15.398438 -8.976562 15.921875 -8.8125 L 15.75 -7.65625 C 15.625 -7.457031 15.53125 -7.222656 15.46875 -6.953125 C 15.40625 -6.691406 15.332031 -6.460938 15.25 -6.265625 C 15.207031 -6.097656 15.164062 -5.929688 15.125 -5.765625 C 15.09375 -5.609375 15.054688 -5.445312 15.015625 -5.28125 C 14.765625 -4.3125 14.566406 -3.359375 14.421875 -2.421875 C 14.285156 -1.492188 14.117188 -0.566406 13.921875 0.359375 C 13.835938 0.804688 13.804688 1.242188 13.828125 1.671875 C 13.847656 2.097656 13.753906 2.535156 13.546875 2.984375 C 13.515625 3.265625 13.5 3.535156 13.5 3.796875 C 13.5 4.054688 13.457031 4.3125 13.375 4.5625 C 13.375 4.5625 13.382812 4.609375 13.40625 4.703125 C 13.425781 4.804688 13.457031 4.859375 13.5 4.859375 C 13.894531 4.816406 14.273438 4.765625 14.640625 4.703125 C 15.003906 4.648438 15.390625 4.601562 15.796875 4.5625 C 16.523438 4.476562 17.238281 4.476562 17.9375 4.5625 Z M 10.8125 -5.46875 C 11.019531 -5.425781 11.160156 -5.472656 11.234375 -5.609375 C 11.316406 -5.753906 11.378906 -5.867188 11.421875 -5.953125 C 11.304688 -6.035156 11.207031 -6.125 11.125 -6.21875 C 11.039062 -6.320312 10.957031 -6.414062 10.875 -6.5 C 10.59375 -6.78125 10.515625 -7.101562 10.640625 -7.46875 C 10.679688 -7.675781 10.640625 -7.984375 10.515625 -8.390625 C 10.390625 -8.796875 10.289062 -9.019531 10.21875 -9.0625 C 10.09375 -9.257812 9.910156 -9.359375 9.671875 -9.359375 C 9.222656 -9.316406 8.773438 -9.222656 8.328125 -9.078125 C 7.878906 -8.941406 7.492188 -8.691406 7.171875 -8.328125 C 6.929688 -8.117188 6.6875 -7.921875 6.4375 -7.734375 C 6.195312 -7.554688 5.976562 -7.367188 5.78125 -7.171875 C 5.738281 -7.128906 5.675781 -7.054688 5.59375 -6.953125 C 5.507812 -6.859375 5.425781 -6.769531 5.34375 -6.6875 L 5.40625 -6.375 C 5.25 -6.175781 5.078125 -5.972656 4.890625 -5.765625 C 4.710938 -5.566406 4.539062 -5.347656 4.375 -5.109375 C 4.21875 -4.742188 4.066406 -4.378906 3.921875 -4.015625 C 3.773438 -3.648438 3.625 -3.304688 3.46875 -2.984375 C 3.382812 -2.691406 3.3125 -2.425781 3.25 -2.1875 C 3.1875 -1.945312 3.21875 -1.679688 3.34375 -1.390625 C 3.425781 -1.390625 3.523438 -1.398438 3.640625 -1.421875 C 3.765625 -1.441406 3.890625 -1.453125 4.015625 -1.453125 C 4.460938 -1.492188 4.882812 -1.582031 5.28125 -1.71875 C 5.6875 -1.863281 6.113281 -2.019531 6.5625 -2.1875 L 8.265625 -3.15625 L 8.328125 -3.15625 C 8.566406 -3.5625 8.910156 -3.867188 9.359375 -4.078125 C 9.441406 -4.078125 9.515625 -4.113281 9.578125 -4.1875 C 9.640625 -4.269531 9.6875 -4.332031 9.71875 -4.375 C 9.84375 -4.582031 10.023438 -4.722656 10.265625 -4.796875 C 10.515625 -4.878906 10.660156 -5.0625 10.703125 -5.34375 C 10.703125 -5.425781 10.738281 -5.46875 10.8125 -5.46875 Z M 9.71875 10.515625 C 9.800781 10.148438 9.875 9.773438 9.9375 9.390625 C 10 9.003906 10.09375 8.628906 10.21875 8.265625 C 9.96875 8.304688 9.738281 8.382812 9.53125 8.5 C 9.332031 8.625 9.132812 8.726562 8.9375 8.8125 C 8.164062 9.09375 7.4375 9.394531 6.75 9.71875 C 6.0625 10.050781 5.375 10.457031 4.6875 10.9375 C 4.28125 11.21875 3.832031 11.5 3.34375 11.78125 C 2.851562 12.070312 2.382812 12.378906 1.9375 12.703125 C 1.613281 12.941406 1.257812 13.160156 0.875 13.359375 C 0.488281 13.566406 0.113281 13.832031 -0.25 14.15625 C -0.363281 14.320312 -0.519531 14.484375 -0.71875 14.640625 C -0.925781 14.804688 -1.09375 14.972656 -1.21875 15.140625 C -1.375 15.296875 -1.53125 15.414062 -1.6875 15.5 C -1.851562 15.582031 -2 15.679688 -2.125 15.796875 C -2.40625 16.085938 -2.726562 16.472656 -3.09375 16.953125 C -3.300781 17.117188 -3.503906 17.300781 -3.703125 17.5 C -3.910156 17.707031 -4.113281 17.910156 -4.3125 18.109375 C -4.351562 18.191406 -4.492188 18.382812 -4.734375 18.6875 C -4.984375 18.988281 -5.207031 19.300781 -5.40625 19.625 C -5.613281 19.957031 -5.71875 20.179688 -5.71875 20.296875 L -6.984375 22.1875 C -7.023438 22.1875 -7.144531 22.378906 -7.34375 22.765625 C -7.550781 23.148438 -7.695312 23.441406 -7.78125 23.640625 C -7.976562 23.890625 -8.097656 24.175781 -8.140625 24.5 C -8.222656 24.738281 -8.285156 25 -8.328125 25.28125 C -8.367188 25.5625 -8.429688 25.804688 -8.515625 26.015625 C -8.585938 26.421875 -8.6875 26.828125 -8.8125 27.234375 C -8.9375 27.640625 -9.019531 28.0625 -9.0625 28.5 C -9.09375 29.070312 -9.085938 29.617188 -9.046875 30.140625 C -9.015625 30.671875 -8.976562 31.21875 -8.9375 31.78125 C -8.851562 32.394531 -8.660156 32.90625 -8.359375 33.3125 C -8.054688 33.71875 -7.660156 34.0625 -7.171875 34.34375 L -6.875 34.578125 C -6.707031 34.660156 -6.625 34.703125 -6.625 34.703125 C -6.175781 34.867188 -5.757812 34.972656 -5.375 35.015625 C -4.988281 35.054688 -4.613281 34.992188 -4.25 34.828125 C -4.050781 34.742188 -3.828125 34.640625 -3.578125 34.515625 C -3.335938 34.398438 -3.140625 34.320312 -2.984375 34.28125 C -2.453125 34.113281 -1.984375 33.878906 -1.578125 33.578125 C -1.171875 33.273438 -0.765625 32.960938 -0.359375 32.640625 C 0.046875 32.316406 0.421875 31.960938 0.765625 31.578125 C 1.109375 31.191406 1.441406 30.816406 1.765625 30.453125 C 2.242188 29.847656 2.664062 29.257812 3.03125 28.6875 C 3.40625 28.125 3.789062 27.535156 4.1875 26.921875 C 4.632812 26.316406 5 25.695312 5.28125 25.0625 C 5.570312 24.4375 5.878906 23.800781 6.203125 23.15625 C 6.441406 22.664062 6.640625 22.195312 6.796875 21.75 C 6.960938 21.3125 7.128906 20.847656 7.296875 20.359375 C 7.535156 19.628906 7.773438 18.921875 8.015625 18.234375 C 8.265625 17.546875 8.46875 16.835938 8.625 16.109375 C 8.789062 15.535156 8.921875 14.960938 9.015625 14.390625 C 9.117188 13.828125 9.234375 13.285156 9.359375 12.765625 C 9.441406 12.484375 9.519531 12.160156 9.59375 11.796875 C 9.675781 11.429688 9.71875 11.085938 9.71875 10.765625 Z M 9.71875 10.515625 "/></g></g></g></g></svg>