<svg xmlns="http://www.w3.org/2000/svg" xmlns:xlink="http://www.w3.org/1999/xlink" width="500" zoomAndPan="magnify" viewBox="0 0 375 374.999991" height="500" preserveAspectRatio="xMidYMid meet" version="1.0"><defs><g/></defs><g fill="#d883b7" fill-opacity="1"><g transform="translate(0.0246076, 192.223782)"><g><path d="M 21.859375 15.546875 C 20.359375 15.003906 18.796875 14.425781 17.171875 13.8125 C 15.546875 13.207031 14.054688 12.46875 12.703125 11.59375 C 12.429688 11.320312 12.125 11.082031 11.78125 10.875 C 11.445312 10.675781 11.144531 10.441406 10.875 10.171875 C 10.46875 9.691406 9.804688 8.957031 8.890625 7.96875 C 7.972656 6.988281 7.125 5.648438 6.34375 3.953125 C 5.570312 2.265625 5.148438 0.203125 5.078125 -2.234375 L 5.796875 -4.171875 C 5.523438 -4.710938 5.421875 -5.253906 5.484375 -5.796875 C 5.554688 -6.335938 5.691406 -6.8125 5.890625 -7.21875 C 6.160156 -9.382812 6.632812 -11.5 7.3125 -13.5625 C 7.988281 -15.632812 8.800781 -17.617188 9.75 -19.515625 C 10.09375 -20.535156 10.535156 -21.535156 11.078125 -22.515625 C 11.617188 -23.492188 12.195312 -24.457031 12.8125 -25.40625 C 13.414062 -26.351562 14.039062 -27.367188 14.6875 -28.453125 C 15.332031 -29.535156 16.023438 -30.554688 16.765625 -31.515625 C 18.460938 -33.742188 20.15625 -35.769531 21.84375 -37.59375 C 23.539062 -39.425781 25.507812 -41.257812 27.75 -43.09375 C 29.71875 -44.789062 31.921875 -46.078125 34.359375 -46.953125 C 36.796875 -47.835938 39.40625 -47.90625 42.1875 -47.15625 C 44.550781 -46.613281 46.492188 -45.734375 48.015625 -44.515625 C 49.546875 -43.296875 50.71875 -41.769531 51.53125 -39.9375 C 52.476562 -37.769531 53.019531 -35.941406 53.15625 -34.453125 C 53.289062 -32.960938 53.191406 -31.300781 52.859375 -29.46875 C 52.453125 -26.625 51.46875 -25.375 49.90625 -25.71875 C 49.425781 -25.851562 48.765625 -26.101562 47.921875 -26.46875 C 47.078125 -26.84375 46.65625 -27.367188 46.65625 -28.046875 C 47.394531 -30.148438 47.882812 -32.269531 48.125 -34.40625 C 48.363281 -36.539062 47.835938 -38.660156 46.546875 -40.765625 C 46.210938 -41.304688 45.585938 -41.984375 44.671875 -42.796875 C 43.753906 -43.609375 42.3125 -44.015625 40.34375 -44.015625 C 38.445312 -44.015625 36.582031 -43.472656 34.75 -42.390625 C 32.925781 -41.304688 31.179688 -39.945312 29.515625 -38.3125 C 27.859375 -36.6875 26.367188 -35.0625 25.046875 -33.4375 C 23.734375 -31.8125 22.671875 -30.488281 21.859375 -29.46875 C 21.109375 -28.457031 20.425781 -27.425781 19.8125 -26.375 C 19.207031 -25.320312 18.394531 -24.320312 17.375 -23.375 C 17.3125 -23.3125 17.257812 -23.226562 17.21875 -23.125 C 17.1875 -23.019531 17.101562 -22.898438 16.96875 -22.765625 C 16.832031 -21.617188 16.375 -20.519531 15.59375 -19.46875 C 14.820312 -18.414062 14.300781 -17.378906 14.03125 -16.359375 C 13.957031 -16.085938 13.769531 -15.847656 13.46875 -15.640625 C 13.164062 -15.441406 13.046875 -15.175781 13.109375 -14.84375 C 12.773438 -13.144531 12.285156 -11.414062 11.640625 -9.65625 C 10.992188 -7.894531 10.601562 -6.132812 10.46875 -4.375 C 10.40625 -3.289062 10.40625 -2.222656 10.46875 -1.171875 C 10.539062 -0.117188 10.609375 0.914062 10.671875 1.9375 C 10.804688 2.945312 11.09375 4.023438 11.53125 5.171875 C 11.976562 6.328125 12.570312 7.3125 13.3125 8.125 C 14.257812 9.144531 15.578125 10.046875 17.265625 10.828125 C 18.960938 11.609375 20.59375 12.03125 22.15625 12.09375 C 25.34375 12.164062 28.019531 11.945312 30.1875 11.4375 C 32.351562 10.925781 34.503906 9.890625 36.640625 8.328125 C 38.773438 6.773438 41.300781 4.539062 44.21875 1.625 C 45.363281 0.46875 46.507812 -0.765625 47.65625 -2.078125 C 48.8125 -3.398438 49.628906 -4.640625 50.109375 -5.796875 C 49.898438 -5.992188 49.117188 -6.175781 47.765625 -6.34375 C 46.410156 -6.519531 44.695312 -6.609375 42.625 -6.609375 C 40.5625 -6.609375 38.34375 -6.453125 35.96875 -6.140625 C 33.601562 -5.835938 31.335938 -5.347656 29.171875 -4.671875 C 28.554688 -5.210938 28.398438 -5.921875 28.703125 -6.796875 C 29.015625 -7.679688 30.117188 -8.296875 32.015625 -8.640625 C 33.910156 -8.972656 35.453125 -9.222656 36.640625 -9.390625 C 37.828125 -9.566406 39.097656 -9.703125 40.453125 -9.796875 C 41.804688 -9.898438 43.566406 -9.988281 45.734375 -10.0625 C 47.222656 -10.132812 48.796875 -10.066406 50.453125 -9.859375 C 52.117188 -9.648438 53.441406 -9.289062 54.421875 -8.78125 C 55.410156 -8.28125 55.632812 -7.554688 55.09375 -6.609375 C 54.550781 -5.660156 53.875 -4.578125 53.0625 -3.359375 C 52.25 -2.140625 51.296875 -0.882812 50.203125 0.40625 C 49.734375 0.945312 49.207031 1.488281 48.625 2.03125 C 48.050781 2.570312 47.53125 3.046875 47.0625 3.453125 L 44.3125 6.8125 C 44.25 7.082031 44.21875 7.300781 44.21875 7.46875 C 44.21875 7.632812 44.179688 7.753906 44.109375 7.828125 C 43.773438 8.097656 43.382812 8.347656 42.9375 8.578125 C 42.5 8.816406 42.113281 9.039062 41.78125 9.25 C 41.300781 9.71875 40.820312 10.140625 40.34375 10.515625 C 39.875 10.890625 39.503906 11.316406 39.234375 11.796875 C 38.890625 12.335938 38.363281 12.773438 37.65625 13.109375 C 36.945312 13.453125 36.21875 13.691406 35.46875 13.828125 C 34.789062 13.890625 34.195312 13.972656 33.6875 14.078125 C 33.1875 14.179688 32.765625 14.398438 32.421875 14.734375 C 32.359375 14.804688 32.289062 14.890625 32.21875 14.984375 C 32.15625 15.085938 32.125 15.140625 32.125 15.140625 C 30.488281 15.484375 28.773438 15.753906 26.984375 15.953125 C 25.191406 16.160156 23.484375 16.023438 21.859375 15.546875 Z M 21.859375 15.546875 "/></g></g></g><g fill="#d883b7" fill-opacity="1"><g transform="translate(60.497556, 192.223782)"><g><path d="M 26.734375 -9.953125 L 25.203125 -8.640625 C 25.140625 -8.566406 25.070312 -8.445312 25 -8.28125 C 24.9375 -8.113281 24.769531 -7.960938 24.5 -7.828125 L 24.1875 -7.421875 C 23.71875 -7.210938 23.617188 -6.972656 23.890625 -6.703125 C 23.679688 -6.566406 23.492188 -6.414062 23.328125 -6.25 C 23.160156 -6.082031 23.039062 -5.828125 22.96875 -5.484375 L 22.96875 -5.390625 C 22.90625 -5.253906 22.804688 -5.097656 22.671875 -4.921875 C 22.535156 -4.753906 22.429688 -4.640625 22.359375 -4.578125 C 22.023438 -4.234375 21.585938 -3.859375 21.046875 -3.453125 L 19.109375 -1.9375 C 18.703125 -1.726562 18.328125 -1.519531 17.984375 -1.3125 C 17.648438 -1.113281 17.3125 -0.878906 16.96875 -0.609375 C 16.5 -0.335938 16.0625 -0.0507812 15.65625 0.25 C 15.25 0.5625 14.773438 0.816406 14.234375 1.015625 C 13.960938 1.148438 13.640625 1.234375 13.265625 1.265625 C 12.890625 1.304688 12.535156 1.359375 12.203125 1.421875 C 11.929688 1.421875 11.625 1.523438 11.28125 1.734375 C 11.082031 1.796875 10.847656 1.859375 10.578125 1.921875 C 10.304688 1.992188 10.03125 2.066406 9.75 2.140625 C 9.34375 2.203125 8.953125 2.285156 8.578125 2.390625 C 8.210938 2.492188 7.828125 2.507812 7.421875 2.4375 C 6.265625 2.300781 5.25 2.097656 4.375 1.828125 C 3.894531 1.691406 3.519531 1.554688 3.25 1.421875 C 2.976562 1.285156 2.570312 1.015625 2.03125 0.609375 C 1.96875 0.472656 1.882812 0.390625 1.78125 0.359375 C 1.675781 0.328125 1.59375 0.273438 1.53125 0.203125 C 1.1875 -0.0664062 0.894531 -0.351562 0.65625 -0.65625 C 0.425781 -0.96875 0.140625 -1.359375 -0.203125 -1.828125 C -0.273438 -1.960938 -0.328125 -2.082031 -0.359375 -2.1875 C -0.390625 -2.289062 -0.472656 -2.578125 -0.609375 -3.046875 C -0.878906 -3.660156 -1.015625 -4.171875 -1.015625 -4.578125 C -1.015625 -4.984375 -1.015625 -5.351562 -1.015625 -5.6875 C -0.878906 -7.71875 -0.335938 -9.6875 0.609375 -11.59375 C 0.816406 -11.925781 1.019531 -12.242188 1.21875 -12.546875 C 1.425781 -12.859375 1.664062 -13.148438 1.9375 -13.421875 C 2.40625 -13.960938 2.859375 -14.503906 3.296875 -15.046875 C 3.742188 -15.585938 4.203125 -16.09375 4.671875 -16.5625 C 5.691406 -17.582031 6.8125 -18.125 8.03125 -18.1875 C 8.164062 -18.1875 8.316406 -18.203125 8.484375 -18.234375 C 8.648438 -18.273438 8.835938 -18.328125 9.046875 -18.390625 C 9.585938 -18.597656 10.078125 -18.582031 10.515625 -18.34375 C 10.960938 -18.101562 11.351562 -17.882812 11.6875 -17.6875 C 12.164062 -17.476562 12.609375 -17.238281 13.015625 -16.96875 C 13.421875 -16.695312 13.789062 -16.394531 14.125 -16.0625 C 14.53125 -15.789062 14.832031 -15.316406 15.03125 -14.640625 C 15.238281 -13.960938 15.273438 -13.421875 15.140625 -13.015625 C 14.941406 -12.472656 14.671875 -12.03125 14.328125 -11.6875 C 13.859375 -11.21875 13.398438 -10.742188 12.953125 -10.265625 C 12.515625 -9.785156 12.0625 -9.3125 11.59375 -8.84375 C 11.457031 -8.707031 11.269531 -8.585938 11.03125 -8.484375 C 10.789062 -8.378906 10.640625 -8.257812 10.578125 -8.125 C 10.503906 -7.789062 10.332031 -7.570312 10.0625 -7.46875 C 9.789062 -7.363281 9.550781 -7.242188 9.34375 -7.109375 L 7.921875 -6.09375 C 7.859375 -6.03125 7.828125 -5.945312 7.828125 -5.84375 C 7.828125 -5.738281 7.789062 -5.65625 7.71875 -5.59375 C 7.382812 -5.382812 7.03125 -5.195312 6.65625 -5.03125 C 6.28125 -4.863281 5.925781 -4.675781 5.59375 -4.46875 C 5.457031 -4.40625 5.335938 -4.320312 5.234375 -4.21875 C 5.128906 -4.113281 5.007812 -3.992188 4.875 -3.859375 C 4.46875 -3.660156 4.144531 -3.507812 3.90625 -3.40625 C 3.675781 -3.300781 3.390625 -3.148438 3.046875 -2.953125 C 3.253906 -2.335938 3.441406 -1.925781 3.609375 -1.71875 C 3.773438 -1.519531 4.0625 -1.351562 4.46875 -1.21875 C 5.144531 -1.289062 5.804688 -1.328125 6.453125 -1.328125 C 7.097656 -1.328125 7.757812 -1.359375 8.4375 -1.421875 C 8.90625 -1.492188 9.359375 -1.613281 9.796875 -1.78125 C 10.242188 -1.945312 10.707031 -2.097656 11.1875 -2.234375 C 11.519531 -2.367188 11.890625 -2.535156 12.296875 -2.734375 C 12.703125 -2.941406 13.109375 -3.113281 13.515625 -3.25 C 13.785156 -3.382812 14.039062 -3.46875 14.28125 -3.5 C 14.519531 -3.539062 14.773438 -3.628906 15.046875 -3.765625 L 18.390625 -5.6875 L 18.703125 -5.890625 C 19.171875 -6.234375 19.8125 -6.640625 20.625 -7.109375 C 21.445312 -7.585938 22.09375 -7.960938 22.5625 -8.234375 C 22.769531 -8.367188 23.007812 -8.503906 23.28125 -8.640625 C 23.550781 -8.773438 23.71875 -8.875 23.78125 -8.9375 L 27.234375 -11.484375 L 27.4375 -10.78125 C 27.4375 -10.78125 27.453125 -10.78125 27.484375 -10.78125 C 27.523438 -10.78125 27.546875 -10.742188 27.546875 -10.671875 C 27.410156 -10.609375 27.273438 -10.507812 27.140625 -10.375 C 27.003906 -10.238281 26.867188 -10.097656 26.734375 -9.953125 Z M 3.65625 -9.140625 C 3.519531 -8.867188 3.398438 -8.546875 3.296875 -8.171875 C 3.203125 -7.804688 3.085938 -7.421875 2.953125 -7.015625 C 3.359375 -7.285156 3.695312 -7.503906 3.96875 -7.671875 C 4.238281 -7.835938 4.472656 -7.988281 4.671875 -8.125 L 7.421875 -10.375 L 10.171875 -12.8125 C 10.503906 -13.082031 10.769531 -13.367188 10.96875 -13.671875 C 11.175781 -13.972656 11.382812 -14.296875 11.59375 -14.640625 C 11.726562 -14.910156 11.707031 -15.210938 11.53125 -15.546875 C 11.363281 -15.890625 11.179688 -15.992188 10.984375 -15.859375 C 10.503906 -15.648438 10.039062 -15.507812 9.59375 -15.4375 C 9.15625 -15.375 8.734375 -15.175781 8.328125 -14.84375 C 7.859375 -14.5 7.398438 -14.175781 6.953125 -13.875 C 6.515625 -13.570312 6.128906 -13.179688 5.796875 -12.703125 C 5.046875 -11.691406 4.332031 -10.503906 3.65625 -9.140625 Z M 3.65625 -9.140625 "/></g></g></g><g fill="#d883b7" fill-opacity="1"><g transform="translate(86.109615, 192.223782)"><g><path d="M 28.859375 -13.921875 L 28.96875 -13.828125 L 28.96875 -12.90625 C 28.351562 -12.300781 27.84375 -11.828125 27.4375 -11.484375 C 27.03125 -11.148438 26.660156 -10.878906 26.328125 -10.671875 C 26.117188 -10.535156 25.976562 -10.378906 25.90625 -10.203125 C 25.84375 -10.035156 25.710938 -9.953125 25.515625 -9.953125 L 24.796875 -9.953125 C 24.660156 -9.953125 24.59375 -9.921875 24.59375 -9.859375 C 24.53125 -9.585938 24.34375 -9.414062 24.03125 -9.34375 C 23.726562 -9.28125 23.441406 -9.179688 23.171875 -9.046875 L 21.75 -8.4375 C 21.207031 -8.164062 20.710938 -7.992188 20.265625 -7.921875 C 19.828125 -7.859375 19.335938 -7.789062 18.796875 -7.71875 C 18.660156 -7.71875 18.539062 -7.703125 18.4375 -7.671875 C 18.34375 -7.640625 18.226562 -7.625 18.09375 -7.625 C 17.6875 -7.625 17.484375 -7.421875 17.484375 -7.015625 C 17.410156 -6.878906 17.335938 -6.722656 17.265625 -6.546875 C 17.203125 -6.378906 17.171875 -6.195312 17.171875 -6 L 17.375 -5.890625 C 17.375 -5.890625 17.375 -5.875 17.375 -5.84375 C 17.375 -5.8125 17.375 -5.796875 17.375 -5.796875 C 17.101562 -5.523438 16.929688 -5.253906 16.859375 -4.984375 C 16.796875 -4.710938 16.597656 -4.472656 16.265625 -4.265625 C 16.191406 -4.203125 16.171875 -4.101562 16.203125 -3.96875 C 16.242188 -3.832031 16.226562 -3.726562 16.15625 -3.65625 C 15.75 -3.1875 15.394531 -2.710938 15.09375 -2.234375 C 14.789062 -1.765625 14.398438 -1.257812 13.921875 -0.71875 L 13.71875 -0.515625 C 13.445312 -0.242188 13.175781 0.0078125 12.90625 0.25 C 12.632812 0.488281 12.398438 0.742188 12.203125 1.015625 C 11.796875 1.285156 11.421875 1.421875 11.078125 1.421875 C 10.671875 1.691406 10.28125 1.894531 9.90625 2.03125 C 9.53125 2.164062 9.109375 2.300781 8.640625 2.4375 C 8.160156 2.570312 7.820312 2.570312 7.625 2.4375 C 7.144531 2.375 6.617188 2.320312 6.046875 2.28125 C 5.472656 2.25 4.984375 2.132812 4.578125 1.9375 C 3.960938 1.800781 3.4375 1.578125 3 1.265625 C 2.5625 0.960938 2.171875 0.578125 1.828125 0.109375 C 1.285156 -0.441406 0.945312 -1.15625 0.8125 -2.03125 C 0.675781 -2.914062 0.578125 -3.765625 0.515625 -4.578125 C 0.441406 -5.523438 0.570312 -6.488281 0.90625 -7.46875 C 1.25 -8.445312 1.554688 -9.378906 1.828125 -10.265625 C 1.960938 -10.609375 2.0625 -11.015625 2.125 -11.484375 C 2.195312 -11.960938 2.269531 -12.203125 2.34375 -12.203125 C 2.675781 -12.742188 2.976562 -13.285156 3.25 -13.828125 C 3.519531 -14.367188 3.789062 -14.773438 4.0625 -15.046875 C 4.539062 -15.515625 5.03125 -15.953125 5.53125 -16.359375 C 6.039062 -16.765625 6.601562 -17.101562 7.21875 -17.375 C 7.6875 -17.582031 8.15625 -17.6875 8.625 -17.6875 C 9.101562 -17.6875 9.546875 -17.6875 9.953125 -17.6875 C 10.234375 -17.6875 10.441406 -17.582031 10.578125 -17.375 C 10.710938 -17.175781 10.878906 -16.972656 11.078125 -16.765625 C 11.148438 -16.703125 11.234375 -16.671875 11.328125 -16.671875 C 11.429688 -16.671875 11.519531 -16.632812 11.59375 -16.5625 C 12.132812 -16.363281 12.722656 -16.210938 13.359375 -16.109375 C 14.003906 -16.003906 14.632812 -15.679688 15.25 -15.140625 C 15.3125 -15.078125 15.425781 -15.046875 15.59375 -15.046875 C 15.769531 -15.046875 15.890625 -15.007812 15.953125 -14.9375 C 16.492188 -14.53125 17.003906 -13.820312 17.484375 -12.8125 L 18.1875 -10.578125 C 18.1875 -10.367188 18.1875 -10.265625 18.1875 -10.265625 C 19.132812 -10.609375 20.050781 -10.929688 20.9375 -11.234375 C 21.820312 -11.535156 22.703125 -11.820312 23.578125 -12.09375 C 24.328125 -12.4375 25.070312 -12.707031 25.8125 -12.90625 C 26.5625 -13.113281 27.578125 -13.453125 28.859375 -13.921875 Z M 14.4375 -9.859375 C 14.363281 -10.128906 14.34375 -10.414062 14.375 -10.71875 C 14.414062 -11.03125 14.4375 -11.320312 14.4375 -11.59375 C 14.363281 -12 14.273438 -12.4375 14.171875 -12.90625 C 14.078125 -13.382812 13.894531 -13.828125 13.625 -14.234375 C 13.488281 -14.503906 13.25 -14.570312 12.90625 -14.4375 C 12.300781 -14.4375 11.828125 -14.265625 11.484375 -13.921875 C 11.210938 -13.648438 10.925781 -13.394531 10.625 -13.15625 C 10.320312 -12.925781 10.132812 -12.570312 10.0625 -12.09375 C 10.0625 -11.488281 10.195312 -10.945312 10.46875 -10.46875 C 10.601562 -10.0625 10.976562 -9.859375 11.59375 -9.859375 Z M 13.515625 -6.8125 C 13.785156 -7.144531 13.6875 -7.414062 13.21875 -7.625 C 12.539062 -7.625 11.929688 -7.722656 11.390625 -7.921875 C 10.296875 -8.128906 9.3125 -8.570312 8.4375 -9.25 C 7.6875 -9.65625 7.210938 -10.164062 7.015625 -10.78125 C 6.742188 -11.113281 6.570312 -11.484375 6.5 -11.890625 C 6.226562 -11.285156 5.972656 -10.757812 5.734375 -10.3125 C 5.503906 -9.875 5.253906 -9.382812 4.984375 -8.84375 C 4.847656 -8.632812 4.726562 -8.394531 4.625 -8.125 C 4.519531 -7.851562 4.4375 -7.617188 4.375 -7.421875 C 4.300781 -7.148438 4.25 -6.878906 4.21875 -6.609375 C 4.1875 -6.335938 4.132812 -6.066406 4.0625 -5.796875 C 3.863281 -5.316406 3.742188 -4.789062 3.703125 -4.21875 C 3.671875 -3.644531 3.65625 -3.085938 3.65625 -2.546875 C 3.65625 -2.203125 3.6875 -1.894531 3.75 -1.625 C 3.820312 -1.351562 3.894531 -1.050781 3.96875 -0.71875 C 4.03125 -0.3125 4.316406 -0.0234375 4.828125 0.140625 C 5.335938 0.316406 5.929688 0.269531 6.609375 0 C 7.347656 -0.207031 8.070312 -0.546875 8.78125 -1.015625 C 9.5 -1.492188 10.128906 -2.003906 10.671875 -2.546875 C 11.347656 -3.222656 11.925781 -3.929688 12.40625 -4.671875 C 12.601562 -5.015625 12.769531 -5.367188 12.90625 -5.734375 C 13.039062 -6.109375 13.242188 -6.46875 13.515625 -6.8125 Z M 13.515625 -6.8125 "/></g></g></g><g fill="#d883b7" fill-opacity="1"><g transform="translate(109.993885, 192.223782)"><g><path d="M 2.234375 1.828125 C 1.960938 1.691406 1.742188 1.519531 1.578125 1.3125 C 1.410156 1.113281 1.125 0.914062 0.71875 0.71875 C 0.507812 0.164062 0.316406 -0.359375 0.140625 -0.859375 C -0.0234375 -1.367188 -0.0351562 -1.960938 0.109375 -2.640625 L 0.921875 -6.8125 C 1.054688 -7.351562 1.191406 -7.910156 1.328125 -8.484375 C 1.460938 -9.054688 1.53125 -9.617188 1.53125 -10.171875 C 1.664062 -10.910156 1.832031 -11.617188 2.03125 -12.296875 C 2.238281 -12.972656 2.375 -13.648438 2.4375 -14.328125 C 2.570312 -15.078125 2.707031 -15.789062 2.84375 -16.46875 C 2.976562 -17.144531 3.082031 -17.820312 3.15625 -18.5 C 3.21875 -18.632812 3.25 -18.769531 3.25 -18.90625 C 3.25 -19.039062 3.285156 -19.140625 3.359375 -19.203125 C 3.554688 -19.546875 3.859375 -19.71875 4.265625 -19.71875 C 5.347656 -20.125 6.09375 -19.582031 6.5 -18.09375 C 6.84375 -17.28125 6.945312 -16.398438 6.8125 -15.453125 C 6.8125 -15.316406 6.773438 -15.160156 6.703125 -14.984375 C 6.640625 -14.816406 6.609375 -14.597656 6.609375 -14.328125 C 6.742188 -14.535156 6.894531 -14.722656 7.0625 -14.890625 C 7.226562 -15.054688 7.347656 -15.207031 7.421875 -15.34375 C 7.691406 -15.820312 7.976562 -16.210938 8.28125 -16.515625 C 8.582031 -16.816406 8.90625 -17.140625 9.25 -17.484375 C 9.71875 -18.160156 10.222656 -18.71875 10.765625 -19.15625 C 11.316406 -19.59375 11.863281 -19.984375 12.40625 -20.328125 C 13.6875 -21.347656 15.003906 -21.453125 16.359375 -20.640625 C 16.628906 -20.429688 16.882812 -20.222656 17.125 -20.015625 C 17.363281 -19.816406 17.582031 -19.613281 17.78125 -19.40625 C 17.988281 -19.207031 18.125 -19.109375 18.1875 -19.109375 C 18.53125 -18.898438 18.800781 -18.492188 19 -17.890625 L 18.90625 -17.375 C 18.90625 -17.375 18.75 -17.359375 18.4375 -17.328125 C 18.132812 -17.296875 17.644531 -17.414062 16.96875 -17.6875 C 16.695312 -17.6875 16.410156 -17.6875 16.109375 -17.6875 C 15.804688 -17.6875 15.484375 -17.550781 15.140625 -17.28125 C 14.941406 -17.007812 14.707031 -16.804688 14.4375 -16.671875 C 14.164062 -16.535156 13.859375 -16.363281 13.515625 -16.15625 C 13.378906 -16.09375 13.257812 -15.972656 13.15625 -15.796875 C 13.0625 -15.628906 12.945312 -15.476562 12.8125 -15.34375 C 12.539062 -15.070312 12.25 -14.816406 11.9375 -14.578125 C 11.632812 -14.347656 11.347656 -14.097656 11.078125 -13.828125 L 9.140625 -11.28125 C 8.804688 -10.8125 8.4375 -10.300781 8.03125 -9.75 C 7.625 -9.207031 7.25 -8.632812 6.90625 -8.03125 C 6.632812 -7.351562 6.3125 -6.707031 5.9375 -6.09375 C 5.570312 -5.488281 5.21875 -4.878906 4.875 -4.265625 C 4.675781 -3.796875 4.523438 -3.320312 4.421875 -2.84375 C 4.316406 -2.375 4.195312 -1.898438 4.0625 -1.421875 C 4 -1.085938 3.945312 -0.734375 3.90625 -0.359375 C 3.875 0.015625 3.789062 0.375 3.65625 0.71875 C 3.457031 1.726562 2.984375 2.097656 2.234375 1.828125 Z M 2.234375 1.828125 "/></g></g></g><g fill="#d883b7" fill-opacity="1"><g transform="translate(129.914393, 192.223782)"><g><path d="M 29.984375 7.625 C 30.390625 7.550781 30.742188 7.679688 31.046875 8.015625 C 31.359375 8.359375 31.515625 8.703125 31.515625 9.046875 L 23.171875 11.390625 C 22.898438 11.523438 22.734375 11.59375 22.671875 11.59375 C 22.328125 11.519531 22.070312 11.550781 21.90625 11.6875 C 21.738281 11.820312 21.550781 12.0625 21.34375 12.40625 C 21.34375 12.601562 21.273438 12.769531 21.140625 12.90625 C 21.347656 13.25 21.484375 13.65625 21.546875 14.125 L 20.84375 14.328125 C 20.769531 14.597656 20.816406 14.832031 20.984375 15.03125 C 21.160156 15.238281 21.078125 15.515625 20.734375 15.859375 C 21.140625 16.535156 21.039062 17.007812 20.4375 17.28125 C 20.570312 17.882812 20.332031 18.359375 19.71875 18.703125 C 19.78125 18.765625 19.863281 18.828125 19.96875 18.890625 C 20.070312 18.960938 20.125 19.035156 20.125 19.109375 C 19.988281 19.648438 19.9375 19.9375 19.96875 19.96875 C 20 20 19.945312 20.222656 19.8125 20.640625 C 19.882812 20.703125 19.867188 20.921875 19.765625 21.296875 C 19.660156 21.671875 19.644531 21.859375 19.71875 21.859375 L 19.609375 22.671875 C 19.679688 22.941406 19.71875 23.160156 19.71875 23.328125 C 19.71875 23.492188 19.546875 23.644531 19.203125 23.78125 L 18.703125 24.796875 C 18.835938 24.867188 18.953125 24.921875 19.046875 24.953125 C 19.148438 24.984375 19.238281 25.066406 19.3125 25.203125 C 19.175781 25.679688 19.054688 26.125 18.953125 26.53125 C 18.847656 26.9375 18.726562 27.34375 18.59375 27.75 C 18.53125 28.019531 18.476562 28.304688 18.4375 28.609375 C 18.40625 28.910156 18.320312 29.234375 18.1875 29.578125 C 17.914062 30.117188 17.78125 30.320312 17.78125 30.1875 C 17.914062 30.53125 17.914062 30.90625 17.78125 31.3125 C 17.71875 31.375 17.617188 31.472656 17.484375 31.609375 C 17.347656 31.742188 17.28125 31.914062 17.28125 32.125 C 17.207031 32.1875 17.117188 32.285156 17.015625 32.421875 C 16.921875 32.554688 16.941406 32.625 17.078125 32.625 C 17.078125 33.03125 17.007812 33.335938 16.875 33.546875 L 15.046875 37.5 C 15.179688 37.707031 15.28125 37.8125 15.34375 37.8125 L 14.640625 38.3125 C 14.703125 38.582031 14.734375 38.921875 14.734375 39.328125 L 14.640625 39.640625 C 14.640625 39.703125 14.65625 39.734375 14.6875 39.734375 C 14.71875 39.734375 14.734375 39.734375 14.734375 39.734375 C 14.597656 39.804688 14.394531 40.128906 14.125 40.703125 C 13.851562 41.285156 13.648438 41.78125 13.515625 42.1875 C 13.378906 42.457031 13.175781 42.675781 12.90625 42.84375 C 12.632812 43.007812 12.429688 43.265625 12.296875 43.609375 C 12.160156 43.671875 12.125 43.890625 12.1875 44.265625 C 12.257812 44.640625 12.023438 44.65625 11.484375 44.3125 C 11.617188 44.582031 11.789062 44.851562 12 45.125 C 12.0625 45.394531 11.957031 45.53125 11.6875 45.53125 C 11.414062 45.53125 11.144531 45.566406 10.875 45.640625 C 11.144531 45.773438 11.347656 45.910156 11.484375 46.046875 C 11.210938 46.109375 10.976562 46.242188 10.78125 46.453125 C 10.976562 46.992188 10.835938 47.3125 10.359375 47.40625 C 9.890625 47.507812 9.585938 47.734375 9.453125 48.078125 L 10.0625 48.484375 C 9.851562 48.753906 9.664062 49.003906 9.5 49.234375 C 9.332031 49.472656 9.179688 49.726562 9.046875 50 C 8.972656 50 8.9375 49.984375 8.9375 49.953125 C 8.9375 49.921875 8.9375 49.90625 8.9375 49.90625 C 8.738281 50.101562 8.503906 50.304688 8.234375 50.515625 C 7.960938 50.722656 7.757812 50.894531 7.625 51.03125 C 7.625 51.164062 7.65625 51.234375 7.71875 51.234375 L 8.03125 51.234375 C 8.03125 51.296875 8.046875 51.34375 8.078125 51.375 C 8.109375 51.414062 8.125 51.4375 8.125 51.4375 C 7.65625 51.976562 7.164062 52.484375 6.65625 52.953125 C 6.144531 53.429688 5.65625 53.941406 5.1875 54.484375 C 5.1875 54.890625 5.097656 55.191406 4.921875 55.390625 C 4.753906 55.597656 4.535156 55.800781 4.265625 56 C 3.929688 56.34375 3.578125 56.664062 3.203125 56.96875 C 2.828125 57.269531 2.472656 57.59375 2.140625 57.9375 C 2.003906 58.070312 1.9375 58.140625 1.9375 58.140625 C 1.457031 58.335938 1.015625 58.625 0.609375 59 C 0.203125 59.375 -0.335938 59.5625 -1.015625 59.5625 C -1.148438 59.625 -1.285156 59.753906 -1.421875 59.953125 C -1.554688 60.160156 -1.691406 60.332031 -1.828125 60.46875 C -2.097656 60.601562 -2.382812 60.753906 -2.6875 60.921875 C -3 61.097656 -3.289062 61.1875 -3.5625 61.1875 C -4.644531 61.457031 -5.863281 61.59375 -7.21875 61.59375 C -7.6875 61.726562 -8.054688 61.726562 -8.328125 61.59375 C -9.210938 61.320312 -10.007812 61.050781 -10.71875 60.78125 C -11.4375 60.507812 -12.164062 60.171875 -12.90625 59.765625 C -14.332031 59.148438 -15.25 58.234375 -15.65625 57.015625 C -15.71875 56.816406 -15.847656 56.664062 -16.046875 56.5625 C -16.253906 56.457031 -16.425781 56.269531 -16.5625 56 C -16.769531 55.457031 -16.972656 54.929688 -17.171875 54.421875 C -17.378906 53.921875 -17.648438 53.332031 -17.984375 52.65625 C -18.054688 52.519531 -18.109375 52.363281 -18.140625 52.1875 C -18.171875 52.019531 -18.222656 51.867188 -18.296875 51.734375 C -18.222656 51.398438 -18.1875 51.09375 -18.1875 50.8125 C -18.1875 50.539062 -18.15625 50.269531 -18.09375 50 C -17.957031 49.050781 -17.835938 48.15625 -17.734375 47.3125 C -17.628906 46.46875 -17.476562 45.640625 -17.28125 44.828125 C -17.144531 44.148438 -17.007812 43.453125 -16.875 42.734375 C -16.738281 42.023438 -16.535156 41.296875 -16.265625 40.546875 C -16.191406 40.410156 -16.085938 40.273438 -15.953125 40.140625 L -15.34375 37.90625 L -14.640625 36.484375 C -14.160156 35.535156 -13.664062 34.640625 -13.15625 33.796875 C -12.65625 32.953125 -12.164062 32.125 -11.6875 31.3125 C -11.21875 30.5625 -10.660156 29.78125 -10.015625 28.96875 C -9.367188 28.15625 -8.804688 27.375 -8.328125 26.625 L -5.890625 24.09375 C -5.753906 23.957031 -5.5 23.703125 -5.125 23.328125 C -4.757812 22.953125 -4.441406 22.664062 -4.171875 22.46875 C -3.898438 22.195312 -3.609375 21.875 -3.296875 21.5 C -2.992188 21.125 -2.609375 20.800781 -2.140625 20.53125 C -1.328125 19.914062 -0.515625 19.320312 0.296875 18.75 C 1.117188 18.175781 1.96875 17.582031 2.84375 16.96875 C 4.269531 15.75 5.828125 14.800781 7.515625 14.125 L 11.390625 12 C 12.128906 11.65625 12.890625 11.347656 13.671875 11.078125 C 14.453125 10.804688 15.179688 10.46875 15.859375 10.0625 L 16.265625 9.953125 C 17.347656 9.679688 17.851562 9.003906 17.78125 7.921875 C 17.71875 7.859375 17.6875 7.691406 17.6875 7.421875 C 17.75 7.148438 17.796875 6.894531 17.828125 6.65625 C 17.867188 6.414062 17.957031 6.160156 18.09375 5.890625 C 17.957031 4.671875 18.003906 3.804688 18.234375 3.296875 C 18.472656 2.796875 18.59375 2.34375 18.59375 1.9375 L 18.703125 1.734375 C 18.835938 0.648438 19.003906 -0.414062 19.203125 -1.46875 C 19.410156 -2.519531 19.613281 -3.519531 19.8125 -4.46875 C 19.75 -4.40625 19.582031 -4.375 19.3125 -4.375 L 18.703125 -4.46875 C 18.628906 -4.40625 18.554688 -4.304688 18.484375 -4.171875 C 18.421875 -4.035156 18.320312 -3.929688 18.1875 -3.859375 C 17.851562 -3.453125 17.582031 -3.179688 17.375 -3.046875 C 17.375 -3.046875 17.117188 -2.738281 16.609375 -2.125 C 16.109375 -1.519531 15.453125 -0.914062 14.640625 -0.3125 L 14.640625 -0.203125 C 13.828125 0.0664062 13.179688 0.335938 12.703125 0.609375 C 12.234375 0.878906 11.691406 1.117188 11.078125 1.328125 C 10.804688 1.390625 10.535156 1.453125 10.265625 1.515625 C 9.992188 1.585938 9.65625 1.625 9.25 1.625 C 8.90625 1.695312 8.53125 1.734375 8.125 1.734375 C 7.71875 1.734375 7.347656 1.695312 7.015625 1.625 L 4.46875 0.71875 C 4.332031 0.582031 4.210938 0.425781 4.109375 0.25 C 4.015625 0.0820312 3.898438 -0.0664062 3.765625 -0.203125 C 3.765625 -0.609375 3.5625 -0.878906 3.15625 -1.015625 C 2.75 -1.359375 2.507812 -1.765625 2.4375 -2.234375 C 2.375 -2.710938 2.304688 -3.1875 2.234375 -3.65625 C 1.960938 -4.46875 1.910156 -5.28125 2.078125 -6.09375 C 2.253906 -6.90625 2.476562 -7.6875 2.75 -8.4375 C 2.882812 -8.769531 3.050781 -9.085938 3.25 -9.390625 C 3.457031 -9.703125 3.59375 -9.992188 3.65625 -10.265625 C 3.789062 -10.535156 3.925781 -10.835938 4.0625 -11.171875 C 4.195312 -11.515625 4.398438 -11.890625 4.671875 -12.296875 C 4.742188 -12.296875 4.78125 -12.332031 4.78125 -12.40625 C 5.320312 -12.875 5.742188 -13.476562 6.046875 -14.21875 C 6.347656 -14.96875 6.804688 -15.582031 7.421875 -16.0625 C 7.753906 -16.257812 8.242188 -16.644531 8.890625 -17.21875 C 9.535156 -17.800781 9.992188 -18.125 10.265625 -18.1875 C 10.804688 -18.394531 11.378906 -18.546875 11.984375 -18.640625 C 12.597656 -18.742188 13.175781 -18.695312 13.71875 -18.5 C 13.988281 -18.425781 14.289062 -18.40625 14.625 -18.4375 C 14.96875 -18.476562 15.242188 -18.460938 15.453125 -18.390625 C 15.785156 -18.117188 16.222656 -17.914062 16.765625 -17.78125 C 17.304688 -17.644531 17.710938 -17.476562 17.984375 -17.28125 C 18.523438 -16.875 18.960938 -16.515625 19.296875 -16.203125 C 19.640625 -15.898438 20.019531 -15.476562 20.4375 -14.9375 L 21.140625 -13.625 C 21.484375 -13.894531 21.804688 -14.25 22.109375 -14.6875 C 22.410156 -15.125 22.695312 -15.410156 22.96875 -15.546875 L 24.1875 -15.25 C 24.9375 -15.175781 25.75 -15.003906 26.625 -14.734375 L 26.328125 -12.8125 C 26.117188 -12.46875 25.960938 -12.078125 25.859375 -11.640625 C 25.765625 -11.203125 25.648438 -10.8125 25.515625 -10.46875 C 25.441406 -10.195312 25.367188 -9.925781 25.296875 -9.65625 C 25.234375 -9.382812 25.171875 -9.113281 25.109375 -8.84375 C 24.703125 -7.21875 24.378906 -5.625 24.140625 -4.0625 C 23.898438 -2.507812 23.613281 -0.953125 23.28125 0.609375 C 23.144531 1.359375 23.09375 2.085938 23.125 2.796875 C 23.15625 3.503906 23.003906 4.234375 22.671875 4.984375 C 22.597656 5.453125 22.5625 5.90625 22.5625 6.34375 C 22.5625 6.789062 22.492188 7.21875 22.359375 7.625 C 22.359375 7.625 22.375 7.707031 22.40625 7.875 C 22.445312 8.039062 22.5 8.125 22.5625 8.125 C 23.238281 8.0625 23.878906 7.976562 24.484375 7.875 C 25.097656 7.769531 25.742188 7.6875 26.421875 7.625 C 27.640625 7.488281 28.828125 7.488281 29.984375 7.625 Z M 18.09375 -9.140625 C 18.425781 -9.078125 18.660156 -9.160156 18.796875 -9.390625 C 18.929688 -9.628906 19.035156 -9.816406 19.109375 -9.953125 C 18.898438 -10.097656 18.726562 -10.253906 18.59375 -10.421875 C 18.457031 -10.585938 18.320312 -10.738281 18.1875 -10.875 C 17.71875 -11.351562 17.582031 -11.894531 17.78125 -12.5 C 17.851562 -12.84375 17.785156 -13.351562 17.578125 -14.03125 C 17.378906 -14.707031 17.210938 -15.078125 17.078125 -15.140625 C 16.867188 -15.484375 16.5625 -15.65625 16.15625 -15.65625 C 15.414062 -15.582031 14.671875 -15.425781 13.921875 -15.1875 C 13.179688 -14.957031 12.539062 -14.535156 12 -13.921875 C 11.59375 -13.585938 11.1875 -13.265625 10.78125 -12.953125 C 10.375 -12.648438 10 -12.332031 9.65625 -12 C 9.582031 -11.925781 9.476562 -11.804688 9.34375 -11.640625 C 9.207031 -11.472656 9.070312 -11.320312 8.9375 -11.1875 L 9.046875 -10.671875 C 8.773438 -10.335938 8.484375 -10 8.171875 -9.65625 C 7.867188 -9.3125 7.582031 -8.9375 7.3125 -8.53125 C 7.039062 -7.925781 6.785156 -7.316406 6.546875 -6.703125 C 6.316406 -6.097656 6.066406 -5.523438 5.796875 -4.984375 C 5.660156 -4.503906 5.539062 -4.0625 5.4375 -3.65625 C 5.332031 -3.25 5.382812 -2.8125 5.59375 -2.34375 C 5.726562 -2.34375 5.894531 -2.359375 6.09375 -2.390625 C 6.300781 -2.421875 6.503906 -2.4375 6.703125 -2.4375 C 7.453125 -2.507812 8.164062 -2.660156 8.84375 -2.890625 C 9.519531 -3.128906 10.234375 -3.382812 10.984375 -3.65625 L 13.828125 -5.28125 L 13.921875 -5.28125 C 14.328125 -5.957031 14.90625 -6.46875 15.65625 -6.8125 C 15.789062 -6.8125 15.90625 -6.878906 16 -7.015625 C 16.101562 -7.148438 16.191406 -7.25 16.265625 -7.3125 C 16.460938 -7.65625 16.765625 -7.894531 17.171875 -8.03125 C 17.578125 -8.164062 17.816406 -8.46875 17.890625 -8.9375 C 17.890625 -9.070312 17.957031 -9.140625 18.09375 -9.140625 Z M 16.265625 17.578125 C 16.398438 16.972656 16.515625 16.347656 16.609375 15.703125 C 16.710938 15.054688 16.867188 14.429688 17.078125 13.828125 C 16.671875 13.890625 16.296875 14.019531 15.953125 14.21875 C 15.617188 14.425781 15.28125 14.597656 14.9375 14.734375 C 13.65625 15.210938 12.4375 15.722656 11.28125 16.265625 C 10.125 16.804688 8.972656 17.484375 7.828125 18.296875 C 7.148438 18.765625 6.40625 19.238281 5.59375 19.71875 C 4.78125 20.195312 4 20.707031 3.25 21.25 C 2.707031 21.65625 2.113281 22.023438 1.46875 22.359375 C 0.832031 22.703125 0.207031 23.144531 -0.40625 23.6875 C -0.613281 23.957031 -0.882812 24.226562 -1.21875 24.5 C -1.5625 24.769531 -1.832031 25.039062 -2.03125 25.3125 C -2.300781 25.582031 -2.570312 25.785156 -2.84375 25.921875 C -3.113281 26.054688 -3.351562 26.222656 -3.5625 26.421875 C -4.03125 26.898438 -4.570312 27.546875 -5.1875 28.359375 C -5.519531 28.628906 -5.851562 28.929688 -6.1875 29.265625 C -6.53125 29.609375 -6.875 29.945312 -7.21875 30.28125 C -7.28125 30.425781 -7.515625 30.75 -7.921875 31.25 C -8.328125 31.757812 -8.695312 32.285156 -9.03125 32.828125 C -9.375 33.367188 -9.546875 33.742188 -9.546875 33.953125 L -11.6875 37.09375 C -11.757812 37.09375 -11.960938 37.414062 -12.296875 38.0625 C -12.640625 38.707031 -12.878906 39.195312 -13.015625 39.53125 C -13.347656 39.9375 -13.550781 40.414062 -13.625 40.96875 C -13.757812 41.375 -13.859375 41.8125 -13.921875 42.28125 C -13.992188 42.757812 -14.097656 43.164062 -14.234375 43.5 C -14.367188 44.175781 -14.535156 44.851562 -14.734375 45.53125 C -14.941406 46.207031 -15.078125 46.921875 -15.140625 47.671875 C -15.210938 48.617188 -15.210938 49.53125 -15.140625 50.40625 C -15.078125 51.289062 -15.007812 52.207031 -14.9375 53.15625 C -14.800781 54.175781 -14.476562 55.023438 -13.96875 55.703125 C -13.46875 56.378906 -12.8125 56.953125 -12 57.421875 L -11.484375 57.828125 C -11.210938 57.960938 -11.078125 58.03125 -11.078125 58.03125 C -10.328125 58.300781 -9.628906 58.46875 -8.984375 58.53125 C -8.347656 58.601562 -7.722656 58.503906 -7.109375 58.234375 C -6.773438 58.097656 -6.40625 57.925781 -6 57.71875 C -5.59375 57.519531 -5.253906 57.390625 -4.984375 57.328125 C -4.097656 57.054688 -3.316406 56.664062 -2.640625 56.15625 C -1.960938 55.644531 -1.285156 55.117188 -0.609375 54.578125 C 0.0664062 54.035156 0.691406 53.441406 1.265625 52.796875 C 1.847656 52.160156 2.410156 51.535156 2.953125 50.921875 C 3.765625 49.898438 4.472656 48.914062 5.078125 47.96875 C 5.691406 47.019531 6.335938 46.039062 7.015625 45.03125 C 7.753906 44.007812 8.359375 42.972656 8.828125 41.921875 C 9.304688 40.867188 9.820312 39.800781 10.375 38.71875 C 10.78125 37.90625 11.117188 37.125 11.390625 36.375 C 11.660156 35.632812 11.929688 34.859375 12.203125 34.046875 C 12.609375 32.828125 13.015625 31.640625 13.421875 30.484375 C 13.828125 29.335938 14.164062 28.15625 14.4375 26.9375 C 14.707031 25.988281 14.925781 25.039062 15.09375 24.09375 C 15.257812 23.144531 15.445312 22.226562 15.65625 21.34375 C 15.789062 20.875 15.925781 20.332031 16.0625 19.71875 C 16.195312 19.101562 16.265625 18.523438 16.265625 17.984375 Z M 16.265625 17.578125 "/></g></g></g><g fill="#d883b7" fill-opacity="1"><g transform="translate(162.844206, 192.223782)"><g><path d="M 26.734375 -9.953125 L 25.203125 -8.640625 C 25.140625 -8.566406 25.070312 -8.445312 25 -8.28125 C 24.9375 -8.113281 24.769531 -7.960938 24.5 -7.828125 L 24.1875 -7.421875 C 23.71875 -7.210938 23.617188 -6.972656 23.890625 -6.703125 C 23.679688 -6.566406 23.492188 -6.414062 23.328125 -6.25 C 23.160156 -6.082031 23.039062 -5.828125 22.96875 -5.484375 L 22.96875 -5.390625 C 22.90625 -5.253906 22.804688 -5.097656 22.671875 -4.921875 C 22.535156 -4.753906 22.429688 -4.640625 22.359375 -4.578125 C 22.023438 -4.234375 21.585938 -3.859375 21.046875 -3.453125 L 19.109375 -1.9375 C 18.703125 -1.726562 18.328125 -1.519531 17.984375 -1.3125 C 17.648438 -1.113281 17.3125 -0.878906 16.96875 -0.609375 C 16.5 -0.335938 16.0625 -0.0507812 15.65625 0.25 C 15.25 0.5625 14.773438 0.816406 14.234375 1.015625 C 13.960938 1.148438 13.640625 1.234375 13.265625 1.265625 C 12.890625 1.304688 12.535156 1.359375 12.203125 1.421875 C 11.929688 1.421875 11.625 1.523438 11.28125 1.734375 C 11.082031 1.796875 10.847656 1.859375 10.578125 1.921875 C 10.304688 1.992188 10.03125 2.066406 9.75 2.140625 C 9.34375 2.203125 8.953125 2.285156 8.578125 2.390625 C 8.210938 2.492188 7.828125 2.507812 7.421875 2.4375 C 6.265625 2.300781 5.25 2.097656 4.375 1.828125 C 3.894531 1.691406 3.519531 1.554688 3.25 1.421875 C 2.976562 1.285156 2.570312 1.015625 2.03125 0.609375 C 1.96875 0.472656 1.882812 0.390625 1.78125 0.359375 C 1.675781 0.328125 1.59375 0.273438 1.53125 0.203125 C 1.1875 -0.0664062 0.894531 -0.351562 0.65625 -0.65625 C 0.425781 -0.96875 0.140625 -1.359375 -0.203125 -1.828125 C -0.273438 -1.960938 -0.328125 -2.082031 -0.359375 -2.1875 C -0.390625 -2.289062 -0.472656 -2.578125 -0.609375 -3.046875 C -0.878906 -3.660156 -1.015625 -4.171875 -1.015625 -4.578125 C -1.015625 -4.984375 -1.015625 -5.351562 -1.015625 -5.6875 C -0.878906 -7.71875 -0.335938 -9.6875 0.609375 -11.59375 C 0.816406 -11.925781 1.019531 -12.242188 1.21875 -12.546875 C 1.425781 -12.859375 1.664062 -13.148438 1.9375 -13.421875 C 2.40625 -13.960938 2.859375 -14.503906 3.296875 -15.046875 C 3.742188 -15.585938 4.203125 -16.09375 4.671875 -16.5625 C 5.691406 -17.582031 6.8125 -18.125 8.03125 -18.1875 C 8.164062 -18.1875 8.316406 -18.203125 8.484375 -18.234375 C 8.648438 -18.273438 8.835938 -18.328125 9.046875 -18.390625 C 9.585938 -18.597656 10.078125 -18.582031 10.515625 -18.34375 C 10.960938 -18.101562 11.351562 -17.882812 11.6875 -17.6875 C 12.164062 -17.476562 12.609375 -17.238281 13.015625 -16.96875 C 13.421875 -16.695312 13.789062 -16.394531 14.125 -16.0625 C 14.53125 -15.789062 14.832031 -15.316406 15.03125 -14.640625 C 15.238281 -13.960938 15.273438 -13.421875 15.140625 -13.015625 C 14.941406 -12.472656 14.671875 -12.03125 14.328125 -11.6875 C 13.859375 -11.21875 13.398438 -10.742188 12.953125 -10.265625 C 12.515625 -9.785156 12.0625 -9.3125 11.59375 -8.84375 C 11.457031 -8.707031 11.269531 -8.585938 11.03125 -8.484375 C 10.789062 -8.378906 10.640625 -8.257812 10.578125 -8.125 C 10.503906 -7.789062 10.332031 -7.570312 10.0625 -7.46875 C 9.789062 -7.363281 9.550781 -7.242188 9.34375 -7.109375 L 7.921875 -6.09375 C 7.859375 -6.03125 7.828125 -5.945312 7.828125 -5.84375 C 7.828125 -5.738281 7.789062 -5.65625 7.71875 -5.59375 C 7.382812 -5.382812 7.03125 -5.195312 6.65625 -5.03125 C 6.28125 -4.863281 5.925781 -4.675781 5.59375 -4.46875 C 5.457031 -4.40625 5.335938 -4.320312 5.234375 -4.21875 C 5.128906 -4.113281 5.007812 -3.992188 4.875 -3.859375 C 4.46875 -3.660156 4.144531 -3.507812 3.90625 -3.40625 C 3.675781 -3.300781 3.390625 -3.148438 3.046875 -2.953125 C 3.253906 -2.335938 3.441406 -1.925781 3.609375 -1.71875 C 3.773438 -1.519531 4.0625 -1.351562 4.46875 -1.21875 C 5.144531 -1.289062 5.804688 -1.328125 6.453125 -1.328125 C 7.097656 -1.328125 7.757812 -1.359375 8.4375 -1.421875 C 8.90625 -1.492188 9.359375 -1.613281 9.796875 -1.78125 C 10.242188 -1.945312 10.707031 -2.097656 11.1875 -2.234375 C 11.519531 -2.367188 11.890625 -2.535156 12.296875 -2.734375 C 12.703125 -2.941406 13.109375 -3.113281 13.515625 -3.25 C 13.785156 -3.382812 14.039062 -3.46875 14.28125 -3.5 C 14.519531 -3.539062 14.773438 -3.628906 15.046875 -3.765625 L 18.390625 -5.6875 L 18.703125 -5.890625 C 19.171875 -6.234375 19.8125 -6.640625 20.625 -7.109375 C 21.445312 -7.585938 22.09375 -7.960938 22.5625 -8.234375 C 22.769531 -8.367188 23.007812 -8.503906 23.28125 -8.640625 C 23.550781 -8.773438 23.71875 -8.875 23.78125 -8.9375 L 27.234375 -11.484375 L 27.4375 -10.78125 C 27.4375 -10.78125 27.453125 -10.78125 27.484375 -10.78125 C 27.523438 -10.78125 27.546875 -10.742188 27.546875 -10.671875 C 27.410156 -10.609375 27.273438 -10.507812 27.140625 -10.375 C 27.003906 -10.238281 26.867188 -10.097656 26.734375 -9.953125 Z M 3.65625 -9.140625 C 3.519531 -8.867188 3.398438 -8.546875 3.296875 -8.171875 C 3.203125 -7.804688 3.085938 -7.421875 2.953125 -7.015625 C 3.359375 -7.285156 3.695312 -7.503906 3.96875 -7.671875 C 4.238281 -7.835938 4.472656 -7.988281 4.671875 -8.125 L 7.421875 -10.375 L 10.171875 -12.8125 C 10.503906 -13.082031 10.769531 -13.367188 10.96875 -13.671875 C 11.175781 -13.972656 11.382812 -14.296875 11.59375 -14.640625 C 11.726562 -14.910156 11.707031 -15.210938 11.53125 -15.546875 C 11.363281 -15.890625 11.179688 -15.992188 10.984375 -15.859375 C 10.503906 -15.648438 10.039062 -15.507812 9.59375 -15.4375 C 9.15625 -15.375 8.734375 -15.175781 8.328125 -14.84375 C 7.859375 -14.5 7.398438 -14.175781 6.953125 -13.875 C 6.515625 -13.570312 6.128906 -13.179688 5.796875 -12.703125 C 5.046875 -11.691406 4.332031 -10.503906 3.65625 -9.140625 Z M 3.65625 -9.140625 "/></g></g></g><g fill="#d883b7" fill-opacity="1"><g transform="translate(188.456265, 192.223782)"><g/></g></g><g fill="#d883b7" fill-opacity="1"><g transform="translate(207.766959, 192.223782)"><g><path d="M 48.984375 14.03125 C 48.441406 14.03125 47.863281 13.992188 47.25 13.921875 C 46.644531 13.859375 46.039062 13.789062 45.4375 13.71875 C 43.195312 13.65625 41.128906 12.675781 39.234375 10.78125 C 38.890625 10.375 38.460938 9.960938 37.953125 9.546875 C 37.453125 9.140625 37 8.703125 36.59375 8.234375 C 35.570312 6.742188 34.753906 5.148438 34.140625 3.453125 C 33.535156 1.765625 33.066406 0.0703125 32.734375 -1.625 C 32.597656 -2.707031 32.492188 -3.738281 32.421875 -4.71875 C 32.359375 -5.707031 32.328125 -6.742188 32.328125 -7.828125 C 32.253906 -8.972656 32.269531 -10.019531 32.375 -10.96875 C 32.476562 -11.925781 32.5625 -12.945312 32.625 -14.03125 C 32.695312 -14.363281 32.765625 -14.765625 32.828125 -15.234375 C 32.898438 -15.710938 32.867188 -16.019531 32.734375 -16.15625 C 32.597656 -16.289062 32.257812 -16.054688 31.71875 -15.453125 C 30.425781 -13.753906 29.203125 -12.023438 28.046875 -10.265625 C 27.441406 -9.585938 26.832031 -8.875 26.21875 -8.125 C 25.613281 -7.382812 25.039062 -6.640625 24.5 -5.890625 C 24.5 -6.023438 24.191406 -5.617188 23.578125 -4.671875 C 22.972656 -3.722656 22.242188 -2.585938 21.390625 -1.265625 C 20.546875 0.0546875 19.734375 1.273438 18.953125 2.390625 C 18.171875 3.503906 17.644531 4.234375 17.375 4.578125 C 17.039062 4.910156 16.703125 5.3125 16.359375 5.78125 C 16.023438 6.257812 15.6875 6.738281 15.34375 7.21875 C 14.257812 9.039062 12.738281 10.460938 10.78125 11.484375 C 10.570312 11.617188 10.28125 11.71875 9.90625 11.78125 C 9.53125 11.851562 9.242188 11.890625 9.046875 11.890625 C 8.367188 11.890625 7.859375 11.617188 7.515625 11.078125 C 7.515625 10.941406 7.460938 10.859375 7.359375 10.828125 C 7.265625 10.796875 7.21875 10.78125 7.21875 10.78125 C 6.40625 10.570312 5.878906 10.144531 5.640625 9.5 C 5.398438 8.851562 5.28125 8.191406 5.28125 7.515625 C 5.144531 6.023438 5.078125 4.550781 5.078125 3.09375 C 5.078125 1.644531 5.179688 0.171875 5.390625 -1.328125 C 5.585938 -2.878906 5.890625 -4.347656 6.296875 -5.734375 C 6.703125 -7.128906 7.109375 -8.570312 7.515625 -10.0625 C 8.671875 -14.0625 9.804688 -18.054688 10.921875 -22.046875 C 12.046875 -26.046875 13.21875 -30.046875 14.4375 -34.046875 C 14.5 -34.453125 14.597656 -34.820312 14.734375 -35.15625 C 14.867188 -35.5 15.039062 -35.875 15.25 -36.28125 C 15.851562 -37.300781 16.800781 -37.640625 18.09375 -37.296875 C 18.15625 -37.097656 18.390625 -36.929688 18.796875 -36.796875 C 19.890625 -36.179688 20.265625 -35.332031 19.921875 -34.25 C 19.710938 -33.238281 19.457031 -32.238281 19.15625 -31.25 C 18.851562 -30.269531 18.597656 -29.269531 18.390625 -28.25 L 14.125 -13.921875 C 13.789062 -12.703125 13.46875 -11.53125 13.15625 -10.40625 C 12.851562 -9.289062 12.46875 -8.160156 12 -7.015625 C 11.65625 -5.722656 11.347656 -4.398438 11.078125 -3.046875 C 10.804688 -1.691406 10.503906 -0.367188 10.171875 0.921875 C 9.960938 1.660156 9.835938 2.398438 9.796875 3.140625 C 9.765625 3.890625 9.75 4.640625 9.75 5.390625 C 10.09375 5.523438 10.347656 5.523438 10.515625 5.390625 C 10.691406 5.253906 10.8125 5.117188 10.875 4.984375 C 11.625 4.234375 12.351562 3.535156 13.0625 2.890625 C 13.769531 2.253906 14.460938 1.53125 15.140625 0.71875 C 16.359375 -0.644531 17.578125 -2.085938 18.796875 -3.609375 C 20.023438 -5.128906 21.28125 -6.632812 22.5625 -8.125 C 24.394531 -10.300781 26.207031 -12.503906 28 -14.734375 C 29.800781 -16.972656 31.582031 -19.242188 33.34375 -21.546875 C 33.882812 -22.085938 34.390625 -22.679688 34.859375 -23.328125 C 35.335938 -23.972656 35.8125 -24.632812 36.28125 -25.3125 C 37.164062 -26.59375 38.421875 -27.164062 40.046875 -27.03125 C 40.929688 -26.96875 41.472656 -26.628906 41.671875 -26.015625 C 41.804688 -25.472656 41.875 -25 41.875 -24.59375 C 41.875 -24.1875 41.738281 -23.78125 41.46875 -23.375 C 40.3125 -21.414062 39.425781 -19.332031 38.8125 -17.125 C 38.207031 -14.925781 37.738281 -12.707031 37.40625 -10.46875 C 37.332031 -9.988281 37.3125 -9.507812 37.34375 -9.03125 C 37.382812 -8.5625 37.40625 -8.125 37.40625 -7.71875 C 37.40625 -6.707031 37.351562 -5.726562 37.25 -4.78125 C 37.144531 -3.832031 37.128906 -2.882812 37.203125 -1.9375 C 37.335938 -0.644531 37.539062 0.609375 37.8125 1.828125 C 38.082031 3.046875 38.453125 4.195312 38.921875 5.28125 C 39.328125 6.09375 39.769531 6.867188 40.25 7.609375 C 40.726562 8.359375 41.203125 9.140625 41.671875 9.953125 C 42.148438 10.566406 42.894531 10.875 43.90625 10.875 C 44.25 10.875 44.640625 10.835938 45.078125 10.765625 C 45.515625 10.703125 45.972656 10.601562 46.453125 10.46875 C 47.804688 10.195312 49.109375 9.753906 50.359375 9.140625 C 51.617188 8.535156 52.753906 7.789062 53.765625 6.90625 C 54.710938 6.09375 55.539062 5.128906 56.25 4.015625 C 56.96875 2.898438 57.734375 1.867188 58.546875 0.921875 C 59.492188 -0.847656 60.1875 -2.304688 60.625 -3.453125 C 61.070312 -4.609375 61.429688 -5.707031 61.703125 -6.75 C 61.972656 -7.800781 62.273438 -8.972656 62.609375 -10.265625 C 63.359375 -12.503906 63.96875 -14.773438 64.4375 -17.078125 C 64.914062 -19.378906 65.253906 -21.648438 65.453125 -23.890625 C 65.660156 -24.898438 65.8125 -25.84375 65.90625 -26.71875 C 66.007812 -27.601562 66.097656 -28.554688 66.171875 -29.578125 C 66.367188 -30.929688 66.46875 -32.316406 66.46875 -33.734375 C 66.46875 -35.160156 66.46875 -36.617188 66.46875 -38.109375 C 66.40625 -39.460938 66.132812 -40.71875 65.65625 -41.875 C 65.519531 -42.414062 65.28125 -43.125 64.9375 -44 C 64.601562 -44.882812 64.570312 -45.328125 64.84375 -45.328125 C 64.976562 -45.398438 65.179688 -45.414062 65.453125 -45.375 C 65.722656 -45.34375 65.894531 -45.328125 65.96875 -45.328125 C 66.78125 -45.460938 67.523438 -45.191406 68.203125 -44.515625 C 68.878906 -43.835938 69.421875 -43.054688 69.828125 -42.171875 C 70.234375 -41.296875 70.46875 -40.550781 70.53125 -39.9375 C 70.664062 -39.332031 70.75 -38.316406 70.78125 -36.890625 C 70.820312 -35.472656 70.804688 -33.929688 70.734375 -32.265625 C 70.671875 -30.609375 70.535156 -29.101562 70.328125 -27.75 C 70.054688 -25.375 69.648438 -23.132812 69.109375 -21.03125 C 68.566406 -18.9375 67.890625 -16.671875 67.078125 -14.234375 C 66.878906 -13.617188 66.675781 -12.769531 66.46875 -11.6875 C 66.269531 -10.601562 66.117188 -9.601562 66.015625 -8.6875 C 65.910156 -7.769531 65.828125 -7.210938 65.765625 -7.015625 C 65.015625 -6.265625 64.878906 -5.585938 65.359375 -4.984375 C 65.554688 -4.710938 65.535156 -4.117188 65.296875 -3.203125 C 65.066406 -2.285156 64.847656 -1.660156 64.640625 -1.328125 C 64.503906 -1.191406 64.265625 -0.800781 63.921875 -0.15625 C 63.585938 0.488281 63.285156 1.132812 63.015625 1.78125 C 62.742188 2.425781 62.578125 2.847656 62.515625 3.046875 C 62.242188 3.523438 61.972656 4.015625 61.703125 4.515625 C 61.429688 5.023438 61.125 5.484375 60.78125 5.890625 C 60.300781 6.429688 59.773438 7.003906 59.203125 7.609375 C 58.628906 8.222656 57.664062 9.003906 56.3125 9.953125 C 56.039062 9.953125 55.703125 10.09375 55.296875 10.375 C 54.617188 10.914062 53.957031 11.4375 53.3125 11.9375 C 52.664062 12.445312 51.972656 12.941406 51.234375 13.421875 C 50.617188 13.828125 49.867188 14.03125 48.984375 14.03125 Z M 48.984375 14.03125 "/></g></g></g><g fill="#d883b7" fill-opacity="1"><g transform="translate(282.773738, 192.223782)"><g><path d="M 38.515625 -13.515625 C 38.046875 -12.773438 37.4375 -12.082031 36.6875 -11.4375 C 35.945312 -10.789062 35.238281 -10.226562 34.5625 -9.75 C 34.289062 -9.550781 34 -9.382812 33.6875 -9.25 C 33.382812 -9.113281 33.164062 -8.976562 33.03125 -8.84375 C 32.894531 -8.707031 32.722656 -8.535156 32.515625 -8.328125 C 32.316406 -8.128906 32.082031 -7.960938 31.8125 -7.828125 C 31.75 -7.753906 31.582031 -7.582031 31.3125 -7.3125 C 31.039062 -7.039062 30.835938 -6.875 30.703125 -6.8125 L 29.171875 -5.484375 L 26.734375 -3.65625 C 26.328125 -3.1875 25.898438 -2.847656 25.453125 -2.640625 C 25.015625 -2.441406 24.523438 -2.171875 23.984375 -1.828125 C 23.710938 -1.691406 23.472656 -1.609375 23.265625 -1.578125 C 23.066406 -1.546875 22.832031 -1.460938 22.5625 -1.328125 C 22.5 -1.253906 22.347656 -1.179688 22.109375 -1.109375 C 21.867188 -1.046875 21.679688 -1.015625 21.546875 -1.015625 C 21.484375 -1.015625 21.347656 -0.976562 21.140625 -0.90625 C 20.941406 -0.84375 20.773438 -0.8125 20.640625 -0.8125 C 20.429688 -0.8125 20.140625 -0.773438 19.765625 -0.703125 C 19.390625 -0.640625 19.101562 -0.644531 18.90625 -0.71875 C 18.832031 -0.78125 18.675781 -0.828125 18.4375 -0.859375 C 18.207031 -0.898438 18.023438 -0.953125 17.890625 -1.015625 C 17.753906 -1.085938 17.617188 -1.191406 17.484375 -1.328125 C 17.347656 -1.460938 17.210938 -1.5625 17.078125 -1.625 C 16.804688 -2.03125 16.5 -2.367188 16.15625 -2.640625 C 15.820312 -2.910156 15.550781 -3.285156 15.34375 -3.765625 C 15.070312 -4.097656 14.898438 -4.332031 14.828125 -4.46875 C 14.765625 -4.601562 14.664062 -4.804688 14.53125 -5.078125 C 14.46875 -5.148438 14.414062 -5.234375 14.375 -5.328125 C 14.34375 -5.429688 14.296875 -5.519531 14.234375 -5.59375 C 13.890625 -5.382812 13.648438 -5.09375 13.515625 -4.71875 C 13.378906 -4.351562 13.144531 -4.171875 12.8125 -4.171875 C 12.738281 -4.097656 12.664062 -3.992188 12.59375 -3.859375 C 12.53125 -3.722656 12.429688 -3.625 12.296875 -3.5625 C 11.691406 -3.082031 11 -2.554688 10.21875 -1.984375 C 9.4375 -1.410156 8.640625 -0.953125 7.828125 -0.609375 C 6.203125 0.203125 4.578125 0.269531 2.953125 -0.40625 C 2.609375 -0.40625 2.335938 -0.441406 2.140625 -0.515625 C 1.867188 -0.785156 1.328125 -1.125 0.515625 -1.53125 C -0.441406 -2.75 -0.71875 -4.101562 -0.3125 -5.59375 C 0.03125 -6.332031 0.269531 -6.941406 0.40625 -7.421875 C 0.476562 -7.484375 0.515625 -7.550781 0.515625 -7.625 C 0.578125 -7.957031 0.675781 -8.257812 0.8125 -8.53125 C 0.945312 -8.800781 1.050781 -9.109375 1.125 -9.453125 L 1.828125 -10.671875 C 2.035156 -10.941406 2.207031 -11.195312 2.34375 -11.4375 C 2.476562 -11.675781 2.578125 -11.828125 2.640625 -11.890625 C 3.179688 -12.773438 3.773438 -13.554688 4.421875 -14.234375 C 5.066406 -14.910156 5.691406 -15.617188 6.296875 -16.359375 C 6.910156 -17.035156 7.640625 -17.644531 8.484375 -18.1875 C 9.328125 -18.726562 10.226562 -19.035156 11.1875 -19.109375 C 12.269531 -18.898438 13.316406 -18.609375 14.328125 -18.234375 C 15.347656 -17.867188 15.957031 -17.109375 16.15625 -15.953125 C 16.289062 -15.273438 16.222656 -14.679688 15.953125 -14.171875 C 15.679688 -13.671875 15.410156 -13.148438 15.140625 -12.609375 C 15.546875 -12.671875 15.953125 -12.835938 16.359375 -13.109375 C 16.765625 -13.378906 17.273438 -13.484375 17.890625 -13.421875 C 18.492188 -13.210938 18.898438 -12.738281 19.109375 -12 C 19.109375 -12 19.109375 -11.773438 19.109375 -11.328125 C 19.109375 -10.890625 19.039062 -10.46875 18.90625 -10.0625 C 18.832031 -9.988281 18.796875 -9.914062 18.796875 -9.84375 C 18.796875 -9.78125 18.765625 -9.679688 18.703125 -9.546875 C 18.566406 -8.867188 18.515625 -8.15625 18.546875 -7.40625 C 18.578125 -6.664062 18.726562 -5.925781 19 -5.1875 C 19.132812 -4.707031 19.441406 -4.332031 19.921875 -4.0625 C 20.117188 -4 20.359375 -4 20.640625 -4.0625 C 20.773438 -4.132812 20.941406 -4.1875 21.140625 -4.21875 C 21.347656 -4.25 21.550781 -4.300781 21.75 -4.375 C 22.5625 -4.707031 23.375 -5.160156 24.1875 -5.734375 C 25 -6.316406 25.742188 -6.84375 26.421875 -7.3125 C 27.097656 -7.71875 27.804688 -8.15625 28.546875 -8.625 C 29.296875 -9.101562 30.015625 -9.582031 30.703125 -10.0625 C 31.515625 -10.601562 32.101562 -10.972656 32.46875 -11.171875 C 32.84375 -11.378906 33.21875 -11.601562 33.59375 -11.84375 C 33.96875 -12.082031 34.523438 -12.4375 35.265625 -12.90625 C 35.609375 -13.25 36 -13.554688 36.4375 -13.828125 C 36.875 -14.097656 37.332031 -14.367188 37.8125 -14.640625 L 38.109375 -14.4375 Z M 13.71875 -10.671875 C 13.789062 -10.671875 13.894531 -10.753906 14.03125 -10.921875 C 14.164062 -11.097656 14.234375 -11.1875 14.234375 -11.1875 L 14.125 -11.1875 C 13.382812 -11.25 12.925781 -11.671875 12.75 -12.453125 C 12.582031 -13.234375 12.550781 -14.007812 12.65625 -14.78125 C 12.757812 -15.5625 12.8125 -15.953125 12.8125 -15.953125 C 11.789062 -15.816406 10.753906 -15.273438 9.703125 -14.328125 C 8.648438 -13.378906 7.71875 -12.378906 6.90625 -11.328125 C 6.09375 -10.273438 5.484375 -9.410156 5.078125 -8.734375 C 4.609375 -7.921875 4.171875 -7.070312 3.765625 -6.1875 C 3.359375 -5.3125 3.019531 -4.367188 2.75 -3.359375 C 3.289062 -3.359375 3.96875 -3.390625 4.78125 -3.453125 C 5.59375 -3.523438 6.234375 -3.660156 6.703125 -3.859375 C 7.859375 -4.335938 8.941406 -5.117188 9.953125 -6.203125 C 10.703125 -7.015625 11.332031 -7.757812 11.84375 -8.4375 C 12.351562 -9.113281 12.976562 -9.859375 13.71875 -10.671875 Z M 13.71875 -10.671875 "/></g></g></g><g fill="#d883b7" fill-opacity="1"><g transform="translate(315.703551, 192.223782)"><g><path d="M 3.046875 4.671875 C 2.773438 4.535156 2.367188 4.179688 1.828125 3.609375 C 1.285156 3.035156 1.050781 2.546875 1.125 2.140625 C 1.257812 1.253906 1.394531 0.390625 1.53125 -0.453125 C 1.664062 -1.304688 1.832031 -2.171875 2.03125 -3.046875 C 2.300781 -3.929688 2.570312 -4.828125 2.84375 -5.734375 C 3.113281 -6.648438 3.351562 -7.550781 3.5625 -8.4375 C 3.695312 -9.039062 3.8125 -9.628906 3.90625 -10.203125 C 4.007812 -10.785156 4.097656 -11.382812 4.171875 -12 C 4.171875 -12.195312 4.132812 -12.296875 4.0625 -12.296875 C 3.925781 -12.429688 3.859375 -12.648438 3.859375 -12.953125 C 3.859375 -13.265625 3.894531 -13.554688 3.96875 -13.828125 C 4.03125 -14.429688 4.332031 -14.703125 4.875 -14.640625 C 5.550781 -14.566406 6.125 -14.34375 6.59375 -13.96875 C 7.070312 -13.601562 7.484375 -13.148438 7.828125 -12.609375 C 7.890625 -12.535156 7.921875 -12.46875 7.921875 -12.40625 C 7.859375 -12 7.789062 -11.609375 7.71875 -11.234375 C 7.65625 -10.859375 7.585938 -10.46875 7.515625 -10.0625 C 7.453125 -9.71875 7.421875 -9.394531 7.421875 -9.09375 C 7.421875 -8.789062 7.351562 -8.46875 7.21875 -8.125 C 7.144531 -7.789062 7.039062 -7.453125 6.90625 -7.109375 C 6.769531 -6.773438 6.632812 -6.4375 6.5 -6.09375 C 6.5 -5.957031 6.46875 -5.820312 6.40625 -5.6875 C 6.46875 -5.757812 6.5 -5.796875 6.5 -5.796875 C 7.582031 -7.421875 8.703125 -8.804688 9.859375 -9.953125 C 10.535156 -10.773438 11.25 -11.457031 12 -12 C 12.332031 -12.195312 12.875 -12.332031 13.625 -12.40625 C 14.03125 -12.40625 14.316406 -12.382812 14.484375 -12.34375 C 14.648438 -12.3125 14.800781 -12.265625 14.9375 -12.203125 C 15.007812 -12.203125 15.722656 -11.863281 17.078125 -11.1875 C 17.140625 -10.914062 17.171875 -10.675781 17.171875 -10.46875 C 17.171875 -10.269531 17.273438 -10.097656 17.484375 -9.953125 C 17.484375 -9.953125 17.484375 -9.75 17.484375 -9.34375 C 17.816406 -8.46875 18.019531 -7.554688 18.09375 -6.609375 C 18.09375 -6.203125 18.070312 -5.796875 18.03125 -5.390625 C 18 -4.984375 17.953125 -4.578125 17.890625 -4.171875 C 17.890625 -4.097656 17.90625 -3.976562 17.9375 -3.8125 C 17.96875 -3.644531 17.953125 -3.492188 17.890625 -3.359375 C 17.953125 -3.015625 17.984375 -2.640625 17.984375 -2.234375 C 17.984375 -1.828125 17.984375 -1.457031 17.984375 -1.125 L 18.296875 -0.109375 C 18.296875 -0.0351562 18.34375 0.0664062 18.4375 0.203125 C 18.539062 0.335938 18.628906 0.441406 18.703125 0.515625 L 19 0.515625 C 19.070312 0.441406 19.222656 0.351562 19.453125 0.25 C 19.691406 0.15625 20.253906 -0.128906 21.140625 -0.609375 C 21.816406 -0.816406 22.394531 -1.125 22.875 -1.53125 L 32.328125 -10.578125 C 32.660156 -10.578125 32.894531 -10.488281 33.03125 -10.3125 C 33.164062 -10.144531 33.097656 -9.890625 32.828125 -9.546875 L 31.921875 -8.125 C 31.847656 -7.851562 31.796875 -7.613281 31.765625 -7.40625 C 31.734375 -7.207031 31.648438 -7.007812 31.515625 -6.8125 C 31.242188 -6.332031 30.90625 -5.925781 30.5 -5.59375 L 28.765625 -3.5625 C 28.691406 -3.488281 28.640625 -3.367188 28.609375 -3.203125 C 28.578125 -3.035156 28.425781 -2.882812 28.15625 -2.75 C 28.15625 -2.75 28.15625 -2.710938 28.15625 -2.640625 C 28.15625 -2.578125 28.1875 -2.507812 28.25 -2.4375 C 28.1875 -2.375 28.101562 -2.34375 28 -2.34375 C 27.894531 -2.34375 27.84375 -2.304688 27.84375 -2.234375 C 27.644531 -1.828125 27.359375 -1.453125 26.984375 -1.109375 C 26.609375 -0.773438 26.253906 -0.441406 25.921875 -0.109375 C 25.648438 0.234375 25.289062 0.570312 24.84375 0.90625 C 24.40625 1.25 23.953125 1.59375 23.484375 1.9375 C 22.804688 2.40625 22.039062 2.707031 21.1875 2.84375 C 20.34375 2.976562 19.546875 3.113281 18.796875 3.25 L 18.703125 3.25 C 18.359375 3.113281 18.082031 2.992188 17.875 2.890625 C 17.675781 2.796875 17.441406 2.613281 17.171875 2.34375 C 16.703125 2 16.28125 1.585938 15.90625 1.109375 C 15.53125 0.640625 15.242188 0.0664062 15.046875 -0.609375 C 14.773438 -1.492188 14.570312 -2.410156 14.4375 -3.359375 C 14.300781 -4.304688 14.265625 -5.320312 14.328125 -6.40625 C 14.328125 -6.675781 14.34375 -6.976562 14.375 -7.3125 C 14.414062 -7.65625 14.4375 -7.960938 14.4375 -8.234375 C 14.363281 -8.367188 14.273438 -8.46875 14.171875 -8.53125 C 14.078125 -8.601562 13.992188 -8.707031 13.921875 -8.84375 C 13.648438 -7.894531 13.175781 -7.382812 12.5 -7.3125 C 12.300781 -6.570312 11.828125 -6.03125 11.078125 -5.6875 C 11.148438 -5.28125 11.050781 -5.007812 10.78125 -4.875 C 10.507812 -4.738281 10.304688 -4.535156 10.171875 -4.265625 C 10.097656 -4.128906 9.972656 -3.957031 9.796875 -3.75 C 9.628906 -3.550781 9.582031 -3.453125 9.65625 -3.453125 L 9.140625 -2.75 C 9.140625 -2.75 8.953125 -2.425781 8.578125 -1.78125 C 8.210938 -1.132812 7.84375 -0.421875 7.46875 0.359375 C 7.09375 1.140625 6.804688 1.734375 6.609375 2.140625 C 6.203125 2.679688 5.757812 2.953125 5.28125 2.953125 L 4.984375 3.65625 C 4.910156 3.726562 4.859375 3.78125 4.828125 3.8125 C 4.796875 3.84375 4.742188 3.894531 4.671875 3.96875 C 4.335938 4.644531 3.796875 4.878906 3.046875 4.671875 Z M 3.046875 4.671875 "/></g></g></g><g fill="#d883b7" fill-opacity="1"><g transform="translate(342.027056, 192.223782)"><g><path d="M 29.984375 7.625 C 30.390625 7.550781 30.742188 7.679688 31.046875 8.015625 C 31.359375 8.359375 31.515625 8.703125 31.515625 9.046875 L 23.171875 11.390625 C 22.898438 11.523438 22.734375 11.59375 22.671875 11.59375 C 22.328125 11.519531 22.070312 11.550781 21.90625 11.6875 C 21.738281 11.820312 21.550781 12.0625 21.34375 12.40625 C 21.34375 12.601562 21.273438 12.769531 21.140625 12.90625 C 21.347656 13.25 21.484375 13.65625 21.546875 14.125 L 20.84375 14.328125 C 20.769531 14.597656 20.816406 14.832031 20.984375 15.03125 C 21.160156 15.238281 21.078125 15.515625 20.734375 15.859375 C 21.140625 16.535156 21.039062 17.007812 20.4375 17.28125 C 20.570312 17.882812 20.332031 18.359375 19.71875 18.703125 C 19.78125 18.765625 19.863281 18.828125 19.96875 18.890625 C 20.070312 18.960938 20.125 19.035156 20.125 19.109375 C 19.988281 19.648438 19.9375 19.9375 19.96875 19.96875 C 20 20 19.945312 20.222656 19.8125 20.640625 C 19.882812 20.703125 19.867188 20.921875 19.765625 21.296875 C 19.660156 21.671875 19.644531 21.859375 19.71875 21.859375 L 19.609375 22.671875 C 19.679688 22.941406 19.71875 23.160156 19.71875 23.328125 C 19.71875 23.492188 19.546875 23.644531 19.203125 23.78125 L 18.703125 24.796875 C 18.835938 24.867188 18.953125 24.921875 19.046875 24.953125 C 19.148438 24.984375 19.238281 25.066406 19.3125 25.203125 C 19.175781 25.679688 19.054688 26.125 18.953125 26.53125 C 18.847656 26.9375 18.726562 27.34375 18.59375 27.75 C 18.53125 28.019531 18.476562 28.304688 18.4375 28.609375 C 18.40625 28.910156 18.320312 29.234375 18.1875 29.578125 C 17.914062 30.117188 17.78125 30.320312 17.78125 30.1875 C 17.914062 30.53125 17.914062 30.90625 17.78125 31.3125 C 17.71875 31.375 17.617188 31.472656 17.484375 31.609375 C 17.347656 31.742188 17.28125 31.914062 17.28125 32.125 C 17.207031 32.1875 17.117188 32.285156 17.015625 32.421875 C 16.921875 32.554688 16.941406 32.625 17.078125 32.625 C 17.078125 33.03125 17.007812 33.335938 16.875 33.546875 L 15.046875 37.5 C 15.179688 37.707031 15.28125 37.8125 15.34375 37.8125 L 14.640625 38.3125 C 14.703125 38.582031 14.734375 38.921875 14.734375 39.328125 L 14.640625 39.640625 C 14.640625 39.703125 14.65625 39.734375 14.6875 39.734375 C 14.71875 39.734375 14.734375 39.734375 14.734375 39.734375 C 14.597656 39.804688 14.394531 40.128906 14.125 40.703125 C 13.851562 41.285156 13.648438 41.78125 13.515625 42.1875 C 13.378906 42.457031 13.175781 42.675781 12.90625 42.84375 C 12.632812 43.007812 12.429688 43.265625 12.296875 43.609375 C 12.160156 43.671875 12.125 43.890625 12.1875 44.265625 C 12.257812 44.640625 12.023438 44.65625 11.484375 44.3125 C 11.617188 44.582031 11.789062 44.851562 12 45.125 C 12.0625 45.394531 11.957031 45.53125 11.6875 45.53125 C 11.414062 45.53125 11.144531 45.566406 10.875 45.640625 C 11.144531 45.773438 11.347656 45.910156 11.484375 46.046875 C 11.210938 46.109375 10.976562 46.242188 10.78125 46.453125 C 10.976562 46.992188 10.835938 47.3125 10.359375 47.40625 C 9.890625 47.507812 9.585938 47.734375 9.453125 48.078125 L 10.0625 48.484375 C 9.851562 48.753906 9.664062 49.003906 9.5 49.234375 C 9.332031 49.472656 9.179688 49.726562 9.046875 50 C 8.972656 50 8.9375 49.984375 8.9375 49.953125 C 8.9375 49.921875 8.9375 49.90625 8.9375 49.90625 C 8.738281 50.101562 8.503906 50.304688 8.234375 50.515625 C 7.960938 50.722656 7.757812 50.894531 7.625 51.03125 C 7.625 51.164062 7.65625 51.234375 7.71875 51.234375 L 8.03125 51.234375 C 8.03125 51.296875 8.046875 51.34375 8.078125 51.375 C 8.109375 51.414062 8.125 51.4375 8.125 51.4375 C 7.65625 51.976562 7.164062 52.484375 6.65625 52.953125 C 6.144531 53.429688 5.65625 53.941406 5.1875 54.484375 C 5.1875 54.890625 5.097656 55.191406 4.921875 55.390625 C 4.753906 55.597656 4.535156 55.800781 4.265625 56 C 3.929688 56.34375 3.578125 56.664062 3.203125 56.96875 C 2.828125 57.269531 2.472656 57.59375 2.140625 57.9375 C 2.003906 58.070312 1.9375 58.140625 1.9375 58.140625 C 1.457031 58.335938 1.015625 58.625 0.609375 59 C 0.203125 59.375 -0.335938 59.5625 -1.015625 59.5625 C -1.148438 59.625 -1.285156 59.753906 -1.421875 59.953125 C -1.554688 60.160156 -1.691406 60.332031 -1.828125 60.46875 C -2.097656 60.601562 -2.382812 60.753906 -2.6875 60.921875 C -3 61.097656 -3.289062 61.1875 -3.5625 61.1875 C -4.644531 61.457031 -5.863281 61.59375 -7.21875 61.59375 C -7.6875 61.726562 -8.054688 61.726562 -8.328125 61.59375 C -9.210938 61.320312 -10.007812 61.050781 -10.71875 60.78125 C -11.4375 60.507812 -12.164062 60.171875 -12.90625 59.765625 C -14.332031 59.148438 -15.25 58.234375 -15.65625 57.015625 C -15.71875 56.816406 -15.847656 56.664062 -16.046875 56.5625 C -16.253906 56.457031 -16.425781 56.269531 -16.5625 56 C -16.769531 55.457031 -16.972656 54.929688 -17.171875 54.421875 C -17.378906 53.921875 -17.648438 53.332031 -17.984375 52.65625 C -18.054688 52.519531 -18.109375 52.363281 -18.140625 52.1875 C -18.171875 52.019531 -18.222656 51.867188 -18.296875 51.734375 C -18.222656 51.398438 -18.1875 51.09375 -18.1875 50.8125 C -18.1875 50.539062 -18.15625 50.269531 -18.09375 50 C -17.957031 49.050781 -17.835938 48.15625 -17.734375 47.3125 C -17.628906 46.46875 -17.476562 45.640625 -17.28125 44.828125 C -17.144531 44.148438 -17.007812 43.453125 -16.875 42.734375 C -16.738281 42.023438 -16.535156 41.296875 -16.265625 40.546875 C -16.191406 40.410156 -16.085938 40.273438 -15.953125 40.140625 L -15.34375 37.90625 L -14.640625 36.484375 C -14.160156 35.535156 -13.664062 34.640625 -13.15625 33.796875 C -12.65625 32.953125 -12.164062 32.125 -11.6875 31.3125 C -11.21875 30.5625 -10.660156 29.78125 -10.015625 28.96875 C -9.367188 28.15625 -8.804688 27.375 -8.328125 26.625 L -5.890625 24.09375 C -5.753906 23.957031 -5.5 23.703125 -5.125 23.328125 C -4.757812 22.953125 -4.441406 22.664062 -4.171875 22.46875 C -3.898438 22.195312 -3.609375 21.875 -3.296875 21.5 C -2.992188 21.125 -2.609375 20.800781 -2.140625 20.53125 C -1.328125 19.914062 -0.515625 19.320312 0.296875 18.75 C 1.117188 18.175781 1.96875 17.582031 2.84375 16.96875 C 4.269531 15.75 5.828125 14.800781 7.515625 14.125 L 11.390625 12 C 12.128906 11.65625 12.890625 11.347656 13.671875 11.078125 C 14.453125 10.804688 15.179688 10.46875 15.859375 10.0625 L 16.265625 9.953125 C 17.347656 9.679688 17.851562 9.003906 17.78125 7.921875 C 17.71875 7.859375 17.6875 7.691406 17.6875 7.421875 C 17.75 7.148438 17.796875 6.894531 17.828125 6.65625 C 17.867188 6.414062 17.957031 6.160156 18.09375 5.890625 C 17.957031 4.671875 18.003906 3.804688 18.234375 3.296875 C 18.472656 2.796875 18.59375 2.34375 18.59375 1.9375 L 18.703125 1.734375 C 18.835938 0.648438 19.003906 -0.414062 19.203125 -1.46875 C 19.410156 -2.519531 19.613281 -3.519531 19.8125 -4.46875 C 19.75 -4.40625 19.582031 -4.375 19.3125 -4.375 L 18.703125 -4.46875 C 18.628906 -4.40625 18.554688 -4.304688 18.484375 -4.171875 C 18.421875 -4.035156 18.320312 -3.929688 18.1875 -3.859375 C 17.851562 -3.453125 17.582031 -3.179688 17.375 -3.046875 C 17.375 -3.046875 17.117188 -2.738281 16.609375 -2.125 C 16.109375 -1.519531 15.453125 -0.914062 14.640625 -0.3125 L 14.640625 -0.203125 C 13.828125 0.0664062 13.179688 0.335938 12.703125 0.609375 C 12.234375 0.878906 11.691406 1.117188 11.078125 1.328125 C 10.804688 1.390625 10.535156 1.453125 10.265625 1.515625 C 9.992188 1.585938 9.65625 1.625 9.25 1.625 C 8.90625 1.695312 8.53125 1.734375 8.125 1.734375 C 7.71875 1.734375 7.347656 1.695312 7.015625 1.625 L 4.46875 0.71875 C 4.332031 0.582031 4.210938 0.425781 4.109375 0.25 C 4.015625 0.0820312 3.898438 -0.0664062 3.765625 -0.203125 C 3.765625 -0.609375 3.5625 -0.878906 3.15625 -1.015625 C 2.75 -1.359375 2.507812 -1.765625 2.4375 -2.234375 C 2.375 -2.710938 2.304688 -3.1875 2.234375 -3.65625 C 1.960938 -4.46875 1.910156 -5.28125 2.078125 -6.09375 C 2.253906 -6.90625 2.476562 -7.6875 2.75 -8.4375 C 2.882812 -8.769531 3.050781 -9.085938 3.25 -9.390625 C 3.457031 -9.703125 3.59375 -9.992188 3.65625 -10.265625 C 3.789062 -10.535156 3.925781 -10.835938 4.0625 -11.171875 C 4.195312 -11.515625 4.398438 -11.890625 4.671875 -12.296875 C 4.742188 -12.296875 4.78125 -12.332031 4.78125 -12.40625 C 5.320312 -12.875 5.742188 -13.476562 6.046875 -14.21875 C 6.347656 -14.96875 6.804688 -15.582031 7.421875 -16.0625 C 7.753906 -16.257812 8.242188 -16.644531 8.890625 -17.21875 C 9.535156 -17.800781 9.992188 -18.125 10.265625 -18.1875 C 10.804688 -18.394531 11.378906 -18.546875 11.984375 -18.640625 C 12.597656 -18.742188 13.175781 -18.695312 13.71875 -18.5 C 13.988281 -18.425781 14.289062 -18.40625 14.625 -18.4375 C 14.96875 -18.476562 15.242188 -18.460938 15.453125 -18.390625 C 15.785156 -18.117188 16.222656 -17.914062 16.765625 -17.78125 C 17.304688 -17.644531 17.710938 -17.476562 17.984375 -17.28125 C 18.523438 -16.875 18.960938 -16.515625 19.296875 -16.203125 C 19.640625 -15.898438 20.019531 -15.476562 20.4375 -14.9375 L 21.140625 -13.625 C 21.484375 -13.894531 21.804688 -14.25 22.109375 -14.6875 C 22.410156 -15.125 22.695312 -15.410156 22.96875 -15.546875 L 24.1875 -15.25 C 24.9375 -15.175781 25.75 -15.003906 26.625 -14.734375 L 26.328125 -12.8125 C 26.117188 -12.46875 25.960938 -12.078125 25.859375 -11.640625 C 25.765625 -11.203125 25.648438 -10.8125 25.515625 -10.46875 C 25.441406 -10.195312 25.367188 -9.925781 25.296875 -9.65625 C 25.234375 -9.382812 25.171875 -9.113281 25.109375 -8.84375 C 24.703125 -7.21875 24.378906 -5.625 24.140625 -4.0625 C 23.898438 -2.507812 23.613281 -0.953125 23.28125 0.609375 C 23.144531 1.359375 23.09375 2.085938 23.125 2.796875 C 23.15625 3.503906 23.003906 4.234375 22.671875 4.984375 C 22.597656 5.453125 22.5625 5.90625 22.5625 6.34375 C 22.5625 6.789062 22.492188 7.21875 22.359375 7.625 C 22.359375 7.625 22.375 7.707031 22.40625 7.875 C 22.445312 8.039062 22.5 8.125 22.5625 8.125 C 23.238281 8.0625 23.878906 7.976562 24.484375 7.875 C 25.097656 7.769531 25.742188 7.6875 26.421875 7.625 C 27.640625 7.488281 28.828125 7.488281 29.984375 7.625 Z M 18.09375 -9.140625 C 18.425781 -9.078125 18.660156 -9.160156 18.796875 -9.390625 C 18.929688 -9.628906 19.035156 -9.816406 19.109375 -9.953125 C 18.898438 -10.097656 18.726562 -10.253906 18.59375 -10.421875 C 18.457031 -10.585938 18.320312 -10.738281 18.1875 -10.875 C 17.71875 -11.351562 17.582031 -11.894531 17.78125 -12.5 C 17.851562 -12.84375 17.785156 -13.351562 17.578125 -14.03125 C 17.378906 -14.707031 17.210938 -15.078125 17.078125 -15.140625 C 16.867188 -15.484375 16.5625 -15.65625 16.15625 -15.65625 C 15.414062 -15.582031 14.671875 -15.425781 13.921875 -15.1875 C 13.179688 -14.957031 12.539062 -14.535156 12 -13.921875 C 11.59375 -13.585938 11.1875 -13.265625 10.78125 -12.953125 C 10.375 -12.648438 10 -12.332031 9.65625 -12 C 9.582031 -11.925781 9.476562 -11.804688 9.34375 -11.640625 C 9.207031 -11.472656 9.070312 -11.320312 8.9375 -11.1875 L 9.046875 -10.671875 C 8.773438 -10.335938 8.484375 -10 8.171875 -9.65625 C 7.867188 -9.3125 7.582031 -8.9375 7.3125 -8.53125 C 7.039062 -7.925781 6.785156 -7.316406 6.546875 -6.703125 C 6.316406 -6.097656 6.066406 -5.523438 5.796875 -4.984375 C 5.660156 -4.503906 5.539062 -4.0625 5.4375 -3.65625 C 5.332031 -3.25 5.382812 -2.8125 5.59375 -2.34375 C 5.726562 -2.34375 5.894531 -2.359375 6.09375 -2.390625 C 6.300781 -2.421875 6.503906 -2.4375 6.703125 -2.4375 C 7.453125 -2.507812 8.164062 -2.660156 8.84375 -2.890625 C 9.519531 -3.128906 10.234375 -3.382812 10.984375 -3.65625 L 13.828125 -5.28125 L 13.921875 -5.28125 C 14.328125 -5.957031 14.90625 -6.46875 15.65625 -6.8125 C 15.789062 -6.8125 15.90625 -6.878906 16 -7.015625 C 16.101562 -7.148438 16.191406 -7.25 16.265625 -7.3125 C 16.460938 -7.65625 16.765625 -7.894531 17.171875 -8.03125 C 17.578125 -8.164062 17.816406 -8.46875 17.890625 -8.9375 C 17.890625 -9.070312 17.957031 -9.140625 18.09375 -9.140625 Z M 16.265625 17.578125 C 16.398438 16.972656 16.515625 16.347656 16.609375 15.703125 C 16.710938 15.054688 16.867188 14.429688 17.078125 13.828125 C 16.671875 13.890625 16.296875 14.019531 15.953125 14.21875 C 15.617188 14.425781 15.28125 14.597656 14.9375 14.734375 C 13.65625 15.210938 12.4375 15.722656 11.28125 16.265625 C 10.125 16.804688 8.972656 17.484375 7.828125 18.296875 C 7.148438 18.765625 6.40625 19.238281 5.59375 19.71875 C 4.78125 20.195312 4 20.707031 3.25 21.25 C 2.707031 21.65625 2.113281 22.023438 1.46875 22.359375 C 0.832031 22.703125 0.207031 23.144531 -0.40625 23.6875 C -0.613281 23.957031 -0.882812 24.226562 -1.21875 24.5 C -1.5625 24.769531 -1.832031 25.039062 -2.03125 25.3125 C -2.300781 25.582031 -2.570312 25.785156 -2.84375 25.921875 C -3.113281 26.054688 -3.351562 26.222656 -3.5625 26.421875 C -4.03125 26.898438 -4.570312 27.546875 -5.1875 28.359375 C -5.519531 28.628906 -5.851562 28.929688 -6.1875 29.265625 C -6.53125 29.609375 -6.875 29.945312 -7.21875 30.28125 C -7.28125 30.425781 -7.515625 30.75 -7.921875 31.25 C -8.328125 31.757812 -8.695312 32.285156 -9.03125 32.828125 C -9.375 33.367188 -9.546875 33.742188 -9.546875 33.953125 L -11.6875 37.09375 C -11.757812 37.09375 -11.960938 37.414062 -12.296875 38.0625 C -12.640625 38.707031 -12.878906 39.195312 -13.015625 39.53125 C -13.347656 39.9375 -13.550781 40.414062 -13.625 40.96875 C -13.757812 41.375 -13.859375 41.8125 -13.921875 42.28125 C -13.992188 42.757812 -14.097656 43.164062 -14.234375 43.5 C -14.367188 44.175781 -14.535156 44.851562 -14.734375 45.53125 C -14.941406 46.207031 -15.078125 46.921875 -15.140625 47.671875 C -15.210938 48.617188 -15.210938 49.53125 -15.140625 50.40625 C -15.078125 51.289062 -15.007812 52.207031 -14.9375 53.15625 C -14.800781 54.175781 -14.476562 55.023438 -13.96875 55.703125 C -13.46875 56.378906 -12.8125 56.953125 -12 57.421875 L -11.484375 57.828125 C -11.210938 57.960938 -11.078125 58.03125 -11.078125 58.03125 C -10.328125 58.300781 -9.628906 58.46875 -8.984375 58.53125 C -8.347656 58.601562 -7.722656 58.503906 -7.109375 58.234375 C -6.773438 58.097656 -6.40625 57.925781 -6 57.71875 C -5.59375 57.519531 -5.253906 57.390625 -4.984375 57.328125 C -4.097656 57.054688 -3.316406 56.664062 -2.640625 56.15625 C -1.960938 55.644531 -1.285156 55.117188 -0.609375 54.578125 C 0.0664062 54.035156 0.691406 53.441406 1.265625 52.796875 C 1.847656 52.160156 2.410156 51.535156 2.953125 50.921875 C 3.765625 49.898438 4.472656 48.914062 5.078125 47.96875 C 5.691406 47.019531 6.335938 46.039062 7.015625 45.03125 C 7.753906 44.007812 8.359375 42.972656 8.828125 41.921875 C 9.304688 40.867188 9.820312 39.800781 10.375 38.71875 C 10.78125 37.90625 11.117188 37.125 11.390625 36.375 C 11.660156 35.632812 11.929688 34.859375 12.203125 34.046875 C 12.609375 32.828125 13.015625 31.640625 13.421875 30.484375 C 13.828125 29.335938 14.164062 28.15625 14.4375 26.9375 C 14.707031 25.988281 14.925781 25.039062 15.09375 24.09375 C 15.257812 23.144531 15.445312 22.226562 15.65625 21.34375 C 15.789062 20.875 15.925781 20.332031 16.0625 19.71875 C 16.195312 19.101562 16.265625 18.523438 16.265625 17.984375 Z M 16.265625 17.578125 "/></g></g></g></svg>