<svg xmlns="http://www.w3.org/2000/svg" xmlns:xlink="http://www.w3.org/1999/xlink" width="240" zoomAndPan="magnify" viewBox="0 0 180 72" height="96" preserveAspectRatio="xMidYMid meet" version="1.0"><defs><g/></defs><g fill="#d883b7" fill-opacity="1"><g transform="translate(21.021365, 37.738044)"><g><path d="M 8.03125 5.71875 C 7.488281 5.519531 6.914062 5.304688 6.3125 5.078125 C 5.71875 4.859375 5.171875 4.585938 4.671875 4.265625 C 4.578125 4.160156 4.46875 4.070312 4.34375 4 C 4.21875 3.925781 4.101562 3.835938 4 3.734375 C 3.851562 3.566406 3.609375 3.300781 3.265625 2.9375 C 2.929688 2.570312 2.617188 2.078125 2.328125 1.453125 C 2.046875 0.835938 1.894531 0.078125 1.875 -0.828125 L 2.125 -1.53125 C 2.03125 -1.726562 1.992188 -1.925781 2.015625 -2.125 C 2.046875 -2.332031 2.097656 -2.507812 2.171875 -2.65625 C 2.265625 -3.445312 2.4375 -4.222656 2.6875 -4.984375 C 2.9375 -5.742188 3.238281 -6.472656 3.59375 -7.171875 C 3.71875 -7.546875 3.878906 -7.914062 4.078125 -8.28125 C 4.273438 -8.644531 4.488281 -9 4.71875 -9.34375 C 4.9375 -9.695312 5.164062 -10.070312 5.40625 -10.46875 C 5.644531 -10.863281 5.898438 -11.238281 6.171875 -11.59375 C 6.796875 -12.414062 7.414062 -13.160156 8.03125 -13.828125 C 8.65625 -14.503906 9.378906 -15.179688 10.203125 -15.859375 C 10.929688 -16.472656 11.742188 -16.941406 12.640625 -17.265625 C 13.535156 -17.597656 14.492188 -17.625 15.515625 -17.34375 C 16.390625 -17.144531 17.109375 -16.820312 17.671875 -16.375 C 18.234375 -15.925781 18.660156 -15.363281 18.953125 -14.6875 C 19.304688 -13.894531 19.503906 -13.222656 19.546875 -12.671875 C 19.597656 -12.128906 19.5625 -11.519531 19.4375 -10.84375 C 19.289062 -9.789062 18.929688 -9.328125 18.359375 -9.453125 C 18.179688 -9.503906 17.9375 -9.597656 17.625 -9.734375 C 17.3125 -9.878906 17.15625 -10.070312 17.15625 -10.3125 C 17.4375 -11.09375 17.617188 -11.875 17.703125 -12.65625 C 17.785156 -13.4375 17.59375 -14.21875 17.125 -15 C 17 -15.195312 16.765625 -15.441406 16.421875 -15.734375 C 16.085938 -16.035156 15.5625 -16.1875 14.84375 -16.1875 C 14.144531 -16.1875 13.457031 -15.988281 12.78125 -15.59375 C 12.113281 -15.195312 11.472656 -14.695312 10.859375 -14.09375 C 10.253906 -13.5 9.707031 -12.898438 9.21875 -12.296875 C 8.726562 -11.703125 8.332031 -11.21875 8.03125 -10.84375 C 7.757812 -10.46875 7.507812 -10.085938 7.28125 -9.703125 C 7.0625 -9.316406 6.765625 -8.945312 6.390625 -8.59375 C 6.367188 -8.570312 6.347656 -8.539062 6.328125 -8.5 C 6.316406 -8.46875 6.289062 -8.425781 6.25 -8.375 C 6.195312 -7.945312 6.023438 -7.539062 5.734375 -7.15625 C 5.453125 -6.769531 5.257812 -6.390625 5.15625 -6.015625 C 5.132812 -5.921875 5.066406 -5.832031 4.953125 -5.75 C 4.835938 -5.675781 4.796875 -5.578125 4.828125 -5.453125 C 4.703125 -4.835938 4.519531 -4.203125 4.28125 -3.546875 C 4.039062 -2.898438 3.894531 -2.253906 3.84375 -1.609375 C 3.820312 -1.210938 3.820312 -0.816406 3.84375 -0.421875 C 3.875 -0.0351562 3.898438 0.335938 3.921875 0.703125 C 3.972656 1.078125 4.078125 1.476562 4.234375 1.90625 C 4.398438 2.332031 4.617188 2.691406 4.890625 2.984375 C 5.242188 3.359375 5.734375 3.6875 6.359375 3.96875 C 6.984375 4.257812 7.582031 4.421875 8.15625 4.453125 C 9.320312 4.472656 10.300781 4.390625 11.09375 4.203125 C 11.894531 4.015625 12.6875 3.632812 13.46875 3.0625 C 14.257812 2.488281 15.191406 1.664062 16.265625 0.59375 C 16.691406 0.175781 17.113281 -0.273438 17.53125 -0.765625 C 17.957031 -1.253906 18.257812 -1.707031 18.4375 -2.125 C 18.363281 -2.207031 18.078125 -2.28125 17.578125 -2.34375 C 17.078125 -2.40625 16.445312 -2.4375 15.6875 -2.4375 C 14.925781 -2.4375 14.109375 -2.378906 13.234375 -2.265625 C 12.359375 -2.148438 11.523438 -1.96875 10.734375 -1.71875 C 10.503906 -1.914062 10.445312 -2.175781 10.5625 -2.5 C 10.675781 -2.820312 11.082031 -3.046875 11.78125 -3.171875 C 12.476562 -3.296875 13.046875 -3.390625 13.484375 -3.453125 C 13.921875 -3.515625 14.382812 -3.566406 14.875 -3.609375 C 15.375 -3.648438 16.023438 -3.679688 16.828125 -3.703125 C 17.367188 -3.722656 17.945312 -3.695312 18.5625 -3.625 C 19.175781 -3.550781 19.660156 -3.421875 20.015625 -3.234375 C 20.378906 -3.046875 20.460938 -2.78125 20.265625 -2.4375 C 20.066406 -2.082031 19.816406 -1.679688 19.515625 -1.234375 C 19.210938 -0.785156 18.863281 -0.320312 18.46875 0.15625 C 18.289062 0.351562 18.097656 0.550781 17.890625 0.75 C 17.679688 0.945312 17.488281 1.117188 17.3125 1.265625 L 16.296875 2.5 C 16.273438 2.601562 16.265625 2.6875 16.265625 2.75 C 16.265625 2.8125 16.253906 2.851562 16.234375 2.875 C 16.109375 2.976562 15.960938 3.070312 15.796875 3.15625 C 15.628906 3.25 15.488281 3.332031 15.375 3.40625 C 15.195312 3.582031 15.019531 3.738281 14.84375 3.875 C 14.664062 4.007812 14.53125 4.164062 14.4375 4.34375 C 14.3125 4.539062 14.113281 4.703125 13.84375 4.828125 C 13.582031 4.953125 13.316406 5.035156 13.046875 5.078125 C 12.796875 5.109375 12.578125 5.140625 12.390625 5.171875 C 12.203125 5.210938 12.046875 5.296875 11.921875 5.421875 C 11.898438 5.441406 11.875 5.472656 11.84375 5.515625 C 11.820312 5.554688 11.8125 5.578125 11.8125 5.578125 C 11.21875 5.703125 10.585938 5.800781 9.921875 5.875 C 9.265625 5.945312 8.632812 5.894531 8.03125 5.71875 Z M 8.03125 5.71875 "/></g></g></g><g fill="#d883b7" fill-opacity="1"><g transform="translate(43.27144, 37.738044)"><g><path d="M 9.828125 -3.671875 L 9.265625 -3.171875 C 9.242188 -3.148438 9.21875 -3.109375 9.1875 -3.046875 C 9.164062 -2.984375 9.109375 -2.925781 9.015625 -2.875 L 8.90625 -2.734375 C 8.726562 -2.660156 8.6875 -2.570312 8.78125 -2.46875 C 8.707031 -2.414062 8.640625 -2.359375 8.578125 -2.296875 C 8.515625 -2.234375 8.472656 -2.140625 8.453125 -2.015625 L 8.453125 -1.984375 C 8.421875 -1.929688 8.378906 -1.875 8.328125 -1.8125 C 8.285156 -1.75 8.25 -1.707031 8.21875 -1.6875 C 8.09375 -1.5625 7.929688 -1.421875 7.734375 -1.265625 L 7.03125 -0.703125 C 6.882812 -0.628906 6.75 -0.554688 6.625 -0.484375 C 6.5 -0.410156 6.375 -0.320312 6.25 -0.21875 C 6.070312 -0.125 5.90625 -0.0195312 5.75 0.09375 C 5.601562 0.207031 5.429688 0.300781 5.234375 0.375 C 5.128906 0.425781 5.007812 0.457031 4.875 0.46875 C 4.738281 0.476562 4.609375 0.5 4.484375 0.53125 C 4.390625 0.53125 4.28125 0.566406 4.15625 0.640625 C 4.070312 0.660156 3.976562 0.679688 3.875 0.703125 C 3.78125 0.734375 3.6875 0.757812 3.59375 0.78125 C 3.4375 0.8125 3.289062 0.84375 3.15625 0.875 C 3.019531 0.914062 2.878906 0.921875 2.734375 0.890625 C 2.304688 0.847656 1.929688 0.773438 1.609375 0.671875 C 1.429688 0.617188 1.289062 0.566406 1.1875 0.515625 C 1.09375 0.472656 0.945312 0.375 0.75 0.21875 C 0.71875 0.175781 0.679688 0.144531 0.640625 0.125 C 0.609375 0.113281 0.582031 0.0976562 0.5625 0.078125 C 0.4375 -0.0234375 0.328125 -0.128906 0.234375 -0.234375 C 0.148438 -0.347656 0.046875 -0.492188 -0.078125 -0.671875 C -0.0976562 -0.722656 -0.113281 -0.765625 -0.125 -0.796875 C -0.144531 -0.835938 -0.175781 -0.945312 -0.21875 -1.125 C -0.320312 -1.34375 -0.375 -1.523438 -0.375 -1.671875 C -0.375 -1.828125 -0.375 -1.96875 -0.375 -2.09375 C -0.320312 -2.84375 -0.125 -3.566406 0.21875 -4.265625 C 0.300781 -4.390625 0.378906 -4.503906 0.453125 -4.609375 C 0.523438 -4.722656 0.609375 -4.832031 0.703125 -4.9375 C 0.878906 -5.132812 1.046875 -5.332031 1.203125 -5.53125 C 1.367188 -5.726562 1.539062 -5.914062 1.71875 -6.09375 C 2.09375 -6.46875 2.503906 -6.664062 2.953125 -6.6875 C 3.003906 -6.6875 3.0625 -6.691406 3.125 -6.703125 C 3.1875 -6.722656 3.253906 -6.742188 3.328125 -6.765625 C 3.523438 -6.835938 3.703125 -6.832031 3.859375 -6.75 C 4.023438 -6.664062 4.171875 -6.582031 4.296875 -6.5 C 4.472656 -6.425781 4.632812 -6.335938 4.78125 -6.234375 C 4.9375 -6.140625 5.078125 -6.03125 5.203125 -5.90625 C 5.347656 -5.8125 5.457031 -5.640625 5.53125 -5.390625 C 5.601562 -5.140625 5.617188 -4.9375 5.578125 -4.78125 C 5.492188 -4.582031 5.390625 -4.421875 5.265625 -4.296875 C 5.097656 -4.117188 4.929688 -3.941406 4.765625 -3.765625 C 4.609375 -3.597656 4.441406 -3.425781 4.265625 -3.25 C 4.210938 -3.195312 4.140625 -3.148438 4.046875 -3.109375 C 3.960938 -3.078125 3.910156 -3.035156 3.890625 -2.984375 C 3.859375 -2.859375 3.789062 -2.773438 3.6875 -2.734375 C 3.59375 -2.703125 3.507812 -2.664062 3.4375 -2.625 L 2.921875 -2.25 C 2.890625 -2.21875 2.875 -2.179688 2.875 -2.140625 C 2.875 -2.109375 2.863281 -2.082031 2.84375 -2.0625 C 2.71875 -1.976562 2.585938 -1.90625 2.453125 -1.84375 C 2.316406 -1.78125 2.1875 -1.710938 2.0625 -1.640625 C 2.007812 -1.617188 1.960938 -1.585938 1.921875 -1.546875 C 1.890625 -1.515625 1.847656 -1.472656 1.796875 -1.421875 C 1.648438 -1.347656 1.53125 -1.289062 1.4375 -1.25 C 1.351562 -1.21875 1.25 -1.160156 1.125 -1.078125 C 1.195312 -0.859375 1.265625 -0.710938 1.328125 -0.640625 C 1.390625 -0.566406 1.492188 -0.503906 1.640625 -0.453125 C 1.890625 -0.472656 2.132812 -0.484375 2.375 -0.484375 C 2.613281 -0.484375 2.859375 -0.5 3.109375 -0.53125 C 3.273438 -0.550781 3.4375 -0.59375 3.59375 -0.65625 C 3.757812 -0.71875 3.929688 -0.773438 4.109375 -0.828125 C 4.234375 -0.867188 4.367188 -0.925781 4.515625 -1 C 4.671875 -1.082031 4.820312 -1.148438 4.96875 -1.203125 C 5.070312 -1.242188 5.164062 -1.269531 5.25 -1.28125 C 5.34375 -1.300781 5.4375 -1.335938 5.53125 -1.390625 L 6.765625 -2.09375 L 6.875 -2.171875 C 7.050781 -2.296875 7.285156 -2.441406 7.578125 -2.609375 C 7.878906 -2.785156 8.117188 -2.925781 8.296875 -3.03125 C 8.367188 -3.082031 8.457031 -3.128906 8.5625 -3.171875 C 8.664062 -3.222656 8.726562 -3.265625 8.75 -3.296875 L 10.015625 -4.21875 L 10.09375 -3.96875 C 10.09375 -3.96875 10.097656 -3.96875 10.109375 -3.96875 C 10.128906 -3.96875 10.140625 -3.953125 10.140625 -3.921875 C 10.085938 -3.898438 10.035156 -3.863281 9.984375 -3.8125 C 9.929688 -3.757812 9.878906 -3.710938 9.828125 -3.671875 Z M 1.34375 -3.359375 C 1.289062 -3.265625 1.242188 -3.144531 1.203125 -3 C 1.171875 -2.863281 1.128906 -2.722656 1.078125 -2.578125 C 1.234375 -2.679688 1.359375 -2.765625 1.453125 -2.828125 C 1.554688 -2.890625 1.644531 -2.941406 1.71875 -2.984375 L 2.734375 -3.8125 L 3.734375 -4.71875 C 3.859375 -4.8125 3.957031 -4.914062 4.03125 -5.03125 C 4.113281 -5.144531 4.191406 -5.265625 4.265625 -5.390625 C 4.316406 -5.484375 4.3125 -5.59375 4.25 -5.71875 C 4.1875 -5.84375 4.113281 -5.878906 4.03125 -5.828125 C 3.863281 -5.753906 3.695312 -5.703125 3.53125 -5.671875 C 3.375 -5.648438 3.21875 -5.578125 3.0625 -5.453125 C 2.882812 -5.328125 2.710938 -5.207031 2.546875 -5.09375 C 2.390625 -4.988281 2.25 -4.847656 2.125 -4.671875 C 1.851562 -4.296875 1.59375 -3.859375 1.34375 -3.359375 Z M 1.34375 -3.359375 "/></g></g></g><g fill="#d883b7" fill-opacity="1"><g transform="translate(52.694995, 37.738044)"><g><path d="M 10.625 -5.125 L 10.65625 -5.078125 L 10.65625 -4.75 C 10.425781 -4.519531 10.238281 -4.34375 10.09375 -4.21875 C 9.945312 -4.09375 9.8125 -3.992188 9.6875 -3.921875 C 9.613281 -3.867188 9.5625 -3.8125 9.53125 -3.75 C 9.507812 -3.695312 9.460938 -3.671875 9.390625 -3.671875 L 9.125 -3.671875 C 9.070312 -3.671875 9.046875 -3.65625 9.046875 -3.625 C 9.023438 -3.53125 8.957031 -3.46875 8.84375 -3.4375 C 8.726562 -3.414062 8.625 -3.378906 8.53125 -3.328125 L 8 -3.109375 C 7.800781 -3.003906 7.617188 -2.9375 7.453125 -2.90625 C 7.296875 -2.882812 7.117188 -2.863281 6.921875 -2.84375 C 6.867188 -2.84375 6.820312 -2.832031 6.78125 -2.8125 C 6.75 -2.800781 6.707031 -2.796875 6.65625 -2.796875 C 6.507812 -2.796875 6.4375 -2.722656 6.4375 -2.578125 C 6.40625 -2.523438 6.375 -2.46875 6.34375 -2.40625 C 6.320312 -2.34375 6.3125 -2.273438 6.3125 -2.203125 L 6.390625 -2.171875 C 6.390625 -2.171875 6.390625 -2.160156 6.390625 -2.140625 C 6.390625 -2.128906 6.390625 -2.125 6.390625 -2.125 C 6.296875 -2.03125 6.234375 -1.929688 6.203125 -1.828125 C 6.179688 -1.734375 6.109375 -1.648438 5.984375 -1.578125 C 5.953125 -1.546875 5.941406 -1.503906 5.953125 -1.453125 C 5.972656 -1.410156 5.96875 -1.375 5.9375 -1.34375 C 5.789062 -1.164062 5.660156 -0.988281 5.546875 -0.8125 C 5.441406 -0.644531 5.300781 -0.460938 5.125 -0.265625 L 5.046875 -0.1875 C 4.941406 -0.0820312 4.835938 0.0078125 4.734375 0.09375 C 4.640625 0.175781 4.554688 0.269531 4.484375 0.375 C 4.335938 0.476562 4.203125 0.53125 4.078125 0.53125 C 3.921875 0.625 3.773438 0.695312 3.640625 0.75 C 3.503906 0.800781 3.347656 0.847656 3.171875 0.890625 C 3.003906 0.941406 2.878906 0.941406 2.796875 0.890625 C 2.628906 0.867188 2.4375 0.851562 2.21875 0.84375 C 2.007812 0.832031 1.832031 0.785156 1.6875 0.703125 C 1.457031 0.660156 1.257812 0.582031 1.09375 0.46875 C 0.9375 0.351562 0.796875 0.207031 0.671875 0.03125 C 0.472656 -0.164062 0.347656 -0.425781 0.296875 -0.75 C 0.242188 -1.070312 0.207031 -1.382812 0.1875 -1.6875 C 0.164062 -2.03125 0.21875 -2.382812 0.34375 -2.75 C 0.46875 -3.113281 0.578125 -3.457031 0.671875 -3.78125 C 0.722656 -3.90625 0.757812 -4.050781 0.78125 -4.21875 C 0.8125 -4.394531 0.835938 -4.484375 0.859375 -4.484375 C 0.984375 -4.679688 1.09375 -4.878906 1.1875 -5.078125 C 1.289062 -5.285156 1.394531 -5.4375 1.5 -5.53125 C 1.664062 -5.707031 1.84375 -5.867188 2.03125 -6.015625 C 2.21875 -6.171875 2.425781 -6.296875 2.65625 -6.390625 C 2.832031 -6.460938 3.003906 -6.5 3.171875 -6.5 C 3.347656 -6.5 3.515625 -6.5 3.671875 -6.5 C 3.765625 -6.5 3.835938 -6.460938 3.890625 -6.390625 C 3.941406 -6.316406 4.003906 -6.242188 4.078125 -6.171875 C 4.097656 -6.140625 4.125 -6.125 4.15625 -6.125 C 4.195312 -6.125 4.234375 -6.113281 4.265625 -6.09375 C 4.460938 -6.019531 4.675781 -5.960938 4.90625 -5.921875 C 5.144531 -5.890625 5.378906 -5.773438 5.609375 -5.578125 C 5.628906 -5.546875 5.671875 -5.53125 5.734375 -5.53125 C 5.796875 -5.53125 5.84375 -5.519531 5.875 -5.5 C 6.070312 -5.34375 6.257812 -5.082031 6.4375 -4.71875 L 6.6875 -3.890625 C 6.6875 -3.816406 6.6875 -3.78125 6.6875 -3.78125 C 7.039062 -3.90625 7.378906 -4.019531 7.703125 -4.125 C 8.023438 -4.238281 8.347656 -4.347656 8.671875 -4.453125 C 8.953125 -4.578125 9.226562 -4.675781 9.5 -4.75 C 9.769531 -4.820312 10.144531 -4.945312 10.625 -5.125 Z M 5.3125 -3.625 C 5.28125 -3.726562 5.269531 -3.832031 5.28125 -3.9375 C 5.300781 -4.050781 5.3125 -4.160156 5.3125 -4.265625 C 5.28125 -4.410156 5.242188 -4.570312 5.203125 -4.75 C 5.171875 -4.925781 5.109375 -5.085938 5.015625 -5.234375 C 4.960938 -5.335938 4.875 -5.363281 4.75 -5.3125 C 4.519531 -5.3125 4.34375 -5.25 4.21875 -5.125 C 4.125 -5.019531 4.019531 -4.925781 3.90625 -4.84375 C 3.789062 -4.757812 3.722656 -4.628906 3.703125 -4.453125 C 3.703125 -4.222656 3.75 -4.019531 3.84375 -3.84375 C 3.894531 -3.695312 4.035156 -3.625 4.265625 -3.625 Z M 4.96875 -2.5 C 5.070312 -2.625 5.035156 -2.722656 4.859375 -2.796875 C 4.609375 -2.796875 4.382812 -2.835938 4.1875 -2.921875 C 3.789062 -2.992188 3.429688 -3.15625 3.109375 -3.40625 C 2.828125 -3.550781 2.648438 -3.738281 2.578125 -3.96875 C 2.484375 -4.09375 2.421875 -4.226562 2.390625 -4.375 C 2.296875 -4.144531 2.203125 -3.945312 2.109375 -3.78125 C 2.023438 -3.625 1.929688 -3.445312 1.828125 -3.25 C 1.773438 -3.175781 1.726562 -3.085938 1.6875 -2.984375 C 1.65625 -2.890625 1.628906 -2.804688 1.609375 -2.734375 C 1.585938 -2.628906 1.566406 -2.523438 1.546875 -2.421875 C 1.535156 -2.328125 1.519531 -2.226562 1.5 -2.125 C 1.425781 -1.957031 1.378906 -1.765625 1.359375 -1.546875 C 1.347656 -1.335938 1.34375 -1.132812 1.34375 -0.9375 C 1.34375 -0.8125 1.351562 -0.695312 1.375 -0.59375 C 1.40625 -0.5 1.429688 -0.390625 1.453125 -0.265625 C 1.484375 -0.109375 1.59375 0 1.78125 0.0625 C 1.96875 0.125 2.1875 0.101562 2.4375 0 C 2.707031 -0.0703125 2.972656 -0.195312 3.234375 -0.375 C 3.492188 -0.550781 3.722656 -0.738281 3.921875 -0.9375 C 4.171875 -1.1875 4.382812 -1.445312 4.5625 -1.71875 C 4.632812 -1.84375 4.695312 -1.972656 4.75 -2.109375 C 4.800781 -2.242188 4.875 -2.375 4.96875 -2.5 Z M 4.96875 -2.5 "/></g></g></g><g fill="#d883b7" fill-opacity="1"><g transform="translate(61.482838, 37.738044)"><g><path d="M 0.828125 0.671875 C 0.722656 0.617188 0.640625 0.554688 0.578125 0.484375 C 0.515625 0.410156 0.410156 0.335938 0.265625 0.265625 C 0.191406 0.0664062 0.125 -0.125 0.0625 -0.3125 C 0 -0.5 -0.0078125 -0.71875 0.03125 -0.96875 L 0.34375 -2.5 C 0.382812 -2.695312 0.429688 -2.898438 0.484375 -3.109375 C 0.535156 -3.328125 0.5625 -3.535156 0.5625 -3.734375 C 0.613281 -4.015625 0.675781 -4.273438 0.75 -4.515625 C 0.820312 -4.765625 0.867188 -5.015625 0.890625 -5.265625 C 0.941406 -5.546875 0.992188 -5.8125 1.046875 -6.0625 C 1.097656 -6.3125 1.132812 -6.5625 1.15625 -6.8125 C 1.1875 -6.851562 1.203125 -6.898438 1.203125 -6.953125 C 1.203125 -7.003906 1.210938 -7.039062 1.234375 -7.0625 C 1.304688 -7.1875 1.421875 -7.25 1.578125 -7.25 C 1.972656 -7.40625 2.242188 -7.207031 2.390625 -6.65625 C 2.515625 -6.351562 2.550781 -6.03125 2.5 -5.6875 C 2.5 -5.632812 2.488281 -5.578125 2.46875 -5.515625 C 2.445312 -5.453125 2.4375 -5.367188 2.4375 -5.265625 C 2.476562 -5.347656 2.53125 -5.421875 2.59375 -5.484375 C 2.65625 -5.546875 2.703125 -5.597656 2.734375 -5.640625 C 2.828125 -5.816406 2.929688 -5.960938 3.046875 -6.078125 C 3.160156 -6.191406 3.28125 -6.3125 3.40625 -6.4375 C 3.582031 -6.6875 3.769531 -6.890625 3.96875 -7.046875 C 4.164062 -7.210938 4.363281 -7.359375 4.5625 -7.484375 C 5.03125 -7.847656 5.515625 -7.882812 6.015625 -7.59375 C 6.117188 -7.519531 6.210938 -7.441406 6.296875 -7.359375 C 6.390625 -7.285156 6.472656 -7.210938 6.546875 -7.140625 C 6.617188 -7.066406 6.664062 -7.03125 6.6875 -7.03125 C 6.8125 -6.957031 6.910156 -6.804688 6.984375 -6.578125 L 6.953125 -6.390625 C 6.953125 -6.390625 6.894531 -6.382812 6.78125 -6.375 C 6.675781 -6.363281 6.5 -6.40625 6.25 -6.5 C 6.144531 -6.5 6.035156 -6.5 5.921875 -6.5 C 5.816406 -6.5 5.703125 -6.453125 5.578125 -6.359375 C 5.492188 -6.253906 5.398438 -6.175781 5.296875 -6.125 C 5.203125 -6.082031 5.09375 -6.019531 4.96875 -5.9375 C 4.914062 -5.914062 4.867188 -5.875 4.828125 -5.8125 C 4.796875 -5.75 4.757812 -5.691406 4.71875 -5.640625 C 4.613281 -5.546875 4.503906 -5.453125 4.390625 -5.359375 C 4.273438 -5.273438 4.171875 -5.179688 4.078125 -5.078125 L 3.359375 -4.15625 C 3.234375 -3.976562 3.097656 -3.789062 2.953125 -3.59375 C 2.804688 -3.394531 2.671875 -3.179688 2.546875 -2.953125 C 2.441406 -2.703125 2.320312 -2.460938 2.1875 -2.234375 C 2.050781 -2.015625 1.921875 -1.796875 1.796875 -1.578125 C 1.722656 -1.398438 1.664062 -1.222656 1.625 -1.046875 C 1.59375 -0.867188 1.550781 -0.695312 1.5 -0.53125 C 1.46875 -0.40625 1.445312 -0.269531 1.4375 -0.125 C 1.425781 0.0078125 1.394531 0.140625 1.34375 0.265625 C 1.269531 0.640625 1.097656 0.773438 0.828125 0.671875 Z M 0.828125 0.671875 "/></g></g></g><g fill="#d883b7" fill-opacity="1"><g transform="translate(68.812277, 37.738044)"><g><path d="M 11.03125 2.796875 C 11.175781 2.773438 11.304688 2.828125 11.421875 2.953125 C 11.535156 3.078125 11.59375 3.203125 11.59375 3.328125 L 8.53125 4.1875 C 8.425781 4.238281 8.363281 4.265625 8.34375 4.265625 C 8.21875 4.234375 8.125 4.242188 8.0625 4.296875 C 8 4.347656 7.929688 4.4375 7.859375 4.5625 C 7.859375 4.632812 7.832031 4.695312 7.78125 4.75 C 7.851562 4.875 7.898438 5.023438 7.921875 5.203125 L 7.671875 5.265625 C 7.640625 5.367188 7.65625 5.457031 7.71875 5.53125 C 7.78125 5.601562 7.75 5.703125 7.625 5.828125 C 7.78125 6.078125 7.742188 6.253906 7.515625 6.359375 C 7.566406 6.578125 7.476562 6.75 7.25 6.875 C 7.28125 6.90625 7.3125 6.929688 7.34375 6.953125 C 7.382812 6.972656 7.40625 7 7.40625 7.03125 C 7.351562 7.226562 7.332031 7.332031 7.34375 7.34375 C 7.351562 7.351562 7.335938 7.4375 7.296875 7.59375 C 7.316406 7.613281 7.304688 7.691406 7.265625 7.828125 C 7.234375 7.960938 7.226562 8.03125 7.25 8.03125 L 7.21875 8.34375 C 7.238281 8.4375 7.25 8.515625 7.25 8.578125 C 7.25 8.640625 7.1875 8.695312 7.0625 8.75 L 6.875 9.125 C 6.925781 9.144531 6.96875 9.160156 7 9.171875 C 7.039062 9.191406 7.078125 9.222656 7.109375 9.265625 C 7.054688 9.441406 7.007812 9.601562 6.96875 9.75 C 6.9375 9.90625 6.894531 10.054688 6.84375 10.203125 C 6.820312 10.304688 6.800781 10.410156 6.78125 10.515625 C 6.769531 10.628906 6.738281 10.75 6.6875 10.875 C 6.59375 11.082031 6.546875 11.160156 6.546875 11.109375 C 6.597656 11.234375 6.597656 11.367188 6.546875 11.515625 C 6.515625 11.535156 6.472656 11.570312 6.421875 11.625 C 6.378906 11.675781 6.359375 11.738281 6.359375 11.8125 C 6.328125 11.84375 6.289062 11.878906 6.25 11.921875 C 6.21875 11.972656 6.226562 12 6.28125 12 C 6.28125 12.15625 6.253906 12.269531 6.203125 12.34375 L 5.53125 13.796875 C 5.582031 13.867188 5.617188 13.90625 5.640625 13.90625 L 5.390625 14.09375 C 5.410156 14.195312 5.421875 14.320312 5.421875 14.46875 L 5.390625 14.578125 C 5.390625 14.609375 5.394531 14.625 5.40625 14.625 C 5.414062 14.625 5.421875 14.625 5.421875 14.625 C 5.367188 14.644531 5.289062 14.757812 5.1875 14.96875 C 5.09375 15.1875 5.019531 15.367188 4.96875 15.515625 C 4.914062 15.617188 4.835938 15.703125 4.734375 15.765625 C 4.640625 15.828125 4.570312 15.921875 4.53125 16.046875 C 4.476562 16.066406 4.460938 16.144531 4.484375 16.28125 C 4.515625 16.414062 4.425781 16.421875 4.21875 16.296875 C 4.269531 16.398438 4.332031 16.5 4.40625 16.59375 C 4.4375 16.695312 4.398438 16.75 4.296875 16.75 C 4.203125 16.75 4.101562 16.757812 4 16.78125 C 4.101562 16.832031 4.175781 16.882812 4.21875 16.9375 C 4.125 16.957031 4.039062 17.007812 3.96875 17.09375 C 4.039062 17.289062 3.988281 17.40625 3.8125 17.4375 C 3.632812 17.476562 3.523438 17.5625 3.484375 17.6875 L 3.703125 17.828125 C 3.628906 17.929688 3.5625 18.023438 3.5 18.109375 C 3.4375 18.203125 3.378906 18.296875 3.328125 18.390625 C 3.304688 18.390625 3.296875 18.382812 3.296875 18.375 C 3.296875 18.363281 3.296875 18.359375 3.296875 18.359375 C 3.210938 18.429688 3.117188 18.503906 3.015625 18.578125 C 2.921875 18.660156 2.847656 18.722656 2.796875 18.765625 C 2.796875 18.816406 2.8125 18.84375 2.84375 18.84375 L 2.953125 18.84375 C 2.953125 18.863281 2.957031 18.878906 2.96875 18.890625 C 2.976562 18.910156 2.984375 18.921875 2.984375 18.921875 C 2.816406 19.117188 2.640625 19.304688 2.453125 19.484375 C 2.265625 19.660156 2.082031 19.847656 1.90625 20.046875 C 1.90625 20.191406 1.875 20.300781 1.8125 20.375 C 1.75 20.445312 1.671875 20.523438 1.578125 20.609375 C 1.453125 20.734375 1.316406 20.847656 1.171875 20.953125 C 1.035156 21.066406 0.90625 21.1875 0.78125 21.3125 C 0.726562 21.363281 0.703125 21.390625 0.703125 21.390625 C 0.535156 21.460938 0.375 21.566406 0.21875 21.703125 C 0.0703125 21.835938 -0.125 21.90625 -0.375 21.90625 C -0.425781 21.9375 -0.472656 21.988281 -0.515625 22.0625 C -0.566406 22.132812 -0.617188 22.195312 -0.671875 22.25 C -0.773438 22.300781 -0.878906 22.359375 -0.984375 22.421875 C -1.097656 22.484375 -1.207031 22.515625 -1.3125 22.515625 C -1.707031 22.609375 -2.15625 22.65625 -2.65625 22.65625 C -2.832031 22.707031 -2.96875 22.707031 -3.0625 22.65625 C -3.382812 22.5625 -3.675781 22.460938 -3.9375 22.359375 C -4.207031 22.253906 -4.476562 22.128906 -4.75 21.984375 C -5.269531 21.765625 -5.609375 21.425781 -5.765625 20.96875 C -5.785156 20.894531 -5.832031 20.835938 -5.90625 20.796875 C -5.976562 20.765625 -6.039062 20.703125 -6.09375 20.609375 C -6.164062 20.398438 -6.238281 20.203125 -6.3125 20.015625 C -6.394531 19.835938 -6.5 19.625 -6.625 19.375 C -6.644531 19.320312 -6.660156 19.265625 -6.671875 19.203125 C -6.679688 19.140625 -6.703125 19.082031 -6.734375 19.03125 C -6.703125 18.90625 -6.6875 18.789062 -6.6875 18.6875 C -6.6875 18.59375 -6.675781 18.492188 -6.65625 18.390625 C -6.601562 18.046875 -6.554688 17.71875 -6.515625 17.40625 C -6.484375 17.09375 -6.429688 16.785156 -6.359375 16.484375 C -6.304688 16.234375 -6.253906 15.976562 -6.203125 15.71875 C -6.148438 15.457031 -6.078125 15.191406 -5.984375 14.921875 C -5.953125 14.867188 -5.914062 14.816406 -5.875 14.765625 L -5.640625 13.953125 L -5.390625 13.421875 C -5.210938 13.078125 -5.03125 12.75 -4.84375 12.4375 C -4.65625 12.125 -4.472656 11.816406 -4.296875 11.515625 C -4.117188 11.242188 -3.910156 10.957031 -3.671875 10.65625 C -3.441406 10.351562 -3.238281 10.066406 -3.0625 9.796875 L -2.171875 8.859375 C -2.117188 8.804688 -2.023438 8.710938 -1.890625 8.578125 C -1.753906 8.441406 -1.632812 8.335938 -1.53125 8.265625 C -1.4375 8.160156 -1.332031 8.039062 -1.21875 7.90625 C -1.101562 7.769531 -0.957031 7.648438 -0.78125 7.546875 C -0.488281 7.328125 -0.191406 7.109375 0.109375 6.890625 C 0.410156 6.679688 0.722656 6.46875 1.046875 6.25 C 1.566406 5.800781 2.140625 5.453125 2.765625 5.203125 L 4.1875 4.40625 C 4.457031 4.28125 4.734375 4.164062 5.015625 4.0625 C 5.304688 3.96875 5.578125 3.847656 5.828125 3.703125 L 5.984375 3.671875 C 6.378906 3.566406 6.566406 3.316406 6.546875 2.921875 C 6.515625 2.890625 6.5 2.828125 6.5 2.734375 C 6.53125 2.628906 6.550781 2.53125 6.5625 2.4375 C 6.570312 2.351562 6.601562 2.265625 6.65625 2.171875 C 6.601562 1.722656 6.617188 1.40625 6.703125 1.21875 C 6.796875 1.03125 6.84375 0.859375 6.84375 0.703125 L 6.875 0.640625 C 6.925781 0.234375 6.988281 -0.160156 7.0625 -0.546875 C 7.132812 -0.929688 7.210938 -1.296875 7.296875 -1.640625 C 7.265625 -1.617188 7.203125 -1.609375 7.109375 -1.609375 L 6.875 -1.640625 C 6.851562 -1.617188 6.828125 -1.582031 6.796875 -1.53125 C 6.773438 -1.476562 6.738281 -1.441406 6.6875 -1.421875 C 6.5625 -1.273438 6.460938 -1.175781 6.390625 -1.125 C 6.390625 -1.125 6.296875 -1.007812 6.109375 -0.78125 C 5.921875 -0.5625 5.679688 -0.335938 5.390625 -0.109375 L 5.390625 -0.078125 C 5.085938 0.0234375 4.847656 0.125 4.671875 0.21875 C 4.492188 0.320312 4.296875 0.410156 4.078125 0.484375 C 3.972656 0.515625 3.867188 0.539062 3.765625 0.5625 C 3.671875 0.582031 3.550781 0.59375 3.40625 0.59375 C 3.28125 0.625 3.140625 0.640625 2.984375 0.640625 C 2.835938 0.640625 2.703125 0.625 2.578125 0.59375 L 1.640625 0.265625 C 1.597656 0.210938 1.554688 0.15625 1.515625 0.09375 C 1.472656 0.03125 1.429688 -0.0234375 1.390625 -0.078125 C 1.390625 -0.222656 1.3125 -0.320312 1.15625 -0.375 C 1.007812 -0.5 0.921875 -0.644531 0.890625 -0.8125 C 0.867188 -0.988281 0.847656 -1.164062 0.828125 -1.34375 C 0.722656 -1.644531 0.703125 -1.941406 0.765625 -2.234375 C 0.828125 -2.535156 0.910156 -2.828125 1.015625 -3.109375 C 1.054688 -3.234375 1.113281 -3.347656 1.1875 -3.453125 C 1.269531 -3.566406 1.320312 -3.675781 1.34375 -3.78125 C 1.394531 -3.875 1.445312 -3.984375 1.5 -4.109375 C 1.550781 -4.234375 1.625 -4.375 1.71875 -4.53125 C 1.738281 -4.53125 1.75 -4.539062 1.75 -4.5625 C 1.957031 -4.738281 2.113281 -4.960938 2.21875 -5.234375 C 2.332031 -5.503906 2.503906 -5.726562 2.734375 -5.90625 C 2.859375 -5.976562 3.035156 -6.117188 3.265625 -6.328125 C 3.503906 -6.546875 3.675781 -6.664062 3.78125 -6.6875 C 3.976562 -6.769531 4.1875 -6.828125 4.40625 -6.859375 C 4.632812 -6.898438 4.847656 -6.882812 5.046875 -6.8125 C 5.148438 -6.78125 5.265625 -6.769531 5.390625 -6.78125 C 5.515625 -6.800781 5.613281 -6.796875 5.6875 -6.765625 C 5.8125 -6.671875 5.972656 -6.597656 6.171875 -6.546875 C 6.367188 -6.492188 6.519531 -6.429688 6.625 -6.359375 C 6.820312 -6.203125 6.984375 -6.066406 7.109375 -5.953125 C 7.234375 -5.847656 7.367188 -5.695312 7.515625 -5.5 L 7.78125 -5.015625 C 7.90625 -5.109375 8.019531 -5.234375 8.125 -5.390625 C 8.238281 -5.554688 8.347656 -5.664062 8.453125 -5.71875 L 8.90625 -5.609375 C 9.175781 -5.585938 9.472656 -5.523438 9.796875 -5.421875 L 9.6875 -4.71875 C 9.613281 -4.59375 9.554688 -4.445312 9.515625 -4.28125 C 9.472656 -4.113281 9.429688 -3.96875 9.390625 -3.84375 C 9.359375 -3.75 9.328125 -3.648438 9.296875 -3.546875 C 9.273438 -3.453125 9.253906 -3.351562 9.234375 -3.25 C 9.085938 -2.65625 8.96875 -2.070312 8.875 -1.5 C 8.789062 -0.925781 8.6875 -0.351562 8.5625 0.21875 C 8.507812 0.5 8.488281 0.769531 8.5 1.03125 C 8.519531 1.289062 8.46875 1.554688 8.34375 1.828125 C 8.3125 2.003906 8.296875 2.171875 8.296875 2.328125 C 8.296875 2.492188 8.269531 2.648438 8.21875 2.796875 C 8.21875 2.796875 8.222656 2.828125 8.234375 2.890625 C 8.253906 2.953125 8.273438 2.984375 8.296875 2.984375 C 8.546875 2.960938 8.78125 2.929688 9 2.890625 C 9.226562 2.859375 9.46875 2.828125 9.71875 2.796875 C 10.164062 2.753906 10.601562 2.753906 11.03125 2.796875 Z M 6.65625 -3.359375 C 6.78125 -3.335938 6.863281 -3.367188 6.90625 -3.453125 C 6.957031 -3.546875 7 -3.617188 7.03125 -3.671875 C 6.957031 -3.710938 6.894531 -3.765625 6.84375 -3.828125 C 6.789062 -3.890625 6.738281 -3.945312 6.6875 -4 C 6.519531 -4.175781 6.472656 -4.375 6.546875 -4.59375 C 6.566406 -4.71875 6.539062 -4.90625 6.46875 -5.15625 C 6.394531 -5.40625 6.332031 -5.546875 6.28125 -5.578125 C 6.207031 -5.703125 6.09375 -5.765625 5.9375 -5.765625 C 5.664062 -5.734375 5.394531 -5.671875 5.125 -5.578125 C 4.851562 -5.492188 4.613281 -5.34375 4.40625 -5.125 C 4.257812 -5 4.109375 -4.878906 3.953125 -4.765625 C 3.804688 -4.648438 3.671875 -4.53125 3.546875 -4.40625 C 3.523438 -4.382812 3.488281 -4.34375 3.4375 -4.28125 C 3.382812 -4.21875 3.335938 -4.160156 3.296875 -4.109375 L 3.328125 -3.921875 C 3.222656 -3.796875 3.113281 -3.671875 3 -3.546875 C 2.894531 -3.421875 2.789062 -3.285156 2.6875 -3.140625 C 2.59375 -2.910156 2.5 -2.679688 2.40625 -2.453125 C 2.320312 -2.234375 2.226562 -2.023438 2.125 -1.828125 C 2.082031 -1.660156 2.039062 -1.5 2 -1.34375 C 1.957031 -1.195312 1.976562 -1.035156 2.0625 -0.859375 C 2.101562 -0.859375 2.160156 -0.863281 2.234375 -0.875 C 2.316406 -0.882812 2.394531 -0.890625 2.46875 -0.890625 C 2.738281 -0.921875 3 -0.976562 3.25 -1.0625 C 3.5 -1.15625 3.757812 -1.25 4.03125 -1.34375 L 5.078125 -1.9375 L 5.125 -1.9375 C 5.269531 -2.1875 5.484375 -2.375 5.765625 -2.5 C 5.804688 -2.5 5.84375 -2.523438 5.875 -2.578125 C 5.914062 -2.628906 5.953125 -2.664062 5.984375 -2.6875 C 6.054688 -2.8125 6.164062 -2.898438 6.3125 -2.953125 C 6.46875 -3.003906 6.554688 -3.117188 6.578125 -3.296875 C 6.578125 -3.335938 6.601562 -3.359375 6.65625 -3.359375 Z M 5.984375 6.46875 C 6.035156 6.238281 6.078125 6.003906 6.109375 5.765625 C 6.148438 5.535156 6.207031 5.304688 6.28125 5.078125 C 6.132812 5.109375 6 5.160156 5.875 5.234375 C 5.75 5.304688 5.625 5.367188 5.5 5.421875 C 5.019531 5.597656 4.566406 5.785156 4.140625 5.984375 C 3.722656 6.179688 3.300781 6.429688 2.875 6.734375 C 2.625 6.898438 2.347656 7.070312 2.046875 7.25 C 1.753906 7.425781 1.472656 7.613281 1.203125 7.8125 C 0.992188 7.957031 0.769531 8.09375 0.53125 8.21875 C 0.300781 8.34375 0.0703125 8.507812 -0.15625 8.71875 C -0.226562 8.8125 -0.328125 8.90625 -0.453125 9 C -0.578125 9.101562 -0.675781 9.207031 -0.75 9.3125 C -0.84375 9.40625 -0.941406 9.476562 -1.046875 9.53125 C -1.148438 9.582031 -1.238281 9.644531 -1.3125 9.71875 C -1.488281 9.894531 -1.6875 10.132812 -1.90625 10.4375 C -2.03125 10.53125 -2.15625 10.640625 -2.28125 10.765625 C -2.40625 10.890625 -2.53125 11.015625 -2.65625 11.140625 C -2.675781 11.191406 -2.757812 11.3125 -2.90625 11.5 C -3.0625 11.6875 -3.203125 11.878906 -3.328125 12.078125 C -3.453125 12.273438 -3.515625 12.410156 -3.515625 12.484375 L -4.296875 13.640625 C -4.328125 13.640625 -4.40625 13.757812 -4.53125 14 C -4.65625 14.238281 -4.738281 14.421875 -4.78125 14.546875 C -4.90625 14.691406 -4.984375 14.863281 -5.015625 15.0625 C -5.054688 15.21875 -5.085938 15.378906 -5.109375 15.546875 C -5.140625 15.722656 -5.179688 15.875 -5.234375 16 C -5.285156 16.25 -5.347656 16.5 -5.421875 16.75 C -5.492188 17 -5.546875 17.257812 -5.578125 17.53125 C -5.597656 17.882812 -5.59375 18.222656 -5.5625 18.546875 C -5.539062 18.867188 -5.519531 19.207031 -5.5 19.5625 C -5.445312 19.925781 -5.328125 20.234375 -5.140625 20.484375 C -4.953125 20.734375 -4.707031 20.945312 -4.40625 21.125 L -4.21875 21.28125 C -4.125 21.320312 -4.078125 21.34375 -4.078125 21.34375 C -3.804688 21.445312 -3.550781 21.507812 -3.3125 21.53125 C -3.070312 21.5625 -2.84375 21.523438 -2.625 21.421875 C -2.5 21.367188 -2.359375 21.304688 -2.203125 21.234375 C -2.054688 21.160156 -1.929688 21.113281 -1.828125 21.09375 C -1.503906 20.988281 -1.21875 20.84375 -0.96875 20.65625 C -0.71875 20.46875 -0.46875 20.273438 -0.21875 20.078125 C 0.03125 19.878906 0.257812 19.660156 0.46875 19.421875 C 0.675781 19.179688 0.878906 18.953125 1.078125 18.734375 C 1.378906 18.359375 1.640625 17.992188 1.859375 17.640625 C 2.085938 17.296875 2.328125 16.9375 2.578125 16.5625 C 2.847656 16.1875 3.070312 15.804688 3.25 15.421875 C 3.425781 15.035156 3.613281 14.644531 3.8125 14.25 C 3.957031 13.945312 4.082031 13.65625 4.1875 13.375 C 4.289062 13.101562 4.390625 12.820312 4.484375 12.53125 C 4.640625 12.082031 4.789062 11.644531 4.9375 11.21875 C 5.082031 10.789062 5.207031 10.351562 5.3125 9.90625 C 5.40625 9.5625 5.484375 9.210938 5.546875 8.859375 C 5.609375 8.515625 5.679688 8.179688 5.765625 7.859375 C 5.804688 7.679688 5.851562 7.476562 5.90625 7.25 C 5.957031 7.03125 5.984375 6.820312 5.984375 6.625 Z M 5.984375 6.46875 "/></g></g></g><g fill="#d883b7" fill-opacity="1"><g transform="translate(80.928286, 37.738044)"><g><path d="M 9.828125 -3.671875 L 9.265625 -3.171875 C 9.242188 -3.148438 9.21875 -3.109375 9.1875 -3.046875 C 9.164062 -2.984375 9.109375 -2.925781 9.015625 -2.875 L 8.90625 -2.734375 C 8.726562 -2.660156 8.6875 -2.570312 8.78125 -2.46875 C 8.707031 -2.414062 8.640625 -2.359375 8.578125 -2.296875 C 8.515625 -2.234375 8.472656 -2.140625 8.453125 -2.015625 L 8.453125 -1.984375 C 8.421875 -1.929688 8.378906 -1.875 8.328125 -1.8125 C 8.285156 -1.75 8.25 -1.707031 8.21875 -1.6875 C 8.09375 -1.5625 7.929688 -1.421875 7.734375 -1.265625 L 7.03125 -0.703125 C 6.882812 -0.628906 6.75 -0.554688 6.625 -0.484375 C 6.5 -0.410156 6.375 -0.320312 6.25 -0.21875 C 6.070312 -0.125 5.90625 -0.0195312 5.75 0.09375 C 5.601562 0.207031 5.429688 0.300781 5.234375 0.375 C 5.128906 0.425781 5.007812 0.457031 4.875 0.46875 C 4.738281 0.476562 4.609375 0.5 4.484375 0.53125 C 4.390625 0.53125 4.28125 0.566406 4.15625 0.640625 C 4.070312 0.660156 3.976562 0.679688 3.875 0.703125 C 3.78125 0.734375 3.6875 0.757812 3.59375 0.78125 C 3.4375 0.8125 3.289062 0.84375 3.15625 0.875 C 3.019531 0.914062 2.878906 0.921875 2.734375 0.890625 C 2.304688 0.847656 1.929688 0.773438 1.609375 0.671875 C 1.429688 0.617188 1.289062 0.566406 1.1875 0.515625 C 1.09375 0.472656 0.945312 0.375 0.75 0.21875 C 0.71875 0.175781 0.679688 0.144531 0.640625 0.125 C 0.609375 0.113281 0.582031 0.0976562 0.5625 0.078125 C 0.4375 -0.0234375 0.328125 -0.128906 0.234375 -0.234375 C 0.148438 -0.347656 0.046875 -0.492188 -0.078125 -0.671875 C -0.0976562 -0.722656 -0.113281 -0.765625 -0.125 -0.796875 C -0.144531 -0.835938 -0.175781 -0.945312 -0.21875 -1.125 C -0.320312 -1.34375 -0.375 -1.523438 -0.375 -1.671875 C -0.375 -1.828125 -0.375 -1.96875 -0.375 -2.09375 C -0.320312 -2.84375 -0.125 -3.566406 0.21875 -4.265625 C 0.300781 -4.390625 0.378906 -4.503906 0.453125 -4.609375 C 0.523438 -4.722656 0.609375 -4.832031 0.703125 -4.9375 C 0.878906 -5.132812 1.046875 -5.332031 1.203125 -5.53125 C 1.367188 -5.726562 1.539062 -5.914062 1.71875 -6.09375 C 2.09375 -6.46875 2.503906 -6.664062 2.953125 -6.6875 C 3.003906 -6.6875 3.0625 -6.691406 3.125 -6.703125 C 3.1875 -6.722656 3.253906 -6.742188 3.328125 -6.765625 C 3.523438 -6.835938 3.703125 -6.832031 3.859375 -6.75 C 4.023438 -6.664062 4.171875 -6.582031 4.296875 -6.5 C 4.472656 -6.425781 4.632812 -6.335938 4.78125 -6.234375 C 4.9375 -6.140625 5.078125 -6.03125 5.203125 -5.90625 C 5.347656 -5.8125 5.457031 -5.640625 5.53125 -5.390625 C 5.601562 -5.140625 5.617188 -4.9375 5.578125 -4.78125 C 5.492188 -4.582031 5.390625 -4.421875 5.265625 -4.296875 C 5.097656 -4.117188 4.929688 -3.941406 4.765625 -3.765625 C 4.609375 -3.597656 4.441406 -3.425781 4.265625 -3.25 C 4.210938 -3.195312 4.140625 -3.148438 4.046875 -3.109375 C 3.960938 -3.078125 3.910156 -3.035156 3.890625 -2.984375 C 3.859375 -2.859375 3.789062 -2.773438 3.6875 -2.734375 C 3.59375 -2.703125 3.507812 -2.664062 3.4375 -2.625 L 2.921875 -2.25 C 2.890625 -2.21875 2.875 -2.179688 2.875 -2.140625 C 2.875 -2.109375 2.863281 -2.082031 2.84375 -2.0625 C 2.71875 -1.976562 2.585938 -1.90625 2.453125 -1.84375 C 2.316406 -1.78125 2.1875 -1.710938 2.0625 -1.640625 C 2.007812 -1.617188 1.960938 -1.585938 1.921875 -1.546875 C 1.890625 -1.515625 1.847656 -1.472656 1.796875 -1.421875 C 1.648438 -1.347656 1.53125 -1.289062 1.4375 -1.25 C 1.351562 -1.21875 1.25 -1.160156 1.125 -1.078125 C 1.195312 -0.859375 1.265625 -0.710938 1.328125 -0.640625 C 1.390625 -0.566406 1.492188 -0.503906 1.640625 -0.453125 C 1.890625 -0.472656 2.132812 -0.484375 2.375 -0.484375 C 2.613281 -0.484375 2.859375 -0.5 3.109375 -0.53125 C 3.273438 -0.550781 3.4375 -0.59375 3.59375 -0.65625 C 3.757812 -0.71875 3.929688 -0.773438 4.109375 -0.828125 C 4.234375 -0.867188 4.367188 -0.925781 4.515625 -1 C 4.671875 -1.082031 4.820312 -1.148438 4.96875 -1.203125 C 5.070312 -1.242188 5.164062 -1.269531 5.25 -1.28125 C 5.34375 -1.300781 5.4375 -1.335938 5.53125 -1.390625 L 6.765625 -2.09375 L 6.875 -2.171875 C 7.050781 -2.296875 7.285156 -2.441406 7.578125 -2.609375 C 7.878906 -2.785156 8.117188 -2.925781 8.296875 -3.03125 C 8.367188 -3.082031 8.457031 -3.128906 8.5625 -3.171875 C 8.664062 -3.222656 8.726562 -3.265625 8.75 -3.296875 L 10.015625 -4.21875 L 10.09375 -3.96875 C 10.09375 -3.96875 10.097656 -3.96875 10.109375 -3.96875 C 10.128906 -3.96875 10.140625 -3.953125 10.140625 -3.921875 C 10.085938 -3.898438 10.035156 -3.863281 9.984375 -3.8125 C 9.929688 -3.757812 9.878906 -3.710938 9.828125 -3.671875 Z M 1.34375 -3.359375 C 1.289062 -3.265625 1.242188 -3.144531 1.203125 -3 C 1.171875 -2.863281 1.128906 -2.722656 1.078125 -2.578125 C 1.234375 -2.679688 1.359375 -2.765625 1.453125 -2.828125 C 1.554688 -2.890625 1.644531 -2.941406 1.71875 -2.984375 L 2.734375 -3.8125 L 3.734375 -4.71875 C 3.859375 -4.8125 3.957031 -4.914062 4.03125 -5.03125 C 4.113281 -5.144531 4.191406 -5.265625 4.265625 -5.390625 C 4.316406 -5.484375 4.3125 -5.59375 4.25 -5.71875 C 4.1875 -5.84375 4.113281 -5.878906 4.03125 -5.828125 C 3.863281 -5.753906 3.695312 -5.703125 3.53125 -5.671875 C 3.375 -5.648438 3.21875 -5.578125 3.0625 -5.453125 C 2.882812 -5.328125 2.710938 -5.207031 2.546875 -5.09375 C 2.390625 -4.988281 2.25 -4.847656 2.125 -4.671875 C 1.851562 -4.296875 1.59375 -3.859375 1.34375 -3.359375 Z M 1.34375 -3.359375 "/></g></g></g><g fill="#d883b7" fill-opacity="1"><g transform="translate(90.351842, 37.738044)"><g/></g></g><g fill="#d883b7" fill-opacity="1"><g transform="translate(97.456909, 37.738044)"><g><path d="M 18.015625 5.15625 C 17.816406 5.15625 17.601562 5.140625 17.375 5.109375 C 17.15625 5.085938 16.9375 5.066406 16.71875 5.046875 C 15.894531 5.023438 15.132812 4.664062 14.4375 3.96875 C 14.3125 3.8125 14.15625 3.660156 13.96875 3.515625 C 13.78125 3.367188 13.609375 3.207031 13.453125 3.03125 C 13.085938 2.476562 12.789062 1.890625 12.5625 1.265625 C 12.34375 0.648438 12.171875 0.03125 12.046875 -0.59375 C 11.992188 -1 11.953125 -1.378906 11.921875 -1.734375 C 11.898438 -2.097656 11.890625 -2.476562 11.890625 -2.875 C 11.867188 -3.300781 11.875 -3.6875 11.90625 -4.03125 C 11.945312 -4.382812 11.976562 -4.757812 12 -5.15625 C 12.03125 -5.28125 12.054688 -5.429688 12.078125 -5.609375 C 12.097656 -5.785156 12.082031 -5.894531 12.03125 -5.9375 C 11.988281 -5.988281 11.867188 -5.90625 11.671875 -5.6875 C 11.191406 -5.0625 10.738281 -4.425781 10.3125 -3.78125 C 10.09375 -3.53125 9.867188 -3.265625 9.640625 -2.984375 C 9.421875 -2.710938 9.210938 -2.441406 9.015625 -2.171875 C 9.015625 -2.222656 8.898438 -2.070312 8.671875 -1.71875 C 8.453125 -1.375 8.1875 -0.957031 7.875 -0.46875 C 7.5625 0.0195312 7.257812 0.46875 6.96875 0.875 C 6.6875 1.289062 6.492188 1.5625 6.390625 1.6875 C 6.265625 1.8125 6.140625 1.957031 6.015625 2.125 C 5.890625 2.300781 5.765625 2.476562 5.640625 2.65625 C 5.242188 3.332031 4.6875 3.851562 3.96875 4.21875 C 3.882812 4.269531 3.773438 4.304688 3.640625 4.328125 C 3.503906 4.359375 3.398438 4.375 3.328125 4.375 C 3.078125 4.375 2.890625 4.273438 2.765625 4.078125 C 2.765625 4.023438 2.742188 3.992188 2.703125 3.984375 C 2.671875 3.972656 2.65625 3.96875 2.65625 3.96875 C 2.351562 3.882812 2.15625 3.722656 2.0625 3.484375 C 1.976562 3.253906 1.9375 3.015625 1.9375 2.765625 C 1.894531 2.210938 1.875 1.671875 1.875 1.140625 C 1.875 0.609375 1.910156 0.0664062 1.984375 -0.484375 C 2.054688 -1.054688 2.164062 -1.597656 2.3125 -2.109375 C 2.46875 -2.617188 2.617188 -3.148438 2.765625 -3.703125 C 3.191406 -5.171875 3.609375 -6.640625 4.015625 -8.109375 C 4.429688 -9.578125 4.863281 -11.050781 5.3125 -12.53125 C 5.332031 -12.675781 5.367188 -12.8125 5.421875 -12.9375 C 5.472656 -13.0625 5.535156 -13.195312 5.609375 -13.34375 C 5.828125 -13.71875 6.175781 -13.84375 6.65625 -13.71875 C 6.675781 -13.644531 6.765625 -13.582031 6.921875 -13.53125 C 7.316406 -13.3125 7.453125 -13 7.328125 -12.59375 C 7.253906 -12.226562 7.160156 -11.863281 7.046875 -11.5 C 6.929688 -11.132812 6.835938 -10.765625 6.765625 -10.390625 L 5.203125 -5.125 C 5.078125 -4.675781 4.957031 -4.242188 4.84375 -3.828125 C 4.726562 -3.421875 4.582031 -3.003906 4.40625 -2.578125 C 4.28125 -2.109375 4.164062 -1.625 4.0625 -1.125 C 3.96875 -0.625 3.859375 -0.132812 3.734375 0.34375 C 3.660156 0.613281 3.617188 0.882812 3.609375 1.15625 C 3.597656 1.4375 3.59375 1.710938 3.59375 1.984375 C 3.71875 2.035156 3.8125 2.035156 3.875 1.984375 C 3.9375 1.929688 3.976562 1.878906 4 1.828125 C 4.269531 1.554688 4.535156 1.300781 4.796875 1.0625 C 5.066406 0.820312 5.328125 0.554688 5.578125 0.265625 C 6.023438 -0.234375 6.472656 -0.765625 6.921875 -1.328125 C 7.367188 -1.890625 7.828125 -2.441406 8.296875 -2.984375 C 8.972656 -3.785156 9.640625 -4.597656 10.296875 -5.421875 C 10.960938 -6.242188 11.617188 -7.078125 12.265625 -7.921875 C 12.460938 -8.117188 12.648438 -8.335938 12.828125 -8.578125 C 13.003906 -8.816406 13.175781 -9.0625 13.34375 -9.3125 C 13.664062 -9.78125 14.128906 -9.992188 14.734375 -9.953125 C 15.054688 -9.921875 15.253906 -9.796875 15.328125 -9.578125 C 15.378906 -9.367188 15.40625 -9.191406 15.40625 -9.046875 C 15.40625 -8.898438 15.351562 -8.75 15.25 -8.59375 C 14.832031 -7.875 14.507812 -7.109375 14.28125 -6.296875 C 14.0625 -5.484375 13.890625 -4.664062 13.765625 -3.84375 C 13.734375 -3.675781 13.722656 -3.503906 13.734375 -3.328125 C 13.753906 -3.148438 13.765625 -2.988281 13.765625 -2.84375 C 13.765625 -2.46875 13.742188 -2.101562 13.703125 -1.75 C 13.660156 -1.40625 13.65625 -1.054688 13.6875 -0.703125 C 13.738281 -0.234375 13.8125 0.222656 13.90625 0.671875 C 14.007812 1.117188 14.148438 1.539062 14.328125 1.9375 C 14.472656 2.238281 14.628906 2.523438 14.796875 2.796875 C 14.972656 3.078125 15.148438 3.367188 15.328125 3.671875 C 15.503906 3.890625 15.78125 4 16.15625 4 C 16.28125 4 16.421875 3.984375 16.578125 3.953125 C 16.742188 3.929688 16.914062 3.894531 17.09375 3.84375 C 17.582031 3.75 18.054688 3.585938 18.515625 3.359375 C 18.984375 3.140625 19.40625 2.867188 19.78125 2.546875 C 20.125 2.242188 20.425781 1.882812 20.6875 1.46875 C 20.957031 1.0625 21.238281 0.6875 21.53125 0.34375 C 21.882812 -0.3125 22.140625 -0.847656 22.296875 -1.265625 C 22.460938 -1.691406 22.59375 -2.097656 22.6875 -2.484375 C 22.789062 -2.867188 22.90625 -3.300781 23.03125 -3.78125 C 23.300781 -4.601562 23.523438 -5.4375 23.703125 -6.28125 C 23.878906 -7.125 24.003906 -7.957031 24.078125 -8.78125 C 24.148438 -9.15625 24.203125 -9.503906 24.234375 -9.828125 C 24.273438 -10.148438 24.3125 -10.5 24.34375 -10.875 C 24.414062 -11.375 24.453125 -11.882812 24.453125 -12.40625 C 24.453125 -12.9375 24.453125 -13.472656 24.453125 -14.015625 C 24.429688 -14.515625 24.332031 -14.976562 24.15625 -15.40625 C 24.101562 -15.601562 24.015625 -15.863281 23.890625 -16.1875 C 23.765625 -16.507812 23.753906 -16.671875 23.859375 -16.671875 C 23.910156 -16.703125 23.984375 -16.707031 24.078125 -16.6875 C 24.179688 -16.675781 24.242188 -16.671875 24.265625 -16.671875 C 24.566406 -16.722656 24.84375 -16.625 25.09375 -16.375 C 25.34375 -16.125 25.539062 -15.835938 25.6875 -15.515625 C 25.832031 -15.191406 25.921875 -14.914062 25.953125 -14.6875 C 26.003906 -14.46875 26.035156 -14.09375 26.046875 -13.5625 C 26.054688 -13.039062 26.046875 -12.472656 26.015625 -11.859375 C 25.992188 -11.253906 25.945312 -10.703125 25.875 -10.203125 C 25.769531 -9.335938 25.617188 -8.515625 25.421875 -7.734375 C 25.222656 -6.960938 24.972656 -6.128906 24.671875 -5.234375 C 24.597656 -5.003906 24.523438 -4.691406 24.453125 -4.296875 C 24.378906 -3.898438 24.320312 -3.53125 24.28125 -3.1875 C 24.25 -2.851562 24.21875 -2.648438 24.1875 -2.578125 C 23.914062 -2.304688 23.867188 -2.054688 24.046875 -1.828125 C 24.117188 -1.734375 24.109375 -1.515625 24.015625 -1.171875 C 23.929688 -0.835938 23.851562 -0.609375 23.78125 -0.484375 C 23.726562 -0.429688 23.640625 -0.285156 23.515625 -0.046875 C 23.390625 0.179688 23.273438 0.414062 23.171875 0.65625 C 23.078125 0.894531 23.019531 1.050781 23 1.125 C 22.894531 1.300781 22.789062 1.476562 22.6875 1.65625 C 22.59375 1.84375 22.484375 2.015625 22.359375 2.171875 C 22.179688 2.367188 21.988281 2.578125 21.78125 2.796875 C 21.570312 3.023438 21.21875 3.316406 20.71875 3.671875 C 20.613281 3.671875 20.488281 3.71875 20.34375 3.8125 C 20.09375 4.007812 19.847656 4.203125 19.609375 4.390625 C 19.367188 4.578125 19.113281 4.757812 18.84375 4.9375 C 18.625 5.082031 18.347656 5.15625 18.015625 5.15625 Z M 18.015625 5.15625 "/></g></g></g><g fill="#d883b7" fill-opacity="1"><g transform="translate(125.054478, 37.738044)"><g><path d="M 14.171875 -4.96875 C 13.992188 -4.695312 13.769531 -4.441406 13.5 -4.203125 C 13.226562 -3.960938 12.96875 -3.757812 12.71875 -3.59375 C 12.613281 -3.519531 12.503906 -3.457031 12.390625 -3.40625 C 12.285156 -3.351562 12.207031 -3.300781 12.15625 -3.25 C 12.101562 -3.195312 12.039062 -3.132812 11.96875 -3.0625 C 11.894531 -2.988281 11.804688 -2.925781 11.703125 -2.875 C 11.679688 -2.851562 11.617188 -2.789062 11.515625 -2.6875 C 11.410156 -2.59375 11.335938 -2.53125 11.296875 -2.5 L 10.734375 -2.015625 L 9.828125 -1.34375 C 9.679688 -1.164062 9.523438 -1.039062 9.359375 -0.96875 C 9.203125 -0.894531 9.023438 -0.796875 8.828125 -0.671875 C 8.722656 -0.617188 8.632812 -0.585938 8.5625 -0.578125 C 8.488281 -0.566406 8.398438 -0.535156 8.296875 -0.484375 C 8.273438 -0.460938 8.21875 -0.4375 8.125 -0.40625 C 8.039062 -0.382812 7.972656 -0.375 7.921875 -0.375 C 7.898438 -0.375 7.851562 -0.359375 7.78125 -0.328125 C 7.707031 -0.304688 7.644531 -0.296875 7.59375 -0.296875 C 7.519531 -0.296875 7.410156 -0.28125 7.265625 -0.25 C 7.128906 -0.226562 7.023438 -0.234375 6.953125 -0.265625 C 6.929688 -0.285156 6.875 -0.300781 6.78125 -0.3125 C 6.695312 -0.332031 6.628906 -0.351562 6.578125 -0.375 C 6.523438 -0.394531 6.472656 -0.429688 6.421875 -0.484375 C 6.378906 -0.535156 6.332031 -0.570312 6.28125 -0.59375 C 6.175781 -0.75 6.0625 -0.875 5.9375 -0.96875 C 5.820312 -1.070312 5.722656 -1.210938 5.640625 -1.390625 C 5.546875 -1.515625 5.484375 -1.597656 5.453125 -1.640625 C 5.429688 -1.691406 5.394531 -1.769531 5.34375 -1.875 C 5.320312 -1.894531 5.300781 -1.921875 5.28125 -1.953125 C 5.269531 -1.992188 5.253906 -2.03125 5.234375 -2.0625 C 5.109375 -1.976562 5.019531 -1.867188 4.96875 -1.734375 C 4.914062 -1.597656 4.832031 -1.53125 4.71875 -1.53125 C 4.6875 -1.507812 4.65625 -1.472656 4.625 -1.421875 C 4.601562 -1.367188 4.570312 -1.332031 4.53125 -1.3125 C 4.300781 -1.132812 4.039062 -0.9375 3.75 -0.71875 C 3.46875 -0.507812 3.175781 -0.34375 2.875 -0.21875 C 2.28125 0.0703125 1.679688 0.09375 1.078125 -0.15625 C 0.953125 -0.15625 0.851562 -0.164062 0.78125 -0.1875 C 0.6875 -0.289062 0.488281 -0.414062 0.1875 -0.5625 C -0.164062 -1.007812 -0.265625 -1.507812 -0.109375 -2.0625 C 0.015625 -2.332031 0.101562 -2.554688 0.15625 -2.734375 C 0.175781 -2.753906 0.1875 -2.773438 0.1875 -2.796875 C 0.207031 -2.921875 0.242188 -3.035156 0.296875 -3.140625 C 0.347656 -3.242188 0.382812 -3.359375 0.40625 -3.484375 L 0.671875 -3.921875 C 0.742188 -4.023438 0.804688 -4.117188 0.859375 -4.203125 C 0.910156 -4.296875 0.945312 -4.351562 0.96875 -4.375 C 1.164062 -4.695312 1.382812 -4.984375 1.625 -5.234375 C 1.863281 -5.484375 2.09375 -5.742188 2.3125 -6.015625 C 2.539062 -6.265625 2.8125 -6.488281 3.125 -6.6875 C 3.4375 -6.882812 3.765625 -7 4.109375 -7.03125 C 4.515625 -6.957031 4.898438 -6.847656 5.265625 -6.703125 C 5.640625 -6.566406 5.863281 -6.289062 5.9375 -5.875 C 5.988281 -5.625 5.960938 -5.40625 5.859375 -5.21875 C 5.765625 -5.03125 5.671875 -4.835938 5.578125 -4.640625 C 5.722656 -4.660156 5.867188 -4.71875 6.015625 -4.8125 C 6.171875 -4.914062 6.359375 -4.957031 6.578125 -4.9375 C 6.804688 -4.863281 6.957031 -4.6875 7.03125 -4.40625 C 7.03125 -4.40625 7.03125 -4.320312 7.03125 -4.15625 C 7.03125 -4 7.003906 -3.847656 6.953125 -3.703125 C 6.929688 -3.679688 6.921875 -3.65625 6.921875 -3.625 C 6.921875 -3.601562 6.90625 -3.566406 6.875 -3.515625 C 6.832031 -3.265625 6.816406 -3 6.828125 -2.71875 C 6.835938 -2.445312 6.890625 -2.175781 6.984375 -1.90625 C 7.035156 -1.726562 7.148438 -1.59375 7.328125 -1.5 C 7.398438 -1.46875 7.488281 -1.46875 7.59375 -1.5 C 7.644531 -1.519531 7.707031 -1.535156 7.78125 -1.546875 C 7.851562 -1.566406 7.925781 -1.585938 8 -1.609375 C 8.300781 -1.734375 8.597656 -1.898438 8.890625 -2.109375 C 9.191406 -2.328125 9.46875 -2.519531 9.71875 -2.6875 C 9.96875 -2.84375 10.226562 -3.003906 10.5 -3.171875 C 10.78125 -3.347656 11.046875 -3.523438 11.296875 -3.703125 C 11.585938 -3.898438 11.800781 -4.035156 11.9375 -4.109375 C 12.082031 -4.179688 12.222656 -4.257812 12.359375 -4.34375 C 12.492188 -4.4375 12.695312 -4.570312 12.96875 -4.75 C 13.09375 -4.875 13.234375 -4.984375 13.390625 -5.078125 C 13.554688 -5.179688 13.726562 -5.285156 13.90625 -5.390625 L 14.015625 -5.3125 Z M 5.046875 -3.921875 C 5.066406 -3.921875 5.101562 -3.953125 5.15625 -4.015625 C 5.207031 -4.078125 5.234375 -4.109375 5.234375 -4.109375 L 5.203125 -4.109375 C 4.921875 -4.140625 4.75 -4.296875 4.6875 -4.578125 C 4.625 -4.867188 4.613281 -5.15625 4.65625 -5.4375 C 4.695312 -5.726562 4.71875 -5.875 4.71875 -5.875 C 4.34375 -5.820312 3.957031 -5.617188 3.5625 -5.265625 C 3.175781 -4.921875 2.832031 -4.554688 2.53125 -4.171875 C 2.238281 -3.785156 2.019531 -3.46875 1.875 -3.21875 C 1.695312 -2.914062 1.53125 -2.601562 1.375 -2.28125 C 1.226562 -1.957031 1.109375 -1.609375 1.015625 -1.234375 C 1.210938 -1.234375 1.457031 -1.242188 1.75 -1.265625 C 2.050781 -1.296875 2.289062 -1.347656 2.46875 -1.421875 C 2.894531 -1.597656 3.296875 -1.882812 3.671875 -2.28125 C 3.941406 -2.582031 4.171875 -2.859375 4.359375 -3.109375 C 4.546875 -3.359375 4.773438 -3.628906 5.046875 -3.921875 Z M 5.046875 -3.921875 "/></g></g></g><g fill="#d883b7" fill-opacity="1"><g transform="translate(137.170487, 37.738044)"><g><path d="M 1.125 1.71875 C 1.019531 1.664062 0.867188 1.535156 0.671875 1.328125 C 0.472656 1.117188 0.382812 0.9375 0.40625 0.78125 C 0.457031 0.457031 0.507812 0.140625 0.5625 -0.171875 C 0.613281 -0.484375 0.675781 -0.800781 0.75 -1.125 C 0.84375 -1.445312 0.941406 -1.773438 1.046875 -2.109375 C 1.148438 -2.453125 1.238281 -2.785156 1.3125 -3.109375 C 1.363281 -3.328125 1.40625 -3.539062 1.4375 -3.75 C 1.476562 -3.96875 1.507812 -4.1875 1.53125 -4.40625 C 1.53125 -4.488281 1.519531 -4.53125 1.5 -4.53125 C 1.445312 -4.570312 1.421875 -4.648438 1.421875 -4.765625 C 1.421875 -4.878906 1.429688 -4.984375 1.453125 -5.078125 C 1.484375 -5.304688 1.597656 -5.410156 1.796875 -5.390625 C 2.046875 -5.359375 2.253906 -5.273438 2.421875 -5.140625 C 2.597656 -5.003906 2.75 -4.835938 2.875 -4.640625 C 2.90625 -4.609375 2.921875 -4.582031 2.921875 -4.5625 C 2.890625 -4.414062 2.859375 -4.269531 2.828125 -4.125 C 2.804688 -3.988281 2.785156 -3.847656 2.765625 -3.703125 C 2.742188 -3.578125 2.734375 -3.457031 2.734375 -3.34375 C 2.734375 -3.226562 2.707031 -3.109375 2.65625 -2.984375 C 2.632812 -2.859375 2.597656 -2.734375 2.546875 -2.609375 C 2.492188 -2.492188 2.441406 -2.375 2.390625 -2.25 C 2.390625 -2.195312 2.378906 -2.144531 2.359375 -2.09375 C 2.378906 -2.113281 2.390625 -2.125 2.390625 -2.125 C 2.785156 -2.726562 3.195312 -3.242188 3.625 -3.671875 C 3.875 -3.960938 4.132812 -4.207031 4.40625 -4.40625 C 4.53125 -4.488281 4.734375 -4.539062 5.015625 -4.5625 C 5.160156 -4.5625 5.265625 -4.554688 5.328125 -4.546875 C 5.390625 -4.535156 5.445312 -4.515625 5.5 -4.484375 C 5.519531 -4.484375 5.78125 -4.359375 6.28125 -4.109375 C 6.300781 -4.015625 6.3125 -3.925781 6.3125 -3.84375 C 6.3125 -3.769531 6.351562 -3.710938 6.4375 -3.671875 C 6.4375 -3.671875 6.4375 -3.59375 6.4375 -3.4375 C 6.5625 -3.113281 6.632812 -2.78125 6.65625 -2.4375 C 6.65625 -2.28125 6.648438 -2.125 6.640625 -1.96875 C 6.628906 -1.820312 6.609375 -1.675781 6.578125 -1.53125 C 6.578125 -1.507812 6.582031 -1.46875 6.59375 -1.40625 C 6.613281 -1.34375 6.609375 -1.285156 6.578125 -1.234375 C 6.609375 -1.109375 6.625 -0.96875 6.625 -0.8125 C 6.625 -0.664062 6.625 -0.53125 6.625 -0.40625 L 6.734375 -0.03125 C 6.734375 -0.0078125 6.75 0.0234375 6.78125 0.078125 C 6.820312 0.128906 6.851562 0.164062 6.875 0.1875 L 6.984375 0.1875 C 7.015625 0.164062 7.070312 0.132812 7.15625 0.09375 C 7.25 0.0507812 7.457031 -0.0507812 7.78125 -0.21875 C 8.03125 -0.300781 8.238281 -0.414062 8.40625 -0.5625 L 11.890625 -3.890625 C 12.015625 -3.890625 12.101562 -3.859375 12.15625 -3.796875 C 12.207031 -3.734375 12.179688 -3.640625 12.078125 -3.515625 L 11.734375 -2.984375 C 11.710938 -2.890625 11.695312 -2.804688 11.6875 -2.734375 C 11.675781 -2.660156 11.644531 -2.582031 11.59375 -2.5 C 11.488281 -2.332031 11.363281 -2.1875 11.21875 -2.0625 L 10.578125 -1.3125 C 10.554688 -1.28125 10.535156 -1.234375 10.515625 -1.171875 C 10.503906 -1.109375 10.453125 -1.054688 10.359375 -1.015625 C 10.359375 -1.015625 10.359375 -1 10.359375 -0.96875 C 10.359375 -0.945312 10.367188 -0.921875 10.390625 -0.890625 C 10.367188 -0.867188 10.335938 -0.859375 10.296875 -0.859375 C 10.265625 -0.859375 10.25 -0.847656 10.25 -0.828125 C 10.175781 -0.671875 10.066406 -0.53125 9.921875 -0.40625 C 9.785156 -0.28125 9.65625 -0.15625 9.53125 -0.03125 C 9.4375 0.09375 9.304688 0.21875 9.140625 0.34375 C 8.984375 0.46875 8.816406 0.585938 8.640625 0.703125 C 8.390625 0.878906 8.109375 0.992188 7.796875 1.046875 C 7.484375 1.097656 7.191406 1.148438 6.921875 1.203125 L 6.875 1.203125 C 6.75 1.148438 6.648438 1.101562 6.578125 1.0625 C 6.503906 1.03125 6.414062 0.960938 6.3125 0.859375 C 6.144531 0.734375 5.988281 0.582031 5.84375 0.40625 C 5.707031 0.238281 5.601562 0.03125 5.53125 -0.21875 C 5.4375 -0.539062 5.363281 -0.875 5.3125 -1.21875 C 5.257812 -1.570312 5.242188 -1.953125 5.265625 -2.359375 C 5.265625 -2.453125 5.269531 -2.5625 5.28125 -2.6875 C 5.300781 -2.8125 5.3125 -2.925781 5.3125 -3.03125 C 5.28125 -3.082031 5.242188 -3.117188 5.203125 -3.140625 C 5.171875 -3.160156 5.144531 -3.195312 5.125 -3.25 C 5.019531 -2.90625 4.84375 -2.71875 4.59375 -2.6875 C 4.519531 -2.414062 4.347656 -2.21875 4.078125 -2.09375 C 4.097656 -1.945312 4.054688 -1.847656 3.953125 -1.796875 C 3.859375 -1.742188 3.785156 -1.671875 3.734375 -1.578125 C 3.710938 -1.523438 3.671875 -1.457031 3.609375 -1.375 C 3.546875 -1.300781 3.523438 -1.265625 3.546875 -1.265625 L 3.359375 -1.015625 C 3.359375 -1.015625 3.289062 -0.894531 3.15625 -0.65625 C 3.019531 -0.414062 2.882812 -0.15625 2.75 0.125 C 2.613281 0.414062 2.507812 0.632812 2.4375 0.78125 C 2.28125 0.976562 2.113281 1.078125 1.9375 1.078125 L 1.828125 1.34375 C 1.804688 1.375 1.785156 1.394531 1.765625 1.40625 C 1.753906 1.414062 1.738281 1.429688 1.71875 1.453125 C 1.59375 1.703125 1.394531 1.789062 1.125 1.71875 Z M 1.125 1.71875 "/></g></g></g><g fill="#d883b7" fill-opacity="1"><g transform="translate(146.855808, 37.738044)"><g><path d="M 11.03125 2.796875 C 11.175781 2.773438 11.304688 2.828125 11.421875 2.953125 C 11.535156 3.078125 11.59375 3.203125 11.59375 3.328125 L 8.53125 4.1875 C 8.425781 4.238281 8.363281 4.265625 8.34375 4.265625 C 8.21875 4.234375 8.125 4.242188 8.0625 4.296875 C 8 4.347656 7.929688 4.4375 7.859375 4.5625 C 7.859375 4.632812 7.832031 4.695312 7.78125 4.75 C 7.851562 4.875 7.898438 5.023438 7.921875 5.203125 L 7.671875 5.265625 C 7.640625 5.367188 7.65625 5.457031 7.71875 5.53125 C 7.78125 5.601562 7.75 5.703125 7.625 5.828125 C 7.78125 6.078125 7.742188 6.253906 7.515625 6.359375 C 7.566406 6.578125 7.476562 6.75 7.25 6.875 C 7.28125 6.90625 7.3125 6.929688 7.34375 6.953125 C 7.382812 6.972656 7.40625 7 7.40625 7.03125 C 7.351562 7.226562 7.332031 7.332031 7.34375 7.34375 C 7.351562 7.351562 7.335938 7.4375 7.296875 7.59375 C 7.316406 7.613281 7.304688 7.691406 7.265625 7.828125 C 7.234375 7.960938 7.226562 8.03125 7.25 8.03125 L 7.21875 8.34375 C 7.238281 8.4375 7.25 8.515625 7.25 8.578125 C 7.25 8.640625 7.1875 8.695312 7.0625 8.75 L 6.875 9.125 C 6.925781 9.144531 6.96875 9.160156 7 9.171875 C 7.039062 9.191406 7.078125 9.222656 7.109375 9.265625 C 7.054688 9.441406 7.007812 9.601562 6.96875 9.75 C 6.9375 9.90625 6.894531 10.054688 6.84375 10.203125 C 6.820312 10.304688 6.800781 10.410156 6.78125 10.515625 C 6.769531 10.628906 6.738281 10.75 6.6875 10.875 C 6.59375 11.082031 6.546875 11.160156 6.546875 11.109375 C 6.597656 11.234375 6.597656 11.367188 6.546875 11.515625 C 6.515625 11.535156 6.472656 11.570312 6.421875 11.625 C 6.378906 11.675781 6.359375 11.738281 6.359375 11.8125 C 6.328125 11.84375 6.289062 11.878906 6.25 11.921875 C 6.21875 11.972656 6.226562 12 6.28125 12 C 6.28125 12.15625 6.253906 12.269531 6.203125 12.34375 L 5.53125 13.796875 C 5.582031 13.867188 5.617188 13.90625 5.640625 13.90625 L 5.390625 14.09375 C 5.410156 14.195312 5.421875 14.320312 5.421875 14.46875 L 5.390625 14.578125 C 5.390625 14.609375 5.394531 14.625 5.40625 14.625 C 5.414062 14.625 5.421875 14.625 5.421875 14.625 C 5.367188 14.644531 5.289062 14.757812 5.1875 14.96875 C 5.09375 15.1875 5.019531 15.367188 4.96875 15.515625 C 4.914062 15.617188 4.835938 15.703125 4.734375 15.765625 C 4.640625 15.828125 4.570312 15.921875 4.53125 16.046875 C 4.476562 16.066406 4.460938 16.144531 4.484375 16.28125 C 4.515625 16.414062 4.425781 16.421875 4.21875 16.296875 C 4.269531 16.398438 4.332031 16.5 4.40625 16.59375 C 4.4375 16.695312 4.398438 16.75 4.296875 16.75 C 4.203125 16.75 4.101562 16.757812 4 16.78125 C 4.101562 16.832031 4.175781 16.882812 4.21875 16.9375 C 4.125 16.957031 4.039062 17.007812 3.96875 17.09375 C 4.039062 17.289062 3.988281 17.40625 3.8125 17.4375 C 3.632812 17.476562 3.523438 17.5625 3.484375 17.6875 L 3.703125 17.828125 C 3.628906 17.929688 3.5625 18.023438 3.5 18.109375 C 3.4375 18.203125 3.378906 18.296875 3.328125 18.390625 C 3.304688 18.390625 3.296875 18.382812 3.296875 18.375 C 3.296875 18.363281 3.296875 18.359375 3.296875 18.359375 C 3.210938 18.429688 3.117188 18.503906 3.015625 18.578125 C 2.921875 18.660156 2.847656 18.722656 2.796875 18.765625 C 2.796875 18.816406 2.8125 18.84375 2.84375 18.84375 L 2.953125 18.84375 C 2.953125 18.863281 2.957031 18.878906 2.96875 18.890625 C 2.976562 18.910156 2.984375 18.921875 2.984375 18.921875 C 2.816406 19.117188 2.640625 19.304688 2.453125 19.484375 C 2.265625 19.660156 2.082031 19.847656 1.90625 20.046875 C 1.90625 20.191406 1.875 20.300781 1.8125 20.375 C 1.75 20.445312 1.671875 20.523438 1.578125 20.609375 C 1.453125 20.734375 1.316406 20.847656 1.171875 20.953125 C 1.035156 21.066406 0.90625 21.1875 0.78125 21.3125 C 0.726562 21.363281 0.703125 21.390625 0.703125 21.390625 C 0.535156 21.460938 0.375 21.566406 0.21875 21.703125 C 0.0703125 21.835938 -0.125 21.90625 -0.375 21.90625 C -0.425781 21.9375 -0.472656 21.988281 -0.515625 22.0625 C -0.566406 22.132812 -0.617188 22.195312 -0.671875 22.25 C -0.773438 22.300781 -0.878906 22.359375 -0.984375 22.421875 C -1.097656 22.484375 -1.207031 22.515625 -1.3125 22.515625 C -1.707031 22.609375 -2.15625 22.65625 -2.65625 22.65625 C -2.832031 22.707031 -2.96875 22.707031 -3.0625 22.65625 C -3.382812 22.5625 -3.675781 22.460938 -3.9375 22.359375 C -4.207031 22.253906 -4.476562 22.128906 -4.75 21.984375 C -5.269531 21.765625 -5.609375 21.425781 -5.765625 20.96875 C -5.785156 20.894531 -5.832031 20.835938 -5.90625 20.796875 C -5.976562 20.765625 -6.039062 20.703125 -6.09375 20.609375 C -6.164062 20.398438 -6.238281 20.203125 -6.3125 20.015625 C -6.394531 19.835938 -6.5 19.625 -6.625 19.375 C -6.644531 19.320312 -6.660156 19.265625 -6.671875 19.203125 C -6.679688 19.140625 -6.703125 19.082031 -6.734375 19.03125 C -6.703125 18.90625 -6.6875 18.789062 -6.6875 18.6875 C -6.6875 18.59375 -6.675781 18.492188 -6.65625 18.390625 C -6.601562 18.046875 -6.554688 17.71875 -6.515625 17.40625 C -6.484375 17.09375 -6.429688 16.785156 -6.359375 16.484375 C -6.304688 16.234375 -6.253906 15.976562 -6.203125 15.71875 C -6.148438 15.457031 -6.078125 15.191406 -5.984375 14.921875 C -5.953125 14.867188 -5.914062 14.816406 -5.875 14.765625 L -5.640625 13.953125 L -5.390625 13.421875 C -5.210938 13.078125 -5.03125 12.75 -4.84375 12.4375 C -4.65625 12.125 -4.472656 11.816406 -4.296875 11.515625 C -4.117188 11.242188 -3.910156 10.957031 -3.671875 10.65625 C -3.441406 10.351562 -3.238281 10.066406 -3.0625 9.796875 L -2.171875 8.859375 C -2.117188 8.804688 -2.023438 8.710938 -1.890625 8.578125 C -1.753906 8.441406 -1.632812 8.335938 -1.53125 8.265625 C -1.4375 8.160156 -1.332031 8.039062 -1.21875 7.90625 C -1.101562 7.769531 -0.957031 7.648438 -0.78125 7.546875 C -0.488281 7.328125 -0.191406 7.109375 0.109375 6.890625 C 0.410156 6.679688 0.722656 6.46875 1.046875 6.25 C 1.566406 5.800781 2.140625 5.453125 2.765625 5.203125 L 4.1875 4.40625 C 4.457031 4.28125 4.734375 4.164062 5.015625 4.0625 C 5.304688 3.96875 5.578125 3.847656 5.828125 3.703125 L 5.984375 3.671875 C 6.378906 3.566406 6.566406 3.316406 6.546875 2.921875 C 6.515625 2.890625 6.5 2.828125 6.5 2.734375 C 6.53125 2.628906 6.550781 2.53125 6.5625 2.4375 C 6.570312 2.351562 6.601562 2.265625 6.65625 2.171875 C 6.601562 1.722656 6.617188 1.40625 6.703125 1.21875 C 6.796875 1.03125 6.84375 0.859375 6.84375 0.703125 L 6.875 0.640625 C 6.925781 0.234375 6.988281 -0.160156 7.0625 -0.546875 C 7.132812 -0.929688 7.210938 -1.296875 7.296875 -1.640625 C 7.265625 -1.617188 7.203125 -1.609375 7.109375 -1.609375 L 6.875 -1.640625 C 6.851562 -1.617188 6.828125 -1.582031 6.796875 -1.53125 C 6.773438 -1.476562 6.738281 -1.441406 6.6875 -1.421875 C 6.5625 -1.273438 6.460938 -1.175781 6.390625 -1.125 C 6.390625 -1.125 6.296875 -1.007812 6.109375 -0.78125 C 5.921875 -0.5625 5.679688 -0.335938 5.390625 -0.109375 L 5.390625 -0.078125 C 5.085938 0.0234375 4.847656 0.125 4.671875 0.21875 C 4.492188 0.320312 4.296875 0.410156 4.078125 0.484375 C 3.972656 0.515625 3.867188 0.539062 3.765625 0.5625 C 3.671875 0.582031 3.550781 0.59375 3.40625 0.59375 C 3.28125 0.625 3.140625 0.640625 2.984375 0.640625 C 2.835938 0.640625 2.703125 0.625 2.578125 0.59375 L 1.640625 0.265625 C 1.597656 0.210938 1.554688 0.15625 1.515625 0.09375 C 1.472656 0.03125 1.429688 -0.0234375 1.390625 -0.078125 C 1.390625 -0.222656 1.3125 -0.320312 1.15625 -0.375 C 1.007812 -0.5 0.921875 -0.644531 0.890625 -0.8125 C 0.867188 -0.988281 0.847656 -1.164062 0.828125 -1.34375 C 0.722656 -1.644531 0.703125 -1.941406 0.765625 -2.234375 C 0.828125 -2.535156 0.910156 -2.828125 1.015625 -3.109375 C 1.054688 -3.234375 1.113281 -3.347656 1.1875 -3.453125 C 1.269531 -3.566406 1.320312 -3.675781 1.34375 -3.78125 C 1.394531 -3.875 1.445312 -3.984375 1.5 -4.109375 C 1.550781 -4.234375 1.625 -4.375 1.71875 -4.53125 C 1.738281 -4.53125 1.75 -4.539062 1.75 -4.5625 C 1.957031 -4.738281 2.113281 -4.960938 2.21875 -5.234375 C 2.332031 -5.503906 2.503906 -5.726562 2.734375 -5.90625 C 2.859375 -5.976562 3.035156 -6.117188 3.265625 -6.328125 C 3.503906 -6.546875 3.675781 -6.664062 3.78125 -6.6875 C 3.976562 -6.769531 4.1875 -6.828125 4.40625 -6.859375 C 4.632812 -6.898438 4.847656 -6.882812 5.046875 -6.8125 C 5.148438 -6.78125 5.265625 -6.769531 5.390625 -6.78125 C 5.515625 -6.800781 5.613281 -6.796875 5.6875 -6.765625 C 5.8125 -6.671875 5.972656 -6.597656 6.171875 -6.546875 C 6.367188 -6.492188 6.519531 -6.429688 6.625 -6.359375 C 6.820312 -6.203125 6.984375 -6.066406 7.109375 -5.953125 C 7.234375 -5.847656 7.367188 -5.695312 7.515625 -5.5 L 7.78125 -5.015625 C 7.90625 -5.109375 8.019531 -5.234375 8.125 -5.390625 C 8.238281 -5.554688 8.347656 -5.664062 8.453125 -5.71875 L 8.90625 -5.609375 C 9.175781 -5.585938 9.472656 -5.523438 9.796875 -5.421875 L 9.6875 -4.71875 C 9.613281 -4.59375 9.554688 -4.445312 9.515625 -4.28125 C 9.472656 -4.113281 9.429688 -3.96875 9.390625 -3.84375 C 9.359375 -3.75 9.328125 -3.648438 9.296875 -3.546875 C 9.273438 -3.453125 9.253906 -3.351562 9.234375 -3.25 C 9.085938 -2.65625 8.96875 -2.070312 8.875 -1.5 C 8.789062 -0.925781 8.6875 -0.351562 8.5625 0.21875 C 8.507812 0.5 8.488281 0.769531 8.5 1.03125 C 8.519531 1.289062 8.46875 1.554688 8.34375 1.828125 C 8.3125 2.003906 8.296875 2.171875 8.296875 2.328125 C 8.296875 2.492188 8.269531 2.648438 8.21875 2.796875 C 8.21875 2.796875 8.222656 2.828125 8.234375 2.890625 C 8.253906 2.953125 8.273438 2.984375 8.296875 2.984375 C 8.546875 2.960938 8.78125 2.929688 9 2.890625 C 9.226562 2.859375 9.46875 2.828125 9.71875 2.796875 C 10.164062 2.753906 10.601562 2.753906 11.03125 2.796875 Z M 6.65625 -3.359375 C 6.78125 -3.335938 6.863281 -3.367188 6.90625 -3.453125 C 6.957031 -3.546875 7 -3.617188 7.03125 -3.671875 C 6.957031 -3.710938 6.894531 -3.765625 6.84375 -3.828125 C 6.789062 -3.890625 6.738281 -3.945312 6.6875 -4 C 6.519531 -4.175781 6.472656 -4.375 6.546875 -4.59375 C 6.566406 -4.71875 6.539062 -4.90625 6.46875 -5.15625 C 6.394531 -5.40625 6.332031 -5.546875 6.28125 -5.578125 C 6.207031 -5.703125 6.09375 -5.765625 5.9375 -5.765625 C 5.664062 -5.734375 5.394531 -5.671875 5.125 -5.578125 C 4.851562 -5.492188 4.613281 -5.34375 4.40625 -5.125 C 4.257812 -5 4.109375 -4.878906 3.953125 -4.765625 C 3.804688 -4.648438 3.671875 -4.53125 3.546875 -4.40625 C 3.523438 -4.382812 3.488281 -4.34375 3.4375 -4.28125 C 3.382812 -4.21875 3.335938 -4.160156 3.296875 -4.109375 L 3.328125 -3.921875 C 3.222656 -3.796875 3.113281 -3.671875 3 -3.546875 C 2.894531 -3.421875 2.789062 -3.285156 2.6875 -3.140625 C 2.59375 -2.910156 2.5 -2.679688 2.40625 -2.453125 C 2.320312 -2.234375 2.226562 -2.023438 2.125 -1.828125 C 2.082031 -1.660156 2.039062 -1.5 2 -1.34375 C 1.957031 -1.195312 1.976562 -1.035156 2.0625 -0.859375 C 2.101562 -0.859375 2.160156 -0.863281 2.234375 -0.875 C 2.316406 -0.882812 2.394531 -0.890625 2.46875 -0.890625 C 2.738281 -0.921875 3 -0.976562 3.25 -1.0625 C 3.5 -1.15625 3.757812 -1.25 4.03125 -1.34375 L 5.078125 -1.9375 L 5.125 -1.9375 C 5.269531 -2.1875 5.484375 -2.375 5.765625 -2.5 C 5.804688 -2.5 5.84375 -2.523438 5.875 -2.578125 C 5.914062 -2.628906 5.953125 -2.664062 5.984375 -2.6875 C 6.054688 -2.8125 6.164062 -2.898438 6.3125 -2.953125 C 6.46875 -3.003906 6.554688 -3.117188 6.578125 -3.296875 C 6.578125 -3.335938 6.601562 -3.359375 6.65625 -3.359375 Z M 5.984375 6.46875 C 6.035156 6.238281 6.078125 6.003906 6.109375 5.765625 C 6.148438 5.535156 6.207031 5.304688 6.28125 5.078125 C 6.132812 5.109375 6 5.160156 5.875 5.234375 C 5.75 5.304688 5.625 5.367188 5.5 5.421875 C 5.019531 5.597656 4.566406 5.785156 4.140625 5.984375 C 3.722656 6.179688 3.300781 6.429688 2.875 6.734375 C 2.625 6.898438 2.347656 7.070312 2.046875 7.25 C 1.753906 7.425781 1.472656 7.613281 1.203125 7.8125 C 0.992188 7.957031 0.769531 8.09375 0.53125 8.21875 C 0.300781 8.34375 0.0703125 8.507812 -0.15625 8.71875 C -0.226562 8.8125 -0.328125 8.90625 -0.453125 9 C -0.578125 9.101562 -0.675781 9.207031 -0.75 9.3125 C -0.84375 9.40625 -0.941406 9.476562 -1.046875 9.53125 C -1.148438 9.582031 -1.238281 9.644531 -1.3125 9.71875 C -1.488281 9.894531 -1.6875 10.132812 -1.90625 10.4375 C -2.03125 10.53125 -2.15625 10.640625 -2.28125 10.765625 C -2.40625 10.890625 -2.53125 11.015625 -2.65625 11.140625 C -2.675781 11.191406 -2.757812 11.3125 -2.90625 11.5 C -3.0625 11.6875 -3.203125 11.878906 -3.328125 12.078125 C -3.453125 12.273438 -3.515625 12.410156 -3.515625 12.484375 L -4.296875 13.640625 C -4.328125 13.640625 -4.40625 13.757812 -4.53125 14 C -4.65625 14.238281 -4.738281 14.421875 -4.78125 14.546875 C -4.90625 14.691406 -4.984375 14.863281 -5.015625 15.0625 C -5.054688 15.21875 -5.085938 15.378906 -5.109375 15.546875 C -5.140625 15.722656 -5.179688 15.875 -5.234375 16 C -5.285156 16.25 -5.347656 16.5 -5.421875 16.75 C -5.492188 17 -5.546875 17.257812 -5.578125 17.53125 C -5.597656 17.882812 -5.59375 18.222656 -5.5625 18.546875 C -5.539062 18.867188 -5.519531 19.207031 -5.5 19.5625 C -5.445312 19.925781 -5.328125 20.234375 -5.140625 20.484375 C -4.953125 20.734375 -4.707031 20.945312 -4.40625 21.125 L -4.21875 21.28125 C -4.125 21.320312 -4.078125 21.34375 -4.078125 21.34375 C -3.804688 21.445312 -3.550781 21.507812 -3.3125 21.53125 C -3.070312 21.5625 -2.84375 21.523438 -2.625 21.421875 C -2.5 21.367188 -2.359375 21.304688 -2.203125 21.234375 C -2.054688 21.160156 -1.929688 21.113281 -1.828125 21.09375 C -1.503906 20.988281 -1.21875 20.84375 -0.96875 20.65625 C -0.71875 20.46875 -0.46875 20.273438 -0.21875 20.078125 C 0.03125 19.878906 0.257812 19.660156 0.46875 19.421875 C 0.675781 19.179688 0.878906 18.953125 1.078125 18.734375 C 1.378906 18.359375 1.640625 17.992188 1.859375 17.640625 C 2.085938 17.296875 2.328125 16.9375 2.578125 16.5625 C 2.847656 16.1875 3.070312 15.804688 3.25 15.421875 C 3.425781 15.035156 3.613281 14.644531 3.8125 14.25 C 3.957031 13.945312 4.082031 13.65625 4.1875 13.375 C 4.289062 13.101562 4.390625 12.820312 4.484375 12.53125 C 4.640625 12.082031 4.789062 11.644531 4.9375 11.21875 C 5.082031 10.789062 5.207031 10.351562 5.3125 9.90625 C 5.40625 9.5625 5.484375 9.210938 5.546875 8.859375 C 5.609375 8.515625 5.679688 8.179688 5.765625 7.859375 C 5.804688 7.679688 5.851562 7.476562 5.90625 7.25 C 5.957031 7.03125 5.984375 6.820312 5.984375 6.625 Z M 5.984375 6.46875 "/></g></g></g></svg>